<svg xmlns="http://www.w3.org/2000/svg" width="58" height="17" fill="none" viewBox="0 0 58 17"><g fill="#FED395" clip-path="url(#clip0_19_2096)"><path d="M19.355 8.507a8.5 8.5 0 0 1 3.779-7.082 8.523 8.523 0 0 1 13.092 5.41 8.499 8.499 0 0 1-2.336 7.68 8.519 8.519 0 0 1-9.274 1.84 8.501 8.501 0 0 1-5.26-7.847Zm16.605 0c0-1.87-.65-3.681-1.837-5.127a8.093 8.093 0 0 0-10.068-2 8.073 8.073 0 0 0-.681 13.848 8.098 8.098 0 0 0 10.216-1.006 8.022 8.022 0 0 0 2.37-5.715Z"/><path d="M58 8.34H13.92v.315H58v-.314Z"/><path d="M10.246 2.397a6.272 6.272 0 0 1 4.334 1.886 6.259 6.259 0 0 1 0 8.748 6.272 6.272 0 0 1-4.334 1.887 6.208 6.208 0 0 1-1.807-.267 6.258 6.258 0 0 0 0-11.992 6.335 6.335 0 0 1 1.807-.262Z"/><path d="m7.71 14.651.67-.2a6.058 6.058 0 0 0 4.311-5.794A6.047 6.047 0 0 0 8.38 2.863l-.67-.203.67-.2a6.484 6.484 0 0 1 7.645 3.294 6.464 6.464 0 0 1-1.92 8.093 6.481 6.481 0 0 1-5.725 1.008l-.67-.204Zm8.583-5.996a6.063 6.063 0 0 0-4.5-5.839 6.08 6.08 0 0 0-2.62-.116 6.479 6.479 0 0 1 3.94 5.955 6.468 6.468 0 0 1-3.94 5.956 6.06 6.06 0 0 0 6.552-3.396 6.042 6.042 0 0 0 .568-2.56ZM1.507 9.891A1.3 1.3 0 0 1 .233 8.338a1.298 1.298 0 0 1 1.774-.944 1.3 1.3 0 0 1-.5 2.497Z"/><path d="M0 8.596a1.508 1.508 0 0 1 1.805-1.484 1.511 1.511 0 0 1 1.1 2.06 1.51 1.51 0 0 1-2.462.488A1.508 1.508 0 0 1 0 8.596Zm2.592 0a1.087 1.087 0 0 0-1.299-1.07 1.089 1.089 0 0 0-.796 1.482 1.088 1.088 0 0 0 2.095-.412ZM7.256 6.84l-1.76 1.757 1.76 1.757 1.76-1.757-1.76-1.758Z"/></g><defs><clipPath id="clip0_19_2096"><path fill="#fff" d="M0 0h58v17H0z"/></clipPath></defs></svg>