<svg xmlns="http://www.w3.org/2000/svg" width="85" height="84" fill="none" viewBox="0 0 85 84"><path fill="#FED395" d="M.001 11.005c.432-.515.795-1.114 1.307-1.53 3.65-2.975 7.328-5.913 11-8.858 1.117-.895 1.82-.816 2.703.302 1.544 1.952 3.08 3.909 4.688 5.951l3.055-1.724c.453-.256.9-.522 1.361-.761 1.228-.637 2.29-.025 2.321 1.356.026 1.177.005 2.354.008 3.533 0 .186.022.372.037.605h31.19V6.724c0-.356-.015-.713.004-1.068.071-1.276 1.121-1.905 2.252-1.307 1.256.665 2.48 1.39 3.72 2.089.234.131.474.253.774.414.979-1.239 1.942-2.455 2.905-3.677.627-.795 1.24-1.601 1.878-2.388.745-.923 1.494-1.042 2.406-.314a2755.31 2755.31 0 0 1 11.652 9.359c.754.609.958 1.397.74 2.353-1.811 7.97-3.605 15.943-5.403 23.917-.07.316-.128.635-.206 1.019h3.832c.273 0 .552-.015.82.026.619.097.99.49 1.04 1.1.05.61-.255 1.07-.864 1.229-.337.089-.703.097-1.055.097-26.749.003-53.498.002-80.245.013-.782 0-1.467-.1-1.918-.815v-.82c.394-.654.971-.868 1.727-.844 1.308.043 2.62.012 3.975.012-.056-.328-.087-.596-.147-.858C4.22 30.35 2.882 24.435 1.536 18.524 1.036 16.344.513 14.17 0 11.991v-.986Zm23.372 26.061H60.62V12.45H23.37c0 .991.016 1.918-.005 2.845-.02.864-.48 1.372-1.192 1.382-.708.01-1.2-.492-1.246-1.346-.04-.71-.013-1.422-.013-2.135 0-2.617.345-3.01 2.916-3.317.025-.003.05-.02.103-.042V7.349c-.333.172-.598.295-.852.438-3.143 1.773-6.27 3.58-9.44 5.302-.743.403-.87.853-.794 1.616.617 6.18 1.195 12.362 1.787 18.544.122 1.27.257 2.541.387 3.827h5.891v-.997c0-5.01-.003-10.02.003-15.028 0-1.039.46-1.627 1.218-1.643.76-.017 1.219.578 1.237 1.603.003.191 0 .384 0 .575V37.066h.003Zm52.487.01c1.882-8.327 3.748-16.616 5.64-24.9.12-.526-.132-.74-.465-1.005C78.426 9.09 75.824 7 73.22 4.912l-2.533-2.034L66.59 8.1c2.01 1.136 3.903 2.229 5.82 3.277 1.034.565 1.524 1.365 1.366 2.547-.04.298-.044.6-.072.9-.255 2.668-.509 5.336-.767 8.004-.096.993-.183 1.985-.28 2.978a76.86 76.86 0 0 1-.359 3.142 1.12 1.12 0 0 1-.18.438c-.183.278-.47.533-.728.634-.315.122-.919-.124-1.197-.402-.232-.235-.272-.762-.237-1.146a1280.1 1280.1 0 0 1 1.305-13.724c.08-.783-.036-1.256-.823-1.68-3.177-1.712-6.297-3.524-9.44-5.299-.25-.141-.508-.265-.808-.421v2.517c2.571.3 2.928.707 2.928 3.268v23.941h5.984c.095-1.014.163-1.991.284-2.962.114-.912.63-1.376 1.37-1.307.739.069 1.118.602 1.062 1.557a48.107 48.107 0 0 1-.075 1.027c-.044.553-.097 1.113-.143 1.692h4.262l-.002-.005Zm-62.434-34.2C9.97 5.648 6.61 8.366 3.216 11.043c-.556.44-.678.828-.52 1.513 1.318 5.698 2.594 11.406 3.883 17.111.558 2.471 1.12 4.942 1.675 7.388h4.21c0-.338.024-.613-.002-.883-.687-7.161-1.371-14.325-2.073-21.486-.212-2.168-.042-2.534 1.869-3.612 1.731-.977 3.46-1.955 5.27-2.979l-4.102-5.218v-.001ZM.002 71.298c.487-.837.818-1.847 1.502-2.466.812-.732 1.928-1.126 2.912-1.666l.129.201c.069-.563.087-1.137.214-1.685.375-1.63 1.341-2.817 2.901-3.414.61-.232.76-.527.731-1.126-.11-2.183.683-3.918 2.69-4.938.571-.291 1.23-.408 1.858-.607.36-3.546 2.306-5.628 5.12-5.459 2.87.172 4.758 2.36 4.702 5.34 1.1.533 2.16 1.05 3.155 1.532l3.364-1.555c-.167-2.872 1.908-5.252 4.932-5.313 2.823-.058 4.61 1.98 4.931 5.496.566.187 1.16.322 1.692.583.507.248.95.627 1.284.855l3.51-1.636c.39-3.415 2.184-5.385 4.993-5.308 2.84.077 4.553 2.033 4.823 5.498.573.189 1.169.322 1.702.582.509.247.953.627 1.304.864l3.522-1.649c-.046-1.43.382-2.903 1.66-4.04.942-.84 2.058-1.26 3.3-1.247 2.842.03 4.628 2.063 4.876 5.524.323.084.667.155 1 .262 2.093.676 3.354 2.465 3.333 4.916-.007.838.19 1.274.999 1.656 1.756.828 2.452 2.288 2.576 4.86.556.182 1.157.295 1.677.562 1.695.87 2.662 2.285 2.693 4.196.054 3.284.026 6.569.015 9.854-.004.851-.484 1.367-1.199 1.381-.747.015-1.247-.515-1.252-1.41-.013-3.093-.003-6.186-.007-9.28-.001-1.883-.882-2.785-2.747-2.792a1016.9 1016.9 0 0 0-8.376 0c-1.84.008-2.723.89-2.73 2.72-.01 2.957 0 5.913-.006 8.87 0 .299-.013.602-.067.897-.12.661-.545 1.004-1.209.984-.663-.02-1.061-.392-1.147-1.057-.034-.27-.031-.546-.031-.82-.002-2.901.003-5.803-.003-8.704-.004-2.03-.873-2.888-2.914-2.892-2.71-.003-5.42-.005-8.13 0-1.97.005-2.847.89-2.849 2.871-.003 2.928 0 5.858-.001 8.786 0 .273.016.553-.033.818-.104.572-.451.929-1.044.99-.622.064-1.078-.198-1.264-.8-.094-.307-.113-.646-.113-.97-.008-3.01 0-6.023-.007-9.033-.005-1.732-.894-2.648-2.62-2.66-2.874-.02-5.748-.02-8.622 0-1.562.01-2.349.72-2.594 2.273-.115.726-.44 1.246-1.24 1.286-.663.032-1.1-.44-1.23-1.268-.233-1.516-1.067-2.283-2.598-2.294a547.8 547.8 0 0 0-8.704 0c-1.651.014-2.57.961-2.581 2.641-.02 2.985-.005 5.967-.008 8.951 0 .302.006.606-.045.9-.105.625-.507.962-1.13.982-.623.02-1.055-.282-1.192-.902a4.599 4.599 0 0 1-.086-.976c-.006-2.928 0-5.858-.005-8.787-.005-1.935-.874-2.808-2.808-2.813-2.765-.006-5.529-.01-8.294 0-1.865.007-2.75.912-2.752 2.79-.003 2.984-.007 5.967.003 8.951.002.687-.04 1.352-.775 1.658-.73.303-1.231-.137-1.692-.626V71.3l.002-.001Zm63.39-4.114c1.205.611 2.232 1.131 3.262 1.651.443-.291.935-.7 1.496-.96.558-.256 1.186-.363 1.801-.543-.1-2.23.713-4.027 2.792-4.93.928-.404 1.025-.918.98-1.724-.083-1.488-.924-2.5-2.27-2.515a492.518 492.518 0 0 0-9.353-.004c-1.121.01-1.977.753-2.194 1.852-.094.477-.043.98-.096 1.467-.046.43.152.61.529.772 1.995.849 2.95 2.416 3.05 4.548.008.187 0 .375 0 .385l.003.001Zm-45.61 1.602a4.871 4.871 0 0 1 2.883-1.34c.116-.011.287-.303.288-.466.02-2.373 1.131-3.98 3.329-4.857.154-.063.347-.194.395-.337.63-1.874-.618-3.63-2.581-3.636-2.598-.01-5.198.08-7.79-.025-2.78-.114-3.653 1.03-3.462 3.557.008.108.02.215.031.339 2.318.894 3.549 2.538 3.514 5.065-.001.135.155.34.287.398.976.43 1.965.83 3.106 1.304v-.002Zm19.482-1.625c.16-2.464.9-3.988 2.755-4.722 1.02-.403 1.091-.99 1.044-1.848-.085-1.498-1.008-2.435-2.517-2.441-2.981-.014-5.962-.015-8.941 0-1.36.006-2.255.834-2.415 2.184-.038.324-.002.656-.038.982-.054.5.112.76.616.97 1.508.629 2.465 1.78 2.81 3.387.123.575.146 1.172.189 1.528 1.172.59 2.199 1.11 3.083 1.555l3.413-1.596v.001Zm12.925 1.584c.91-.404 1.818-.892 2.782-1.2.487-.155.626-.278.647-.792.087-2.131 1.088-3.705 3.096-4.511.538-.216.72-.481.654-1.014-.033-.27 0-.549-.017-.82-.072-1.282-.983-2.234-2.26-2.247a512.62 512.62 0 0 0-9.28-.002c-1.315.012-2.232.981-2.288 2.306-.011.274.018.55-.011.822-.056.522.102.79.64 1.029 1.77.788 2.734 2.202 2.867 4.154.022.318.033.635.038.73 1.164.575 2.174 1.074 3.133 1.546v-.001Zm-18.275-13.11h4.59c.26-1.103-.042-1.974-.86-2.57-.818-.596-1.849-.637-2.698-.105-.902.563-1.26 1.465-1.03 2.675h-.002Zm-11.757.049c.298-1.167-.068-2.133-.971-2.71a2.381 2.381 0 0 0-2.766.122c-.813.62-1.116 1.577-.786 2.553.121.012.255.033.388.035 1.366.003 2.732 0 4.135 0Zm32.687-.028c.233-1.28-.151-2.2-1.094-2.739-.897-.514-1.956-.418-2.754.248-.764.638-1.019 1.551-.685 2.49h4.533Zm16.274.005c.35-.952.058-1.918-.755-2.553a2.37 2.37 0 0 0-2.895-.05c-.87.636-1.176 1.577-.83 2.603h4.482-.002ZM56.204 67.4c1.44 0 2.8.025 4.156-.026.196-.009.533-.37.542-.58.037-.977-.425-1.725-1.288-2.194-.824-.447-1.97-.322-2.678.306-.725.646-1.032 1.439-.734 2.494h.002Zm-32.668 0c1.43 0 2.818.023 4.202-.028.181-.007.486-.388.496-.609.044-.953-.407-1.69-1.243-2.132-.894-.47-1.804-.416-2.614.2-.81.615-1.108 1.448-.841 2.567v.002Zm53.61-.038c.184-1.307-.168-2.143-1.073-2.688a2.476 2.476 0 0 0-2.693.14c-.813.61-1.096 1.478-.81 2.548h4.576Zm-65.343.04c.272-1.077 0-1.89-.757-2.515-.76-.63-1.64-.721-2.531-.331-.9.395-1.368 1.132-1.434 2.112-.028.408.015.752.588.742 1.358-.025 2.717-.008 4.133-.008h.001ZM44.47 67.4c.25-1.07.003-1.91-.8-2.541-.803-.632-1.712-.702-2.61-.247-.87.44-1.337 1.196-1.286 2.186.01.207.283.57.444.576 1.407.046 2.816.026 4.252.026ZM.001 47.475c.425-.683 1.062-.827 1.828-.827 26.804.012 53.608.01 80.413.01.218 0 .44-.011.656.014.715.082 1.207.59 1.205 1.226 0 .642-.495 1.139-1.213 1.211-.19.02-.383.01-.574.01-26.832 0-53.663 0-80.494.01-.765 0-1.406-.132-1.817-.835v-.82H0Z"/><path fill="#FED395" d="M32.678 79.838c0-.738-.012-1.477.003-2.214.015-.726.364-1.195 1.114-1.273.703-.072 1.28.382 1.305 1.162a69.096 69.096 0 0 1-.001 4.672c-.025.739-.576 1.18-1.233 1.165-.693-.015-1.139-.504-1.188-1.299-.004-.054-.004-.108-.004-.164v-2.051h.004v.002ZM72.476 27.52l-.729 7.793-2.485-.058.811-8.105 2.403.37ZM20.916 22.724l-.002-9.347 2.46.084v9.175l-2.458.088Z"/><path fill="#FED395" d="M32.411 71.228h2.974l-.256 7.337-2.454.136-.264-7.472Z"/></svg>