<svg xmlns="http://www.w3.org/2000/svg" width="100" height="88" fill="none" viewBox="0 0 100 88"><g stroke="#FED395" stroke-miterlimit="10" stroke-width="2" clip-path="url(#clip0_19_2127)"><path d="m50.42 58.352 48.998 5.894V10.148S66.996-3.397 50.42 1.458"/><path d="M50.42 60.077s39.99 9.02 44.315 14.917V16.72S70.595.069 50.42 1.457"/><path d="M50.42 67.383s39.99 10.758 42.873 14.208v-61.4S67.354 2.5 50.42 6.66M94.735 75.002l-1.442 6.589"/><path d="m50.42 71.532 44.315 15.957s4.334 1.039 4.683-3.463c.35-4.501 0-76.313 0-76.313s.359-3.126-2.162-4.165C94.735 2.508 50.42 6.67 50.42 6.67M49.576 58.352.582 64.246V10.148s32.422-13.545 48.994-8.69"/><path d="M49.576 60.077s-39.99 9.027-44.31 14.925V16.72S29.403.069 49.575 1.457"/><path d="M49.577 67.383S9.587 78.141 6.707 81.591v-61.4S32.647 2.5 49.577 6.66M5.265 75.002l1.442 6.589"/><path d="M49.576 71.532 5.266 87.489S.94 88.528.581 84.026c-.358-4.502 0-76.313 0-76.313S.224 4.579 2.745 3.54C5.265 2.5 49.576 6.66 49.576 6.66"/></g><defs><clipPath id="clip0_19_2127"><path fill="#fff" d="M0 0h100v88H0z"/></clipPath></defs></svg>