<svg xmlns="http://www.w3.org/2000/svg" width="703" height="355" fill="none" viewBox="0 0 703 355"><rect width="702" height="324.806" x=".5" fill="#080F24" rx="20.955"/><path fill="#080F24" d="M97.494 324.806h507.008v30H97.494z"/><path fill="#fff" d="M144.689 328.452c.115 1.143.172 2.591.172 4.345 0 1.715-.343 3.83-1.029 6.346-.686 2.477-1.925 4.669-3.717 6.575-3.659 3.925-8.69 5.888-15.093 5.888-7.775 0-13.912-1.905-18.409-5.717-4.498-3.849-6.747-8.862-6.747-15.036 0-6.213 2.268-11.244 6.804-15.094 4.573-3.849 10.596-5.774 18.066-5.774 2.859 0 5.584.286 8.176.858 2.592.571 4.745 1.315 6.46 2.229l.115 9.834h-.458c-.648-2.439-1.734-4.479-3.259-6.118-2.744-2.934-6.441-4.402-11.091-4.402-4.65 0-8.404 1.658-11.263 4.974-2.82 3.316-4.231 7.718-4.231 13.207 0 5.45 1.468 9.891 4.403 13.321 2.973 3.43 7.051 5.203 12.234 5.317 5.603 0 10.063-1.791 13.379-5.374 3.316-3.583 4.974-8.442 4.974-14.579v-.8h.514Zm26.697-18.467c7.052 0 12.655 1.868 16.809 5.603 4.155 3.735 6.232 8.804 6.232 15.208 0 6.403-2.077 11.472-6.232 15.207-4.154 3.736-9.757 5.603-16.809 5.603-7.051 0-12.654-1.867-16.808-5.603-4.155-3.735-6.232-8.804-6.232-15.207 0-4.231.934-7.909 2.801-11.035 1.906-3.163 4.593-5.583 8.062-7.26 3.468-1.678 7.527-2.516 12.177-2.516Zm-10.005 34.303c2.478 3.278 5.813 4.917 10.005 4.917 4.193 0 7.509-1.639 9.948-4.917 2.478-3.316 3.717-7.813 3.717-13.492 0-3.736-.553-6.994-1.658-9.777-1.106-2.782-2.687-4.917-4.746-6.403-2.058-1.487-4.478-2.23-7.261-2.23-4.192 0-7.527 1.658-10.005 4.974-2.439 3.278-3.659 7.757-3.659 13.436s1.22 10.176 3.659 13.492Zm88.738 5.946h.915v.572h-17.152v-.515h.858c.648 0 1.201-.247 1.658-.743.457-.533.648-1.105.572-1.715l-2.23-20.754-10.748 18.524c-1.411 2.363-2.135 4.479-2.173 6.346h-.572l-14.693-24.698-2.23 20.582c-.076.61.115 1.182.572 1.715.458.496 1.01.743 1.658.743h.858v.515h-11.949v-.572h.914c1.068 0 1.982-.324 2.745-.972.8-.648 1.277-1.524 1.429-2.63l4.745-36.647h.515l17.723 29.158 17.038-29.158h.514l4.86 36.647c.19 1.106.667 1.982 1.429 2.63a4.24 4.24 0 0 0 2.744.972Zm35.168-23.04c-1.295 2.973-3.697 5.031-7.203 6.174-1.029.343-1.982.515-2.859.515-2.706 0-5.126-.705-7.261-2.115v-.572c2.859.076 5.165-.858 6.918-2.802 1.563-1.677 2.344-3.868 2.344-6.574 0-4.155-1.448-6.842-4.345-8.062-.915-.381-1.925-.571-3.03-.571h-3.831v33.445c0 .991.363 1.849 1.087 2.573a3.613 3.613 0 0 0 2.572 1.029h.744v.572h-17.381v-.572h.744c.991 0 1.829-.343 2.515-1.029.724-.724 1.105-1.582 1.144-2.573v-31.959c-.153-1.296-.801-2.249-1.944-2.859a3.413 3.413 0 0 0-1.715-.457h-.744v-.572h19.096c6.899 0 11.32 2.192 13.264 6.575.61 1.449.915 3.068.915 4.86 0 1.753-.343 3.411-1.03 4.974Zm5.679 23.04c.991 0 1.829-.343 2.515-1.029.725-.724 1.106-1.582 1.144-2.573v-31.845c-.114-1.334-.743-2.325-1.887-2.973a3.73 3.73 0 0 0-1.772-.457h-.743v-.572h21.897c1.181 0 2.477-.114 3.887-.343 1.411-.228 2.402-.457 2.973-.686v10.005h-.571v-.686c0-1.715-.515-3.087-1.544-4.116-.991-1.067-2.344-1.639-4.059-1.715h-9.605v16.637h7.546c1.411-.038 2.573-.515 3.488-1.429.915-.953 1.372-2.116 1.372-3.488v-.514h.572v13.206h-.572v-.457c0-1.906-.762-3.316-2.287-4.231a5.633 5.633 0 0 0-2.515-.686h-7.604v16.066h7.489c2.783 0 5.108-.801 6.975-2.402 1.906-1.6 3.316-3.868 4.231-6.803h.572l-2.63 11.663h-29.615v-.572h.743Zm56.306-37.105v33.561c.039.991.401 1.829 1.087 2.515a3.615 3.615 0 0 0 2.572 1.029h.687l.057.572h-17.381v-.572h.744c.952 0 1.772-.343 2.458-1.029.724-.686 1.124-1.505 1.201-2.458v-33.618h-7.719c-1.753.039-3.144.591-4.173 1.658-1.029 1.068-1.544 2.459-1.544 4.174v.686h-.572v-9.948c.534.229 1.487.457 2.859.686 1.41.229 2.706.343 3.888.343h23.04c1.868-.038 3.392-.19 4.574-.457s1.906-.458 2.172-.572v9.948h-.571v-.686c0-1.715-.515-3.106-1.544-4.174-1.029-1.067-2.42-1.619-4.173-1.658h-7.662Zm17.839 37.105c.991 0 1.83-.343 2.516-1.029.724-.724 1.105-1.582 1.143-2.573v-31.73a3.532 3.532 0 0 0-1.143-2.516c-.686-.686-1.525-1.029-2.516-1.029h-.743v-.572h17.38l-.057.572h-.686c-.991 0-1.849.343-2.573 1.029-.724.686-1.086 1.525-1.086 2.516v31.73c0 .991.362 1.849 1.086 2.573a3.615 3.615 0 0 0 2.573 1.029h.686l.057.572h-17.38v-.572h.743Zm42.293-37.105v33.561c.038.991.4 1.829 1.086 2.515a3.615 3.615 0 0 0 2.573 1.029h.686l.057.572h-17.38v-.572h.743c.953 0 1.772-.343 2.458-1.029.725-.686 1.125-1.505 1.201-2.458v-33.618h-7.718c-1.754.039-3.145.591-4.174 1.658-1.029 1.068-1.543 2.459-1.543 4.174v.686h-.572v-9.948c.533.229 1.486.457 2.858.686 1.411.229 2.707.343 3.888.343h23.041c1.867-.038 3.392-.19 4.573-.457 1.182-.267 1.906-.458 2.173-.572v9.948h-.572v-.686c0-1.715-.514-3.106-1.543-4.174-1.03-1.067-2.421-1.619-4.174-1.658h-7.661Zm17.838 37.105c.991 0 1.83-.343 2.516-1.029.724-.724 1.105-1.582 1.143-2.573v-31.73a3.532 3.532 0 0 0-1.143-2.516c-.686-.686-1.525-1.029-2.516-1.029h-.743v-.572h17.381l-.058.572h-.686c-.991 0-1.848.343-2.572 1.029-.725.686-1.087 1.525-1.087 2.516v31.73c0 .991.362 1.849 1.087 2.573a3.613 3.613 0 0 0 2.572 1.029h.686l.058.572h-17.381v-.572h.743Zm42.781-40.249c7.052 0 12.655 1.868 16.809 5.603 4.155 3.735 6.232 8.804 6.232 15.208 0 6.403-2.077 11.472-6.232 15.207-4.154 3.736-9.757 5.603-16.809 5.603-7.051 0-12.654-1.867-16.808-5.603-4.155-3.735-6.232-8.804-6.232-15.207 0-4.231.934-7.909 2.801-11.035 1.906-3.163 4.593-5.583 8.062-7.26 3.468-1.678 7.527-2.516 12.177-2.516Zm-10.005 34.303c2.478 3.278 5.813 4.917 10.005 4.917 4.193 0 7.509-1.639 9.948-4.917 2.478-3.316 3.717-7.813 3.717-13.492 0-3.736-.553-6.994-1.658-9.777-1.106-2.782-2.688-4.917-4.746-6.403-2.058-1.487-4.478-2.23-7.261-2.23-4.192 0-7.527 1.658-10.005 4.974-2.439 3.278-3.659 7.757-3.659 13.436s1.22 10.176 3.659 13.492Zm81.306-32.931c-.953 0-1.772.343-2.459 1.029-.686.648-1.048 1.449-1.086 2.401v29.501c0 2.554.172 4.708.515 6.461l.171.857h-.514l-28.872-27.499v22.697c0 .953.343 1.772 1.029 2.458a3.455 3.455 0 0 0 2.458.972h1.087v.572h-17.324v-.572h1.029c.991 0 1.83-.324 2.516-.972.686-.686 1.029-1.524 1.029-2.515v-29.673c0-2.515-.171-4.612-.514-6.289l-.115-.857h.515l28.872 27.5v-22.583c-.038-.991-.4-1.811-1.087-2.459-.686-.686-1.505-1.029-2.458-1.029h-1.029v-.572h17.323v.572h-1.086Zm5.616 34.132c0-2.744.591-5.088 1.773-7.032h.514c-.038.305-.057.61-.057.915 0 2.629.934 4.935 2.801 6.917 1.906 1.944 4.498 2.916 7.776 2.916 2.553 0 4.535-.61 5.946-1.829 1.448-1.22 2.172-2.764 2.172-4.631 0-2.249-1.524-4.212-4.574-5.889l-9.948-6.575c-1.981-1.143-3.411-2.515-4.287-4.116-.839-1.639-1.258-3.297-1.258-4.974 0-3.583 1.124-6.346 3.373-8.29 2.287-1.944 5.203-2.916 8.747-2.916 2.097 0 4.688.191 7.776.572h3.602l-.744 8.404h-.571c0-1.982-.744-3.564-2.23-4.745-1.448-1.22-3.392-1.83-5.832-1.83-2.973 0-5.126.915-6.46 2.744a4.7 4.7 0 0 0-1.029 2.973c0 1.83 1.334 3.526 4.002 5.089l10.92 7.089c3.43 1.982 5.145 4.898 5.145 8.747 0 4.079-1.391 7.204-4.173 9.377-2.745 2.134-6.404 3.201-10.977 3.201-2.592 0-4.993-.305-7.204-.914-2.173-.648-3.774-1.506-4.803-2.573-.266-.724-.4-1.601-.4-2.63Z"/><g fill="#FED395" clip-path="url(#clip0_529_2812)"><path d="M45.739 195.57a54.463 54.463 0 0 1-1.152-1.114V121.44h1.25v74.05l-.091.08h-.007Z"/><path d="M44.59 210.428v-43.71c.411-.059.829-.097 1.246-.118v43.828h-1.245ZM52.22 283.653v-33.205l.194.128c.367.256.716.538 1.044.843v32.234H52.22Z"/><path d="M52.22 283.653v-32.924c.435.356.852.734 1.249 1.131v31.793h-1.25Z"/><path d="M53.465 43.798h-1.25v239.855h1.25V43.798ZM653.051 43.937h-1.249v239.855h1.249V43.937ZM659.5 117.458h-1.249v94.282h1.249v-94.282ZM127.992 281.283a5.282 5.282 0 0 1 1.013-1.249h522.678v1.249H127.992Z"/><path d="M47.966 281.279v-1.245h419.801l5.457.177c2.127.07 4.249.153 6.376.184l24.174.348c5.718.084 11.443-.093 17.161-.18l11.322-.174c1.667-.028 3.334-.147 5.001-.237l2.196-.122h91.532l-7.97 1.246-575.05.003ZM654.074 46.718H50.357v1.25h603.717v-1.25ZM611.423 30.84H91.446v1.25h519.977v-1.25ZM96.941 295.928v-.003h-2.474v-1.246h519.981v1.249H96.941Z"/><path d="M90.764 295.413c-.17-2.784-.435-5.53-.832-8.276-1.142-7.942-2.558-15.87-4.681-23.614-3.31-11.001-7.33-22.121-14.46-31.267-4.369-5.711-9.826-10.417-15.53-14.722-3.526-2.669-7.28-5.043-10.761-7.736 1.615.428 3.365 1.482 4.852 2.474a236.09 236.09 0 0 1 5.944 3.982c5.868 4.155 11.426 8.843 15.943 14.464 4.97 6.073 8.502 13.159 11.287 20.46a111.373 111.373 0 0 1 5.972 20.833 189.024 189.024 0 0 1 2.767 19.89c.108 2.088.417 4.211 0 6.265-.255-.9-.422-1.822-.501-2.753Z"/><path d="M92.288 295.489a7.872 7.872 0 0 0-1.152-.191c.024.021 0 .024 0 0v-.042c.176-.079.358-.146.543-.202 1.159-.421 2.415-.1 3.519.265a9.283 9.283 0 0 1-1.956.264c-.32.006-.64-.025-.954-.094Z"/><path d="M94.028 295.336a19.64 19.64 0 0 1-2.784-.389l.06.024s-.102 0-.123-.045c-.02-.046.066-.025.112-.025h.062c1.582-.093 3.17.036 4.716.383-.487.045-1.016.056-1.538.056l-.505-.004Z"/><path d="M91.052 294.776c1.81-.007 3.619.125 5.409.397a48.437 48.437 0 0 1-5.409-.397Z"/><path d="M95.177 295.002c-1.368-.042-2.743-.184-4.097-.32a2.31 2.31 0 0 1 .39-.024.051.051 0 0 0 0 .024v-.021h.62c1.422.031 2.84.148 4.249.348-.386.007-.773.004-1.162-.007Z"/><path d="M95.027 294.94a22.596 22.596 0 0 1-3.306-.268h.835c1.181.03 2.36.119 3.532.268h-.348c-.24.014-.494 0-.713 0Z"/><path d="M90.92 294.86c.025-.063.195-.063.261-.077.696-.07 1.392-.104 2.088-.111h.435c.766 0 1.528.048 2.27.118-.92.059-1.848.049-2.785.042-.762 0-1.52 0-2.269.021v.007ZM94.867 295.925a26.25 26.25 0 0 1-3.648-.369c1.542.041 3.08.164 4.609.369h-.961Z"/><path d="M92.243 295.674a12.33 12.33 0 0 0-1.246 0c1.336-.247 3.163-.164 4.611-.105-.88.07-1.764.119-2.648.119-.227-.004-.463-.007-.717-.014Z"/><path d="M95.57 295.441c-1.08.101-2.166.14-3.25.118h-1.33c1.434-.264 3.08-.146 4.58-.118Z"/><path d="M92.539 295.705a9.996 9.996 0 0 1-1.556-.101c1.775-.038 3.55-.174 5.325-.174a26.34 26.34 0 0 1-3.658.275h-.111Z"/><path d="M91.17 295.667c1.609-.052 3.3-.056 4.929.056-.759.066-1.598.073-2.384.08-.85 0-1.7-.045-2.544-.136Z"/><path d="M95.967 295.709c-1.674.142-3.432.094-5.075.129a24.457 24.457 0 0 1 5.075-.129Z"/><path d="M94.049 295.761c-1.013 0-2.036-.167-3.042-.219 1.84-.047 3.68.032 5.51.236-.286 0-.578.018-.877.018a34.943 34.943 0 0 1-1.591-.035Z"/><path d="M92.56 295.57c-.189-.039-1.306-.042-1.045-.38a.83.83 0 0 1 .415 0c.08.013.161.021.243.025.335.011.666.073.982.184.146.226-.296.143-.408.129a.275.275 0 0 1-.16.045l-.028-.003Z"/><path d="M91.37 295.368c-.297 0-.349-.442-.147-.595.111-.122.348-.053.501-.094h.498c.198.027.348.121.31.348a.255.255 0 0 1-.209.17 3.741 3.741 0 0 1-.933.164l-.02.007Z"/><path d="M91.244 295.653c-.16-.038-.105-.247.052-.244a.074.074 0 0 1 0-.08c.174-.16.404-.268.588-.417a6.905 6.905 0 0 0-.456-.073s.06 0 .05.024c-.328-.08.347-.035.413-.024.313.045-.296.389-.372.48.163 0 .327-.031.49-.056a.09.09 0 0 1 .033.004c.01.003.02.009.029.016a.09.09 0 0 1 .02.025c.005.01.008.021.01.032.097.108-.04.195-.144.202a2.573 2.573 0 0 0-.431.101h.017a2.273 2.273 0 0 1-.247.028l-.052-.018ZM91.37 295.761s-.022 0 0 0c.136-.016.273-.016.41 0a.4.4 0 0 1-.15.021c-.083-.021-.188-.021-.26-.021Z"/><path d="M91.14 295.761c0-.143.26-.094.347-.136a.592.592 0 0 0 .192-.028c.125-.027.26-.059.303.025.041.083-.272.097-.348.125a.625.625 0 0 0-.192.035c-.064.016-.129.026-.195.031-.048.007-.087-.003-.108-.052Z"/><path d="M96.941 295.925h-5.47v-.902c.368-.07.741-.113 1.116-.129.436-.032.873-.04 1.309-.024.44.031.875.095 1.305.191l.519.119c.445 0 .887.042 1.329.066h.083v.675l-.19.004ZM48.116 119.891c1.942-1.176 3.856-2.398 5.676-3.752a64.52 64.52 0 0 0 11.242-10.538c8.558-10.013 14.443-21.999 19.1-34.243 2.662-7.284 4.079-14.965 5.377-22.58.529-3.212.89-6.45 1.086-9.7.188-2.436 0-4.907.167-7.353 0 0 0 .048-.018.027a.865.865 0 0 0 .021-.313.07.07 0 0 1 .047-.061.069.069 0 0 1 .075.02c.153.22.27.463.348.72.606 1.674.428 3.501.49 5.248 0 5.917-.95 11.757-1.99 17.551a115.95 115.95 0 0 1-3.383 14.144 127.322 127.322 0 0 1-5.896 14.496c-4.186 9.059-9.445 17.655-16.207 25.034a65.014 65.014 0 0 1-11.193 9.786c-1.59 1.117-3.264 2.109-4.914 3.132a7.382 7.382 0 0 1-3.31 1.18 10.325 10.325 0 0 1 3.282-2.798ZM658.084 118.694h-.453c-8.095-.592-16.009-6.404-21.449-12.153-7.02-7.539-12.345-16.525-15.908-26.169-2.893-7.395-5.148-15.07-6.355-22.928-.857-5.325-1.612-10.678-1.654-16.075-.048-1.807-.066-3.617-.17-5.423-.146-1.44-.157-2.958.418-4.294.514 1.454.794 2.981.828 4.524.237 3.48.285 6.988.553 10.458.348 4.076 1.009 8.075 1.636 12.105 1.284 7.52 3.515 14.784 6.31 21.863 4.006 10.566 10.19 20.443 18.445 28.208 3.408 2.979 7.166 5.662 11.329 7.475 2.387 1.079 5.022 1.441 7.451 2.384-.031-.031 0-.017 0 0a3.08 3.08 0 0 1-.606.049l-.375-.024Z"/><path d="M612.499 33.21a3.91 3.91 0 0 1-.735-1.409c-.174 0-.348.039-.511.039.201-.22.348-.526.588-.697 1.044-.243.919 1.452.665 2.057l-.007.01ZM613.939 296.513c-1.468-3.481-1.573-7.344-1.91-11.05a103.476 103.476 0 0 1 .908-22.514 100.798 100.798 0 0 1 4.566-15.592c2.889-6.773 6.613-13.225 11.29-18.919 2.116-2.603 4.382-5.085 6.714-7.49 1.942-1.99 3.95-3.95 6.313-5.436 3.345-2.046 6.808-4.141 10.66-5.029 2.214-.431 4.549-1.044 6.769-.431-2.22 1.493-5.102 1.284-7.548 2.06-3.937 1.309-7.598 3.445-10.956 5.861-2.931 2.38-5.478 5.22-8.005 8.004a72.866 72.866 0 0 0-10.093 14.078c-4.093 7.079-6.56 14.966-8.328 22.904-1.789 11.085-1.57 22.434-.348 33.554.028-.021.021 0 0 0h-.032Z"/><path d="M637.953 252.104c-3.703-5.137 4.306-10.357 7.657-5.189 1.97 3.539-1.02 6.981-4.176 6.981a4.355 4.355 0 0 1-3.481-1.792ZM607.762 258.049a.823.823 0 0 1 .414-.046.523.523 0 0 0-.125 0 .728.728 0 0 0-.289.046Zm-1.253 2.913c-3.132-1.393-1.211-6.119 2.008-4.943 2.837 1.128 1.483 5.127-1.044 5.13a2.658 2.658 0 0 1-.964-.191v.004ZM560.52 258.174c.129-.172.306-.302.508-.373a.965.965 0 0 0-.508.373Zm1.358 2.436a1.74 1.74 0 0 0 .95-.557 1.927 1.927 0 0 1-.95.557Zm-2.868.202c-2.346-3.105 2.488-6.383 4.524-3.132 1.184 2.088-.581 4.148-2.46 4.148a2.63 2.63 0 0 1-2.064-1.013v-.003ZM516.028 253.392c-2.38-3.171 1.594-7.528 4.994-5.569 3.676 2.276.721 6.961-2.384 6.961a3.263 3.263 0 0 1-2.61-1.392ZM532.681 261.038a8.897 8.897 0 0 1-3.48-.88c.07 0 .195.062.289.073 3.397.515 6.581-1.504 8.812-3.895a19.318 19.318 0 0 0 2.339-3.804c1.138-2.046.818-3.578.062-5.68-2.171-5.777-6.737-7.757-12.462-5.659 3.292-1.698 7.353-1.959 10.621-.062 2.047 1.065 3.429 3.024 4.306 5.105.671 1.587 1.35 3.272 1.131 5.029-.957 5.433-5.381 9.794-10.963 9.794-.209 0-.432-.007-.655-.021Z"/><path d="M530.277 260.043c3.243-.992 4.938-4.852 5.164-8.064.143-1.695-.525-3.279-1.27-4.765a14.026 14.026 0 0 0-1.959-3.132 8.011 8.011 0 0 0-2.172-2.182 4.704 4.704 0 0 0-2.294-1.135c1.685.039 3.105 1.344 4.525 2.175 2.784 2.089 5.537 5.318 4.917 9.014-.504 3.516-3.243 7.455-6.898 8.092l-.013-.003Z"/><path d="M538.765 254.276c.209-.08.31-.369.348-.567a1.696 1.696 0 0 0 0-.349c0-.073-.024-.142-.038-.212-1.49-.536-2.249-1.559-3.133-2.721-1.534-2.05-1.103-5.318 1.393-6.39 2.046-.954 4.413.247 5.098 2.325a6.785 6.785 0 0 1-1.347 6.014c-.396.515-1.225 1.956-2.018 1.956a.645.645 0 0 1-.303-.056Z"/><path d="M539.506 253.521c.279-.937-.083-2.012-.243-2.966a5.522 5.522 0 0 0-2.088-3.167c-1.32-1.082-3.098-1.465-4.309-2.683a2.525 2.525 0 0 1-.636-2.731c.117-.311.294-.595.521-.836 1.74-1.74 4.274-.209 5.475 1.42 1.075.396 2.321.953 2.756 2.088.237.797-.574 1.298-1.288 1.166.282 1.778.167 3.424.115 5.185-.052.776 0 1.594-.198 2.343 0 .052-.07.174-.105.174v.007Z"/><path d="M534.342 240.643a.136.136 0 0 1 .087.133c-.021.066-.119.062-.171.101a1.196 1.196 0 0 0-.181.118c.038-.084.178-.164.261-.233-1.131-.293-2.304.268-3.414.317 1.072-.418 2.273-1.003 3.418-.436Z"/><path d="M530.2 240.939c1.1-.463 2.579-.737 3.64-.431-1.319.059-2.638.397-3.936.598 0 0 .032 0 0 .025-.104-.07.244-.153.296-.192Z"/><path d="M530.367 240.905a7.587 7.587 0 0 1 3.48-.401c.046 0 .206.042.164.133v-.035a8.226 8.226 0 0 0-1.879.153c-.517.096-1.041.152-1.567.167l-.198-.017Z"/><path d="M534.049 241.434c-1.187-.31-2.544-.035-3.713-.484a8.434 8.434 0 0 1 3.296.264s.518.157.417.233v-.013Z"/><path d="M531.084 241.016c-.038 0-.104 0-.118-.024a6.591 6.591 0 0 1 3.066 0c0 .052-.091.052-.122.083-.031.031.031-.042.059-.059-.619.021-1.242.09-1.862.09a5.664 5.664 0 0 1-1.023-.09Z"/><path d="M532.229 241.253c-.223 0-.407-.105-.619-.119.184-.717 1.503-.536 2.011-.223.08.101-.122.119-.181.157l.045-.059a5.729 5.729 0 0 1-1.145.247l-.111-.003Z"/><path d="M532.093 240.967c.453-.504 1.371-.417 1.876-.035.024.028-.076.073-.042.028-.374.108-.757.18-1.145.216a1.162 1.162 0 0 1-.689-.209ZM531.804 242.084c-.403-.382-.195-.668.321-.616.327-.021 1.012.519.696.783a1.258 1.258 0 0 1-.428.084.817.817 0 0 1-.589-.251Z"/><path d="M531.575 242.906c-.672-.453-1.285-.923-1.914-1.392a.488.488 0 0 1-.237-.328.41.41 0 0 1 .157-.378.408.408 0 0 1 .407-.05c.348.094.619.348.946.46.493.118.979.264 1.455.438.192-.08.39-.142.578-.209-.32-.17-.895-.135-1.246-.222a4 4 0 0 0 .438 0c.326-.05.659-.01.964.115.23.233-.194.379-.348.452.147.052.293.115.439.174.045.021.146.038.125.101-.021 0 0-.024 0-.028a4.945 4.945 0 0 0-.678-.181c-.069.039-.14.072-.213.101a1.178 1.178 0 0 1-.296.038c.282.177.52.415.696.696a.345.345 0 0 1-.08.402.342.342 0 0 1-.196.09.339.339 0 0 1-.211-.043.35.35 0 0 1-.205.063 1.062 1.062 0 0 1-.581-.299Z"/><path d="M532.587 241.712c-.3-.08-.615-.095-.922-.045a1.747 1.747 0 0 1-1.107-.136.33.33 0 0 1-.112-.095.332.332 0 0 1-.058-.135c.045-.438.738-.184 1.02-.348.577-.087 1.576-.149 1.907.421.038.15-.059.213-.139.293a.716.716 0 0 1-.31.055l-.279-.01ZM532.466 240.522c-.964.174-1.974.247-2.913.47a5.34 5.34 0 0 1 2.913-.47Z"/><path d="M532.424 240.459c-1.163.174-2.374.435-3.515.529 1.114-.404 2.349-.78 3.515-.529Z"/><path d="M533.012 240.424c-.947.073-1.824.373-2.763.453a6.25 6.25 0 0 0-1.309.115 5.218 5.218 0 0 1 4.072-.568Z"/><path d="M529.33 241.12a3.766 3.766 0 0 1-.425-.139c.323-.038.651.009.95.136a.816.816 0 0 1-.236.028 1.858 1.858 0 0 1-.289-.025Z"/><path d="M528.912 240.967a1.71 1.71 0 0 1 .696-.07 1.587 1.587 0 0 1-.511.084 1.426 1.426 0 0 1-.185-.014Z"/><path d="M529.389 241.061c-.139-.021-.285-.069-.418-.083.285-.016.57.02.843.104a.427.427 0 0 1-.101 0c-.101.01-.226-.014-.324-.021ZM528.975 241.023c-.021-.021.017 0 .031 0 .235.055.458.149.661.278a4.05 4.05 0 0 1-.692-.278Z"/><path d="M528.968 241.002c.017.024 0 0-.028 0s0-.024.042 0c.288.047.563.158.804.324a3.379 3.379 0 0 1-.818-.324Z"/><path d="M529.044 241.002h-.034l.156-.028c.284.01.566.039.846.087a1.334 1.334 0 0 1-.219 0 4.373 4.373 0 0 1-.749-.059Z"/><path d="M530.155 240.873c-.272.084-.627.038-.912.129.283-.138.602-.183.912-.129Z"/><path d="M529.758 240.943c-.172.054-.35.093-.529.115.073-.112.397-.115.529-.115Z"/><path d="M529.222 241.016c.227-.101.479-.132.724-.091a1.98 1.98 0 0 1-.696.091h-.028Z"/><path d="M529.281 241.03c-.021-.059.299-.066.327-.066a.803.803 0 0 1-.302.062h-.025v.004Z"/><path d="M530.76 241.193a13.375 13.375 0 0 1-1.83-.181c1.106-.132 2.415-.504 3.522 0a5.517 5.517 0 0 1-1.598.178l-.094.003ZM536.364 257.826c-.857-.665 1.656-4.57 1.882-5.691.157-.462.275-.981.425-1.42-.042.349-.087.669-.122 1.003a9.806 9.806 0 0 0 .557-1.709c.031.783-1.577 7.858-2.607 7.858a.233.233 0 0 1-.135-.041Z"/><path d="M536.148 259.051c-1.434-.533 1.503-3.853 2.011-4.577.756-.978 1.741-1.966 1.741-3.278a.198.198 0 0 0-.08-.119c.024-.024.093.074.107.112.047.361.019.728-.08 1.079.348-.481.696-.957 1.044-1.431.115-.278.456-.511.697-.229.24.281-.046.616-.136.898a15.54 15.54 0 0 1-1.504 2.899c-.591.943-1.354 1.778-1.963 2.704-.348.55-.831 1.98-1.611 1.98a.754.754 0 0 1-.226-.038Z"/><path d="M536.089 257.951c.146-1.907 1.096-3.682 1.701-5.481.255-1.006.411-2.089.982-2.969a.354.354 0 0 1 .124-.11.357.357 0 0 1 .322 0c.05.026.093.064.125.11.198.299 0 .672-.035.999a20.58 20.58 0 0 1-.696 2.982c.571-1.044 1.103-2.147 1.622-3.184-.084.745-2.301 8.081-3.648 8.081-.191-.014-.355-.143-.497-.428Z"/><path d="M533.701 259.684c-.79-.038-.731-.985-.08-1.221-.143-.261.049-.508.23-.696a23.716 23.716 0 0 0 2.815-4.674 33.564 33.564 0 0 1 0-2.437 1.084 1.084 0 0 1 .14-.654.467.467 0 0 1 .748.004.47.47 0 0 1 .094.267.498.498 0 0 1 .628-.175c.108.05.195.138.244.247.05.108.059.231.026.346.177-.404.696-.72 1.1-.445.647.379.17 1.148-.039 1.656a2.307 2.307 0 0 0-.369 1.319 3.888 3.888 0 0 1-.637 1.932c-.236.303-.549.696-.981.595-.386.47-.278 1.173-.696 1.601-.244.839-1.124 1.215-1.785 1.67-.36.393-.861.627-1.393.651l-.045.014Z"/><path d="M531.307 260.359a1.382 1.382 0 0 1-.623-.038c.202.011.404-.022.591-.097 0-.265.261-.348.467-.414.574-.223 1.006-.697 1.479-1.083.473-.386.974-1.451 1.608-.675 1.016.498-.996 1.74-1.469 1.991a7.218 7.218 0 0 1-1.674.518.167.167 0 0 1-.063 0 .345.345 0 0 1-.316-.202Z"/><path d="M533.666 258.397v-.035c.056.066-.215.261-.282.32a6.61 6.61 0 0 1-3.316 1.434 16.361 16.361 0 0 0 3.598-1.719Z"/><path d="M532.848 259.11c-.87.644-2.088.947-3.132 1.187 1.003-.474 2.113-.731 3.132-1.187Z"/><path d="M532.671 259.263c-.79.752-2.088 1.002-3.132 1.093 1.016-.407 2.144-.606 3.132-1.093Z"/><path d="M532.152 259.757c-.574.414-1.493.533-2.199.578.71-.254 1.503-.296 2.199-.578Z"/><path d="M529.991 260.356c.561-.181 1.253-.098 1.827-.237a2.035 2.035 0 0 1-1.155.282 5.804 5.804 0 0 1-.672-.045Z"/><path d="M530.287 260.297c.24-.059.484-.112.727-.146.244-.035.435-.046.644-.091a3.723 3.723 0 0 1-1.35.237h-.021ZM52.842 255.195c-10.977-2.555-8.7-17.635 2.395-17.026 10.977 1.559 9.557 17.179-.581 17.179a11.016 11.016 0 0 1-1.814-.153ZM52.39 262.562c.076-.168.197-.314.348-.421a.862.862 0 0 0-.348.421Zm-1.946 2.725c-2.15-3.633 4.086-7.172 5.792-3.073 1.044 2.437-1.121 4.546-3.237 4.546a2.92 2.92 0 0 1-2.555-1.473ZM74.427 261.007c-4.263-1.897-.592-8.269 3.223-5.711 2.631 1.809.591 5.916-2.144 5.916a2.828 2.828 0 0 1-1.079-.205ZM221.741 259.942c-2.948-1.392-2.088-5.753 1.145-5.875 4.33.132 3.637 6.188.261 6.188a3.552 3.552 0 0 1-1.406-.313ZM206.633 50.4c-5.363-4.086-.696-11.76 5.353-9.198 5.735 2.906 2.805 10.42-1.987 10.42a5.665 5.665 0 0 1-3.366-1.222ZM222.479 48.472c-2.029-.484-1.044-3.7.874-3.115 1.761.519 1.065 3.157-.522 3.157-.119 0-.237-.015-.352-.042ZM311.004 37.175c-5.861-.919-6.522-9.717-.195-10.302 4.646-1.096 6.908 1.99 6.787 5.081-.108 2.649-1.974 5.297-5.607 5.297a8.123 8.123 0 0 1-.985-.076Z"/><path d="M222.476 49.634c-1.977-.925-2.284-3.929-.063-4.76a2.617 2.617 0 0 1 3.522 2.508 2.581 2.581 0 0 1-2.541 2.437 2.204 2.204 0 0 1-.918-.185ZM638.228 249.268h-95.262v1.465h95.262v-1.465Z"/><path d="M519.136 250.733c.005-.493.062-.984.171-1.465h21.449c.619.4 1.253.779 1.903 1.131l-.041-.025c.139.07.348.133.407.279.01.026.017.053.021.08h-23.91ZM607.87 258.149h-46.942v1.466h46.942v-1.466ZM223.053 257.053H76.32v1.465h146.733v-1.465ZM294.612 163.115l-.332.612 86.045 46.64.332-.611-86.045-46.641ZM304 77.13l-.498.918 128.948 70.013.498-.917L304 77.131Z"/><path d="m380.642 118.691-86.396 44.135.313.614 86.397-44.135-.314-.614ZM434.677 180.986l-131.959 67.411.479.939 131.96-67.411-.48-.939Z"/><path d="m380.485 119.322-.641.004.566 90.082.641-.004-.566-90.082ZM293.93 82.86l.643-.006.547 162.749-.644.007-.546-162.75ZM423.25 163.858c.001-.869.061-1.736.178-2.597l.07.14c.146.271.295.546.459.811a17.71 17.71 0 0 0-.073 1.621 18.655 18.655 0 0 0 3.388 10.568 18.655 18.655 0 0 0 19.871 7.363 18.661 18.661 0 0 0 9.456-5.809l1.023-.136a19.326 19.326 0 0 1-34.372-11.961Z"/><path d="M431.624 179.147a5.557 5.557 0 0 1-1.169-.498 6.576 6.576 0 0 1-.582-.348 19.148 19.148 0 0 1-5.348-21.201 19.147 19.147 0 0 1 18.02-12.384 19.332 19.332 0 0 1 7.865 1.659 19.334 19.334 0 0 1 6.509 4.717 33.806 33.806 0 0 0-.835-.313l-.536-.16a18.663 18.663 0 0 0-28.499 2.969 18.66 18.66 0 0 0-3.172 10.256 18.41 18.41 0 0 0 6.786 14.269c.084.122.176.238.275.348l.181.181c.119.108.248.206.383.292l.174.098.181.083.247.066.077.049H432.073a2.207 2.207 0 0 1-.449-.083Z"/><path d="M461.154 163.83a18.543 18.543 0 0 0-15.487-18.237l-.306-.205.278.184a83.644 83.644 0 0 1-1.131-.772 19.205 19.205 0 0 1 17.342 19.058 18.967 18.967 0 0 1-2.707 9.793c-.533.498-1.116.939-1.74 1.316a18.328 18.328 0 0 0 3.751-11.137Z"/><path d="M446.067 181.99a18.5 18.5 0 0 0 14.858-21.066c.191-.209.386-.414.581-.62a19.153 19.153 0 0 1-3.068 14.433 19.14 19.14 0 0 1-12.423 7.963 4.117 4.117 0 0 1 .052-.71Z"/><path d="m461.586 165.107-.459-.296c0-.327.024-.654.024-.981a18.665 18.665 0 0 0-17.942-18.487 18.671 18.671 0 0 0-9.159 2.004 5.242 5.242 0 0 1-.063-.661 19.327 19.327 0 0 1 18.679.883 19.322 19.322 0 0 1 9.184 16.289c0 .47 0 .932-.048 1.392l-.216-.143ZM287.289 74.184a8.381 8.381 0 0 0 5.137 7.791 8.385 8.385 0 0 0 11.472-6.073 8.384 8.384 0 0 0-3.555-8.628 8.39 8.39 0 0 0-4.666-1.418 8.354 8.354 0 0 0-8.388 8.328Zm-.477-.059a8.792 8.792 0 0 1 5.381-8.163 8.791 8.791 0 0 1 9.598 1.864 8.782 8.782 0 0 1 1.934 9.585 8.79 8.79 0 0 1-8.125 5.44 8.754 8.754 0 0 1-8.109-5.377 8.752 8.752 0 0 1-.679-3.349ZM287.233 254.224c0-.195.007-.39.021-.585v.038l.091.15.097.122.098.094.045.034v.112a8.389 8.389 0 0 0 14.318 5.931 8.389 8.389 0 0 0 2.457-5.931v-.369l.122-.125.094-.122.062-.115.105-.258a8.791 8.791 0 0 1-2.515 7.238 8.787 8.787 0 0 1-12.428 0 8.791 8.791 0 0 1-2.574-6.214h.007Z"/><path d="M294.918 262.883a34.718 34.718 0 0 0-1.74-.672l.188-.098a8.477 8.477 0 0 0 2.606.411 8.333 8.333 0 0 0 7.653-5.182 8.33 8.33 0 0 0-10.912-10.835 8.324 8.324 0 0 0-5.128 7.689 8.296 8.296 0 0 0 .438 2.669c-.174-.136-.348-.271-.515-.41a8.799 8.799 0 0 1 3.592-9.598 8.792 8.792 0 0 1 13.23 10.121 8.796 8.796 0 0 1-8.323 5.978 9.012 9.012 0 0 1-1.089-.073ZM294.121 163.917a54.38 54.38 0 0 1 6.786-26.381l-.529 1.956a13.29 13.29 0 0 0-.257 1.218 53.642 53.642 0 0 0-5.241 23.186c0 29.906 24.424 54.153 54.546 54.153a54.733 54.733 0 0 0 19.521-3.574l2.001-.104.54-.066a55.502 55.502 0 0 1-22.051 4.541c-30.547 0-55.316-24.598-55.316-54.929Z"/><path d="M294.935 156.469c.002-.06.009-.119.021-.177a1.06 1.06 0 0 1-.024.177h.003Z"/><path d="M329.728 215.251a6.81 6.81 0 0 1 .212-.758 54.847 54.847 0 0 0 67.685-25.229 53.58 53.58 0 0 0 6.289-22.907V165.333a.631.631 0 0 1 0-.087V164.568a.589.589 0 0 1 0-.084v-.324a.397.397 0 0 0 0-.069V162.56a.375.375 0 0 1 0-.067v-.685c0-.232-.011-.464-.031-.696a53.64 53.64 0 0 0-10.876-29.757l-.216-.285-.056-.073c-.021-.028-.045-.056-.066-.087l-.077-.115-.031-.042-.146-.184-.017-.021a54.705 54.705 0 0 0-9.898-9.714 54.52 54.52 0 0 0-17.402-8.833 54.874 54.874 0 0 0-7.834-1.712H357.16l-.209-.031a54.961 54.961 0 0 0-6.696-.505h-.829c-30.122 0-54.543 24.244-54.543 54.15 0 1.364.05 2.713.15 4.048a51.963 51.963 0 0 1-.884-2.367c0-.55-.025-1.107-.025-1.66 0-30.334 24.77-54.926 55.337-54.926 30.568 0 55.313 24.581 55.313 54.919 0 30.338-24.78 54.929-55.337 54.929a55.574 55.574 0 0 1-19.709-3.595Z"/><path d="M282.02 172.558c.093-.32.219-.63.376-.925.08-.205.198-.393.348-.554l-.031.105a3.743 3.743 0 0 0-.049.529v-.021a4.782 4.782 0 0 0 0 .508c.024.264.062.515.111.773.087.348.192.696.31 1.044l-.031-.091c.125.348.261.672.407.999a68.122 68.122 0 0 0 9.745 25.977l.201.317c.268.417.54.831.818 1.246v.017l.098.143.094.139v.024l.094.139.094.136.024.035c.028.045.059.087.087.129l.414.595v.021l.084.118.031.042c.028.038.052.076.08.111l.031.049c.028.035.053.073.077.108l.042.056.073.101.042.055.073.101.045.063.07.094c0 .024.031.045.045.066l.069.094.053.069c.02.032.041.056.066.087l.031.046.139.188.059.076c.018.028.039.052.056.077l.063.083.062.08.056.077c.021.028.042.052.059.08l.063.08.059.077.066.087.049.066c.024.031.049.059.07.09l.055.07.073.094.046.059.087.111.038.049.243.31.035.045.094.115.032.042.09.114.038.049c.032.036.063.073.091.112l.038.045.084.104.045.056.087.108.038.045.098.118.024.032.108.132.024.028.119.142c.087.105.174.213.264.317l.125.15v.021c.039.045.073.09.112.132l.028.031.107.126.021.024.115.132.018.025.118.135v.018l.118.135h.018c.268.31.543.616.817.923l.126.139.122.136.02.021.129.142c.327.348.658.696.992 1.044l.139.143c.348.348.696.696 1.02 1.044a69.573 69.573 0 0 0 29.433 17.443l.407.119c.477.139.961.271 1.441.4l.191.052h.028l.181.045h.025l.181.046h.024l.188.048 1.044.251h.024l.181.042h.032l.174.041h.034l.174.042h.032l.181.042h.024l.195.042.63.135.209.042.177.038h.052l.161.032h.048l.157.031h.049l.17.035h.031l.178.035h.101l.202.038.637.118.198.035h.028l.177.028h.046l.163.028h.045l.161.024h.055l.164.028h.042l.17.024h.042l.181.032h.028l.421.062h.024l.185.028h.048l.16.025h.06l.146.02h.275l.149.018h.279l.142.017h.063a.45.45 0 0 1 .167.021h.045l.209.025h.018l.195.024H345.466l.424.038H355.047a69.911 69.911 0 0 0 11.986-1.535c1.076.112 2.151.188 3.233.258h.843c-6.14 1.92-12.511 3-18.94 3.209-36.22 0-66.074-27.087-70.149-61.95Z"/><path d="m320.999 227.314-.202-.195a42.468 42.468 0 0 1-1.573-1.601 9.074 9.074 0 0 1-.724-.842 69.374 69.374 0 0 0 10.814 4.799c.442.171.884.348 1.329.505.895.285 1.789.574 2.701.811.912.236 1.785.438 2.683.626 1.624.383 3.261.708 4.911.975l.223.038h.038l.198.031h.056l.181.028h.063l.17.025h.073l.195.027h.042l.226.032.108.017h.122l.125.018h.567l.14.017h.069l.592.07.191.02h.035l.178.021H344.811l.174.021h.049l.835.08h.881l.863.063H348.32c.275.017.549.028.828.042H355.106a69.501 69.501 0 0 0 52.647-27.679l.021-.028.114-.153.049-.063.087-.122.059-.076.073-.098c.056-.08.115-.16.174-.236.039-.049.073-.098.108-.15l.021-.024.115-.157.529-.745c.696-.675 1.319-1.392 1.963-2.088a82.001 82.001 0 0 0 1.987-2.481 76.1 76.1 0 0 0 1.782-2.464 71 71 0 0 1-93.898 30.689l.062.247Z"/><path d="M367.273 231.633a92.514 92.514 0 0 0 1.901-.449 61.602 61.602 0 0 0 2.063-.553l.164-.046h.035l.16-.048h.024l.167-.049c.494-.141.985-.291 1.472-.449l.174-.056.167-.055h.025l.167-.056.177-.056c.369-.118.731-.243 1.097-.369l.181-.062.17-.059h.021l.164-.06h.017l.164-.059h.021a39.3 39.3 0 0 0 1.392-.529h.038l.15-.059h.027l.154-.059h.031l.153-.059h.031l.15-.059h.031l1.215-.498.15-.066h.038l.139-.059.042-.018.139-.062h.038l.146-.067h.032l.143-.066h.045l.832-.372.146-.066.038-.018.136-.062.045-.018.129-.059.055-.028.126-.059.048-.024.133-.059.041-.021.14-.066h.021l.647-.314h.028l.115-.055.066-.032.115-.055.062-.032.112-.055.069-.035.112-.056.062-.031.112-.056.066-.035.118-.059.056-.031.115-.056.069-.038.108-.056.07-.034.104-.053.052-.028.261-.139h.032l.128-.069.046-.025.233-.299.062-.035.115-.059.056-.031.115-.063.066-.035.101-.055.08-.042.09-.052.091-.049.09-.049.077-.042.097-.055.077-.042.097-.056.084-.045.16-.09.097-.056.091-.052.08-.046.097-.055.077-.046.087-.048.091-.052.083-.049.087-.052.087-.049.084-.049.094-.056.076-.045a.758.758 0 0 0 .091-.055l.083-.049.091-.052.076-.046.094-.055.059-.039.202-.118.077-.049.083-.048.084-.053.09-.055.084-.049.087-.056.08-.048.087-.056.087-.052.08-.049.087-.059.083-.049c.029-.02.06-.039.091-.056l.077-.052.087-.056.083-.052.094-.059.073-.049.101-.062.07-.045.16-.105.066-.042.104-.066.077-.052.087-.056.08-.055.087-.056.08-.056.09-.055.074-.053.09-.059.084-.055.08-.053.08-.055.087-.06.083-.055.08-.056.08-.056.101-.066.066-.045.16-.111.042-.032.122-.083.063-.045.101-.07.073-.049.087-.062.08-.06.087-.059.069-.048.094-.07.07-.049.097-.069.066-.046.098-.073.063-.045.118-.083.038-.032c.164-.118.327-.236.487-.348l.056-.042.108-.076.052-.042.108-.08.063-.045.097-.073.063-.049.094-.073.066-.049.101-.076.052-.042.108-.084.056-.041.114-.087.042-.035.112-.084.052-.042.313-.247.035-.027.125-.098.042-.035.111-.09.049-.039.111-.09.049-.038.105-.084.059-.045.094-.08.062-.049.091-.076.062-.049.105-.087.049-.038.128-.108.025-.021.313-.261.143-.122.038-.031.115-.098.045-.038.108-.094.045-.035.108-.094.045-.042.115-.097.035-.031.118-.101.035-.032.139-.121.153-.133.463-.41.129-.115.042-.038.115-.101.027-.028.122-.112.032-.027.121-.112.028-.024.119-.112.031-.031.122-.111.028-.025.135-.125.449-.424.136-.129v-.018l.125-.121.035-.032.108-.104.042-.042.104-.101.038-.038.108-.105.039-.038c.038-.035.073-.069.107-.108l.035-.031c.039-.038.077-.073.112-.111l.034-.032.432-.435.129-.132.035-.035c.038-.035.073-.073.107-.111l.039-.035.101-.108.041-.038.105-.108.035-.038.104-.108.035-.035.118-.125c.045-.049.087-.091.129-.14l.564-.602.125-.135.115-.129.028-.031.115-.122v-.025l.118-.125.021-.028c.042-.045.087-.09.125-.136.233-.254.46-.511.696-.772.042-.052.084-.101.129-.15l.125-.143.122-.139.118-.135.021-.025.119-.143c.268-.313.532-.633.793-.95.038-.048.073-.094.115-.139l.021-.031.111-.136v-.017l.115-.143.115-.146c.042-.052.08-.098.118-.15l.508-.651.126-.163.118-.157.017-.024.108-.139v-.025c.035-.045.066-.09.101-.132l.025-.035.104-.139v-.021l.115-.153c.205-.278.41-.553.612-.835l.115-.157v-.024c.035-.049.07-.094.101-.143v-.024c.035-.046.07-.094.101-.143l.021-.028.101-.146v-.017l.104-.147v-.024c.157-.223.314-.449.467-.675.034-.056.069-.108.108-.16l.107-.16c.032-.049.07-.101.101-.153v-.018l.098-.146.021-.031.094-.147v-.02c.034-.053.069-.108.104-.157.226-.348.453-.696.672-1.044l.101-.164.101-.16v-.017c.034-.052.069-.108.101-.164l.1-.167c.216-.348.429-.696.641-1.068.035-.056.066-.115.101-.167v-.018l.094-.156v-.028l.09-.157v-.017l.094-.164c.035-.055.066-.111.098-.17l.403-.724.098-.174v-.025l.083-.156v-.025l.084-.153v-.031l.083-.157v-.021c.028-.052.06-.104.087-.16v-.024c.195-.348.387-.731.575-1.1.031-.059.059-.115.087-.174l.08-.16v-.031c.024-.052.052-.108.08-.16v-.021l.08-.167v-.018l.083-.17c.153-.31.303-.627.449-.936.025-.056.056-.115.08-.174v-.021c.025-.056.053-.108.077-.164v-.028l.07-.156.017-.035.07-.153.017-.035.073-.164v-.02c.139-.314.282-.634.418-.947v-.021l.073-.171v-.027c.024-.053.041-.101.066-.15l.021-.052c.021-.045.041-.094.059-.143l.021-.045c.021-.045.038-.094.059-.143l.021-.045.062-.157v-.028c.021-.055.046-.114.07-.17v-.021l.313-.769v-.028a2.67 2.67 0 0 1 .066-.164v-.031l.063-.16v-.035l.063-.163v-.025l.066-.17v-.028c.021-.059.042-.111.066-.171v-.02c.021-.06.045-.126.07-.185.097-.264.194-.525.288-.79.025-.063.046-.125.067-.188v-.021c0-.055.038-.111.055-.163v-.049l.052-.15v-.041l.053-.157v-.038c.021-.053.038-.105.055-.16v-.035c.018-.056.039-.112.056-.167v-.028c.091-.265.178-.526.265-.79v-.028c.02-.059.038-.111.055-.171v-.038c0-.052.032-.101.049-.153v-.052c0-.049.028-.098.045-.143l.018-.056.041-.139.021-.062c0-.049.032-.098.045-.147v-.041c0-.056.035-.112.049-.164v-.035c.084-.264.164-.536.24-.8l.053-.181v-.035c0-.052.031-.108.045-.164.014-.055 0-.027 0-.041 0-.014.031-.108.045-.164v-.035l.045-.16a.338.338 0 0 1 0-.045l.042-.16v-.038c0-.056.031-.108.045-.164v-.042c.018-.055.035-.115.049-.174v-.024c.052-.199.108-.404.16-.606v-.035l.042-.167v-.048c0-.049.028-.101.038-.15.011-.049 0-.042 0-.059 0-.018.021-.094.035-.139.014-.046 0-.042 0-.066 0-.025.024-.087.035-.133.01-.045 0-.048 0-.073l.031-.132v-.063c0-.052.021-.097.035-.149a.235.235 0 0 1 0-.053c0-.055.024-.111.038-.167v-.031l.042-.181v-.024l.094-.407v-.046c0-.052.021-.104.035-.16v-.052l.031-.143v-.076c0-.042 0-.084.028-.126.028-.041 0-.052 0-.076s.017-.084.028-.125c.01-.042 0-.053 0-.077s0-.087.028-.132v-.07c0-.042.017-.083.027-.125v-.084c0-.045 0-.087.025-.132v-.066c0-.056.024-.108.035-.164v-.038c.027-.136.055-.275.08-.411v-.034c0-.06.024-.115.034-.174v-.039l.032-.167v-.052c0-.049 0-.101.028-.15v-.062c0-.049 0-.091.024-.136.024-.045 0-.052 0-.08 0-.028 0-.084.024-.129v-.069c0-.049 0-.094.025-.143v-.066c0-.049 0-.094.024-.143v-.063c0-.052 0-.104.024-.156v-.049c.021-.136.046-.275.067-.414v-.042c0-.052-.001-.111.027-.163.028-.053 0-.042 0-.06 0-.017 0-.097.025-.142v-.077l.021-.132v-.077l.02-.128v-.077l.021-.136v-.278l.021-.15v-.059c0-.052 0-.101.021-.157v-.052c.021-.139.038-.275.056-.417v-.035c0-.056 0-.115.024-.174V171.918a1.067 1.067 0 0 1 0-.08l.021-.188.021-.216.021-.198v-.623a.589.589 0 0 1 0-.084v-.337a1.262 1.262 0 0 0 0-.087v-.581a.2.2 0 0 0 0-.049V167.787a.785.785 0 0 1 0-.097v-1.333a.913.913 0 0 0 0-.074V160.478a.534.534 0 0 1 0-.08v-.393l-.032-.442V159.003c0-.108-.017-.216-.027-.324V158.272a68.26 68.26 0 0 0-12.603-33.926l-.034-.049-.063-.087c0-.024-.038-.049-.056-.076l-.052-.073-.097-.133-.119-.16-.021-.028-.1-.135v-.025l-.112-.149-.031-.046c-.188-.442-.373-.887-.56-1.329-.406-.947-.822-1.89-1.246-2.83a69.527 69.527 0 0 1 16.615 45.178c0 32.141-21.784 59.231-51.491 67.518-.282.038-.564.07-.846.101-2.743.299-5.487.486-8.235.56 2.831-.267 5.077-.583 6.738-.95Z"/><path d="M281.547 164.38c0-38.722 31.622-70.128 70.622-70.128 38.447 0 69.721 30.501 70.605 68.457-.122.22-.247.435-.376.651-.268.446-.547.884-.832 1.323v-.366c0-38.081-31.097-68.951-69.449-68.951-38.353 0-69.45 30.87-69.45 68.951 0 38.078 31.097 68.948 69.45 68.948a69.448 69.448 0 0 0 40.545-12.964l.874-.487a324.463 324.463 0 0 0 5.958-3.404 70.653 70.653 0 0 1-47.332 18.074c-38.993.024-70.615-31.379-70.615-70.104Z"/><path d="M331.304 231.375a4.59 4.59 0 0 1-.323-.4 7.17 7.17 0 0 1-.696-1.18l.56.181.195.063.397.125h.027l.168.053h.034l.16.048h.035l.383.115h.056l.136.038.055.018.15.042h.042l.194.055h.021l.154.045.083.025.104.028.091.024.094.028.09.024.101.028.185.052h.062l.122.035h.059l.122.031h.049l.616.161a69.476 69.476 0 0 0 11.586 1.917l.863.066h.23c.163 0 .348.021.497.032h.418l.445.02h9.255l.233-.02h1.267l.146-.018h.09l.171-.021h.055c-.894.171-1.795.286-2.693.421-.773.119-1.542.251-2.322.324l-3.48.348c-1.998.192-4.016.23-6.021.261h-.167a70.877 70.877 0 0 1-14.099-2.969ZM415.562 192.396l.074-.163v-.018l.073-.163v-.018l.073-.163.069-.164v-.024l.07-.16v-.018l.073-.163c.148-.348.295-.696.439-1.044v-.035l.052-.129.024-.059.049-.119.028-.073c0-.038.031-.076.045-.111l.031-.077.042-.104.035-.094a.883.883 0 0 0 .035-.09c.014-.032.027-.065.038-.098l.038-.094.038-.094.035-.097.039-.091.034-.097.039-.105.034-.083.042-.108a.919.919 0 0 1 .028-.084c0-.038.031-.08.045-.118l.028-.073.045-.125a.592.592 0 0 0 .025-.066c.048-.129.097-.258.142-.387v-.045c.021-.049.039-.097.056-.15v-.052l.052-.139.021-.066c0-.042.031-.084.045-.129l.025-.063.045-.135.021-.059.049-.136a.523.523 0 0 0 0-.056c.017-.049.034-.094.048-.143l.021-.055.049-.143v-.052c0-.045.031-.098.049-.143v-.056c0-.048.031-.097.048-.146v-.048l.053-.154v-.045l.059-.177c.066-.202.129-.404.191-.602l.063-.192c.021-.066.038-.129.059-.191v-.025c0-.062.038-.121.056-.181v-.017c.021-.059.038-.118.055-.177v-.039c0-.055.035-.111.049-.167v-.028c0-.055.035-.114.049-.174v-.027l.052-.178v-.024c0-.056.031-.115.049-.174v-.032l.052-.184c.115-.407.226-.818.348-1.229 0-.062.031-.125.049-.188a.24.24 0 0 0 0-.038c0-.056.031-.111.045-.167v-.035c0-.055.031-.111.045-.17v-.039c0-.052.025-.107.038-.16v-.045l.042-.16v-.045l.042-.167v-.032l.042-.177v-.028c0-.063.028-.122.045-.184v-.021c0-.063.028-.122.045-.185v-.021c.098-.414.188-.828.275-1.242v-.031c0-.06.025-.119.038-.178v-.031c0-.059.025-.115.035-.171v-.049c0-.052.021-.107.035-.163v-.038l.031-.167v-.042c0-.059.021-.115.035-.171v-.035c0-.059.025-.121.039-.18v-.025c0-.066.024-.132.038-.198.08-.421.156-.846.229-1.271 0-.069.025-.135.035-.205v-.021l.032-.188v-.031l.031-.174v-.045c0-.052 0-.112.024-.164v-.045c0-.056.018-.111.028-.164v-.052c0-.056 0-.108.025-.167v-.038c0-.059-.001-.115.024-.174v-.035c0-.066 0-.129.028-.195l.031-.205c.042-.286.08-.571.115-.856 0-.067 0-.133.024-.199v-.024l.021-.185v-.045l.021-.167v-.052l.021-.153a.364.364 0 0 1 0-.066v-.15a.331.331 0 0 1 0-.063v-.212c0-.052 0-.101.017-.15.018-.048 0-.041 0-.062v-.146a.409.409 0 0 0 0-.07v-.539c.028-.286.052-.575.077-.86V167.028a.482.482 0 0 1 0-.076v-1.006a.69.69 0 0 0 0-.091V164.345c0-38.078-31.097-68.948-69.45-68.948H348.299l-.418.024h-.24l-.421.028h-.032l-.636.049-.641.055h-.021l-.64.06a69.478 69.478 0 0 0-50.694 30.055c-.077.108-.15.22-.223.328l-.017.024-.098.143v.027l-.108.157-.02.035-.08.122-.035.052-.07.104-.038.059-.115.248-.045.073-.049.073-.059.087a.428.428 0 0 1-.038.062l-.209.331-.025.035a1.997 1.997 0 0 0-.066.104l-.024.042c-.08.122-.157.244-.233.369l-.08.129a68.345 68.345 0 0 0-4.615 8.836 45.585 45.585 0 0 1 3.261-8.749 70.69 70.69 0 0 1 60.599-34.107c39.003 0 70.626 31.389 70.626 70.114a69.52 69.52 0 0 1-15.718 44.102l-.083.049a704.971 704.971 0 0 1-3.056 1.831l-.243.146a68.922 68.922 0 0 0 11.867-18.098ZM285.003 175.767s.048-.059.052-.035c.003.025-.039.042-.049.042-.01 0-.003-.003-.003-.007ZM303.702 175.186s.031-.063.042-.042c.01.021-.024.046-.035.046l-.007-.004Z"/><path d="M342.177 142.377c-4.674-1.204-4.114-8.165.612-8.774a4.396 4.396 0 0 1 4.706 2.76c1.343 2.889-1.236 6.185-4.177 6.185a3.943 3.943 0 0 1-1.141-.171ZM334.639 144.323c-1.532-.4-2.036-2.517-.599-3.38 1.016-.696 2.631-.128 2.902 1.107a1.893 1.893 0 0 1-2.303 2.273ZM313.266 124.823c-5.356-3.185-1.392-11.068 4.382-8.913 5.471 2.568 2.993 9.57-1.782 9.57a5.776 5.776 0 0 1-2.6-.657ZM286.892 138.664a2.59 2.59 0 0 1-1.229-2.41 2.58 2.58 0 0 1 4.265-1.747 2.59 2.59 0 0 1 .814 2.58 2.65 2.65 0 0 1-2.586 1.925 2.386 2.386 0 0 1-1.264-.348ZM314.982 90.19c-6.888-2.373-3.348-12.386 3.48-9.898 6.101 2.276 3.592 10.16-1.74 10.16a6.036 6.036 0 0 1-1.74-.262ZM262.468 91.12c-3.074-7.497 9.282-11.287 10.893-3.31.616 3.953-2.649 6.564-5.882 6.564a5.377 5.377 0 0 1-5.011-3.255ZM270.062 79.304c-2.569-2.635.943-6.432 3.849-4.312 2.405 1.98.47 5.147-1.873 5.147a2.872 2.872 0 0 1-1.976-.835ZM403.99 164.94c0-.083.021-.167.035-.251.042-.285.08-.57.115-.856h70.702c-1.336.293-2.669.592-4.005.87l-1.138.237H403.99ZM193.867 164.94a24.533 24.533 0 0 1-1.496-.411 2.872 2.872 0 0 1-1.145-.696h103.48v.206c.001.199.026.398.076.591a.856.856 0 0 0 .16.31H193.867Z"/><path d="M403.99 164.94c0-.083.021-.167.035-.251l.115-.856h158.702v1.107H403.99ZM145.578 164.94a3.01 3.01 0 0 0-.142-1.107h149.27v.206c.001.199.027.398.076.591a.9.9 0 0 0 .157.31H145.578ZM117.402 164.94v-1.107h21.612a2.92 2.92 0 0 0-.118 1.107h-21.494Z"/><path d="M119.41 164.234a.593.593 0 0 0-.031-.258c.02.084.031.171.031.258Zm-1.535 3.076c-3.773-.376-3.505-5.899.289-5.833 2.088-.028 3.024 1.444 2.962 2.917a2.975 2.975 0 0 1-.913 2.098 2.958 2.958 0 0 1-2.136.822l-.202-.004ZM141.096 161.682a3.21 3.21 0 0 0-1.42.965 3.625 3.625 0 0 0-.477.73 3.093 3.093 0 0 0 .083 2.865c.26.545.665 1.009 1.17 1.34a3.375 3.375 0 0 0 2.509.459c2.04-.39 3.292-2.854 2.266-4.709a3.358 3.358 0 0 0-1.987-1.684 3.85 3.85 0 0 0-1.045-.153 3.098 3.098 0 0 0-1.099.187Zm-1.104 10.504c-5.676-1.218-7.945-8.294-3.953-12.529 4.131-4.309 11.833-3.414 13.653 2.662 1.691 5.221-2.784 10.093-7.834 10.093h-.018a7.682 7.682 0 0 1-1.848-.226ZM167.539 163.35l-.031-.174c-.018-.035-.039-.067-.056-.098a2.8 2.8 0 0 1 .087.272Zm-5.043 5.063c-3.01-1.482-3.512-5.77-.908-7.889a4.805 4.805 0 0 1 7.862 2.826c.584 3.048-1.977 5.624-4.772 5.624a4.526 4.526 0 0 1-2.182-.561ZM287.668 254.276a.786.786 0 0 1 0-.282.501.501 0 0 0 0 .282Zm-3.288 1.232c-.843-3.898 4.176-6.223 6.323-2.694a3.507 3.507 0 0 1-1.392 4.712 3.439 3.439 0 0 1-2.946.166 3.44 3.44 0 0 1-1.985-2.184ZM289.882 262.002c-1.361-1.201 0-3.219 1.657-2.53a1.521 1.521 0 0 1 .814 1.803 1.463 1.463 0 0 1-1.476 1.065 1.594 1.594 0 0 1-.995-.338ZM273.566 183.904c0 .035.07.125.045.139-.024.014-.045-.125-.045-.139ZM283.144 204.351c-2.001-2.123-3.407-4.779-4.73-7.364-1.827-3.665-2.975-7.657-3.852-11.6a87.026 87.026 0 0 0 4.176 10.301c1.392 2.92 2.509 6.007 4.424 8.618 0-.073-.025-.146-.032-.223.021-.017.028.097.038.111.011.014.067.16 0 .16l-.024-.003ZM369.65 88.31c-6.348-1.256-12.818-1.67-19.27-1.945a10.672 10.672 0 0 0-2.335.16c.65-.271 1.458-.295 2.175-.382 4.959-.348 9.919.017 14.833.664 6.564.815 13.027 2.76 18.766 6.032a75.545 75.545 0 0 0-14.169-4.528ZM362.422 79.579c-6.167-3.38-1.445-11.774 4.764-8.868 4.939 2.784 2.189 9.432-2.415 9.432a5.428 5.428 0 0 1-2.349-.564ZM377.234 78.893c.09-.132.157-.278.198-.431a3.423 3.423 0 0 1-.198.431Zm-5.04 1.145c-1.552-1.771-.671-4.76 1.577-5.422 2.182-.822 4.691 1.044 4.434 3.393-.153 1.873-1.9 3.132-3.613 3.132a3.044 3.044 0 0 1-2.398-1.103ZM384.859 80.456v-.136l-.024-.087c.017.073.024.15.024.223Zm-.379 1.207.073-.055.049-.08a1.588 1.588 0 0 1-.122.135Zm-2.875.877c-2.878-2.293.648-6.146 3.387-3.929 1.893 1.779.156 4.42-1.908 4.42a2.524 2.524 0 0 1-1.479-.49ZM388.896 83.999c-.918-1.347.62-3.132 2.089-2.5 1.486.544 1.332 2.75-.154 3.178-.165.048-.336.071-.508.07a1.678 1.678 0 0 1-1.427-.748ZM406.862 91.816c-2.266-1.535-4.64-2.893-7.01-4.25-2.265-1.211-4.503-2.586-6.918-3.442 0 .024.073.098 0 .035a.083.083 0 0 1-.032-.042c.488.084.967.215 1.431.39a59.798 59.798 0 0 1 12.028 6.125c5.29 3.578 10.42 7.518 14.94 11.979-4.754-3.703-9.539-7.34-14.439-10.796ZM434.617 222.525c-9.299-1.228-6.042-14.906 2.784-11.419 6.244 2.416 4.142 11.45-2.154 11.45-.195 0-.411-.01-.63-.031ZM434.798 165.643a2.587 2.587 0 0 1 .056-.734 1.996 1.996 0 0 0-.056.734Zm-.428 2.276c-2.012-1.83-1.653-5.384.894-6.532 2.036-.916 4.873-.408 5.792 1.876 1.294 3.01-1.271 5.742-3.975 5.742a3.923 3.923 0 0 1-2.725-1.086h.014ZM453.727 151.008a1.737 1.737 0 0 1-1.037-1.396 1.746 1.746 0 0 1 .689-1.597c1.003-.696 2.308.07 2.537 1.159a1.67 1.67 0 0 1-.942 1.791 1.66 1.66 0 0 1-.704.151 1.43 1.43 0 0 1-.543-.108ZM487.685 163.663a.784.784 0 0 0-.509-.056.792.792 0 0 1 .154 0 .957.957 0 0 1 .355.056Zm-2.485 3.946c-5.249-2.237-.989-9.501 3.48-5.954 2.871 2.13.835 6.205-2.179 6.205a3.538 3.538 0 0 1-1.301-.251ZM538.765 161.627a2.275 2.275 0 0 0-.87-.23c.3.033.593.111.87.23Zm-4.378 5.937c-4.448-6.233 5.499-11.603 8.318-4.507 1.082 3.366-1.897 6.209-4.873 6.209a4.317 4.317 0 0 1-3.463-1.702h.018ZM562.135 166.805c-2.436-.884-2.471-4.364.063-5.136 2.29-.477 3.438 1.044 3.459 2.592 0 1.34-.828 2.68-2.53 2.68a4.055 4.055 0 0 1-.992-.136ZM341.267 178.744l-7.459 5.92.524.66 7.458-5.92-.523-.66Z"/><path d="m324.539 169.823.142-.905 17.228 9.675-.143.905-17.227-9.675Z"/><path d="m324.539 169.833.17-.96 44.767.268-.17.96-44.767-.268ZM306.372 156.901l62.363-2.614-.188.967-62.367 2.618.192-.971ZM370.002 200.881l-.348-10.479c.207.031.409.084.605.156.121.048.237.105.348.171l.348 10.657a3.447 3.447 0 0 1-.953-.505Z"/><path d="m369.835 170.16-.759-.094a.317.317 0 0 1-.087 0v-.125l.957-.108v.348l-.111-.021Z"/><path d="M369.539 169.903c-.184 0-.348-.021-.55-.038v-.136c.32-.056.637-.125.957-.188v.386l-.407-.024Z"/><path d="M369.442 169.691c-.157-.025-.314-.046-.47-.077v-.216c.32-.038.64-.087.957-.125v.484c-.157-.018-.307-.042-.487-.066Z"/><path d="m369.341 169.6-.369-.028v-.146c.316-.045.637-.087.957-.118v.323l-.588-.031Z"/><path d="M369.156 169.447h-.191v-.153c.316-.049.637-.098.957-.136v.366a25.775 25.775 0 0 0-.766-.077ZM370.061 186.581a12.01 12.01 0 0 1-.546-.484l-.522-15.818v-.018c0-.034.024-.066.034-.101a.995.995 0 0 0 .025-.111.902.902 0 0 0 0-.104 1.601 1.601 0 0 0 0-.098.505.505 0 0 0 0-.055s.035.034.041.045l.077.073c.055.044.112.084.171.122l.132.069.118.053-.042-.018.16.056.108.028h.126l.55 16.705c-.143-.097-.289-.23-.432-.344Z"/><path d="M369.971 170.954a5.55 5.55 0 0 1-.035-.432.83.83 0 0 1 .024-.281l.031.863a.964.964 0 0 1-.02-.15Z"/><path d="M369.835 171.031a1.434 1.434 0 0 1-.084-.554v-.271c0-.097.02-.193.059-.282.039-.045.06-.038.115-.031v.027h-.045v.084a.135.135 0 0 1 0 .049l.042.128.038 1.177a1.442 1.442 0 0 1-.125-.327Z"/><path d="M370.423 192.396c-.157-.153-.348-.289-.494-.438l-.227-.216-.657-19.981c.069-.107.139-.219.212-.327l.08-.129.178-.285c.041-.073.09-.143.135-.216l-.021.032c.067-.108.136-.213.209-.321a.694.694 0 0 0 .052-.097.033.033 0 0 0 0-.024.937.937 0 0 0 .035-.136.254.254 0 0 1 .028-.101l.738 22.465a3.406 3.406 0 0 1-.268-.226Z"/><path d="m370.124 204.608-.599-18.16c.051-.202.1-.403.146-.605a3.97 3.97 0 0 1 .348-1.222v.045c0 .025 0 .049-.017.073a1.57 1.57 0 0 0-.031.348v.314c.053.509.138 1.015.254 1.514v-.053c.094.369.194.735.316 1.097l.554 16.886-.971-.237ZM368.85 155.129c-.118 0-.237-.028-.348-.049v-.146c.32-.042.64-.083.96-.108v.348c-.208-.017-.41-.017-.612-.045Z"/><path d="M368.819 155.101h-.324v-.153c.23-.035.459-.066.696-.08h.264v.219a5.36 5.36 0 0 1-.581.035l-.055-.021Z"/><path d="M368.641 155.244h-.143v-.115c.3-.056.596-.122.895-.157h.062v.279h-.396c-.133.007-.279 0-.418-.007ZM368.467 154.193c.167-.031.348-.056.512-.077.163-.021.247-.031.369-.041h.076l.025.817h-.094l-.289.035c-.174.018-.348.028-.529.042h-.046l-.024-.776ZM368.624 153.434v.018a7.32 7.32 0 0 0-.202-.442l-.916-27.878.968.244.881 26.718a7.417 7.417 0 0 0-.279.599l.021-.056a8.194 8.194 0 0 0-.268.867c-.017.083-.038.163-.049.25h.025-.021c-.063.011-.15-.299-.16-.32Z"/><path d="M368.61 154.412a1.574 1.574 0 0 1-.153-.498l-.025-.696v-.504a.262.262 0 0 0 0-.056.592.592 0 0 1 .606-.633c.055.003.11.014.163.031 0-.038.018-.077.028-.115l.052-.233v.017c.018-.08.025-.198.056-.302l.118 3.609a1.227 1.227 0 0 1-.845-.62Z"/><path d="m368.46 153.967-.021-.522c.035.184.07.365.119.546a.451.451 0 0 1 0 .052l.031.052a.719.719 0 0 0 .08-.066.283.283 0 0 1-.073.098.07.07 0 0 1-.035 0c.017.021-.052-.059-.101-.16ZM330.963 179.237c-2.784-.094-5.547-.09-8.311-.324 4.118-.146 8.277-.65 12.415-.435 2.088.157 4.336.077 6.348.477-1.636-.139-3.348.132-4.963.188a64.93 64.93 0 0 1-3.87.111c-.547 0-1.079-.006-1.619-.017Z"/><path d="M338.669 178.635h.017c-9.894-1.74-19.371-5.22-28.775-8.68a90.307 90.307 0 0 1-8.541-3.661 96.532 96.532 0 0 0-6.689-3.045c5.986 1.667 11.485 4.743 17.402 6.751 4.096 1.473 8.199 2.931 12.337 4.295 4.911 1.427 9.818 2.878 14.778 4.145.929.272 1.903.536 2.784.842l-3.313-.647ZM294.58 163.231l.101.042-.101-.042Z"/><path d="M304.52 162.118c3.299-.481 6.613-.843 9.915-1.337a5073.24 5073.24 0 0 1 30.589-4.737c.077-.012.152-.03.226-.055a8.085 8.085 0 0 1-1.201.348c-6.39 1.663-12.929 2.523-19.437 3.55-10.013 1.601-20.109 3.132-30.178 4.051 3.362-.599 6.714-1.271 10.086-1.82Z"/><path d="M323.773 178.823c-6.066-7.229-12.327-14.402-17.889-22.003 6.359 7.027 12.63 14.186 17.945 22.045 0 0-.042-.042-.056-.042Z"/><path d="M306.218 157.144a22.678 22.678 0 0 1 1.64 2.499 11.019 11.019 0 0 1-1.64-2.499Z"/><path d="M306.013 157.419c.916.963 1.76 1.991 2.527 3.077-.909-.947-1.911-1.956-2.527-3.077Z"/><path d="M306.058 157.245c.797.912 1.768 1.838 2.437 2.861-.86-.884-1.904-1.817-2.437-2.861Z"/><path d="M311.23 164.206c-1.817-2.363-3.828-4.598-5.419-7.09 2.008 2.437 4.291 4.66 6.293 7.114 4.085 5.043 8.161 10.131 11.833 15.456a363.217 363.217 0 0 1-12.707-15.48Z"/><path d="M323.408 178.75a33.752 33.752 0 0 1-4.232-5.391 37.774 37.774 0 0 1 3.588 4.458c.198.319.417.625.654.915a.069.069 0 0 0 .049 0l-.059.018ZM333.678 163.082c4.093-2.534 8.074-5.245 12.181-7.727-3.442 2.6-6.936 5.276-10.615 7.577-3.48 2.273-7.267 4.089-10.632 6.529 0 0-.028.042-.045.042 2.711-2.537 6.024-4.389 9.111-6.421Z"/><path d="M344.383 156.239c8.621 3.905 17.096 8.169 25.093 13.225-.021-.034-.139-.111-.121-.121.017-.011.292.184.191.208-8.482-4.218-16.977-8.547-25.163-13.312ZM377.137 195.748c-1.588-5.245-3.307-10.441-4.81-15.717-.909-3.133-1.612-6.314-2.534-9.422a2.337 2.337 0 0 1-.167-.765v.042a.215.215 0 0 0 0 .08c2.046 5.008 3.435 10.253 5.029 15.417 1.33 4.344 2.784 8.663 3.978 13.037 1.082 4.149 1.946 8.409 2.784 12.582-1.597-5.033-2.805-10.184-4.28-15.254Z"/><path d="M370.607 204.32c.383-.477.547-1.135.797-1.688a641.404 641.404 0 0 1 4.459-10.789c1.604-3.804 3.48-7.483 5.325-11.176-.168.509-.415 1.09-.61 1.601-1.479 3.808-3.132 7.598-4.705 11.381-1.197 2.836-2.523 5.614-3.926 8.353-.445.762-.731 1.702-1.343 2.328-.017.014 0-.031.003-.01Z"/><path d="M380.634 182.759c-.8-.891-1.59-1.785-2.398-2.666-3.045-3.261-5.965-6.696-8.788-10.117a95.286 95.286 0 0 1 7.831 8.207 68.442 68.442 0 0 1 3.38 4.465c.11.203.269.375.462.501a1.065 1.065 0 0 1-.487-.39ZM373.242 159.598c-1.514-1.497-2.892-3.132-4.462-4.577 4.758 3.581 8.896 8.137 12.978 12.456a105.397 105.397 0 0 1-8.516-7.879Z"/><path d="M369.529 169.809c3.828-1.604 7.715-3.331 11.686-4.504-3.772 1.803-7.618 3.536-11.693 4.525-.011-.018.01-.056.007-.021ZM369.365 154.889c.477-3.776 1.611-7.493 2.492-11.175a244.4 244.4 0 0 1 7.656-24.314c.087-.222.157-.48.255-.671l-.314 1.204c-1.489 6-3.532 11.833-5.22 17.77-.929 3.32-1.758 6.658-2.736 9.954-.675 2.419-1.597 4.782-2.112 7.235 0 0-.025 0-.021-.003Z"/><path d="M376.855 155.453v.048c-.161-.56-.321-1.131-.477-1.684v.035c-2.231-7.713-4.667-15.4-6.755-23.165-.547-1.785-.982-3.627-1.417-5.429 3.439 9.261 6.024 18.898 8.892 28.371a660.04 660.04 0 0 1 3.829 14.461c-1.528-4.159-2.952-8.356-4.072-12.637ZM339.769 164.345a487.28 487.28 0 0 1 28.026-8.586c.512-.129 1.044-.299 1.539-.404-7.079 2.785-14.381 4.8-21.61 7.117-7.496 2.287-14.85 5.371-22.541 6.843 4.907-1.535 9.703-3.369 14.586-4.97Z"/><path d="M380.627 182.467c-3.209-5.123-5.763-10.605-8.22-16.117-1.671-3.738-3.321-7.49-4.803-11.308.115.174.209.425.32.623 4.629 8.746 8.436 17.903 12.724 26.798 0 0-.021.011-.021.004ZM337.757 241.082c-1.274-1.904-.056-4.744 2.213-5.078 3.213-.56 5.109 3.62 2.614 5.694a3.034 3.034 0 0 1-2.158.905 3.13 3.13 0 0 1-2.669-1.521ZM308.717 256.329a1.425 1.425 0 0 1 .307-2.593c.946-.348 1.851.498 1.795 1.434a1.487 1.487 0 0 1-1.468 1.33c-.223 0-.441-.059-.634-.171Z"/><path d="M325.638 246.4c4.688-2.377 9.373-4.873 14.311-6.679.172-.058.349-.095.529-.111a7.096 7.096 0 0 0-.984.386c-10.243 5.301-20.454 10.869-30.916 15.686 5.562-3.327 11.276-6.359 17.06-9.282ZM214.234 175.809c-.43-.467-.825-.965-1.183-1.49a23.52 23.52 0 0 1-2.245-10.061c0-13.149 10.758-23.805 24.014-23.805a24.042 24.042 0 0 1 12.138 3.252 24.039 24.039 0 0 1 8.841 8.929l-.497-.32a23.303 23.303 0 0 0-5.189-6.004l-.108-.087-.289-.226h-.021l-.087-.07-.038-.031-.126-.091-.041-.034-.084-.063-.052-.038-.08-.06-.049-.038-.087-.062-.042-.032-.125-.087-.045-.031-.087-.063-.052-.038-.077-.052-.059-.042-.08-.052a.243.243 0 0 0-.049-.035l-.129-.087-.038-.028-.094-.059-.056-.038-.076-.049-.063-.042-.073-.045-.059-.038-.091-.06-.094-.059-.076-.045-.066-.042-.066-.041-.07-.042-.07-.042-.066-.038-.08-.049-.111-.063-.07-.041-.073-.042-.066-.038-.08-.07-.066-.035-.073-.042-.08-.041-.105-.06-.083-.045-.066-.035-.07-.038-.077-.038-.069-.038-.07-.035-.08-.042-.108-.056-.083-.041-.07-.035-.073-.035-.073-.038-.077-.035-.066-.031-.087-.042-.101-.049-.09-.042-.073-.031-.073-.035-.073-.031-.08-.038-.067-.028-.097-.042-.049-.021-.142-.063-.053-.02-.097-.042-.059-.025-.098-.041-.052-.021-.125-.049h-.024l-.154-.063h-.034l-.119-.045-.048-.021-.115-.041h-.035l-.32-.119-.174-.111h-.028l-.139-.049a23.323 23.323 0 0 0-3.453-.877l-.129-.021h-.02l-.105-.017h-.188l-.132-.021h-.021l-.143-.021-.316-.042h-.321c-.24-.028-.483-.052-.727-.073H235.22c-12.918 0-23.391 10.378-23.391 23.175v.321a.534.534 0 0 1 0 .08v.229a.801.801 0 0 1 0 .098v.717a.58.58 0 0 0 0 .059V165.984a.973.973 0 0 0 0 .108v.08a.451.451 0 0 0 0 .052.726.726 0 0 0 0 .066.6.6 0 0 0 0 .06v.069a.262.262 0 0 1 0 .056v.15a.482.482 0 0 0 0 .076v-.059.122c0 .104.025.209.039.309v.105a.038.038 0 0 0 0 .021v.101a22.904 22.904 0 0 0 3.734 9.745l.021.031.104.153.035.052.042.063.146.209.052.073.038.052a24.89 24.89 0 0 1-1.806-1.869ZM235.22 187.499c-.435-.066-.884-.115-1.319-.198h2.513l.282-.017.289-.021.421-.035a23.325 23.325 0 0 0 9.275-2.892l.372.139.261.097a24 24 0 0 1-9.289 3.3 75.222 75.222 0 0 1-2.805-.373Z"/><path d="M254.578 151.169a23.416 23.416 0 0 0-16.761-10.038l-.456-.045-.261-.024h-.025l-.257-.018H233.988a23.436 23.436 0 0 0-10.945 3.324 20.614 20.614 0 0 1 1.921-1.817 24.185 24.185 0 0 1 29.993 8.701l-.379-.083Z"/><path d="M219.521 164.554c0-10.967 8.972-19.855 20.043-19.855 10.677 0 19.402 8.265 20.008 18.692-.668-9.974-9.219-17.875-19.674-17.875-10.89 0-19.716 8.565-19.716 19.142s8.826 19.142 19.716 19.142c9.313 0 17.119-6.265 19.183-14.694a20.015 20.015 0 0 1-19.517 15.313c-11.071-.003-20.043-8.895-20.043-19.865ZM200.365 158.223c-.8-.063-1.601-.132-2.401-.202-1.591-.143-3.181-.285-4.772-.438a148.27 148.27 0 0 1-4.907-.561l-.967-.128v-.042c.02-.16.045-.32.069-.48l.47.034c1.573.123 3.146.258 4.719.404 1.594.146 3.185.299 4.779.442 1.256.108 2.512.212 3.769.327-.042.23-.084.46-.122.696l-.637-.052ZM201.5 152.957a345.153 345.153 0 0 0-5.033-1.458 71.812 71.812 0 0 0-2.332-.654c-.932-.254-1.862-.519-2.784-.766a310.947 310.947 0 0 1-5.624-1.524 216.425 216.425 0 0 1-3.48-1.016c.045-.143.087-.282.132-.422l.39.087c.16.035.323.07.487.112l.466.108.933.215 1.065.255c.919.219 1.831.452 2.746.678.428.108.849.226 1.274.348l1.667.446c.87.229 1.74.473 2.603.696.759.204 1.515.415 2.269.633.787.223 1.58.442 2.367.672l3.86 1.141-.23.672-.776-.223ZM201.486 145.005c-1.539-.634-3.073-1.267-4.619-1.886-.793-.321-1.583-.644-2.373-.978-.696-.3-1.42-.592-2.13-.891l.261-.498.72.258a122.21 122.21 0 0 1 4.177 1.607c1.624.657 3.24 1.317 4.848 1.981 1.086.449 2.171.894 3.254 1.354-.125.198-.244.396-.366.602-1.256-.509-2.512-1.031-3.772-1.549ZM207.987 142.402c-1.201-.895-2.387-1.81-3.581-2.715a646.916 646.916 0 0 0-3.742-2.816c-1.364-1.016-2.728-2.032-4.078-3.066a115.198 115.198 0 0 1-3.627-2.913c-.456-.376-.908-.758-1.361-1.141l.265-.331.052.038c1.32.968 2.635 1.939 3.943 2.913 1.173.877 2.342 1.765 3.515 2.642l4.107 3.077a418.158 418.158 0 0 1 5.053 3.859c-.148.177-.294.354-.438.533l-.108-.08ZM208.067 135.142c-.08-.105-.164-.206-.247-.31l-.084-.101-.094-.118v-.018c-1.242-1.535-2.436-3.094-3.647-4.663-.411-.543-.825-1.086-1.221-1.643l-.23-.32.303-.282.445.511 2.071 2.35c.546.623 1.1 1.242 1.636 1.872.628.74 1.251 1.488 1.869 2.245.268.327.532.658.797.988l-.035-.041c.612.755 1.2 1.527 1.792 2.3l.498.651c-.181.16-.348.32-.533.484a158.764 158.764 0 0 1-3.32-3.905ZM207.82 134.835l.018.019-.018-.019ZM207.618 134.585l.018.022-.018-.022ZM207.587 134.543l.017.024-.017-.024ZM216.392 132.1c-1.253-1.792-2.495-3.595-3.752-5.384-1.221-1.74-2.474-3.453-3.661-5.221a82.495 82.495 0 0 1-1.942-2.982c-.303-.491-.609-.985-.905-1.486l.386-.226c.696.918 1.392 1.823 2.088 2.739.62.821 1.25 1.632 1.866 2.457a172.24 172.24 0 0 1 2.053 2.805 349.66 349.66 0 0 1 3.481 4.942c.925 1.336 1.855 2.673 2.759 4.026-.29.151-.575.304-.856.46a73.412 73.412 0 0 1-1.517-2.13ZM207.033 118.516l.005.005-.005-.005ZM207.093 118.614l.017.028-.017-.028ZM222.535 131.143a72.737 72.737 0 0 1-1.285-2.972 57.53 57.53 0 0 1-1.044-2.785c-.727-2.039-1.392-4.103-2.07-6.153l-.22-.64-.115-.324v-.021l.056-.021.035.067.254.511a175.622 175.622 0 0 1 2.648 5.496c.449.967.895 1.938 1.313 2.923.417.985.783 1.939 1.138 2.92.142.39.278.78.417 1.169l-.021-.059c0 .025 0 .049.025.07.045.122.087.24.129.348-.289.094-.578.191-.86.292-.146-.275-.275-.553-.4-.821Z"/><path d="m223.652 131.313-.021-.055.021.059v-.004ZM229.074 129.876c-.101-.574-.202-1.155-.299-1.74v-.021.021-.021c-.073-.397-.129-.797-.195-1.197-.049-.31-.098-.62-.143-.929-.113-.766-.229-1.532-.348-2.297a628.743 628.743 0 0 0-.717-5.089c-.115-.807-.212-1.614-.309-2.436-.098-.821-.164-1.535-.237-2.3a84.188 84.188 0 0 1-.272-3.829l.348-.045c.042.31.08.62.122.929.094.766.209 1.532.307 2.297.041.331.097.665.142.996.07.487.136.974.202 1.458.111.811.23 1.618.348 2.436.118.818.205 1.507.313 2.262.209 1.511.432 3.025.651 4.525.237 1.601.473 3.202.696 4.806.028.226.059.452.087.675-.195.028-.39.052-.585.084-.048-.226-.08-.407-.111-.585ZM238.015 130.308c0-.268-.031-.536-.045-.804-.039-.696-.08-1.365-.119-2.047a135.25 135.25 0 0 1-.097-2.123v-.031a.17.17 0 0 1 0 .045V125.202a245.102 245.102 0 0 1-.143-4.778c0-.47-.024-.94-.024-1.413v.024-2.763c0-.188 0-.373.024-.561 0-.083.007-.167.021-.25.007-.066.018-.131.035-.195a.384.384 0 0 0 0 .083v.282a61.803 61.803 0 0 0 .177 2.224c.081.87.164 1.74.241 2.61.143 1.562.259 3.128.348 4.699.101 1.5.177 3.003.219 4.507 0 .243 0 .487.017.734l-.654-.097ZM243.959 131.595c.084-.591.171-1.176.258-1.764.302-1.989.611-3.974.929-5.955.31-1.925.602-3.853.933-5.774.296-1.74.612-3.456.936-5.179.094-.487.185-.974.282-1.458l.317.087v.119c-.039.348-.073.671-.115 1.009-.042.337-.077.734-.115 1.1-.195 1.942-.397 3.88-.661 5.815-.247 1.806-.519 3.609-.783 5.416-.265 1.806-.564 3.696-.822 5.523-.066.459-.132.919-.195 1.392-.32-.125-.64-.23-.964-.331ZM187.425 172.103l.794-.248c.369-.125.748-.233 1.121-.348l1.218-.365c.811-.254 1.632-.48 2.436-.72a316.11 316.11 0 0 1 4.757-1.365c1.021-.28 2.042-.558 3.063-.832.024.206.052.404.084.606l-1.323.407c-.804.244-1.611.487-2.415.721-1.535.449-3.077.887-4.612 1.336-1.534.449-3.163.912-4.757 1.333l-.279.073c-.021-.198-.055-.4-.087-.598ZM183.019 181.955c.912-.41 1.831-.814 2.753-1.204 2.008-.856 4.034-1.677 6.052-2.502a662.642 662.642 0 0 1 5.879-2.381 125.278 125.278 0 0 1 4.437-1.67c.098.302.195.605.299.905-.819.352-1.64.7-2.464 1.044-1.012.407-2.032.797-3.052 1.193a982.572 982.572 0 0 0-6.003 2.343c-1.97.772-3.933 1.569-5.917 2.321l-1.74.654c-.077-.254-.16-.484-.244-.703ZM192.695 187.663l1.166-.651c1.334-.738 2.67-1.472 4.009-2.203a365.087 365.087 0 0 0 4.027-2.231c1.044-.591 2.088-1.183 3.153-1.768.115.199.229.397.348.595l-.087.053c-.348.194-.669.389-1.01.577l-.281.164-.679.383-1.197.675c-.724.414-1.459.814-2.186 1.225-.654.365-1.316.72-1.973 1.079-.658.358-1.292.696-1.942 1.023a165.344 165.344 0 0 1-3.098 1.542l-.25-.463ZM192.291 198.198l.891-.724c.665-.543 1.326-1.083 2.001-1.608.303-.254.613-.498.919-.748l1.155-.94c.679-.553 1.351-1.11 2.026-1.664 1.235-1.016 2.46-2.046 3.682-3.073 1.222-1.026 2.523-2.13 3.8-3.174.324-.264.644-.529.971-.786l.348-.265c.157.195.321.394.481.585l-.561.473c-.546.463-1.099.919-1.653 1.371-.379.307-.751.613-1.127.923-.265.212-.522.435-.79.644l.038-.032c-.696.585-1.417 1.159-2.123 1.74-.707.582-1.309 1.083-1.963 1.622a454.684 454.684 0 0 1-3.7 3.039c-.348.285-.696.581-1.061.859l.038-.028c-.526.42-1.053.838-1.58 1.253l-.463.348.025-.021c-.296.241-.606.463-.912.696a4.852 4.852 0 0 1-.442-.49ZM202.523 200.401l.038-.045c.331-.348.658-.697.982-1.045.675-.734 1.34-1.479 2.011-2.217 1.278-1.392 2.548-2.815 3.87-4.176a119.067 119.067 0 0 1 3.133-3.076c.219.184.438.365.664.542a133.796 133.796 0 0 1-3.059 3.154 119.55 119.55 0 0 1-2.293 2.21c-.613.581-1.225 1.159-1.845 1.74-.745.682-1.493 1.361-2.245 2.036a44.68 44.68 0 0 1-.929.814l-.223.192-.104-.129ZM206.396 210.215c.996-1.789 2.01-3.565 3.042-5.328.968-1.664 1.953-3.324 2.934-4.98a150.331 150.331 0 0 1 3.056-4.96c.327-.501.661-1.006.995-1.507.129-.191.254-.386.387-.578.215.133.435.262.654.39l-.376.665a123.679 123.679 0 0 1-2.958 4.946 1163.792 1163.792 0 0 0-3.324 5.307c-1.044 1.684-2.088 3.376-3.153 5.053-.265.418-.529.839-.797 1.257l-.46-.265ZM217.572 209.958c.09-.3.184-.599.278-.902.15-.48.324-.957.487-1.43.188-.54.366-1.079.55-1.619.209-.609.418-1.221.641-1.827l.021-.059v-.017a86.517 86.517 0 0 1 1.277-3.331c.376-.912.776-1.81 1.19-2.704.348-.749.704-1.494 1.069-2.234l.821.275c-.348.932-.696 1.858-1.069 2.784a70.438 70.438 0 0 1-1.312 3.062c-.41.891-.842 1.772-1.27 2.656a305.424 305.424 0 0 0-1.51 3.153c-.126.258-.23.526-.348.787-.119.261-.216.483-.317.727s-.209.508-.317.766l-.191-.087ZM226.537 217.106c0-.129.035-.254.056-.383.271-1.868.56-3.73.88-5.592.143-.836.296-1.674.46-2.506.163-.832.309-1.667.462-2.499.349-1.817.655-3.637 1.045-5.443.066-.31.132-.616.201-.926v-.059a.2.2 0 0 1 0-.049v-.017c.161-.728.348-1.455.512-2.179l.665.07c-.249 1.538-.514 3.07-.797 4.597a368.407 368.407 0 0 1-1.072 5.541c-.376 1.844-.731 3.671-1.138 5.499v.038a7.978 7.978 0 0 0-.077.348v.073a126.2 126.2 0 0 1-.466 2.067c-.038.185-.08.369-.122.55a.066.066 0 0 0 0-.028c-.07.317-.143.634-.212.954l-.397-.056ZM229.648 199.744Z"/><path d="M229.652 199.705h.004l-.004.004v-.004ZM227.278 215.651a.053.053 0 0 1 0 .025v-.025ZM229.669 199.633l.005-.005-.005.005ZM229.68 199.604v.024a.049.049 0 0 1 0-.024ZM236.957 213.257v-.024c0-.404-.059-.804-.094-1.205-.035-.4-.059-.716-.087-1.071-.07-.836-.136-1.671-.205-2.506-.119-1.497-.24-2.997-.348-4.497-.101-1.608-.15-3.219-.188-4.827v-.539.031-.909.028-.135l.428-.028c.024.289.052.581.076.873.129 1.479.244 2.962.348 4.448.098 1.624.159 3.248.185 4.873v.393-.018 2.409c0 .738 0 1.475-.045 2.213 0 .16 0 .324-.028.484l-.042.007ZM247.001 215.088a244.457 244.457 0 0 1-1.535-4.838c-.232-.768-.456-1.541-.671-2.318-.202-.696-.397-1.427-.592-2.14a.17.17 0 0 0 0 .045v-.035c-.202-.696-.393-1.427-.588-2.14a.148.148 0 0 0 0 .042v-.028.028-.035c-.192-.672-.373-1.347-.554-2.022a.16.16 0 0 0 0 .031c-.18-.64-.348-1.284-.518-1.925a.148.148 0 0 0 0 .042c-.122-.421-.226-.849-.348-1.277a36.116 36.116 0 0 1-.24-.943c-.066-.254-.129-.508-.195-.766l.571-.143c.212.697.424 1.424.63 2.134.076.271.16.539.233.811.181.623.348 1.246.525 1.872.192.679.376 1.361.561 2.04v-.032.021c.205.696.396 1.434.591 2.151v-.028c.202.696.394 1.41.585 2.113v.073c.369 1.315.72 2.638 1.068 3.957a.049.049 0 0 1 0 .024c.122.411.22.825.328 1.239.08.303.156.613.236.919.139.546.275 1.096.407 1.646l-.348.098-.146-.616ZM245.48 207.734v-.025a.177.177 0 0 0 0 .046v-.021ZM492.735 178.739a.756.756 0 0 1 .09-.045l.237-.129c1.622.561 3.326.847 5.043.846 8.572 0 15.522-7.023 15.522-15.682 0-.698-.045-1.396-.136-2.088.272-.22.55-.432.832-.641.152.904.229 1.819.23 2.736 0 8.909-7.152 16.131-15.971 16.131a15.76 15.76 0 0 1-5.847-1.128Z"/><path d="m486.414 174.17.07-.018a15.43 15.43 0 0 0 11.607 5.27c8.575 0 15.522-7.024 15.522-15.683 0-8.659-6.961-15.682-15.522-15.682a15.423 15.423 0 0 0-11.242 4.873l-.107-.025a15.851 15.851 0 0 1 11.833-5.293c8.819 0 15.971 7.221 15.971 16.131 0 8.909-7.145 16.124-15.965 16.124a15.874 15.874 0 0 1-12.167-5.697Z"/><path d="m486.345 173.839.153-.017a14.032 14.032 0 0 0 9.936 4.12 14.263 14.263 0 0 0 12.736-7.622 14.278 14.278 0 0 0 1.615-7.537 14.28 14.28 0 0 0-2.541-7.277 14.268 14.268 0 0 0-20.668-2.932 14.263 14.263 0 0 0-4.464 6.282 14.62 14.62 0 0 1 14.707-9.722 14.622 14.622 0 0 1 13.364 11.5 14.622 14.622 0 0 1-7.421 15.992 14.616 14.616 0 0 1-17.41-2.78l-.007-.007ZM323.777 179.032a14.99 14.99 0 0 1-3.035-3.971 13.024 13.024 0 0 1 3.062 3.978c.028-.007.004.031-.027-.007Z"/><path d="M323.519 178.913a2.549 2.549 0 0 1-.487-.574c.205.151.371.348.487.574ZM323.909 179.098a58.952 58.952 0 0 1-5.739-7.657 43.783 43.783 0 0 1 5.735 7.636c.007-.028.028.031.004.021ZM309.431 161.348c-1.285-1.141-2.544-2.335-3.404-3.828 0-.028-.101-.136-.028-.15v.042a16.238 16.238 0 0 1 3.432 3.936Z"/><path d="M311.018 163.116c-1.66-1.392-3.362-2.812-4.525-4.67-.073-.112-.765-1.11-.633-1.201.021-.09-.066-.216-.056-.285.032.066.164.254.098.33.88.843 1.945 1.511 2.714 2.489a34.805 34.805 0 0 1 2.402 3.337Z"/><path d="M309.814 161.909a22.502 22.502 0 0 1-4.299-4.316c-.027-.035-.087-.111 0-.136v.025a23.937 23.937 0 0 1 4.299 4.427Z"/><path d="M306.601 158.453a4.206 4.206 0 0 1-.981-.989c-.028-.038.069-.052 0-.021.351.313.679.65.981 1.01Z"/><path d="m306.246 158.059-.142-.142c-.028-.035-.08-.084-.07-.136l-.285-.348c.097.028.212.184.309.265 0-.042-.073-.091-.045-.136.028-.045 0-.052.028-.025a.048.048 0 0 1 .017.053c.034.038.063.08.087.125.01.023.01.05 0 .073.07.084.293.226.223.348-.042.017-.087-.045-.122-.077Z"/><path d="M305.996 157.805c-.042-.017-.087-.118 0-.08h.052c.01 0 0-.031 0-.052 0-.021 0 .112-.038.105-.039-.007.01.038-.014.027Z"/><path d="M306.024 157.774c-.06-.059-.286-.254-.15-.306h-.025c.049.125.164.216.175.306Z"/><path d="M307.169 158.923a8.684 8.684 0 0 1-1.563-1.567c.567.474 1.09.999 1.563 1.567Z"/><path d="M308.087 160.068a12.985 12.985 0 0 1-2.342-2.524c-.017-.017-.059-.142-.024-.118.692.863 1.715 1.646 2.366 2.642Z"/><path d="M311.923 164.355c-1.598-1.58-3.22-3.25-4.431-5.123a44.909 44.909 0 0 1 4.431 5.123ZM323.439 178.712a1.854 1.854 0 0 1-.39-.376s.08.041.091.052c.097.087.275.198.299.324ZM323.199 178.701a.936.936 0 0 1-.373-.466c.122.122.383.278.373.466Z"/><path d="M323.411 179.115a1.693 1.693 0 0 1-.592-.8c0-.018.039 0 .056 0a1.13 1.13 0 0 0-.129-.139c0-.018.018 0 .025 0 .17.104.348.194.525.295.178.101.474.254.404.477a.227.227 0 0 1-.037.086.233.233 0 0 1-.159.092.227.227 0 0 1-.093-.011Z"/><path d="M323.547 179.171c-.042 0-.453-.066-.313-.157.02 0 0 .021 0 .028.247 0 .449-.149.696-.174a1.75 1.75 0 0 1 .696.094c-.34.15-.708.222-1.079.209Z"/><path d="M324.744 179.248c-.536-.049-1.357 0-1.74-.143 2.088-.143 4.235-.348 6.31-.167a30.416 30.416 0 0 1-4.563.31h-.007Z"/><path d="M323.335 179.422h-.025a33.776 33.776 0 0 1 7.333-.599c-2.42.361-4.862.561-7.308.599ZM338.853 179.035a33.661 33.661 0 0 1-2.941-.195 28.058 28.058 0 0 1 5.743.14c-.932.07-1.868.088-2.802.055ZM341.495 178.771c-2.684-.411-5.377-.776-8.043-1.291-2.318-.509-4.525-1.417-6.759-2.169 2.21.387 4.43 1.093 6.654 1.546a81.844 81.844 0 0 1 8.148 1.914Z"/><path d="M338.683 178.391c1.115.053 2.222.215 3.306.484a15.782 15.782 0 0 1-3.306-.484Z"/><path d="M340.639 178.823c-.808-.136-1.664-.15-2.437-.446a.195.195 0 0 1-.135-.181.874.874 0 0 1-.206-.062s.136.024.209.024c.042-.16.226-.136.348-.101.23.045.46.094.696.153.327.077 2.436-.052 1.848.602 0 0 .056 0 .039.021a.716.716 0 0 1-.362-.01ZM302.035 166.311a50.81 50.81 0 0 1-7.74-3.296 45.024 45.024 0 0 1 7.74 3.296Z"/><path d="M301.207 165.988a29.448 29.448 0 0 1-6.759-2.879 66.854 66.854 0 0 1 6.759 2.879Z"/><path d="M302.689 166.764a38.803 38.803 0 0 1-6.727-3.046 43.518 43.518 0 0 1 6.727 3.046Z"/><path d="M294.988 163.892c3.306-.668 6.612-1.326 9.988-1.548a49.117 49.117 0 0 1-9.988 1.548Z"/><path d="M294.82 164.053c3.366-.728 6.78-1.18 10.184-1.608-3.247 1.009-6.79 1.451-10.184 1.608ZM369.971 169.569c-2.489-1.27-5.064-2.436-7.577-3.651-2.019-1.006-3.978-2.248-5.917-3.369 4.622 2.036 9.338 4.145 13.494 7.02Z"/><path d="M370.339 169.698c-4.054-1.88-8.248-3.655-11.947-6.147 4.054 1.866 8.241 3.672 11.947 6.147Z"/><path d="M369.275 169.231a4.596 4.596 0 0 1-.825-.515c.304.143.594.317.863.519.021.017-.021.01-.038-.004Z"/><path d="M369.337 169.315a4.37 4.37 0 0 1-1.068-.543c-.021-.279.755.219.877.275.048.021.101.108.024.129.094.065.196.12.303.163l-.136-.024ZM354.567 161.421c-3.585-1.527-7.142-3.191-10.441-5.29 3.665 1.316 7.134 3.31 10.441 5.29Z"/><path d="M351.052 159.838a47.613 47.613 0 0 1-7.88-4.25c2.76 1.058 5.388 2.68 7.88 4.25Z"/><path d="M348.483 158.547c-1.928-.954-3.919-1.918-5.659-3.178a29.154 29.154 0 0 1 5.659 3.178ZM369.114 170.122a16.942 16.942 0 0 1 5.541-2.245c-1.698.853-3.623 1.803-5.541 2.245ZM374.867 167.94c1.772-.96 3.602-1.97 5.548-2.481-1.632 1.259-3.634 1.809-5.548 2.481Z"/><path d="M375.922 176.971c-2.412-2.046-4.827-4.298-6.526-6.96 2.607 1.851 4.438 4.653 6.526 6.96Z"/><path d="M380.937 182.731a48.935 48.935 0 0 1-7.229-8.112 96.2 96.2 0 0 1 7.229 8.112Z"/><path d="M380.147 181.955c-1.97-1.712-3.553-3.804-5.189-5.822 1.872 1.747 3.779 3.682 5.189 5.822Z"/><path d="M380.063 181.868h-.027c-.028 0 0 0 0 0-1.786-1.301-3.161-3.156-4.347-4.942 1.409 1.507 3.536 3.16 4.374 4.942ZM341.576 178.266l-7.869 6.331.768.955 7.869-6.332-.768-.954Z"/><path d="m294.907 164.049-.062-1.437 39.713 21.431.063 1.441-39.714-21.435Z"/><path d="m294.305 162.998 11.036-5.673c.229.345.41.72.536 1.114l-10.354 5.325-1.218-.766Z"/><path d="M305.237 158.387c.082-.048.161-.1.237-.157a.083.083 0 0 1 .007-.038.09.09 0 0 1 .02-.032.442.442 0 0 1 .14-.094.65.65 0 0 1 .184-.083.11.11 0 0 1 .132.112.114.114 0 0 1-.02.062.496.496 0 0 1-.251.143.61.61 0 0 1-.101.045.1.1 0 0 1-.042 0l-.055.017c-.08.023-.162.039-.244.049-.007-.007-.007-.01-.007-.024Z"/><path d="M305.052 158.801a.927.927 0 0 1-.062-1.281.166.166 0 0 0 .035-.035l.664-.348c.07-.01.14-.01.209 0a.825.825 0 0 1 .348.112.876.876 0 0 1 .578.717l-1.709.877a.266.266 0 0 1-.063-.042Z"/><path d="m305.314 157.329 63.223-3.039 1.148 1.184-63.223 3.041-1.148-1.186ZM323.808 168.695l43.504-.122.278.171.038.024-.062.056-.369.348c.028.111.055.226.076.348.021.122.035.188.046.282l-42.408.118-1.103-1.225Z"/><path d="M324.031 168.932c.232-.049.458-.101.678-.157l.296-.083 42.324-.119c-.348.178-.696.349-1.044.54-.348.191-.724.456-1.072.696l-40.295.111-.887-.988Z"/><path d="M362.662 169.732a.187.187 0 0 1-.118-.073h.121l.213-.045a4.92 4.92 0 0 0 .48-.188h-.035c.178-.076.348-.163.522-.257a6.505 6.505 0 0 1 1.42-.609h2.224c.313.112.605.277.863.487.185.146-.191.619-.313.755h-5.151l-.226-.07Z"/><path d="m365.794 169.21-.066-.062-.108-.077c-.042-.021-.209-.066-.191-.136h.017l.028-.017.049-.035c.035-.029.069-.061.101-.094l.066-.073.062-.09.032-.056v.021-.021h3.327a.37.37 0 0 1 0 .094c.028.449-.533.818-.863 1.002-.11.062-.227.11-.348.143h-1.291a2.01 2.01 0 0 1-.815-.599ZM365.478 168.925l-.004.004.004-.004Z"/><path d="M367.642 169.774a.72.72 0 0 0-.139-.069l-.08-.028c-.038 0-.111 0-.101-.056.01-.056 0 0 0 0a.367.367 0 0 0 .056-.038l.066-.056.049-.059v.017c.203-.313.461-.588.762-.811l.142-.083h1.615a1.016 1.016 0 0 1-.236 1.061 1.369 1.369 0 0 1-.195.178h-1.866l-.073-.056ZM324.897 170.254a4.366 4.366 0 0 1-.515-.807 4.477 4.477 0 0 1 1.618.205c.315.104.62.233.912.387.279.142.696.348.811.65a.649.649 0 0 1-.024.551.653.653 0 0 1-.442.33l-2.36-1.316Z"/><path d="m324.031 169.882-.348-1.611 9.807 5.429v.066-.066c0 .115.035.223.056.348h-.018a1.556 1.556 0 0 0-.135.087c-.253.19-.527.349-.818.473l-8.544-4.726Z"/><path d="M325.27 170.561v-.018a12.374 12.374 0 0 0-1.09-.995l-.236-.184-.098-.449.216.038c.348.049.696.08 1.044.101l13.385 7.409c-.094.059-.195.112-.292.164a5.506 5.506 0 0 1-1.156.449l-11.773-6.515Z"/><path d="m335.763 176.387-.209-.233-.035-.035a12.913 12.913 0 0 0-.936-.877.74.74 0 0 1 .139.041c.154.04.309.071.466.094.276.037.554.057.832.06.181 0 .348 0 .533-.028l6.407 3.543a3.124 3.124 0 0 0-.317.052l-.087.028h-.017a1.657 1.657 0 0 1-.881.609l-5.895-3.254ZM335.533 176.115l.022.022-.022-.022Z"/><path d="M341.683 179.63c.139-.083.268-.184.403-.275.136-.09.348-.254.54-.372l.198-.118.143.076a4.355 4.355 0 0 1-.289.181 10.19 10.19 0 0 1-.553.303c-.142.08-.288.151-.439.212 0 0-.007-.003-.003-.007ZM341.634 179.474c.289-.185.557-.397.853-.568l.198-.107.115.066a4.104 4.104 0 0 1-.348.205c-.129.066-.313.164-.474.244l-.264.132a.597.597 0 0 1-.101.042s.017-.014.021-.014Z"/><path d="M342.069 179.213h.028c.141-.094.288-.177.442-.247.091-.033.184-.058.278-.077l.049.028c-.13.108-.277.194-.435.254a1.314 1.314 0 0 1-.327.08c-.007-.017-.028-.024-.035-.038Z"/><path d="M342.368 179.07c.124-.091.265-.156.414-.191a1.158 1.158 0 0 1-.24.142.723.723 0 0 1-.163.053l-.011-.004ZM369.807 204.107l-.185-9.623a8.806 8.806 0 0 1 1.574.039l.191 9.946-.132.122a13.892 13.892 0 0 1-1.448-.484Z"/><path d="M369.971 199.586h-.035l-.23-.062-.47-24.578.025-.045c.114-.202.226-.411.348-.62.146-.317.261-.644.414-.96.224-.467.473-.921.745-1.361l.532 27.71a3.183 3.183 0 0 1-.414.024 4.146 4.146 0 0 1-.915-.108ZM369.274 169.276h-.114v-.08h.114a54.96 54.96 0 0 0 1.361-.174h.098v.261c-.216 0-.428.025-.641.028h-.24c-.209-.028-.4-.028-.578-.035Z"/><path d="m370.426 169.078-.807-.021-.484-.024v-.056l.662-.059c.285-.024.574-.045.856-.08h.052v.247h-.286l.007-.007Z"/><path d="M370.319 168.932c-.348 0-.696-.035-1.02-.059h-.16v-.143l.403-.021 1.18-.111v.348l-.403-.014Z"/><path d="M370.124 168.88c-.348-.028-.662-.07-.992-.105v-.087l.675-.055c.299-.026.599-.047.898-.063v.348a6.364 6.364 0 0 1-.581-.038Z"/><path d="M370.468 169.002c-.348-.053-.696-.105-1.044-.174l-.275-.056v-.122c.526.021 1.044.024 1.573.021v.365l-.254-.034Z"/><path d="M370.52 169.687c-.428-.115-.859-.24-1.273-.393.481-.122.969-.217 1.461-.285v.737l-.188-.059Z"/><path d="M369.274 169.189c.317-.031.637-.059.954-.094l.484-.059v.463c-.477-.104-.961-.219-1.438-.31Z"/><path d="M370.684 169.426a8.531 8.531 0 0 1-.922-.31 3.318 3.318 0 0 1-.348-.139.31.31 0 0 1-.091-.045h.025c.459 0 .915-.049 1.371 0v.515l-.035-.021ZM370.573 170.206a5.563 5.563 0 0 1-.815-.188c-.132-.032-.257-.07-.386-.108a.377.377 0 0 1-.157-.063h.059a8.257 8.257 0 0 1 1.393-.16h.048v.533l-.142-.014Z"/><path d="M369.971 170.373c-.081-.032-.797-.282-.655-.397h.132c.119 0 .23-.028.348-.049.306-.084.62-.136.937-.156v.713a2.546 2.546 0 0 1-.762-.111Z"/><path d="M369.72 170.056a3.61 3.61 0 0 1-.505-.09h.042a6.1 6.1 0 0 1 .988-.22 2.21 2.21 0 0 1 .474.021v.317a2.152 2.152 0 0 1-.474.052 3.468 3.468 0 0 1-.525-.08ZM370.486 169.624a2.026 2.026 0 0 1-.394-.073 3 3 0 0 1-.428-.104h.056a4.58 4.58 0 0 1 .842-.094h.153v.268h-.135l-.094.003Z"/><path d="M369.716 169.83a.185.185 0 0 1-.066-.188c.028-.143.167-.171.307-.16.055-.01.111-.015.167-.018a.187.187 0 0 1 .091.004.17.17 0 0 1 .107.247.414.414 0 0 1-.376.184.387.387 0 0 1-.23-.069Z"/><path d="m369.275 175.955-.101-5.387.163-.157-.031.028c.101-.086.198-.178.289-.275.034-.038.062-.077.094-.118v-.021l.034-.077v.028c0-.049.028-.094.039-.146 0-.066.017-.132.024-.199v-.149c.022.043.046.085.073.125.105.15.226.285.348.425.077.083.157.163.24.243l.286.244.108 5.53a2.368 2.368 0 0 1-.658.094 2.248 2.248 0 0 1-.908-.188Z"/><path d="M370.319 171.166c-.032-.017-.039-.069-.049-.104-.011-.035 0 0 0 0 .009.02.021.038.035.056h.021l.045-.028.038-.032a.82.82 0 0 0 .094-.101l.212-.281v.271a1.594 1.594 0 0 1-.264.164.279.279 0 0 1-.115.041.055.055 0 0 1-.017.014ZM369.772 155.505c-.25-.038-.504-.084-.755-.136l-.143-.031v-.164l.181-.028.397-.066h-.024l.462-.08c.191-.035.382-.066.575-.094v.696a7.182 7.182 0 0 1-.693-.097Z"/><path d="M369.448 155.007a4.297 4.297 0 0 0-.529-.09.05.05 0 0 1-.048 0v-.025c.286-.092.579-.159.877-.201.229-.051.462-.08.696-.087v.605a6.761 6.761 0 0 1-.996-.202Z"/><path d="M369.094 155.063c-.049 0-.14-.028-.074-.077.083-.016.164-.037.244-.062a3.06 3.06 0 0 1 .825-.209c.117-.006.234.005.348.031v.425a1.417 1.417 0 0 1-.366.056h-.038a4.462 4.462 0 0 1-.939-.164ZM369.664 154.631a.32.32 0 0 1-.055-.118 3.217 3.217 0 0 0-.136-.261c-.199-.31-.418-.609-.637-.901l-.167-8.718a2.83 2.83 0 0 1 .184-.223c.261-.293.543-.557.815-.842.188-.202.348-.411.543-.623l.195 10.197-.14.177c-.101.15-.198.303-.285.463a3.496 3.496 0 0 0-.188.425c-.038.118-.077.236-.104.348v.052h.02-.017l-.028.024Z"/><path d="M370.152 154.885a2.251 2.251 0 0 1-.965-.268c-.055-.041-.08-.073-.024-.118l.024-.024v.024h.032l.073-.031.09-.059.087-.077.094-.115c.195-.299.348-.619.578-.905.08-.102.171-.196.272-.278l.034 1.858a2.422 2.422 0 0 1-.295-.007Z"/><path d="M369.302 154.461s0-.018-.017-.035c-.045-.268-.066-.543-.108-.814 0-.032 0-.066-.017-.098a4.839 4.839 0 0 0-.108-.477 5.964 5.964 0 0 0-.233-.574l-.14-7.228a8.208 8.208 0 0 1 1.142-1.841c.125-.147.254-.282.39-.415l.198 10.441-.188.084c-.101.045-.2.096-.296.153a2.34 2.34 0 0 0-.177.122l-.171.16c-.028.038-.059.073-.083.111a.602.602 0 0 0-.077.125.906.906 0 0 0-.083.192v.101l-.032-.007Z"/><path d="M369.689 155.011a1.877 1.877 0 0 1-.394-.387 4.826 4.826 0 0 1-.445-.522l-.038-1.973c.233.24.423.519.56.825.134.451.185.923.15 1.392 0 .111.024.219.041.331 0 .059.028.121.046.184v.035a.576.576 0 0 0 .038.069l.028.042.014.004Z"/><path d="M369.748 154.788a1.58 1.58 0 0 1-.226-.418 6.41 6.41 0 0 0-.348-.623 6.878 6.878 0 0 1-.348-.724l-.039-2.116c.119-.377.265-.744.439-1.099.285.63.49 1.295.609 1.976a9.148 9.148 0 0 1-.115 2.155 5.422 5.422 0 0 0 0 .598c0 .065.007.129.021.192v.059h.007ZM369.87 150.093v-.045c0-.038 0-.077-.018-.115-.021-.07-.042-.139-.059-.209a2.808 2.808 0 0 0-.104-.25 3.57 3.57 0 0 0-.199-.348c-.233-.348-.49-.696-.758-1.045l-.227-11.787.561-.696c.348.323.675.64 1.012.971l.244 12.786c-.045.091-.09.181-.139.272-.077.149-.164.424-.313.511v-.045Z"/><path d="M369.083 140.223a.106.106 0 0 1-.056-.042 3.58 3.58 0 0 1-.323-.727v.038c0-.049-.039-.097-.059-.146a7.63 7.63 0 0 0-.091-.202l-.258-13.458a3.27 3.27 0 0 1 1.045-.696h.027a.025.025 0 0 1 .014-.004 1.825 1.825 0 0 1 .505.352l.24 12.557a9.85 9.85 0 0 0-.536.804c-.108.2-.205.405-.292.616-.042.114-.08.229-.119.348v-.025c-.041.13-.069.265-.083.4v.126h.052a.12.12 0 0 1-.076.035l.01.024Z"/><path d="M369.577 133.436v-.021a.785.785 0 0 0 0-.097 8.722 8.722 0 0 0-.104-.543c-.216-.783-.55-1.521-.839-2.276a9.117 9.117 0 0 1-.247-.713l-.08-4.212 1.545-1.413.157 8.252c-.049.132-.101.268-.15.404a2.933 2.933 0 0 1-.264.637s-.021-.011-.018-.018ZM381.299 201.389a38.311 38.311 0 0 1-.995-1.044l-.415-24.125c.244 0 .491 0 .738.024.276-.047.553-.081.832-.101l.445 25.824c-.205-.174-.407-.379-.605-.578Z"/><path d="m380.446 208.753-1.27-74.064a7.428 7.428 0 0 1 1.587.787l1.239 72.446-1.079 1.103-.477-.272Z"/><path d="m379.614 156.789-.059-.042-.63-36.772 1.546-1.574.577 33.676c-.348.972-.68 1.948-.995 2.927-.139.477-.285.95-.393 1.434l-.032.261v.045h.018a.067.067 0 0 1-.01.031.075.075 0 0 1-.022.025v-.011ZM368.773 125.995a1.906 1.906 0 0 1-.031-1.148l3.369-1.82c.192.072.377.164.55.275l-.192-.122c.375.165.696.43.93.766 0 .038.024.08.034.118l-4.35 2.356a1.081 1.081 0 0 1-.31-.425Z"/><path d="m370.6 125.522-.135-.035c-.073 0-.146-.021-.22-.024h-.348c-.114 0-.299.045-.445.077.077-.063.146-.129.216-.192.148-.138.289-.285.421-.438.056-.073.108-.147.16-.223.052-.077.077-.143.111-.219a3.698 3.698 0 0 0 .087-.23c.025-.084.053-.164.077-.244v.032l.052-.167 7.076-3.829c.183.042.367.091.553.146.461.133.891.356 1.263.658l-8.746 4.74-.122-.052Z"/><path d="m377.182 121.088.035-.021a.543.543 0 0 0 .087-.073c.045-.045.09-.094.132-.142a2.056 2.056 0 0 1 1.016-.818c.218-.06.446-.069.668-.028h-.021c.064.011.128.02.192.024h.017a.571.571 0 0 0-.035.07 1.83 1.83 0 0 1-.327.574c-.379.407-.88.442-1.392.418h-.254c-.066.042-.122.031-.118-.004Z"/><path d="m377.077 120.921.042-.024a.747.747 0 0 0 .077-.059l.108-.108.055-.073c.024-.036.046-.073.066-.112l.035-.097c.042-.132.077-.258.125-.383l1.688-.912c.164.03.326.072.484.125a.607.607 0 0 0 .084.021v.028l-.021.091a1.64 1.64 0 0 1-.526 1.044 1.597 1.597 0 0 1-1.545.386h-.244l-.125.021a1.31 1.31 0 0 1-.254.07.068.068 0 0 1-.049-.018Z"/><path d="M377.359 120.573h.025l.048-.031.066-.063.07-.076c.052-.07.104-.143.153-.216l-.017.024c.07-.122.149-.238.236-.348l1.01-.546c.217-.019.436-.019.654 0-.14.35-.361.662-.644.912a2.034 2.034 0 0 1-1.201.348h.021a2.837 2.837 0 0 1-.32.048.183.183 0 0 1-.101-.052ZM379.959 210.278l-8.544-4.873-.031-.184a3.064 3.064 0 0 0-.091-.296c-.056-.15-.125-.292-.195-.438 0-.028-.031-.06-.049-.091-.017-.028-.153-.226-.059-.202H371.049l.07.025.146.027h-.017c.122.018.243.025.365.032.137.007.274.007.411 0a1.752 1.752 0 0 0 .431-.101l8.144 4.639-.396-.226a2.294 2.294 0 0 0-.261.873c-.249.108-.49.234-.721.376l.247.14.487.274.004.025ZM380.92 209.018l-.31-.177.313.177h-.003Z"/><path d="M370.948 204.577c-.132-.042-.156-.111-.177-.243-.056-.376.435-.613.731-.697l.905.516a2.79 2.79 0 0 1-.289.107c-.299.076-.61.092-.915.049h.02a1.27 1.27 0 0 0-.195 0H370.938l-.035.052v.032a.038.038 0 0 1 0 .021v.034l.038.042h.021l-.014.087Z"/><path d="M372.657 204.414c-.372-.157-.731-.348-1.092-.519l-.216-.111c-.039-.021-.119-.046-.143-.084-.024-.038 0-.017 0-.021l.091.028.595.15 1.308.748c-.177-.028-.362-.115-.543-.191Z"/><path d="M377.627 207.194a10.033 10.033 0 0 1-2.488-.675 7.761 7.761 0 0 1-1.274-.675c-.404-.276-.79-.577-1.156-.901-.605-.516-1.165-1.086-1.778-1.594a1.856 1.856 0 0 0-.146-.105l6.96 3.964-.118-.014Z"/><path d="M369.971 204.577c.015-.257.102-.506.25-.717.186-.251.449-.434.748-.522l4.984 2.84a1.55 1.55 0 0 1-.922 1.284l-5.06-2.885ZM591.968 97.732c-11.589-.922-8.502-17.273 2.214-15.982 10.037 1.904 7.576 16.25-2.214 15.982ZM563.673 85.805c-5.718-.968-4.524-10.166 1.372-9.122 5.982.884 4.653 10.114-1.372 9.122ZM555.032 98.428a.231.231 0 0 1-.024-.042.274.274 0 0 1-.22-.275c-.292-.372.195-.78.564-.797.56.206.16 1.076-.32 1.076 0 .038.017.055 0 .038Z"/><path d="M554.291 100.617c-2.927-.95-2.631-5.387.438-5.826 4.973-.64 4.368 7.246-.438 5.826Z"/></g><defs><clipPath id="clip0_529_2812"><path fill="#fff" d="M44.5 26.654h615v271.498h-615z"/></clipPath></defs></svg>