<svg xmlns="http://www.w3.org/2000/svg" width="702" height="372" fill="none" viewBox="0 0 702 372"><rect width="702" height="324.806" fill="#080F24" rx="20.955"/><g fill="#FED395" clip-path="url(#clip0_523_2429)"><path d="M656.744 130.786c.388.362.773.73 1.155 1.102v70.717h-1.251v-71.727l.092-.081.004-.011Z"/><path d="M657.895 116.408v42.34c-.411.055-.829.095-1.247.114v-42.454h1.247ZM650.268 45.477V77.64l-.194-.12a9.169 9.169 0 0 1-1.052-.816V45.48l1.246-.003Z"/><path d="M650.268 45.478v31.889a15.331 15.331 0 0 1-1.246-1.102V45.47l1.246.007Z"/><path d="M649.022 277.814h1.246V45.477h-1.246v232.337ZM49.411 277.682h1.247V45.345h-1.247v232.337ZM42.958 206.462h1.247v-91.325h-1.247v91.325ZM574.487 47.766c-.272.452-.612.86-1.008 1.208H50.775v-1.208h523.712Z"/><path d="M654.518 47.766v1.208H234.692l-5.456-.172c-2.126-.066-4.253-.147-6.38-.177l-24.174-.341c-5.72-.081-11.443.092-17.163.176l-11.319.169c-1.672.026-3.336.14-5.005.231l-2.2.114h-91.54l7.975-1.208h575.088ZM48.381 274.989h603.743v-1.209H48.381v1.209ZM91.035 290.367h520.001v-1.209H91.035v1.209ZM605.54 33.586v.004h2.471v1.205H88.013v-1.209H605.54Z"/><path d="M611.718 34.094c.172 2.682.436 5.356.832 8.015 1.144 7.693 2.567 15.374 4.682 22.875 3.3 10.653 7.334 21.427 14.461 30.287 4.367 5.533 9.827 10.091 15.532 14.257 3.527 2.571 7.282 4.882 10.758 7.501-1.61-.415-3.362-1.436-4.851-2.395a234.99 234.99 0 0 1-5.944-3.861c-5.866-4.041-11.425-8.562-15.946-14.007-4.964-5.877-8.499-12.75-11.285-19.836a105.08 105.08 0 0 1-5.97-20.178 177.52 177.52 0 0 1-2.779-19.271c-.106-2.024-.418-4.074 0-6.061.259.872.43 1.768.51 2.674Z"/><path d="M610.196 34.013c.379.088.764.15 1.151.184-.022 0 0-.022 0 0v.04c-.175.08-.357.145-.542.198-1.159.408-2.417.1-3.52-.257a9.76 9.76 0 0 1 1.954-.257c.322-.005.643.026.957.092Z"/><path d="M608.454 34.174c.932.056 1.858.179 2.772.367l-.058-.026s.102 0 .124.044c.022.044-.066.026-.11.026h-.066a17.57 17.57 0 0 1-4.682-.367 17.418 17.418 0 0 1 1.536-.055l.484.01Z"/><path d="M611.432 34.703a36.229 36.229 0 0 1-5.408-.385c1.808.029 3.613.158 5.408.385Z"/><path d="M607.307 34.483c1.367.04 2.742.18 4.095.312a2.549 2.549 0 0 1-.388.022.081.081 0 0 0 0-.022v.018h-.62a36.9 36.9 0 0 1-4.25-.334c.385-.011.774-.007 1.163.004Z"/><path d="M607.468 34.542c1.105.01 2.207.095 3.3.257h-.832a35.666 35.666 0 0 1-3.535-.257h1.067Z"/><path d="M611.575 34.622c-.019.059-.195.059-.257.073-.689.066-1.39.103-2.09.107h-.433c-.766 0-1.529-.044-2.269-.114.916-.055 1.833-.048 2.772-.04h2.269l.008-.026ZM607.615 33.59c1.229.04 2.454.162 3.666.368a43.746 43.746 0 0 1-4.612-.367h.946Z"/><path d="M610.225 33.833c.422 0 .836.037 1.247 0-1.338.24-3.164.158-4.612.103.883-.07 1.763-.117 2.651-.117.239-.008.477-.003.714.014Z"/><path d="M606.915 34.06c1.079-.1 2.164-.138 3.248-.113h1.331c-1.434.253-3.08.15-4.579.114Z"/><path d="M609.943 33.807c.521-.006 1.042.026 1.558.096-1.778.037-3.549.169-5.327.169 1.215-.17 2.44-.259 3.666-.265h.103Z"/><path d="M611.311 33.84c-1.606.05-3.3.05-4.928-.056.759-.062 1.599-.07 2.387-.077.847.008 1.705.04 2.541.132Z"/><path d="M606.515 33.807c1.676-.14 3.435-.092 5.078-.125a25.277 25.277 0 0 1-5.078.125Z"/><path d="M608.433 33.744c1.015 0 2.038.162 3.043.213a41.536 41.536 0 0 1-5.5-.228h.876a22.674 22.674 0 0 1 1.581.015Z"/><path d="M609.925 33.935c.187.037 1.305.037 1.034.367a.929.929 0 0 1-.415 0 1.342 1.342 0 0 0-.242-.025 3.235 3.235 0 0 1-.979-.18c-.146-.217.294-.136.404-.121a.292.292 0 0 1 .161-.048l.037.007Z"/><path d="M611.116 34.13c.294 0 .367.426.147.576-.117.118-.367.048-.502.089h-.499c-.198-.026-.367-.114-.308-.368a.252.252 0 0 1 .209-.165c.302-.093.615-.146.931-.158l.022.026Z"/><path d="M611.241 33.852c.158.04.103.242-.051.238a.066.066 0 0 1 .012.039.066.066 0 0 1-.012.038c-.173.155-.404.258-.587.405.15.029.308.051.458.073 0 0-.062 0-.051-.026.326.078-.341.037-.414.022-.312-.04.293-.367.366-.466-.165 0-.33.033-.491.055a.086.086 0 0 1-.061-.018.086.086 0 0 1-.031-.056c-.095-.102.041-.187.143-.194.103-.008.29-.055.429-.1.083-.015.166-.025.25-.029l.04.019ZM611.116 33.766s.022 0 0 0a1.737 1.737 0 0 1-.414 0 .363.363 0 0 1 .15-.022c.099.01.191.022.264.022Z"/><path d="M611.344 33.74c0 .14-.261.092-.367.133a.69.69 0 0 0-.191.03c-.124.025-.264.054-.304-.026-.04-.081.275-.096.367-.122a.73.73 0 0 0 .194-.033.997.997 0 0 1 .194-.033.12.12 0 0 1 .06.012.12.12 0 0 1 .047.04Z"/><path d="M605.543 33.59h5.471v.874c-.37.067-.743.109-1.119.125a11.98 11.98 0 0 1-1.309.022 9.196 9.196 0 0 1-1.301-.187l-.521-.114c-.443 0-.887-.037-1.331-.063h-.091v-.654l.201-.003ZM654.368 204.103c-1.94 1.143-3.854 2.325-5.676 3.637a63.728 63.728 0 0 0-11.238 10.208c-8.562 9.698-14.447 21.306-19.103 33.168-2.662 7.06-4.081 14.488-5.379 21.875a88.983 88.983 0 0 0-1.1 9.393c-.187 2.373 0 4.775-.169 7.123 0 0 0-.044.018-.026a.87.87 0 0 0-.018.305.067.067 0 0 1-.015.037.075.075 0 0 1-.032.023.078.078 0 0 1-.04.001.068.068 0 0 1-.034-.021 2.35 2.35 0 0 1-.367-.701c-.608-1.617-.429-3.387-.491-5.081 0-5.719.95-11.387 1.991-17 .831-4.635 1.96-9.21 3.381-13.699a120.1 120.1 0 0 1 5.896-14.043c4.19-8.776 9.459-17.104 16.213-24.245a64.39 64.39 0 0 1 11.194-9.481c1.588-1.08 3.264-2.042 4.914-3.03a7.504 7.504 0 0 1 3.3-1.143 10.308 10.308 0 0 1-3.245 2.7ZM44.377 205.265h.451c8.1.569 16.02 6.201 21.453 11.755a75.2 75.2 0 0 1 15.906 25.347 102.053 102.053 0 0 1 6.358 22.209c.854 5.143 1.61 10.344 1.65 15.575.048 1.749.066 3.501.172 5.253.147 1.393.158 2.866-.418 4.159a13.62 13.62 0 0 1-.825-4.368c-.238-3.368-.29-6.77-.557-10.128-.334-3.949-1.008-7.82-1.635-11.725-1.287-7.285-3.517-14.327-6.31-21.177-4.004-10.238-10.19-19.804-18.444-27.327-3.406-2.884-7.168-5.485-11.33-7.24-2.386-1.044-5.023-1.396-7.45-2.311.03.033 0 0 0 0 .2-.035.402-.051.605-.048l.374.026Z"/><path d="M89.964 288.071c.335.399.585.863.733 1.363.176 0 .367-.037.51-.037-.202.213-.341.511-.587.669-1.041.231-.916-1.411-.663-1.999l.007.004ZM88.52 33.021c1.466 3.354 1.572 7.116 1.913 10.705.516 7.28.21 14.594-.913 21.805a95.145 95.145 0 0 1-4.565 15.105 74.322 74.322 0 0 1-11.29 18.327c-2.115 2.52-4.4 4.922-6.716 7.255-1.94 1.929-3.95 3.824-6.314 5.264-3.34 1.98-6.805 4.011-10.66 4.875-2.199.415-4.546 1.021-6.768.415 2.222-1.444 5.104-1.246 7.55-1.999 3.938-1.263 7.597-3.335 10.956-5.675 2.933-2.307 5.478-5.036 8.011-7.74a70.583 70.583 0 0 0 10.113-13.636c4.092-6.858 6.56-14.488 8.327-22.187 1.789-10.738 1.569-21.732.366-32.503-.03.022 0 0 0 0l-.01-.01Z"/><path d="M64.5 76.051c3.699 4.978-4.309 10.032-7.66 5.025-1.97-3.427 1.02-6.759 4.169-6.762a4.425 4.425 0 0 1 3.49 1.737ZM94.701 70.28a.908.908 0 0 1-.414.044.742.742 0 0 0 .125 0 .782.782 0 0 0 .29-.044Zm1.254-2.825c3.113 1.351 1.21 5.928-2.009 4.775-2.838-1.102-1.467-4.966 1.049-4.966.328.007.654.071.96.19ZM141.945 70.174a1.122 1.122 0 0 1-.509.368.982.982 0 0 0 .509-.368Zm-1.36-2.376a1.75 1.75 0 0 0-.95.54c.26-.267.589-.456.95-.544v.004Zm2.867-.195c2.347 3.005-2.486 6.183-4.513 3.03-1.181-2.038.583-4.014 2.46-4.018a2.659 2.659 0 0 1 2.053.988ZM186.436 74.788c2.383 3.075-1.591 7.292-4.994 5.4-3.667-2.204-.733-6.748 2.387-6.748a3.293 3.293 0 0 1 2.607 1.348ZM169.782 67.383a9.153 9.153 0 0 1 3.472.856c-.069 0-.194-.063-.289-.074-3.395-.5-6.578 1.47-8.8 3.773a18.945 18.945 0 0 0-2.336 3.673c-1.136 1.984-.821 3.464-.066 5.51 2.175 5.595 6.74 7.512 12.467 5.481-3.3 1.646-7.355 1.9-10.633.059-2.046-1.029-3.429-2.939-4.309-4.945-.671-1.535-1.349-3.17-1.129-4.87.957-5.261 5.379-9.485 10.967-9.485.213.003.432.01.656.022Z"/><path d="M172.187 68.337c-3.241.958-4.938 4.698-5.166 7.81-.143 1.641.528 3.177 1.273 4.617a13.451 13.451 0 0 0 1.961 3.038 7.889 7.889 0 0 0 2.171 2.112 4.782 4.782 0 0 0 2.291 1.102c-1.683-.037-3.102-1.3-4.513-2.105-2.772-2.024-5.537-5.143-4.917-8.735.506-3.406 3.245-7.219 6.9-7.836v-.003Z"/><path d="M163.71 73.934c-.209.074-.308.368-.341.548-.01.112-.01.225 0 .338l.044.202c1.489.521 2.244 1.513 3.132 2.637 1.536 1.988 1.1 5.143-1.379 6.19a3.8 3.8 0 0 1-4.299-.916 3.821 3.821 0 0 1-.798-1.332 6.422 6.422 0 0 1 1.346-5.826c.396-.5 1.228-1.896 2.02-1.896a.617.617 0 0 1 .275.055Z"/><path d="M162.959 74.667c-.279.907.084 1.947.242 2.872a5.354 5.354 0 0 0 2.082 3.064c1.317 1.05 3.099 1.422 4.309 2.6a2.397 2.397 0 0 1 .635 2.65 2.37 2.37 0 0 1-.522.807c-1.738 1.701-4.271.203-5.474-1.377-1.074-.367-2.321-.922-2.754-2.028-.238-.771.572-1.256 1.287-1.131-.282-1.723-.168-3.306-.113-5.022-.009-.761.056-1.521.194-2.27 0-.051.073-.169.106-.169l.008.004Z"/><path d="M168.121 87.141a.132.132 0 0 1-.084-.132c.022-.062.117-.058.169-.095.064-.034.125-.073.183-.118-.037.085-.18.162-.261.228 1.13.283 2.303-.257 3.414-.309-1.06.408-2.284.978-3.421.426Z"/><path d="M172.264 86.851c-1.1.452-2.566.735-3.64.42 1.323-.056 2.64-.368 3.937-.581 0 0-.033-.019 0-.022.103.066-.245.147-.297.183Z"/><path d="M172.1 86.884a7.828 7.828 0 0 1-3.491.39c-.048 0-.205-.041-.165-.13v.034c.63.02 1.261-.03 1.881-.147.517-.093 1.04-.147 1.566-.162l.209.015Z"/><path d="M168.418 86.374c1.188.3 2.567.036 3.718.47a8.782 8.782 0 0 1-3.3-.254s-.517-.154-.418-.227v.01Z"/><path d="M171.381 86.778c.037 0 .103 0 .117.022a6.762 6.762 0 0 1-3.069 0c0-.048.092-.048.121-.077.03-.03-.029.037-.058.055.619-.022 1.243-.088 1.862-.088.344 0 .688.03 1.027.088Z"/><path d="M170.237 86.55c.224 0 .407.103.62.11-.187.698-1.504.522-2.013.22-.077-.098.124-.113.183-.15.059-.037-.033.037-.048.055a5.701 5.701 0 0 1 1.148-.239l.11.004Z"/><path d="M170.373 86.822c-.455.493-1.372.408-1.878.037-.025-.026.077-.073.044-.026a6.11 6.11 0 0 1 1.144-.209c.245-.005.485.064.69.198ZM170.651 85.742c.404.367.195.646-.319.599-.33 0-1.015-.503-.707-.76.137-.052.282-.08.429-.082a.827.827 0 0 1 .597.243Z"/><path d="M170.89 84.948c.671.437 1.283.893 1.917 1.363a.488.488 0 0 1 .235.316.41.41 0 0 1-.565.415c-.341-.092-.619-.33-.946-.448a14.002 14.002 0 0 1-1.466-.422c-.191.077-.389.135-.576.202.319.165.891.132 1.247.216h-.44c-.326.051-.659.013-.965-.11-.231-.228.195-.367.367-.437-.15-.052-.293-.11-.44-.169-.044 0-.147-.037-.125-.1.019 0 0 .026 0 .03.223.073.449.132.679.177a.888.888 0 0 1 .506-.14 2.125 2.125 0 0 1-.712-.687.345.345 0 0 1 .084-.397.341.341 0 0 1 .404-.037.383.383 0 0 1 .202-.058c.223.03.431.13.594.286Z"/><path d="M169.878 86.106c.3.076.613.09.92.04a1.83 1.83 0 0 1 1.1.132.302.302 0 0 1 .168.224c-.044.423-.733.18-1.019.324-.579.084-1.58.147-1.91-.412-.037-.14.062-.202.143-.279a.812.812 0 0 1 .311-.051c.107.01.199.018.287.022ZM169.999 87.255c.968-.17 1.972-.239 2.933-.456a5.49 5.49 0 0 1-2.933.456Z"/><path d="M170.043 87.318c1.162-.17 2.372-.423 3.516-.514-1.115.393-2.343.756-3.516.514Z"/><path d="M169.452 87.347c.946-.07 1.834-.368 2.765-.441.439.009.877-.027 1.309-.107a5.393 5.393 0 0 1-4.074.547Z"/><path d="M173.134 86.686c.144.037.286.082.425.135a1.928 1.928 0 0 1-.95-.132.93.93 0 0 1 .239-.025c.095 0 .191.007.286.022Z"/><path d="M173.555 86.825c-.229.07-.469.093-.708.07a1.494 1.494 0 0 1 .708-.07Z"/><path d="M173.078 86.733c.14.022.283.07.418.08a2.514 2.514 0 0 1-.843-.099.41.41 0 0 1 .099 0c.103-.01.227.011.326.019ZM173.493 86.774s0 .018-.029.018a2.104 2.104 0 0 1-.66-.268c.237.061.467.145.689.25Z"/><path d="M173.496 86.793c0-.026 0 0 .03 0 .029 0 0 .022-.044 0a1.998 1.998 0 0 1-.8-.312c.284.069.558.173.814.312Z"/><path d="M173.416 86.791h.037l-.154.026a5.971 5.971 0 0 1-.847-.084 2.07 2.07 0 0 1 .22 0c.249-.001.498.018.744.058ZM173.225 86.789l-.003.003.003-.003Z"/><path d="M172.316 86.917c.271-.081.631-.04.913-.125a1.549 1.549 0 0 1-.913.125Z"/><path d="M172.708 86.847c.173-.05.35-.087.528-.11-.073.107-.396.114-.528.11Z"/><path d="M173.244 86.777a1.332 1.332 0 0 1-.734.089c.229-.071.469-.101.708-.089h.026Z"/><path d="M173.185 86.763c.022.059-.297.066-.326.066a.803.803 0 0 1 .3-.062h.026v-.004Z"/><path d="M171.711 86.606c.614.018 1.227.077 1.833.176-1.1.128-2.412.488-3.52 0a5.759 5.759 0 0 1 1.599-.173l.088-.003ZM166.083 70.513c.858.642-1.658 4.426-1.885 5.51-.154.444-.271.948-.422 1.374.041-.324.085-.647.121-.974a9.481 9.481 0 0 0-.557 1.657c-.029-.757 1.577-7.611 2.611-7.611.047 0 .093.016.132.044Z"/><path d="M166.317 69.307c1.438.514-1.503 3.736-2.013 4.433-.755.948-1.723 1.903-1.727 3.178a.207.207 0 0 0 .077.118c-.022.022-.091-.074-.106-.107a2.538 2.538 0 0 1 .081-1.047c-.349.463-.697.926-1.053 1.389-.113.264-.454.492-.693.22-.238-.272.048-.599.136-.87.401-.987.906-1.928 1.507-2.807.587-.918 1.353-1.723 1.962-2.623.366-.532.832-1.917 1.609-1.917.075-.001.149.01.22.033Z"/><path d="M166.376 70.376c-.147 1.837-1.1 3.564-1.701 5.308-.257.974-.411 2.02-.983 2.877a.366.366 0 0 1-.568 0c-.202-.287 0-.65.033-.966.162-.98.4-1.945.711-2.888-.572 1.003-1.1 2.08-1.624 3.082.084-.734 2.302-7.828 3.666-7.828.173.011.323.136.466.415Z"/><path d="M168.767 68.704c.788.037.733.951.077 1.183.146.253-.048.488-.228.654a22.787 22.787 0 0 0-2.816 4.529c0 .79.037 1.576 0 2.362.023.22-.024.443-.135.635a.475.475 0 0 1-.844-.264.498.498 0 0 1-.614.166.5.5 0 0 1-.284-.57.789.789 0 0 1-.78.513.795.795 0 0 1-.32-.083c-.649-.368-.172-1.102.037-1.602.25-.378.378-.824.366-1.278.037-.671.256-1.319.635-1.874.238-.29.55-.672.982-.576.367-.452.275-1.135.701-1.55.245-.812 1.125-1.176 1.789-1.617.362-.383.86-.61 1.386-.632l.048.004Z"/><path d="M171.161 68.039c.207-.034.418-.021.62.037a1.408 1.408 0 0 0-.591.095c0 .254-.26.342-.465.4a6.039 6.039 0 0 0-1.467 1.051c-.436.408-.975 1.403-1.606.65-1.016-.48.994-1.697 1.467-1.925a7.254 7.254 0 0 1 1.672-.503.17.17 0 0 1 .062 0 .365.365 0 0 1 .308.195Z"/><path d="M168.8 69.943a.047.047 0 0 0 0 .033c-.055-.067.216-.254.282-.313a6.676 6.676 0 0 1 3.3-1.385 16.48 16.48 0 0 0-3.582 1.665Z"/><path d="M169.617 69.252c.869-.625 2.105-.919 3.15-1.154-1.019.463-2.13.728-3.15 1.154Z"/><path d="M169.793 69.1c.792-.734 2.098-.969 3.15-1.057-1.03.396-2.16.587-3.15 1.058Z"/><path d="M170.314 68.624c.579-.404 1.496-.515 2.2-.559-.712.243-1.507.272-2.2.559Z"/><path d="M172.473 68.044c-.56.176-1.253.095-1.833.227a2.08 2.08 0 0 1 1.155-.268c.227.002.453.015.678.04Z"/><path d="M172.18 68.102a8.066 8.066 0 0 1-.733.14c-.249.033-.433.044-.645.092a3.798 3.798 0 0 1 1.353-.232h.025ZM649.645 73.042c10.974 2.476 8.694 17.085-2.394 16.494-10.978-1.514-9.559-16.645.597-16.645.602.002 1.203.052 1.797.151ZM650.096 65.905c-.075.163-.19.305-.334.412a.887.887 0 0 0 .334-.412Zm1.943-2.637c2.153 3.519-4.084 6.946-5.789 2.975-1.038-2.362 1.122-4.408 3.237-4.408a2.925 2.925 0 0 1 2.552 1.433ZM628.056 67.416c4.264 1.837.594 8.008-3.223 5.532-2.629-1.756-.59-5.742 2.145-5.742.37 0 .736.07 1.078.21ZM480.739 68.444a2.955 2.955 0 0 1 1.75 3.323 2.96 2.96 0 0 1-2.912 2.367c-4.33-.124-3.637-5.995-.26-5.995.489.007.973.11 1.422.305ZM495.846 271.43c5.364 3.957.704 11.388-5.353 8.909-5.739-2.814-2.805-10.091 1.987-10.091a5.782 5.782 0 0 1 3.366 1.182ZM479.999 273.289c2.027.466 1.026 3.581-.873 3.016-1.764-.503-1.067-3.057.521-3.057.118 0 .236.013.352.041ZM391.469 284.217c5.866.893 6.523 9.415.198 9.984-4.646 1.069-6.912-1.921-6.787-4.911.106-2.572 1.972-5.143 5.602-5.143.33.004.66.027.987.07Z"/><path d="M480.002 272.161c1.977.9 2.281 3.805.063 4.613a2.595 2.595 0 0 1-2.396-.294 2.611 2.611 0 0 1-1.128-2.137 2.552 2.552 0 0 1 .805-1.69 2.536 2.536 0 0 1 1.74-.683c.315-.002.628.063.916.191ZM64.232 78.785h95.265v-1.418H64.232v1.418Z"/><path d="M183.316 77.363a6.363 6.363 0 0 1-.173 1.422h-21.449a30.029 30.029 0 0 0-1.903-1.102l.04.022c-.136-.066-.33-.129-.403-.268a.177.177 0 0 1-.022-.081l23.91.007ZM94.591 70.182h46.944v-1.418H94.591v1.418ZM479.423 71.243H626.16v-1.418H479.423v1.418ZM243.217 161.32c0-5.367-4.484-9.716-10.01-9.716-5.525 0-10.01 4.349-10.01 9.716 0 5.367 4.481 9.72 10.01 9.72s10.01-4.35 10.01-9.72Zm5.584-1.547h-.04v1.811h.084c-.29 7.968-7.032 14.327-15.308 14.327-8.462 0-15.319-6.66-15.319-14.874s6.857-14.874 15.319-14.874c8.019.011 14.597 5.992 15.264 13.61Z"/><path d="M248.009 158.288c.037 1.278.055 2.574.055 3.887v1.638h-.088v-5.51l.033-.015Z"/><path d="M250.55 158.288a33.096 33.096 0 0 0-.146 3.082c0 .819.033 1.638.091 2.443h-2.526v-5.51l2.581-.015ZM296.221 158.288v5.51h-30.597a.216.216 0 0 0 0-.036 35.36 35.36 0 0 0 1.998-4.893c.063-.191.118-.39.165-.595l28.434.014ZM399.979 162.634c0-26.176-22-47.387-49.114-47.387-27.115 0-49.133 21.218-49.133 47.387 0 26.17 22 47.388 49.133 47.388 27.133 0 49.114-21.214 49.114-47.388Zm1.378-.264c0 26.816-22.523 48.544-50.305 48.544-18.242 0-34.213-9.367-43.035-23.385l-.041-.051a47.14 47.14 0 0 1-7.239-25.525 47.136 47.136 0 0 1 7.69-25.393.105.105 0 0 0 .041-.04.754.754 0 0 0 .047-.077l.066-.11.026-.044c8.936-13.508 24.599-22.46 42.437-22.46 27.79-.003 50.313 21.732 50.313 48.548v-.007Z"/><path d="M369.484 159.956a18.311 18.311 0 0 1-1.916 8.122 18.26 18.26 0 0 1-5.322 6.421 13.972 13.972 0 0 0 4.506-10.286c0-7.78-6.387-14.091-14.267-14.091-7.879 0-14.266 6.311-14.266 14.091 0 7.637 6.148 13.853 13.823 14.084-.393.026-.792.037-1.192.037-10.285 0-18.626-8.232-18.626-18.393 0-10.161 8.341-18.393 18.626-18.393 10.285 0 18.634 8.247 18.634 18.408ZM338.127 127.236c0 .022-.018-.022-.022-.022a.136.136 0 0 0-.062-.059c-1.232.518-2.38 1.289-3.623 1.837a25.066 25.066 0 0 0-4.4 3.067 27.532 27.532 0 0 0-3.061 2.571c.678-1.587 2.141-2.696 3.523-3.717 2.2-1.782 4.888-2.972 7.583-3.765.03.021.051.052.062.088ZM323.112 137.122c.018 0 .081.084.055.088a.147.147 0 0 0-.051-.062h-.026a20.573 20.573 0 0 1-1.654 2.354c.184-.874.829-1.554 1.43-2.204.074-.051.132-.183.228-.183l.018.007ZM349.387 124.251c8.928.25 17.966 2.347 25.424 7.244a51.525 51.525 0 0 1 7.465 5.958c.676.68 1.303 1.408 1.874 2.179a45.797 45.797 0 0 1-4.011-3.163c-6.233-5.562-14.227-8.893-22.465-10.473-4.939-.94-10.065-1.396-15.07-.893 1.749-.734 3.725-.863 5.654-.863.377 0 .755.004 1.129.011ZM326.152 171.697a23.027 23.027 0 0 0 7.637 8.313c2.747 1.58 5.706 2.987 8.837 3.582-2.339-.107-4.532-.919-6.6-1.91-3.436-1.444-6.233-3.986-8.47-6.833-2.79-3.673-4.246-8.324-4.4-12.828 1.001 3.207 1.346 6.664 2.996 9.676ZM324.894 180.605c1.625 1.469 3.267 2.983 5.291 3.908.245.099.498.179.755.239a4.534 4.534 0 0 1-.781-.154 13.996 13.996 0 0 1-4.627-2.719 8.907 8.907 0 0 1-3.512-5.796 24.4 24.4 0 0 0 2.874 4.522ZM367.438 189.406a.376.376 0 0 1 0 .106.314.314 0 0 1 0-.106ZM367.441 189.561a.3.3 0 0 1-.062.106.605.605 0 0 0 .055-.143.16.16 0 0 0 .007.037ZM362.367 192.963c-2.171 1.138-4.558 1.774-6.967 2.248-3.384.624-7.054.532-10.222-.856-.477-.21-1.016-.401-1.467-.617.932.187 1.87.338 2.794.543 2.006.276 3.989.665 6.021.566a27.14 27.14 0 0 0 9.621-2.222c1.756-.805 3.579-1.609 5.082-2.818a1.93 1.93 0 0 0 .15-.15c-.524.988-4.216 2.949-5.012 3.306Z"/><path d="M389.533 172.695a51.74 51.74 0 0 1-2.424 5.723c-1.661 3.673-4.191 6.91-7.121 9.716a51.283 51.283 0 0 1-8.693 7.075 34.624 34.624 0 0 1-10.175 4.408c-2.328.709-5.914 1.102-7.755.735a30.709 30.709 0 0 0 11.638-2.627 45.708 45.708 0 0 0 4.503-2.27c1.811-1.183 3.549-2.465 5.258-3.78a53.754 53.754 0 0 0 4.843-4.371c1.606-1.576 3.212-3.181 4.455-5.047 1.877-2.546 3.267-5.378 4.58-8.225.795-1.738 1.177-3.674 2.075-5.338-.491 1.312-.744 2.678-1.184 4.001ZM354.271 217.427c4.4 2.267.436 8.174-3.274 5.029a2.98 2.98 0 0 1-.93-3.341 2.973 2.973 0 0 1 2.855-1.963c.463.003.921.097 1.349.275ZM360.559 218.815c1.397 1.301-.388 3.596-2.038 2.656-1.834-.959-.66-3.178.839-3.178.452.011.883.198 1.199.522ZM364.277 218.341c1.232.206.686 2.024-.473 1.631-1.027-.286-.653-1.653.282-1.653a.94.94 0 0 1 .191.022ZM395.465 215.957c.211.089.441.121.668.096h-.096c-.194 0-.388-.032-.572-.096Zm-1.188-1.319a1.794 1.794 0 0 0 .968 1.224 1.936 1.936 0 0 1-.968-1.224Zm1.753-3.713a3.295 3.295 0 0 0-2.174.94 3.416 3.416 0 0 1 2.174-.94Zm4.506 1.23c1.316 2.292.128 5.272-2.387 6.179-2.731 1.025-5.984-.893-6.233-3.729-.264-2.938 2.149-4.775 4.609-4.775a4.541 4.541 0 0 1 4.011 2.325ZM390.479 220.193l.099-.117c-.055.059-.118.114-.18.169l.081-.052Zm-3.458-.764c0 .033.029.07.048.103v-.029l.132.206.062.069a2.229 2.229 0 0 1-.224-.349h-.018Zm1.657 1.969c-3.421-.602-3.3-5.341.319-5.378 3.858.225 3.638 5.742-.3 5.378h-.019ZM384.883 220.924c.917 1.502-1.239 3.214-2.526 1.994-1.503-1.238-.334-2.902 1.008-2.902a1.834 1.834 0 0 1 1.518.908ZM378.987 222.757a1.323 1.323 0 0 1 .367 2.152 1.384 1.384 0 0 1-1.79.03 1.372 1.372 0 0 1-.391-.511c-.341-.882.436-1.778 1.308-1.778.175.001.347.037.506.107ZM375.592 216.046c-1.37.548-2.778.995-4.213 1.337a17.714 17.714 0 0 1-4.829.926c1.65-.312 3.234-.966 4.818-1.528 1.302-.404 2.618-.735 3.869-1.278 2.823-1.15 5.441-2.789 8.169-4.071-2.494 1.701-4.99 3.453-7.814 4.614ZM375.677 225.119c-2.651 1.583-5.764 2.428-8.833 2.96-3.979 1.011-8.067 1.169-12.17.955-.385-.018-.77-.044-1.147-.055.733-.073 1.554-.077 2.317-.147 2.079-.124 4.173-.106 6.233-.367 1.404-.25 2.779-.555 4.18-.812 3.208-.521 6.439-1.168 9.39-2.527-.029-.018-.117-.018-.117-.048.05.011.099.024.147.041ZM399.85 109.931c1.834.867 3.19 2.465 4.426 3.982a17.59 17.59 0 0 1 4.327 7.457c.08.268.157.536.238.804-.227-.367-.458-.83-.693-1.23-.836-1.422-1.709-2.814-2.537-4.239-.627-.926-1.397-1.742-2.057-2.645-.66-.904-1.427-1.782-2.182-2.634-.513-.5-.946-1.161-1.595-1.47a.607.607 0 0 0-.029.07v-.055c0-.018.022-.044.044-.044l.058.004ZM332.326 102.404c-.025 0 0-.055 0-.066a20.791 20.791 0 0 0-3.692 1.836c-.414.283-.942.54-1.192.944.169-.532.693-.878 1.1-1.241 1.071-.875 2.439-1.275 3.784-1.539.048-.004 0 .04 0 .066ZM379.508 97.787c-.359.29-.781.49-1.232.588h.077c.427-.1.823-.302 1.155-.588Zm-1.048-5.385c3.798.588 4.213 5.837.429 6.733a3.706 3.706 0 0 1-4.191-.734c-2.373-2.392-.063-6.09 3.006-6.09.254.005.508.035.756.091ZM386.834 97.446c2.413 2.762-2.222 5.829-4.147 2.777-1.005-1.804.682-3.552 2.398-3.552a2.33 2.33 0 0 1 1.749.775ZM390.691 100.847c2.681.735.675 4.188-1.466 2.729-1.174-.947-.202-2.762 1.162-2.762.102 0 .204.011.304.033ZM395.172 104.024a1.64 1.64 0 0 1 1.199.651c1.1 1.686-.95 3.199-2.567 2.229a1.598 1.598 0 0 1-.682-1.793 1.592 1.592 0 0 1 1.537-1.145 2.02 2.02 0 0 1 .513.058ZM398.545 107.503c.891.768-.579 1.686-1.239.941a.771.771 0 0 1-.131-.847.771.771 0 0 1 .728-.45.77.77 0 0 1 .642.356ZM351.246 100.33a1.399 1.399 0 0 1-.367.305c.143-.074.269-.178.367-.305Zm.876-2.759c2.659 2.987-1.144 7.189-4.451 4.695-2.629-2.259-.491-5.705 2.127-5.705.878.016 1.715.38 2.328 1.01h-.004ZM344.573 100.854c-1.071 2.105-4.349.654-3.223-1.47a1.773 1.773 0 0 1 2.328-.842c.421.192.75.541.917.973.167.432.159.913-.022 1.339ZM338.237 99.723a1.3 1.3 0 0 1 .433 2.237c-.811.603-2.329.474-2.446-.734a1.571 1.571 0 0 1 1.547-1.602c.16.006.318.04.466.1ZM334.358 102.063c-.499.793-1.614-.037-.8-.61a.595.595 0 0 1 .404-.18.5.5 0 0 1 .484.538.506.506 0 0 1-.088.252ZM429.84 197.822a1.347 1.347 0 0 1-.768 2.13 1.338 1.338 0 0 1-1.5-.716 1.35 1.35 0 0 1 .345-1.629 1.34 1.34 0 0 1 .823-.31 1.482 1.482 0 0 1 1.1.525ZM461.977 103.925a.906.906 0 0 1-.388.154.746.746 0 0 0 .388-.154Zm-.091-2.392c2.742.456 1.642 4.548-.975 3.384a1.753 1.753 0 0 1 .616-3.413c.125 0 .25.01.373.029h-.014ZM406.142 164.397h46.892v-7.483h-46.892v7.483Z"/><path d="M479.881 153.135a11.431 11.431 0 0 0-3.897-2.886 11.397 11.397 0 0 0-4.741-1.008c-6.233 0-11.304 4.907-11.304 10.965 0 6.057 5.063 10.965 11.304 10.965a11.356 11.356 0 0 0 9.867-5.617c-2.09 5.724-7.722 9.827-14.34 9.827-8.401 0-15.213-6.612-15.213-14.76s6.812-14.774 15.213-14.774a15.285 15.285 0 0 1 7.507 1.925 15.316 15.316 0 0 1 5.604 5.363ZM309.04 135.271l.179.338a.094.094 0 0 1 0 .047c0 .07-.04.14-.146.107a4.675 4.675 0 0 1-.734-.309c-.454-.36-.916-.707-1.385-1.043l-.338-.239-.176-.121-.062-.044-.235-.158a8.285 8.285 0 0 0-.297-.331 10.65 10.65 0 0 1-.498-.587v.018a4.098 4.098 0 0 1-.345-.492 36.147 36.147 0 0 1 4.037 2.814Z"/><path d="M309.736 135.844c.019.037.037.073.059.11.043.055.082.114.114.176a.058.058 0 0 1 .002.026.049.049 0 0 1-.008.024.055.055 0 0 1-.018.019.085.085 0 0 1-.024.009h-.026l-.051.055.029-.052a3.585 3.585 0 0 1-.451-.022c-.102 0-.205 0-.311.019a2.338 2.338 0 0 0-.275.062l-.154.044c.077-.128.15-.261.22-.393l.036-.062-.066-.059-.091-.074-.07-.055a38.116 38.116 0 0 0-1.65-1.256l-.319-.228-.128-.088-.048-.033c-.194-.132-.392-.268-.59-.397l-.572-.367-.132-.081-.103-.066a.2.2 0 0 1-.037-.022l-.084-.051-.055-.034-.062-.036-.077-.048-.044-.026-.106-.066a35.85 35.85 0 0 0-5.889-2.836 36.817 36.817 0 0 0-12.896-2.31 36.134 36.134 0 0 0-25.094 9.958 34.033 34.033 0 0 0-4.638 5.51l-.088.133a.14.14 0 0 1 0 .029l-.084.129a4.321 4.321 0 0 0-.147.224.312.312 0 0 0-.04.062l-.055.081-.055.092a.482.482 0 0 0-.048.07l-.066.106c0 .022-.026.037-.037.055l-.084.14v.029a32.327 32.327 0 0 0-3.934 24.704c3.637 14.911 17.669 26.023 34.426 26.023 4.209.005 8.388-.71 12.356-2.116l.077-.026.07-.026.062-.022.106-.04h.041l.132-.048a35.902 35.902 0 0 0 6.357-3.108l.078-.047.054-.033.033-.022.033-.019.048-.029.048-.033.473-.305.106-.066c.121-.081.242-.158.367-.243l.033-.022h.022l.11-.077c.315-.213.627-.437.935-.661.289 0 .579-.026.869-.026a36.74 36.74 0 0 1-22.344 7.307c-19.76 0-35.776-15.26-35.776-34.086s16.016-34.09 35.775-34.09a36.677 36.677 0 0 1 23.756 8.611Z"/><path d="M308.526 187.173c.15.07.27.189.341.338a39.497 39.497 0 0 1-2.229 1.635.304.304 0 0 1-.169-.309.587.587 0 0 1 .121-.257l.03-.022.047-.033c.257-.176.506-.367.756-.544l.025-.018.088-.066.099-.074.143-.11.055-.04.081-.063.044-.036-.055-.07-.051-.081a3.354 3.354 0 0 0-.114-.184l-.033-.055h.022a.655.655 0 0 1 .326-.084.7.7 0 0 1 .473.073ZM301.747 128.125c2.684 4.442-4.202 7.766-6.435 3.079-1.019-2.491 1.364-4.464 3.667-4.464a3.275 3.275 0 0 1 2.768 1.385ZM273.305 190.911a2.294 2.294 0 0 1 1.694 1.885 1.732 1.732 0 0 1-.92 1.69 2.36 2.36 0 0 1-3.219.198c-1.768-1.532-.367-3.897 1.653-3.897.269.001.536.043.792.124ZM283.821 158.259a10.59 10.59 0 0 1-.081 5.539h-34.833v-5.539h34.914ZM295.558 211.528c-2.512 1.836-4.36-2.572-1.053-2.671a1.54 1.54 0 0 1 1.504 1.882 1.544 1.544 0 0 1-.451.789ZM250.895 195.857a.369.369 0 0 1 .08.172.281.281 0 0 1-.073.268c.139.32-.367.254-.418 0a.314.314 0 0 1-.065-.333.316.316 0 0 1 .278-.196.289.289 0 0 1 .198.089Z"/><path d="M250.649 195.839a.25.25 0 0 1 .166.078.248.248 0 0 1 .065.172c0 .529-1.1.187-.649-.239a.274.274 0 0 1 .191-.059c.078 0 .155.017.227.048Z"/><path d="M250.627 195.577a.548.548 0 0 1 .419.138.567.567 0 0 1 .19.398c-.04 1.003-1.918.367-1.214-.459a.415.415 0 0 1 .327-.151.63.63 0 0 1 .278.074ZM531.54 152.147c-.136-.305-.271-.61-.411-.915-.337-.735-.667-1.469-.997-2.204-.3-.68-.575-1.374-.861-2.061a94.757 94.757 0 0 0-1.812-4.099c-.59-1.264-1.254-2.495-1.939-3.714l-.583-.952c-.169-.272-.349-.532-.528-.793-.367-.562-.778-1.102-1.177-1.653-.4-.551-.902-1.179-1.361-1.76-.458-.58-.869-1.102-1.305-1.627-.275-.342-.546-.683-.821-1.021a40.218 40.218 0 0 1 11.795 20.799Z"/><path d="M517.028 128.978c.205.228.403.456.601.687.462.547.924 1.102 1.371 1.653.928 1.15 1.834 2.318 2.725 3.49.421.551.85 1.102 1.276 1.649.425.548.872 1.062 1.309 1.587.154.188.322.368.484.54l.876.963c.44.485.891.962 1.338 1.44.272.294.536.595.792.9.34.641.663 1.293.968 1.954a20.181 20.181 0 0 0-1.43-1.635c-.608-.617-1.25-1.205-1.892-1.796a40.223 40.223 0 0 0-6.893-8.449l-.088-.081-.081-.073-.022-.022-.073-.066-.026-.026-.069-.063-.03-.029-.077-.066-.018-.018-.095-.085-.044-.037-.055-.051-.059-.052-.033-.029-.062-.055-.033-.029-.066-.059-.026-.022-.07-.063-.022-.018a41.13 41.13 0 0 0-4.114-3.17l-.033-.03c-.073-.066-.157-.128-.234-.191l-.524-.426-.763-.617c-.532-.393-1.063-.786-1.599-1.172a2.679 2.679 0 0 0-.253-.165l-.623-.404a47.344 47.344 0 0 0-.847-.547c-.576-.338-1.148-.68-1.727-1.014-.308-.18-.62-.368-.931-.529-.242-.14-.484-.279-.734-.415a42.103 42.103 0 0 1 11.906 6.641ZM531.5 151.97v.415a9.594 9.594 0 0 1-.051-.654c.018.077.036.158.051.239Z"/><path d="M526.51 139.601h-.092l.213.239.095.11c.186.309.369.621.55.937a.828.828 0 0 1-.194.521.864.864 0 0 1-.873.261 39.85 39.85 0 0 0-5.867-7.964l-.209-.22-.022-.026-.08-.081-.026-.029-.092-.092-.102-.107-.03-.025-.066-.07-.044-.044-.069-.07-.033-.029-.092-.096-.048-.044-.055-.055-.047-.048-.055-.051-.07-.07-.07-.07a.614.614 0 0 1-.051-.051l-.044-.041-.062-.058-.037-.037-.227-.213-.081-.077a41.45 41.45 0 0 0-26.729-11.134H487.486c-.656.04-1.305.099-1.954.169h-.242a42.013 42.013 0 0 0-5.79 1.08l-.161.044h-.022l-.151.04h-.025l-.158.04-.345.1h-.018l-.143.04-.062.018-.096.03-.077.022-.08.022-.088.026-.074.022-.091.029h-.059l-.106.033-.444.14-.139.047-.143.048a35.72 35.72 0 0 0-2.933 1.102 41.115 41.115 0 0 0-9.167 5.275l-.15.114-.048.037-.106.081-.048.04-.143.11-.04.033-.107.081-.062.052-.099.08-.055.041-.125.103-.062.051-.081.066-.069.055-.096.077-.183.202-.073.063-.07.059-.073.062-.118.096-.073.066-.073.062-.07.059-.073.062-.121.107-.07.059-.066.062a.595.595 0 0 0-.07.063l-.084.069-.095.089-.081.069a.58.58 0 0 1-.073.067l-.066.058-.07.066-.117.107-.066.062-.074.07-.062.059a.96.96 0 0 0-.088.081l-.073.07a1.032 1.032 0 0 0-.096.091l-.058.052-.088.084-.048.048-.128.125-.041.037-.095.095-.048.048-.124.121-.136.136-.037.033-.11.114-.025.026-.136.139v.019l-.125.128v.019l-.286.297a39.973 39.973 0 0 0-3.871 4.776c-.162.235-.323.474-.481.734-.41.621-.799 1.253-1.173 1.896-.249.43-.491.867-.733 1.304a38.991 38.991 0 0 0-1.995 4.283c-.073.191-.147.367-.216.577-.092.253-.184.507-.272.764a1.17 1.17 0 0 1-.627-.11c5.442-16.325 21.245-28.139 39.893-28.139 15.304 0 28.687 7.942 36.021 19.8Z"/><path d="M523.969 137.147c.176.187.366.367.524.562.163.202.315.413.455.632l.062.099c0-.051-.029-.099-.048-.15a1.132 1.132 0 0 1 .085-.871 39.68 39.68 0 0 1 7.299 25.4 39.659 39.659 0 0 1-10.266 24.349c.198-.521.393-1.043.594-1.561.202-.518.367-1.062.547-1.594a38.763 38.763 0 0 0 7.89-23.625 38.76 38.76 0 0 0-8.11-23.549h.15c.303-.01.597.101.818.308Z"/><path d="M530.198 171.502a.437.437 0 0 1 .208.093.446.446 0 0 1 .137.182c.075.312.047.64-.081.934 0 .04 0 .08-.029.117-5.405 16.391-21.237 28.256-39.933 28.256a43.569 43.569 0 0 1-7.953-.735l2.123-.404c1.581.205 3.173.32 4.767.346H492.865c.057.003.115.003.172 0H493.62l.367-.03h.018l.367-.033.366-.037.367-.044.367-.044c14.38-1.836 26.399-10.899 32.083-23.308.11-.147.223-.29.337-.433.264-.43.517-.871.759-1.312l-.022.045c.257-.463.491-.933.733-1.404.242-.47.473-.951.671-1.44 0-.029.019-.058.026-.088.007-.029 0-.055 0-.081a.185.185 0 0 1 0-.047c-.242.058-.491.106-.733.15l.062-.194.059-.034c.139-.073.278-.143.421-.209a.608.608 0 0 1 .264-.088l.066-.158Z"/><path d="M452.001 175.139a38.972 38.972 0 0 0 2.709 5.414 39.972 39.972 0 0 0 4.877 6.499 41.309 41.309 0 0 0 25.765 12.974H485.649l.367.037H486.342l.337.029H487.218c.055.004.11.004.165 0H492.044l.399-.022a41.923 41.923 0 0 0 10.633-1.961 26.848 26.848 0 0 1 1.881-.056c.196.005.385.066.547.177a42.707 42.707 0 0 1-10.894 2.663l-1.672.04a.5.5 0 0 1-.029.085 43.95 43.95 0 0 1-2.416.066c-18 0-33.366-11.002-39.288-26.449.275.158.539.327.796.504Z"/><path d="M449.474 167.52c.131.156.253.319.367.489l.081.143a38.775 38.775 0 0 0 2.467 7.872l.022.118c.025.085.054.17.088.253.074.158.151.312.239.466.04.074.084.147.132.217l.099.213a1.388 1.388 0 0 1-.316-.25 12.642 12.642 0 0 0-.667-.573 39.484 39.484 0 0 1-2.842-9.462c.099.172.209.345.33.514Z"/><path d="M449.045 164.662c0 .048 0 .1.03.147.029.109.065.216.106.32.04.099.084.187.132.279.048.092.128.202.191.298a38.666 38.666 0 0 0 3.637 11.96 3.458 3.458 0 0 1-.4-.231 4.137 4.137 0 0 1-.502-.393 39.358 39.358 0 0 1-3.34-11.682l.033-.143c.025-.103.044-.206.062-.308.009-.084.024-.166.048-.247 0 0 .003-.003.003 0ZM453.445 142.856a39.71 39.71 0 0 0-1.734 3.853c-.073.191-.143.368-.216.577a38.665 38.665 0 0 0-1.929 7.6 7.343 7.343 0 0 0-.407.776 3.5 3.5 0 0 0-.11.275.955.955 0 0 0-.04.176v.03a.02.02 0 0 0 0 .018.057.057 0 0 0 0 .026.414.414 0 0 0 .029.055.662.662 0 0 1-.059-.07.662.662 0 0 1-.088-.319c0-.096-.025-.192-.036-.287a39.42 39.42 0 0 1 3.344-11.715c.08-.084.165-.161.249-.242.297-.272.634-.507.957-.735l.04-.018ZM458.578 136.579a1.38 1.38 0 0 1-.865 1.469c-2.394.9-4.033-2.917-1.07-3.137.935.007 1.924.709 1.935 1.668ZM510.256 192.937c5.367.764 3.38 7.795-1.687 6.579-4.217-1.411-2.431-6.583 1.544-6.583l.143.004ZM534.14 155.471c4.073 2.648 3.571 9.011-.928 10.965-4.858 2.248-10.67-1.87-9.496-7.064.594-3.086 3.644-5.077 6.691-5.077a6.329 6.329 0 0 1 3.733 1.176ZM551.388 159.284c.107.318.123.661.047.988a1.715 1.715 0 0 0-.047-.988Zm.788-2.678c3.19 3.049-.297 7.923-4.334 5.969-4.033-2.233-1.661-6.979 1.694-6.979a4.144 4.144 0 0 1 2.64 1.01ZM567.128 158.623c.305 1.583-1.419 2.817-2.904 2.303a2.033 2.033 0 0 1-.421-3.637 2.213 2.213 0 0 1 1.998-.174 2.231 2.231 0 0 1 1.327 1.508ZM504.055 158.619c2.061 3.126-2.445 6.546-5.225 4.159-1.037-.853-1.265-2.204-.913-3.413.437-1.429 1.874-2.204 3.3-2.204a3.295 3.295 0 0 1 2.838 1.458ZM494.438 160.198c.517 0 1.026.022 1.543.03-1.6.264-3.229.304-4.839.117 1.012-.07 2.027-.15 3.043-.15l.253.003ZM511.99 159.493c-2.105.327-4.323.227-6.464.172a19.05 19.05 0 0 1 3.472-.264c1.012 0 2.031.036 2.992.092ZM501.668 164.702c.253 1.507.32 3.039.202 4.562 0 0 .026 0 0 0-.018 0 .018.151-.04.107a26.144 26.144 0 0 1-.184-4.57c0 .062-.018 0-.022-.048-.003-.048 0-.077.022-.077l.022.026ZM500.928 151.267v.024a.049.049 0 0 1 0-.024ZM501.045 155.313c-.018 0 .022-.114 0-.14a11.378 11.378 0 0 1-.125-3.882c.184 1.326.44 2.692.125 4.022ZM507.322 154.537s0 .022 0 0a24.705 24.705 0 0 1-2.42 2.539c-.022 0-.08.04-.08.022a.474.474 0 0 1 .08-.055 11.6 11.6 0 0 1 2.424-2.517l-.004.011ZM504.169 163.563c.369.242.702.537.986.874.587.665 1.236 1.374 1.526 2.204-.968-.9-1.705-1.991-2.512-3.016a.137.137 0 0 0 0 .085s0 .026.029.029c.03.004.033 0 .019 0-.015 0-.077-.04-.088-.091-.011-.052 0-.096.04-.096v.011ZM495.677 166.454a21.935 21.935 0 0 1 3.164-3.027 7.192 7.192 0 0 1-3.164 3.027ZM504.323 152.598a12.744 12.744 0 0 1-1.386 3.534c.26-1.205.876-2.37 1.364-3.508v-.03l.022.004ZM499.454 166.249c-.318.492-.666.964-1.042 1.414-.025.029-.055.121-.066.11.368-.915.805-1.801 1.309-2.649.145-.29.332-.557.554-.793-.268.617-.396 1.322-.755 1.918ZM507.352 157.661c-.613.271-1.244.497-1.889.676 1.177-.705 2.409-1.47 3.77-1.749-.635.279-1.229.783-1.881 1.073ZM497.43 162.277h-.037c-.007 0-.07 0-.106.022-.422.237-.83.496-1.225.775-.81.475-1.671.859-2.567 1.143 1.177-.706 2.53-1.58 3.88-1.962.02.003.038.011.055.022ZM505.639 161.825a9.232 9.232 0 0 1 2.083.823c.475.197.926.45 1.342.753a.109.109 0 0 0 0 .044s-.033-.033-.037-.048c-1.257-.316-2.321-1.153-3.531-1.55v.062c-.047-.073 0-.095.055-.095l.088.011ZM493.121 156.822a18.956 18.956 0 0 1 3.711 2.366c-1.423-.463-2.636-1.436-3.718-2.373l.007.007ZM498.453 153.018c.034.053.064.108.091.165l-.077-.088c.429.87.784 1.774 1.064 2.703a6.645 6.645 0 0 1-1.1-2.509c0-.058-.077-.275 0-.275l.022.004ZM503.223 164.58c0 .022-.059 0-.073 0a14.243 14.243 0 0 1 1.591 3.328 18.304 18.304 0 0 1-1.617-3.365.32.32 0 0 0 .099.037ZM483.489 159.049c.767.849.239 2.245-.821 2.572-1.309.404-2.548-.911-2.017-2.138a1.807 1.807 0 0 1 1.643-1.011 1.441 1.441 0 0 1 1.195.577ZM489.162 218.662c3.784 2.597-.316 8.136-4.034 5.425-3.399-2.174-1.177-6.16 1.834-6.16.791.011 1.56.268 2.2.735ZM206.049 161.642c.016.154.016.309 0 .463.027-.153.027-.31 0-.463Zm-1.929-2.336c1.833 0 3.3 1.881 2.911 3.589-.938 3.879-6.673 2.777-6.05-1.12.165-1.51 1.559-2.469 3.051-2.469h.088ZM212.747 161.789c.077 0 .096.121 0 .132a18.244 18.244 0 0 1-5.081.022 25.969 25.969 0 0 1 3.3-.151h1.756l.025-.003ZM197.414 162.01c.782.012 1.563.068 2.339.165 0 0 0 .037 0 0a15.048 15.048 0 0 1-5.749.089 23.969 23.969 0 0 1 3.12-.269l.29.015ZM204.476 171.649c-.261-1.672-.03-3.431 0-5.099.473 1.664.304 3.42 0 5.099ZM204.673 152.624v-.03c.03.049.03.098 0 .03ZM204.256 157.907c-.12-1.77.02-3.547.414-5.275-.015 1.752-.007 3.57-.414 5.275ZM210.184 167.908c-1.034-.768-2.2-1.469-2.933-2.571 1.049.738 2.277 1.521 2.933 2.571ZM201.124 159.298a11.602 11.602 0 0 1-3.666-2.909c1.34.81 2.572 1.788 3.666 2.909ZM208.161 159.019a9.48 9.48 0 0 1 2.753-2.674 15.59 15.59 0 0 1-2.753 2.674ZM200.963 165.257a16.38 16.38 0 0 1-3.014 3.405c.807-1.278 1.716-2.623 3.029-3.435.018.004-.004.033-.015.03ZM189.153 161.947c.249.562-.543.881-.92.543a.535.535 0 0 1 .366-.947.593.593 0 0 1 .554.404Z"/><path d="M188.955 160.981c1.833.734.678 3.335-1.1 2.373-1.247-.753-.733-2.491.517-2.491.2.001.398.041.583.118ZM170.226 163.339c-.01.359.043.717.154 1.058a5.637 5.637 0 0 1-.154-1.058Zm8.752-7.045c4.228 2.791 5.324 8.294 1.404 11.854-4.066 3.758-11.157 2.127-12.943-3.064-1.877-5.26 2.387-10.036 7.333-10.036a7.904 7.904 0 0 1 4.206 1.246ZM156.124 162.591a1.583 1.583 0 0 1-.971.293h.095c.316 0 .623-.103.876-.293Zm.107-.074.087-.095a1.967 1.967 0 0 1-.198.165l.111-.07Zm1.565-.595a2.507 2.507 0 0 1-.367.331c.137-.093.261-.204.367-.331Zm-1.155-5.051c3.172.61 4.976 4.32 2.754 6.822a5.21 5.21 0 0 1-5.779 1.036c-4.216-2.157-2.222-7.957 2.032-7.957.333-.002.666.03.993.095v.004ZM140.783 158.299c3.579.787 2.2 5.878-1.287 4.622-2.816-.838-1.833-4.68.733-4.68.186.001.372.021.554.058ZM237.504 129.592a.284.284 0 0 1 .217.165.876.876 0 0 1 .124.404c.006.093.006.186 0 .279v.213a72.18 72.18 0 0 0-2.145 7.307c.057-.37.115-.737.176-1.102.245-1.47.482-2.939.712-4.408v-.092c.295-.98.597-1.894.905-2.744l.011-.022ZM231.59 173.584v-.052a.226.226 0 0 1 0 .052ZM231.594 173.559v.073a1.41 1.41 0 0 0 0-.092v.019Z"/><path d="M231.766 180.788c-.018.368-.044.735-.07 1.102-.025.504-.058 1-.091 1.499-.041.753-.088 1.506-.132 2.263a92.992 92.992 0 0 1-.297-4l.066-1.238c.025-.551.055-1.102.088-1.65a.375.375 0 0 0 0 .067c.025-.57.055-1.139.088-1.712v.07c.029-.603.055-1.202.088-1.8.025-.607.055-1.213.091-1.819-.014 2.55.044 4.97.169 7.218ZM234.835 195.771c.11.5.227.992.367 1.47.055.205.106.415.157.624.052.209.099.367.143.558.03.096.055.188.081.28a2.661 2.661 0 0 1-.433-.305l-.088-.21a9.517 9.517 0 0 1-.333-.958 28.25 28.25 0 0 1-.301-1.058c-.095-.357-.15-.625-.227-.937-.077-.312-.14-.665-.213-.999a8.226 8.226 0 0 1-.062-.327c.232.653.537 1.278.909 1.862ZM231.605 183.377Z"/><path d="M243.305 121.558c3.586.305 5.621 11.707 5.291 27.242l-.147-.07c.275-14.694-1.668-25.427-5.071-25.714-4.282-.367-9.247 15.943-11.091 36.411-1.845 20.468.128 37.359 4.4 37.723 3.454.29 7.355-10.264 9.702-25.108.088-.239.183-.474.278-.702-2.42 16.226-6.629 27.918-10.343 27.61-4.466-.368-6.527-18-4.602-39.376 1.907-21.137 7-38.016 11.433-38.02l.15.004Z"/><path d="M236.896 133.485c2.753 1.003 1.466 4.889-1.353 4.272-1.522-.367-1.878-1.693-1.647-3.049.184-.948 1.141-1.374 2.072-1.374.315-.001.629.05.928.151ZM241.56 189.675c.733.172 1.551.734 1.466 1.539-.051.929-1.1 1.469-1.972 1.102-1.529-.533-1.335-2.663.256-2.663.084.002.167.009.25.022Z"/></g><path fill="#080F24" d="M243 324h239v30H243z"/><path fill="#fff" d="M248.144 349.832c.991 0 1.83-.343 2.516-1.03.724-.724 1.105-1.581 1.143-2.572v-31.845c-.114-1.334-.743-2.325-1.886-2.973a3.723 3.723 0 0 0-1.773-.458h-.743v-.571h16.066c1.677 0 3.144-.134 4.402-.4 1.258-.267 2.077-.477 2.458-.629v10.005h-.629v-.686c.039-1.715-.457-3.088-1.486-4.117-.991-1.067-2.344-1.639-4.059-1.715h-3.774v16.637h9.091c1.41-.038 2.572-.514 3.487-1.429.915-.953 1.372-2.115 1.372-3.488v-.514h.515v13.207h-.515v-.458c0-1.41-.457-2.572-1.372-3.487s-2.058-1.391-3.43-1.429h-9.148v16.065h11.149c2.782 0 5.107-.8 6.975-2.401 1.906-1.601 3.316-3.869 4.231-6.804h.571l-2.687 11.663h-33.217v-.571h.743Zm74.026-38.878h-.515c-.877 0-1.753.267-2.63.801-.877.533-1.601 1.334-2.172 2.401l-13.55 29.901c-1.754 3.774-2.687 6.27-2.802 7.49h-.514l-17.323-37.334c-.572-1.067-1.296-1.867-2.173-2.401-.877-.572-1.772-.858-2.687-.858h-.457v-.571h18.18v.571h-.457c-.839 0-1.467.267-1.887.801-.381.495-.571.972-.571 1.429 0 .458.076.915.228 1.372l9.72 23.612 10.062-23.612c.19-.495.286-.953.286-1.372 0-.457-.21-.934-.629-1.429-.381-.534-.991-.801-1.83-.801h-.514v-.571h12.235v.571Zm1.404 38.878c.991 0 1.829-.343 2.515-1.03.725-.724 1.106-1.581 1.144-2.572v-31.845c-.114-1.334-.743-2.325-1.887-2.973a3.717 3.717 0 0 0-1.772-.458h-.743v-.571h21.897c1.181 0 2.477-.115 3.887-.343 1.411-.229 2.402-.458 2.973-.686v10.005h-.571v-.686c0-1.715-.515-3.088-1.544-4.117-.991-1.067-2.344-1.639-4.059-1.715h-9.605v16.637h7.546c1.411-.038 2.573-.514 3.488-1.429.915-.953 1.372-2.115 1.372-3.488v-.514h.572v13.207h-.572v-.458c0-1.905-.762-3.316-2.287-4.23a5.62 5.62 0 0 0-2.515-.686h-7.604v16.065h7.489c2.783 0 5.108-.8 6.975-2.401 1.906-1.601 3.316-3.869 4.231-6.804h.572l-2.63 11.663h-29.615v-.571h.743Zm79.633-38.878c-.953 0-1.773.343-2.459 1.03-.686.648-1.048 1.448-1.086 2.401v29.501c0 2.553.172 4.707.515 6.46l.171.858h-.514l-28.872-27.5v22.697c0 .953.343 1.773 1.029 2.459a3.455 3.455 0 0 0 2.458.972h1.086v.571h-17.323v-.571h1.029c.991 0 1.83-.324 2.516-.972.686-.686 1.029-1.525 1.029-2.516v-29.672c0-2.516-.171-4.612-.515-6.289l-.114-.858h.515l28.872 27.5v-22.583c-.038-.991-.401-1.81-1.087-2.458-.686-.687-1.505-1.03-2.458-1.03h-1.029v-.571h17.323v.571h-1.086Zm26.141 1.773v33.56c.038.991.4 1.829 1.086 2.515a3.612 3.612 0 0 0 2.573 1.03h.686l.057.571h-17.38v-.571h.743c.953 0 1.772-.343 2.458-1.03.725-.686 1.125-1.505 1.201-2.458v-33.617h-7.718c-1.753.038-3.145.591-4.174 1.658-1.029 1.067-1.543 2.458-1.543 4.173v.686h-.572v-9.948c.533.229 1.486.458 2.859.687 1.41.228 2.706.343 3.887.343h23.041c1.867-.039 3.392-.191 4.573-.458 1.182-.267 1.906-.457 2.173-.572v9.948h-.572v-.686c0-1.715-.514-3.106-1.543-4.173-1.03-1.067-2.421-1.62-4.174-1.658h-7.661Zm17.553 32.359c0-2.744.59-5.088 1.772-7.032h.515c-.039.305-.058.61-.058.915 0 2.63.934 4.936 2.802 6.918 1.906 1.944 4.497 2.915 7.775 2.915 2.554 0 4.536-.609 5.946-1.829 1.449-1.22 2.173-2.763 2.173-4.631 0-2.249-1.525-4.212-4.574-5.889l-9.948-6.575c-1.982-1.143-3.411-2.515-4.288-4.116-.838-1.639-1.258-3.297-1.258-4.974 0-3.583 1.125-6.346 3.373-8.29 2.287-1.944 5.203-2.916 8.748-2.916 2.096 0 4.688.191 7.775.572h3.602l-.743 8.404h-.572c0-1.982-.743-3.563-2.23-4.745-1.448-1.22-3.392-1.829-5.831-1.829-2.973 0-5.127.914-6.461 2.744a4.696 4.696 0 0 0-1.029 2.973c0 1.829 1.334 3.525 4.002 5.088l10.92 7.089c3.431 1.982 5.146 4.898 5.146 8.748 0 4.078-1.391 7.204-4.174 9.376-2.744 2.135-6.403 3.202-10.977 3.202-2.592 0-4.993-.305-7.204-.915-2.172-.648-3.773-1.506-4.802-2.573-.267-.724-.4-1.601-.4-2.63Z"/><defs><clipPath id="clip0_523_2429"><path fill="#fff" d="M657.994 294.421H42.958V31.433h615.036z"/></clipPath></defs></svg>