<svg xmlns="http://www.w3.org/2000/svg" width="1015" height="177" fill="none" viewBox="0 0 1015 177"><path fill="#FED395" d="M181.167 117.439h21.384v2.349h-3.669c-1.62 0-2.657.203-3.087.616-.429.413-.639 1.272-.639 2.584v35.121c0 1.402.186 2.276.559 2.633a3.984 3.984 0 0 0 2.729.721h4.107v2.349h-21.384v-2.349h4.05c1.417 0 2.341-.211 2.754-.632.413-.421.632-1.32.632-2.722v-35.121c0-1.337-.187-2.163-.567-2.479-.583-.478-1.62-.721-3.24-.721h-3.629v-2.349ZM207.087 134.433l9.72-.599c.437 2.138.73 4.303.875 6.48a13.932 13.932 0 0 1 4.657-4.795 11.587 11.587 0 0 1 6.067-1.62 9.564 9.564 0 0 1 4.86 1.15 8.1 8.1 0 0 1 3.167 3.621 12.624 12.624 0 0 1 1.191 5.548v14.297a2.996 2.996 0 0 0 .721 2.276 3.507 3.507 0 0 0 2.43.672h2.065v2.349h-15.503v-2.349h1.474a4.672 4.672 0 0 0 2.884-.664 2.39 2.39 0 0 0 .81-1.969v-12.579c0-2.738-.419-4.765-1.256-6.083a5.856 5.856 0 0 0-5.33-2.819 7.406 7.406 0 0 0-5.872 2.827 11.26 11.26 0 0 0-2.365 7.436v10.878a2.964 2.964 0 0 0 .737 2.276c.702.511 1.565.75 2.43.673h2.041v2.349h-15.552v-2.349h2.033a3.72 3.72 0 0 0 2.341-.632 1.89 1.89 0 0 0 .81-1.563v-18.946a3.78 3.78 0 0 0-1.012-2.851 4.09 4.09 0 0 0-2.933-.972h-1.49v-2.042ZM244.994 134.434h14.45v2.13a9.615 9.615 0 0 0-3.685.518 1.437 1.437 0 0 0-.596.534 1.432 1.432 0 0 0-.214.77c0 .476.105.947.308 1.377l7.792 17.342 7.087-16.815c.105-.28.16-.576.162-.875 0-1.523-1.506-2.43-4.503-2.851v-2.13h12.15v2.13a5.894 5.894 0 0 0-2.949 1.004 5.263 5.263 0 0 0-1.693 2.195l-10.732 24.924h-1.693l-11.558-25.612a4.194 4.194 0 0 0-1.523-1.928 5.77 5.77 0 0 0-2.803-.583v-2.13ZM280.205 134.434l11.688-.341v25.264c-.027.267.004.538.09.792.087.254.228.487.412.682.508.43 1.158.655 1.823.632h3.321v2.349h-16.743v-2.349h3.102a2.7 2.7 0 0 0 2.025-.672c.46-.546.69-1.249.64-1.96V140.33a3.332 3.332 0 0 0-1.004-2.648 4.316 4.316 0 0 0-2.973-.899h-2.43l.049-2.349Zm8.148-17.529a3.403 3.403 0 0 1 2.479 1.069c.338.325.606.715.788 1.147.183.432.276.896.273 1.364a3.518 3.518 0 0 1-3.507 3.475 3.469 3.469 0 0 1-3.288-2.144 3.48 3.48 0 0 1 .809-3.842 3.371 3.371 0 0 1 2.446-1.069ZM308.733 122.453h2.098v11.98h9.501v2.884h-9.501v18.848a5.428 5.428 0 0 0 1.166 3.742 3.755 3.755 0 0 0 2.94 1.304 4.43 4.43 0 0 0 3.637-1.976c1.004-1.32 1.62-3.491 1.758-6.48h2.106c-.13 3.904-1.018 6.804-2.665 8.699a8.096 8.096 0 0 1-6.431 2.835 7.842 7.842 0 0 1-5.67-1.992 6.916 6.916 0 0 1-2.05-5.217v-19.763h-5.111v-2.196a8.225 8.225 0 0 0 5.322-2.916c1.782-2.316 2.748-5.567 2.9-9.752ZM353.533 149.329h-21.059c.108 4.471.945 7.628 2.511 9.469a8.7 8.7 0 0 0 6.868 3.102c4.094 0 7.385-2.33 9.874-6.99l2.041.875c-3.051 5.94-7.462 8.91-13.235 8.91a13.103 13.103 0 0 1-9.898-4.269c-2.7-2.84-4.05-6.477-4.05-10.91 0-4.763 1.323-8.613 3.969-11.551a12.605 12.605 0 0 1 9.768-4.406 12.417 12.417 0 0 1 7.371 2.195 13.236 13.236 0 0 1 4.666 6.301c.81 2.339 1.208 4.8 1.174 7.274Zm-21.059-2.227h12.733a2.125 2.125 0 0 0 1.749-.77 4.171 4.171 0 0 0 .632-2.616 8.547 8.547 0 0 0-2.146-5.864 6.56 6.56 0 0 0-5.063-2.43 6.81 6.81 0 0 0-5.54 2.916c-1.496 1.954-2.276 4.876-2.341 8.764h-.024ZM361.625 152.748c1.296 3.613 2.787 6.116 4.472 7.509a9.456 9.456 0 0 0 6.22 2.081c2.276 0 4.05-.494 5.257-1.49a4.644 4.644 0 0 0 1.831-3.774 4.055 4.055 0 0 0-.673-2.309 4.094 4.094 0 0 0-1.871-1.474 45.548 45.548 0 0 0-6.188-1.426 25.103 25.103 0 0 1-6.658-1.976 7.41 7.41 0 0 1-2.932-2.851 7.7 7.7 0 0 1-1.053-3.953 9 9 0 0 1 2.162-5.856c1.863-2.241 4.472-3.362 7.825-3.362 2.567.012 5.06.866 7.095 2.43l2.066-2.187h1.288l.81 10.465h-2.098c-.923-2.964-2.171-5.1-3.742-6.407a8.753 8.753 0 0 0-5.808-1.96 6.944 6.944 0 0 0-4.682 1.458 4.511 4.511 0 0 0-1.701 3.556 3.77 3.77 0 0 0 1.572 3.078c1.026.832 3.037 1.49 6.034 1.976a45.37 45.37 0 0 1 6.788 1.474 8.347 8.347 0 0 1 3.985 2.9 7.975 7.975 0 0 1 1.409 4.779 8.44 8.44 0 0 1-3.061 6.585 11.342 11.342 0 0 1-7.768 2.69 12.961 12.961 0 0 1-8.1-2.884l-2.309 2.657h-1.62l-.623-11.696 2.073-.033ZM404.993 134.434h14.077v2.13h-1.32a4.637 4.637 0 0 0-2.527.486c-.221.158-.398.37-.515.615a1.606 1.606 0 0 0-.157.786c.003.28.067.557.186.81l8.189 17.658 6.099-14.645a7.934 7.934 0 0 0 .656-3.078 2.078 2.078 0 0 0-.907-1.798c-.607-.429-1.822-.704-3.637-.81v-2.13h12.223v2.13c-2.36.238-3.947 1.293-4.763 3.167l-10.862 25.264c-1.847 4.32-3.699 7.274-5.556 8.861a9.11 9.11 0 0 1-6.051 2.43 5.417 5.417 0 0 1-3.783-1.304 4.116 4.116 0 0 1-1.425-3.167 3.235 3.235 0 0 1 .875-2.325 2.974 2.974 0 0 1 2.195-.907 2.766 2.766 0 0 1 2.008.81 2.524 2.524 0 0 1 .81 1.879 5.04 5.04 0 0 1-.129.94 3.115 3.115 0 0 0-.122.697c0 .494.324.745.972.745a4.86 4.86 0 0 0 2.333-.745 7.754 7.754 0 0 0 2.43-2.43 77.429 77.429 0 0 0 3.961-7.355l-11.154-23.903a4.562 4.562 0 0 0-1.482-1.863 6.028 6.028 0 0 0-2.608-.81l-.016-2.138ZM453.997 133.558a13.132 13.132 0 0 1 9.955 4.277c2.7 2.851 4.05 6.61 4.05 11.275a17.416 17.416 0 0 1-1.798 8.23 13.522 13.522 0 0 1-5.143 5.378 13.936 13.936 0 0 1-7.201 1.968 12.635 12.635 0 0 1-9.672-4.325c-2.64-2.884-3.96-6.623-3.96-11.219 0-4.595 1.325-8.348 3.977-11.258a12.815 12.815 0 0 1 9.792-4.326Zm0 2.228a6.793 6.793 0 0 0-5.767 3.175c-1.506 2.122-2.26 5.473-2.26 10.052 0 4.665.748 8.073 2.244 10.222a6.762 6.762 0 0 0 5.783 3.24 6.954 6.954 0 0 0 5.938-3.24c1.512-2.16 2.27-5.67 2.276-10.53 0-4.536-.748-7.816-2.244-9.841a7.036 7.036 0 0 0-5.97-3.078ZM482.307 133.899v19.44c0 2.382.599 4.22 1.798 5.516a6.043 6.043 0 0 0 4.649 1.944 7.586 7.586 0 0 0 5.962-2.835 10.463 10.463 0 0 0 2.43-7.103v-10.968a2.803 2.803 0 0 0-1.086-2.341c-.723-.539-2.106-.847-4.147-.923v-2.195l10.311-.535v24.098a3.353 3.353 0 0 0 .94 2.551 3.666 3.666 0 0 0 2.633.899h1.854v2.098l-9.881.219-.624-5.767a21.452 21.452 0 0 1-5.289 4.673 10.534 10.534 0 0 1-5.387 1.564 9.072 9.072 0 0 1-6.666-2.665c-1.815-1.755-2.722-4.725-2.722-8.91v-12.766a2.872 2.872 0 0 0-1.352-2.575c-.624-.414-1.912-.648-3.856-.689v-2.195l10.433-.535ZM537.054 122.453h2.131v11.98h9.501v2.884h-9.501v18.848a5.452 5.452 0 0 0 1.158 3.742 3.793 3.793 0 0 0 2.892 1.329 4.436 4.436 0 0 0 3.636-1.977c1.005-1.317 1.591-3.477 1.758-6.48h2.098c-.119 3.904-1.007 6.804-2.665 8.7a8.107 8.107 0 0 1-6.423 2.835 7.823 7.823 0 0 1-5.67-1.993 6.912 6.912 0 0 1-2.049-5.216v-19.788h-5.111v-2.196a8.21 8.21 0 0 0 5.313-2.916c1.809-2.316 2.787-5.567 2.932-9.752ZM568.158 133.558a13.148 13.148 0 0 1 9.955 4.277c2.7 2.851 4.05 6.609 4.05 11.275a17.325 17.325 0 0 1-1.806 8.229 13.498 13.498 0 0 1-5.135 5.379 13.945 13.945 0 0 1-7.201 1.968 12.622 12.622 0 0 1-9.672-4.325c-2.64-2.884-3.963-6.623-3.969-11.219-.005-4.595 1.323-8.348 3.986-11.259a12.812 12.812 0 0 1 9.792-4.325Zm0 2.228a6.82 6.82 0 0 0-5.775 3.175c-1.501 2.122-2.252 5.473-2.252 10.052 0 4.665.746 8.073 2.236 10.222a6.789 6.789 0 0 0 5.791 3.24 6.954 6.954 0 0 0 5.938-3.24c1.517-2.16 2.276-5.67 2.276-10.53 0-4.536-.748-7.817-2.244-9.842a7.052 7.052 0 0 0-2.596-2.293 7.05 7.05 0 0 0-3.374-.784ZM631.799 149.33H610.74c.108 4.471.945 7.627 2.511 9.469a8.693 8.693 0 0 0 6.86 3.102c4.099 0 7.393-2.33 9.882-6.99l2.033.875c-3.045 5.94-7.454 8.91-13.227 8.91a13.118 13.118 0 0 1-9.922-4.261c-2.7-2.84-4.05-6.477-4.05-10.911 0-4.762 1.323-8.612 3.969-11.55a12.6 12.6 0 0 1 9.768-4.406 12.38 12.38 0 0 1 7.363 2.195 13.196 13.196 0 0 1 4.674 6.301 21.342 21.342 0 0 1 1.198 7.266Zm-21.059-2.227h12.733a2.125 2.125 0 0 0 1.749-.77 4.171 4.171 0 0 0 .632-2.616 8.55 8.55 0 0 0-2.146-5.865 6.581 6.581 0 0 0-5.071-2.43 6.807 6.807 0 0 0-5.532 2.916c-1.496 1.955-2.276 4.877-2.341 8.765h-.024ZM635.752 134.434h14.175v2.162c-2.301.081-3.443.494-3.443 1.223.057.473.252.917.559 1.28l5.063 6.723 4.965-6.213c.321-.368.509-.832.535-1.32 0-.899-1.264-1.458-3.791-1.693v-2.162H666.2v2.162a10.387 10.387 0 0 0-6.837 3.759l-5.783 7.217 9.072 11.761a5.44 5.44 0 0 0 1.976 1.62 7.88 7.88 0 0 0 3.135.486v2.349h-15.017v-2.349h1.069a6.392 6.392 0 0 0 2.43-.348c.332-.162.502-.373.502-.624a2.541 2.541 0 0 0-.599-1.158l-5.881-7.784-4.73 6.066a3.804 3.804 0 0 0-1.005 2.066 1.285 1.285 0 0 0 .689 1.182 7.116 7.116 0 0 0 3.24.6v2.349h-12.766v-2.349a8.571 8.571 0 0 0 3.572-.972 14.838 14.838 0 0 0 3.734-3.354l5.841-7.403-8.57-11.154c-.967-1.252-2.473-1.911-4.52-1.976v-2.146ZM680.124 133.899c.446 2.086.717 4.204.81 6.335a14.72 14.72 0 0 1 4.536-4.86 9.898 9.898 0 0 1 5.2-1.442c2.059.016 4.063.663 5.743 1.855a13.11 13.11 0 0 1 4.446 5.419 18.402 18.402 0 0 1 1.71 8.059c0 4.79-1.396 8.689-4.188 11.696a10.917 10.917 0 0 1-8.319 3.759 9.105 9.105 0 0 1-4.973-1.41 12.913 12.913 0 0 1-3.937-4.195v11.842a2.434 2.434 0 0 0 .656 1.944 3.43 3.43 0 0 0 2.357.745h2.163v2.227h-15.714v-2.227h2.22a3.596 3.596 0 0 0 2.251-.591 1.912 1.912 0 0 0 .754-1.572v-30.901c0-1.442-.34-2.43-1.037-3.062-.697-.632-2.066-.923-4.139-.988v-2.098l9.461-.535Zm9.112 2.86c-2.273 0-4.198 1.096-5.775 3.288-1.577 2.193-2.365 5.371-2.365 9.534 0 4.196.761 7.29 2.284 9.307a7.02 7.02 0 0 0 5.824 3.013 5.853 5.853 0 0 0 5.103-2.568c1.522-2.257 2.284-5.562 2.284-9.914 0-4.552-.691-7.792-2.074-9.72a6.207 6.207 0 0 0-5.257-2.94h-.024ZM718.809 116.905v42.582a1.68 1.68 0 0 0 .534 1.344 2.94 2.94 0 0 0 1.912.632h3.102v2.349h-16.645v-2.349h2.948a2.997 2.997 0 0 0 2.147-.688 2.6 2.6 0 0 0 .704-1.944v-35.745a2.855 2.855 0 0 0-.81-2.293 4.23 4.23 0 0 0-2.851-1.004h-2.632v-2.349l11.591-.535ZM741.789 133.558a13.13 13.13 0 0 1 9.955 4.277c2.7 2.851 4.05 6.61 4.05 11.275a17.333 17.333 0 0 1-1.807 8.23 13.462 13.462 0 0 1-5.143 5.378 13.905 13.905 0 0 1-7.193 1.968 12.621 12.621 0 0 1-9.671-4.325c-2.646-2.884-3.969-6.623-3.969-11.218 0-4.596 1.328-8.349 3.985-11.259a12.794 12.794 0 0 1 9.793-4.326Zm0 2.228a6.803 6.803 0 0 0-5.767 3.175c-1.507 2.122-2.26 5.473-2.26 10.052 0 4.665.748 8.073 2.243 10.222a6.79 6.79 0 0 0 5.784 3.24 6.971 6.971 0 0 0 5.945-3.24c1.512-2.16 2.271-5.67 2.276-10.53 0-4.536-.748-7.816-2.243-9.841a7.062 7.062 0 0 0-5.978-3.078ZM759.568 134.434l10.57-.535v11.883c1.124-3.905 2.474-6.861 4.05-8.87a7.297 7.297 0 0 1 5.897-3.013 5.078 5.078 0 0 1 3.807 1.458 5.364 5.364 0 0 1 1.426 3.904 4.538 4.538 0 0 1-.956 3.078 3.05 3.05 0 0 1-2.43 1.094 2.963 2.963 0 0 1-2.276-.94 3.62 3.62 0 0 1-.859-2.543 3.923 3.923 0 0 1 .502-1.944c.201-.301.359-.628.47-.972 0-.308-.202-.47-.599-.47a4.607 4.607 0 0 0-2.916 1.507 13.46 13.46 0 0 0-3.475 5.767 30.972 30.972 0 0 0-1.887 9.128v6.302a1.901 1.901 0 0 0 .753 1.62c.781.445 1.68.643 2.576.567h3.726v2.349h-18.249v-2.349h2.915a3.584 3.584 0 0 0 2.228-.583 1.718 1.718 0 0 0 .753-1.393v-18.711a4.493 4.493 0 0 0-.907-3.119 3.376 3.376 0 0 0-2.6-.988h-2.576l.057-2.227ZM816.097 149.329h-21.059c.102 4.472.939 7.628 2.511 9.469a8.693 8.693 0 0 0 6.86 3.102c4.099 0 7.393-2.33 9.882-6.99l2.033.875c-3.045 5.94-7.454 8.91-13.227 8.91a13.103 13.103 0 0 1-9.898-4.269c-2.7-2.84-4.05-6.477-4.05-10.91 0-4.763 1.323-8.613 3.969-11.551a12.605 12.605 0 0 1 9.769-4.406 12.376 12.376 0 0 1 7.362 2.195 13.194 13.194 0 0 1 4.674 6.302 21.498 21.498 0 0 1 1.174 7.273Zm-21.059-2.227h12.733a2.133 2.133 0 0 0 1.749-.77 4.171 4.171 0 0 0 .632-2.616 8.547 8.547 0 0 0-2.146-5.864 6.58 6.58 0 0 0-5.071-2.43 6.806 6.806 0 0 0-5.532 2.916c-1.507 1.954-2.287 4.876-2.341 8.764h-.024ZM1.348 83.29a5.346 5.346 0 0 0 3.929-1.62 5.67 5.67 0 0 0 1.725-3.928v-49.24a5.54 5.54 0 0 0-2.916-4.6c-.84-.458-1.781-.7-2.738-.705H.198v-.883H25a33.01 33.01 0 0 0 6.804-.623 26.86 26.86 0 0 0 3.799-.972v15.47h-.972v-1.06a8.585 8.585 0 0 0-2.252-6.407 8.983 8.983 0 0 0-6.326-2.609H20.22v25.718h14.053a7.54 7.54 0 0 0 5.395-2.252 7.364 7.364 0 0 0 2.114-5.346v-.81h.81v20.42h-.81v-.713a7.29 7.29 0 0 0-2.114-5.386 7.494 7.494 0 0 0-5.305-2.212H20.22v24.835h17.237a16.2 16.2 0 0 0 10.821-3.71c2.916-2.479 5.076-5.989 6.48-10.53h.883l-4.147 18.03H.165v-.882l1.183.016ZM60.17 83.291a5.337 5.337 0 0 0 3.929-1.62 5.67 5.67 0 0 0 1.725-3.928v-48.98a5.67 5.67 0 0 0-1.725-3.93 5.34 5.34 0 0 0-3.929-1.62h-1.15v-.882h26.867l-.089.883h-1.02a5.49 5.49 0 0 0-3.977 1.62 5.282 5.282 0 0 0-1.677 3.928v51.613H90.7a16.198 16.198 0 0 0 10.821-3.71c2.916-2.478 5.076-5.988 6.48-10.53h.883l-4.05 18.031H59.02v-.883l1.15.008ZM174.962 83.291h.81v.883h-28.188v-.883h.81a3.43 3.43 0 0 0 2.876-1.19c.549-.63.874-1.426.923-2.26a5.486 5.486 0 0 0-.437-2.115l-4.334-10.87h-20.711l-4.593 10.87a5.925 5.925 0 0 0-.446 2.163c.06.82.387 1.596.932 2.211a3.519 3.519 0 0 0 2.956 1.191h.713v.883H107.36v-.883h.81a7.758 7.758 0 0 0 4.05-1.24 9.393 9.393 0 0 0 3.353-3.71l20.42-46.217c2.77-5.832 4.242-9.69 4.415-11.575h.81l26.252 57.615a9.659 9.659 0 0 0 3.353 3.847 7.767 7.767 0 0 0 4.139 1.28Zm-46.745-20.153h17.674l-8.578-21.74-9.096 21.74Z"/><path fill="#FED395" d="M245.221 23.198a5.255 5.255 0 0 0-3.799 1.547 5.352 5.352 0 0 0-1.684 3.758v45.595c-.045 3.347.227 6.69.81 9.987l.267 1.328h-.81l-44.631-42.508v35.08a5.054 5.054 0 0 0 1.62 3.759 5.268 5.268 0 0 0 3.799 1.547h1.677v.883h-26.803v-.883h1.62a5.38 5.38 0 0 0 3.888-1.547 5.143 5.143 0 0 0 1.62-3.847V32.035a49.964 49.964 0 0 0-.81-9.72l-.178-1.329h.81l44.63 42.509v-34.91a5.422 5.422 0 0 0-1.676-3.84 5.285 5.285 0 0 0-3.799-1.547h-1.62v-.883h26.778v.883h-1.709ZM376.627 93.538a34.833 34.833 0 0 1-17.496 4.512c-9.542 0-18.497-3.24-26.867-9.72l-9.016-7.16a38.57 38.57 0 0 1-17.496 3.976c-4.309.05-8.6-.563-12.725-1.814a44.045 44.045 0 0 1-9.412-4.05 19.024 19.024 0 0 1-6.058-5.848 14.748 14.748 0 0 1-2.43-8.351 14.975 14.975 0 0 1 5.67-12.012 23.108 23.108 0 0 1 7.071-3.977c-2.7-4.186-4.05-8.133-4.05-11.843a13.925 13.925 0 0 1 3.005-9.193c3.78-4.65 9.79-6.977 18.03-6.982 4.637-.129 9.239.84 13.43 2.827a11.047 11.047 0 0 1 4.244 3.45l-3.005 12.636h-.81c-.178-5.94-1.828-10.26-4.949-12.96a9.914 9.914 0 0 0-6.715-2.211 9.13 9.13 0 0 0-6.893 2.875 10.481 10.481 0 0 0-2.123 3.506 10.448 10.448 0 0 0-.614 4.052c0 3.116 1.207 6.193 3.62 9.234a85.064 85.064 0 0 0 11 10.87c4.914 4.212 11.027 9.342 18.338 15.39 7.074-7.247 10.609-15.617 10.603-25.11a31.652 31.652 0 0 0-6.715-19.44 48.598 48.598 0 0 0-12.02-11.048l.535-.527a46.997 46.997 0 0 1 12.903 10.53c3.353 4.045 5.591 7.962 6.715 11.753a38.998 38.998 0 0 1 1.676 11.008c0 9.66-3.51 18.144-10.53 25.45l2.738 2.3c2.77 2.355 5.111 4.269 7.023 5.743 1.911 1.474 4.285 3.094 7.12 4.86 2.492 1.642 5.16 3 7.954 4.05a37.878 37.878 0 0 0 13.77 2.56 33.8 33.8 0 0 0 4.236-.268l.243.932Zm-87.577-31.46c0 6.188 2.179 10.991 6.537 14.41a20.462 20.462 0 0 0 12.903 4.325 26.968 26.968 0 0 0 11.227-2.47c-9.369-7.56-15.085-12.215-17.148-13.965a92.496 92.496 0 0 1-11.34-10.781 15.953 15.953 0 0 0-2.179 8.48ZM443.435 23.198a5.268 5.268 0 0 0-3.799 1.547 5.346 5.346 0 0 0-1.676 3.758v45.595a52.65 52.65 0 0 0 .81 9.987l.267 1.328h-.81l-44.623-42.508v35.08a5.04 5.04 0 0 0 1.62 3.759 5.268 5.268 0 0 0 3.799 1.547h1.653v.883h-26.787v-.883h1.62a5.38 5.38 0 0 0 3.888-1.547 5.14 5.14 0 0 0 1.62-3.847V32.035a49.269 49.269 0 0 0-.81-9.72l-.17-1.329h.81l44.631 42.509v-34.91a5.48 5.48 0 0 0-1.685-3.84 5.269 5.269 0 0 0-3.799-1.547h-1.62v-.883h26.778v.883h-1.717ZM529.513.396a31.706 31.706 0 0 1 3.71.179v.882a19.996 19.996 0 0 0-9.428 2.641 25.189 25.189 0 0 0-6.407 5.087 120.274 120.274 0 0 0-3.005 3.799 25.368 25.368 0 0 0-2.171 3.49 117.855 117.855 0 0 0-3.094 6.1l-23.677 51.783c-2.7 5.832-4.144 9.69-4.333 11.575h-.81l-26.787-57.696a9.713 9.713 0 0 0-3.361-3.759 7.721 7.721 0 0 0-4.147-1.28h-.713v-.882h28.107v.883h-.713a3.4 3.4 0 0 0-2.867 1.19 3.718 3.718 0 0 0-.932 2.252c.003.722.124 1.439.357 2.122l15.025 36.499 18.29-42.679c2.77-6.545 6.01-11.464 9.72-14.758 5.486-4.946 11.231-7.422 17.236-7.428Z"/><path fill="#FED395" d="M516.075 83.291a5.363 5.363 0 0 0 3.937-1.62 5.717 5.717 0 0 0 1.725-3.928v-49.07a5.579 5.579 0 0 0-1.725-3.888 5.446 5.446 0 0 0-3.937-1.62h-1.15v-.883h26.868l-.089.883h-1.061a5.583 5.583 0 0 0-3.977 1.62 5.155 5.155 0 0 0-1.677 3.888v49.053a5.284 5.284 0 0 0 1.677 3.929 5.492 5.492 0 0 0 3.977 1.62h1.061l.089.883h-26.868v-.883l1.15.016ZM549.714 75.952c-.11-3.806.838-7.57 2.738-10.87h.81c-.058.47-.087.944-.089 1.418a14.87 14.87 0 0 0 4.382 10.651c2.905 3.03 6.896 4.547 11.972 4.552 3.942 0 7.02-.945 9.234-2.835a8.987 8.987 0 0 0 3.312-7.152c0-3.472-2.357-6.507-7.071-9.104l-15.39-10.166a16.421 16.421 0 0 1-6.585-6.407 16.1 16.1 0 0 1-1.984-7.646c0-5.535 1.752-9.804 5.256-12.806 3.505-3.003 7.998-4.506 13.479-4.512 4.018.058 8.029.353 12.012.883h5.573l-1.15 12.96h-.859a9.062 9.062 0 0 0-3.402-7.38c-2.268-1.851-5.289-2.78-9.064-2.785-4.59 0-7.916 1.414-9.979 4.244a7.295 7.295 0 0 0-1.62 4.593c0 2.835 2.063 5.456 6.188 7.865l16.881 10.959c5.297 3.067 7.948 7.573 7.954 13.519 0 6.307-2.136 11.124-6.407 14.45-4.272 3.326-9.942 4.992-17.01 4.998a40.094 40.094 0 0 1-11.089-1.458c-3.386-.972-5.875-2.285-7.468-3.937a11.79 11.79 0 0 1-.624-4.034ZM600.744 83.291a5.363 5.363 0 0 0 3.937-1.62 5.671 5.671 0 0 0 1.717-3.928v-49.07a5.549 5.549 0 0 0-1.717-3.888 5.456 5.456 0 0 0-3.937-1.62h-1.15v-.883h26.867l-.089.883h-1.061a5.575 5.575 0 0 0-3.977 1.62 5.166 5.166 0 0 0-1.677 3.888v49.053a5.285 5.285 0 0 0 1.677 3.929 5.486 5.486 0 0 0 3.977 1.62h1.061l.089.883h-26.867v-.883l1.15.016ZM666.928 21.108c10.898 0 19.556 2.887 25.977 8.66 6.421 5.772 9.634 13.602 9.639 23.49 0 9.897-3.213 17.727-9.639 23.489-6.426 5.762-15.085 8.648-25.977 8.659-10.902 0-19.564-2.887-25.984-8.66-6.421-5.772-9.631-13.602-9.631-23.489 0-6.534 1.458-12.233 4.374-17.099a28.625 28.625 0 0 1 12.417-11.178c5.362-2.581 11.637-3.872 18.824-3.872ZM651.539 74.09a19.363 19.363 0 0 0 15.422 7.647 19.375 19.375 0 0 0 15.422-7.647c3.78-5.092 5.67-12.031 5.67-20.817a40.777 40.777 0 0 0-2.559-15.106 21.674 21.674 0 0 0-7.339-9.898 18.63 18.63 0 0 0-11.218-3.45 18.24 18.24 0 0 0-15.39 7.646c-3.78 5.092-5.67 12.028-5.67 20.808s1.876 15.709 5.629 20.785l.033.032ZM777.128 23.198a5.265 5.265 0 0 0-3.799 1.547 5.346 5.346 0 0 0-1.676 3.758v45.595a52.569 52.569 0 0 0 .81 9.987l.259 1.328h-.81l-44.623-42.508v35.08a5.038 5.038 0 0 0 1.62 3.759 5.268 5.268 0 0 0 3.799 1.547h1.685v.883h-26.811v-.883h1.62a5.38 5.38 0 0 0 3.888-1.547 5.14 5.14 0 0 0 1.62-3.847V32.035a49.345 49.345 0 0 0-.81-9.72l-.178-1.329h.81l44.622 42.509v-34.91a5.422 5.422 0 0 0-1.676-3.84 5.269 5.269 0 0 0-3.799-1.547h-1.62v-.883h26.73v.883h-1.661ZM827.85 28.852c6.837 0 12.39 1.398 16.662 4.195 4.271 2.797 6.407 6.642 6.407 11.535a16.864 16.864 0 0 1-4.155 10.78 40.953 40.953 0 0 1-5.524 5.792 390.734 390.734 0 0 1-3.71 3.005c-.851.68-2.066 1.531-3.621 2.56-1.555 1.029-2.681 1.774-3.361 2.211-.681.438-1.782 1.134-3.313 2.074-1.531.94-2.43 1.539-2.827 1.773h18.289a11.11 11.11 0 0 0 6.48-1.814 18.168 18.168 0 0 0 4.998-5.961h.907l-5.305 19.172h-42.42v-.81a567.157 567.157 0 0 1 6.229-6.318c2.679-2.684 4.92-4.938 6.723-6.763 1.793-1.82 3.823-4.029 6.091-6.626a65.19 65.19 0 0 0 5.436-6.982c3.304-4.947 4.954-9.29 4.949-13.033-.006-3.742-1.021-6.572-3.046-8.489a11.082 11.082 0 0 0-7.906-2.867c-4.368 0-7.654 1.35-9.857 4.05-2.203 2.7-3.308 6.367-3.313 11h-.883l-4.155-12.725a24.291 24.291 0 0 1 8.91-4.196 42.584 42.584 0 0 1 11.315-1.563ZM869.435 37.381c4.736-4.973 11.2-7.462 19.392-7.468 8.191-.005 14.658 2.484 19.399 7.468 4.746 4.984 7.117 11.734 7.112 20.25-.006 8.516-2.376 15.266-7.112 20.25-4.736 4.984-11.202 7.474-19.399 7.468a28.53 28.53 0 0 1-14.135-3.361 22.333 22.333 0 0 1-9.193-9.631 32.229 32.229 0 0 1-3.184-14.758c0-8.5 2.374-15.239 7.12-20.218Zm19.392-3.758a9.32 9.32 0 0 0-6.804 2.916c-4.002 4.012-6.005 11.054-6.011 21.124 0 7.42 1.151 13.282 3.451 17.586 2.3 4.303 5.422 6.463 9.364 6.48 3.952 0 7.09-2.16 9.412-6.48 2.322-4.32 3.485-10.182 3.491-17.585 0-10.077-2.033-17.118-6.099-21.125a9.32 9.32 0 0 0-6.804-2.916ZM940.528 28.852c6.837 0 12.388 1.398 16.654 4.195 4.266 2.797 6.412 6.648 6.439 11.55a16.854 16.854 0 0 1-4.147 10.782 41.405 41.405 0 0 1-5.524 5.791 379.374 379.374 0 0 1-3.71 3.005c-.85.68-2.065 1.531-3.629 2.56-1.563 1.029-2.681 1.774-3.353 2.211-.672.438-1.782 1.134-3.313 2.074a130.52 130.52 0 0 0-2.835 1.774h18.298a11.131 11.131 0 0 0 6.48-1.815 18.154 18.154 0 0 0 4.989-5.961h.883l-5.297 19.172h-42.42v-.81c1.464-1.528 3.54-3.634 6.229-6.317a835.846 835.846 0 0 0 6.715-6.764c1.798-1.82 3.831-4.028 6.099-6.626a66.103 66.103 0 0 0 5.436-6.982c3.299-4.946 4.949-9.29 4.949-13.033 0-3.742-1.018-6.572-3.054-8.489a11.058 11.058 0 0 0-7.906-2.867c-4.357 0-7.643 1.35-9.857 4.05-2.214 2.7-3.319 6.367-3.313 11h-.883l-4.155-12.725a24.399 24.399 0 0 1 8.91-4.196 42.641 42.641 0 0 1 11.315-1.58ZM972.693 36.368c4.601-4.19 11.111-6.283 19.529-6.277 5.94 0 10.718 1.282 14.318 3.847a12.19 12.19 0 0 1 4.05 4.572c.94 1.842 1.4 3.891 1.34 5.958.01 2.32-.56 4.604-1.66 6.643a13.828 13.828 0 0 1-4.66 5.021 12.091 12.091 0 0 1-5.782 1.863 19.56 19.56 0 0 1 9.722 4.86c3.06 2.824 4.62 6.801 4.68 11.931a19.99 19.99 0 0 1-2.43 9.72c-3.07 5.535-8.4 9.512-15.997 11.931a33.84 33.84 0 0 1-10.166 1.499 37.05 37.05 0 0 1-12.458-2.122l.179-.883h.882a32.298 32.298 0 0 0 12.547-2.43 22.534 22.534 0 0 0 9.591-7.428 18.397 18.397 0 0 0 3.672-11.218c0-5.843-2.433-10.028-7.293-12.555a20.696 20.696 0 0 0-9.809-2.203l.178-.891h.438a14.752 14.752 0 0 0 10.384-4.05 12.977 12.977 0 0 0 3.251-4.43 12.975 12.975 0 0 0 1.123-5.38c0-3.596-1.002-6.247-3.005-7.953a10.533 10.533 0 0 0-7.064-2.568c-7.306 0-10.959 4.59-10.959 13.77v1.328h-.883l-3.718-12.555Z"/></svg>