<svg xmlns="http://www.w3.org/2000/svg" width="364" height="133" fill="none" viewBox="0 0 364 133"><path fill="#fff" d="M41.493 37.536c.659 0 1.216-.228 1.672-.684.482-.482.735-1.052.76-1.71V13.976c-.076-.887-.494-1.546-1.254-1.976a2.472 2.472 0 0 0-1.178-.304H41v-.38h10.678c1.115 0 2.09-.089 2.926-.266.836-.178 1.381-.317 1.634-.418v6.65h-.418v-.456c.026-1.14-.304-2.052-.988-2.736-.658-.71-1.558-1.09-2.698-1.14h-2.508v11.058h6.042c.938-.026 1.71-.342 2.318-.95.608-.634.912-1.406.912-2.318v-.342h.342v8.778h-.342v-.304c0-.938-.304-1.71-.912-2.318-.608-.608-1.368-.925-2.28-.95h-6.08v10.678h7.41c1.85 0 3.395-.532 4.636-1.596 1.267-1.064 2.204-2.572 2.812-4.522h.38l-1.786 7.752H41v-.38h.494Zm25.309 0c.659 0 1.216-.228 1.672-.684.481-.482.735-1.052.76-1.71V14.09a2.347 2.347 0 0 0-.76-1.672 2.215 2.215 0 0 0-1.672-.722h-.494v-.38H77.86l-.038.38h-.456c-.659 0-1.229.24-1.71.722a2.215 2.215 0 0 0-.722 1.672v22.192h4.978c1.85 0 3.395-.532 4.636-1.596 1.267-1.064 2.204-2.572 2.812-4.522h.38l-1.748 7.752H66.308v-.38h.494Zm49.37 0h.342v.38h-12.122v-.38h.342c.557 0 .963-.165 1.216-.494.279-.355.418-.684.418-.988 0-.304-.063-.608-.19-.912l-1.862-4.674h-8.892l-1.976 4.674c-.127.33-.19.646-.19.95 0 .278.127.595.38.95.279.33.71.494 1.292.494h.304v.38h-8.132v-.38h.342c.583 0 1.165-.178 1.748-.532.583-.355 1.064-.887 1.444-1.596l8.778-19.874c1.191-2.508 1.824-4.168 1.9-4.978h.342l11.286 24.776c.38.734.861 1.292 1.444 1.672.583.354 1.178.532 1.786.532ZM96.07 28.872h7.6l-3.686-9.348-3.914 9.348Zm50.305-17.176a2.23 2.23 0 0 0-1.634.684c-.456.43-.697.962-.722 1.596v19.608c0 1.697.114 3.128.342 4.294l.114.57h-.342l-19.19-18.278v15.086c0 .633.228 1.178.684 1.634.456.43 1.001.646 1.634.646h.722v.38h-11.514v-.38h.684c.659 0 1.216-.216 1.672-.646a2.274 2.274 0 0 0 .684-1.672V15.496c0-1.672-.114-3.066-.342-4.18l-.076-.57h.342l19.19 18.278v-15.01c-.025-.659-.266-1.204-.722-1.634a2.23 2.23 0 0 0-1.634-.684h-.684v-.38h11.514v.38h-.722Zm56.515 30.248c-2.28 1.292-4.788 1.938-7.524 1.938-4.104 0-7.955-1.394-11.552-4.18l-3.876-3.078c-2.28 1.14-4.788 1.71-7.524 1.71-2.001 0-3.825-.254-5.472-.76-1.647-.532-3.002-1.115-4.066-1.748a8.521 8.521 0 0 1-2.622-2.508c-.684-1.064-1.026-2.268-1.026-3.61 0-2.078.823-3.8 2.47-5.168a9.94 9.94 0 0 1 3.04-1.71c-1.165-1.799-1.748-3.496-1.748-5.092 0-1.596.431-2.914 1.292-3.952 1.621-2.002 4.205-3.002 7.752-3.002 2.255 0 4.18.405 5.776 1.216.811.405 1.419.9 1.824 1.482l-1.292 5.434H178c-.076-2.559-.785-4.42-2.128-5.586-.735-.634-1.697-.95-2.888-.95-1.191 0-2.179.418-2.964 1.254-.785.81-1.178 1.887-1.178 3.23 0 1.342.519 2.672 1.558 3.99 1.039 1.292 2.609 2.85 4.712 4.674 2.128 1.798 4.763 4.002 7.904 6.612 3.04-3.116 4.56-6.714 4.56-10.792 0-3.015-.963-5.802-2.888-8.36-1.317-1.748-3.04-3.332-5.168-4.75l.228-.228c2.255 1.292 4.104 2.812 5.548 4.56 1.444 1.722 2.407 3.407 2.888 5.054.481 1.621.722 3.192.722 4.712 0 4.154-1.507 7.802-4.522 10.944l1.178.988a95.995 95.995 0 0 0 3.002 2.47c.836.633 1.862 1.33 3.078 2.09 1.216.785 2.356 1.368 3.42 1.748 1.9.734 3.876 1.102 5.928 1.102.608 0 1.216-.038 1.824-.114l.076.38Zm-37.658-13.528c0 2.66.937 4.724 2.812 6.194 1.596 1.241 3.445 1.862 5.548 1.862 1.647 0 3.255-.355 4.826-1.064-4.028-3.243-6.485-5.244-7.372-6.004-2.077-1.723-3.699-3.268-4.864-4.636-.633 1.038-.95 2.254-.95 3.648Zm-94.783 34.28a2.23 2.23 0 0 0-1.634.684c-.456.43-.696.962-.722 1.596v19.608c0 1.697.114 3.128.342 4.294l.114.57h-.342L49.017 71.17v15.086c0 .633.228 1.178.684 1.634.456.43 1.001.646 1.634.646h.722v.38H40.543v-.38h.684c.659 0 1.216-.216 1.672-.646a2.274 2.274 0 0 0 .684-1.672V66.496c0-1.672-.114-3.066-.342-4.18l-.076-.57h.342l19.19 18.278v-15.01c-.025-.659-.266-1.204-.722-1.634a2.23 2.23 0 0 0-1.634-.684h-.684v-.38h11.514v.38h-.722Zm37.021-9.804c.634 0 1.166.025 1.596.076v.38c-1.57.076-2.926.456-4.066 1.14-1.292.785-2.216 1.52-2.774 2.204a83.573 83.573 0 0 0-1.292 1.634c-.304.405-.608.9-.912 1.482-.481.886-.924 1.76-1.33 2.622L88.508 84.698c-1.165 2.508-1.786 4.167-1.862 4.978h-.342L74.79 64.862c-.38-.71-.861-1.242-1.444-1.596-.582-.38-1.178-.57-1.786-.57h-.304v-.38H83.34v.38h-.304c-.557 0-.975.177-1.254.532-.253.33-.38.646-.38.95 0 .304.05.608.152.912l6.46 15.694L95.88 62.43c1.19-2.812 2.584-4.928 4.18-6.346 2.356-2.128 4.826-3.192 7.41-3.192Zm-5.785 35.644c.658 0 1.216-.228 1.672-.684a2.484 2.484 0 0 0 .76-1.71v-21.09a2.35 2.35 0 0 0-.76-1.672 2.275 2.275 0 0 0-1.672-.684h-.494v-.38h11.552l-.038.38h-.456c-.659 0-1.229.228-1.71.684a2.213 2.213 0 0 0-.722 1.672v21.09c0 .658.24 1.228.722 1.71a2.402 2.402 0 0 0 1.71.684h.456l.038.38h-11.552v-.38h.494Zm14.468-3.154c0-1.824.393-3.382 1.178-4.674h.342a4.961 4.961 0 0 0-.038.608c0 1.748.621 3.28 1.862 4.598 1.267 1.292 2.989 1.938 5.168 1.938 1.697 0 3.015-.406 3.952-1.216.963-.81 1.444-1.837 1.444-3.078 0-1.495-1.013-2.8-3.04-3.914l-6.612-4.37c-1.317-.76-2.267-1.672-2.85-2.736-.557-1.09-.836-2.192-.836-3.306 0-2.382.747-4.218 2.242-5.51 1.52-1.292 3.458-1.938 5.814-1.938 1.393 0 3.116.126 5.168.38h2.394l-.494 5.586h-.38c0-1.318-.494-2.369-1.482-3.154-.963-.81-2.255-1.216-3.876-1.216-1.976 0-3.407.608-4.294 1.824a3.122 3.122 0 0 0-.684 1.976c0 1.216.887 2.343 2.66 3.382l7.258 4.712c2.28 1.317 3.42 3.255 3.42 5.814 0 2.71-.925 4.788-2.774 6.232-1.824 1.418-4.256 2.128-7.296 2.128-1.723 0-3.319-.203-4.788-.608-1.444-.43-2.508-1-3.192-1.71-.177-.482-.266-1.064-.266-1.748Zm21.936 3.154c.659 0 1.216-.228 1.672-.684.481-.482.735-1.052.76-1.71v-21.09a2.347 2.347 0 0 0-.76-1.672 2.274 2.274 0 0 0-1.672-.684h-.494v-.38h11.552l-.038.38h-.456c-.659 0-1.229.228-1.71.684a2.216 2.216 0 0 0-.722 1.672v21.09c0 .658.241 1.228.722 1.71a2.402 2.402 0 0 0 1.71.684h.456l.038.38h-11.552v-.38h.494Zm28.435-26.752c4.686 0 8.41 1.241 11.172 3.724 2.761 2.482 4.142 5.852 4.142 10.108s-1.381 7.625-4.142 10.108c-2.762 2.482-6.486 3.724-11.172 3.724-4.687 0-8.411-1.242-11.172-3.724-2.762-2.483-4.142-5.852-4.142-10.108 0-2.812.62-5.257 1.862-7.334 1.266-2.103 3.052-3.712 5.358-4.826 2.305-1.115 5.003-1.672 8.094-1.672Zm-6.65 22.8c1.646 2.178 3.863 3.268 6.65 3.268 2.786 0 4.99-1.09 6.612-3.268 1.646-2.204 2.47-5.194 2.47-8.968 0-2.483-.368-4.649-1.102-6.498-.735-1.85-1.786-3.268-3.154-4.256-1.368-.988-2.977-1.482-4.826-1.482-2.787 0-5.004 1.102-6.65 3.306-1.622 2.178-2.432 5.155-2.432 8.93 0 3.774.81 6.764 2.432 8.968Zm54.04-21.888a2.23 2.23 0 0 0-1.634.684c-.456.43-.697.962-.722 1.596v19.608c0 1.697.114 3.128.342 4.294l.114.57h-.342l-19.19-18.278v15.086c0 .633.228 1.178.684 1.634.456.43 1.001.646 1.634.646h.722v.38h-11.514v-.38h.684c.659 0 1.216-.216 1.672-.646a2.274 2.274 0 0 0 .684-1.672V66.496c0-1.672-.114-3.066-.342-4.18l-.076-.57h.342l19.19 18.278v-15.01c-.025-.659-.266-1.204-.722-1.634a2.23 2.23 0 0 0-1.634-.684h-.684v-.38h11.514v.38h-.722Zm21.821 2.432c2.939 0 5.32.608 7.144 1.824 1.849 1.19 2.774 2.837 2.774 4.94 0 1.621-.595 3.166-1.786 4.636-.887 1.09-1.685 1.925-2.394 2.508-.684.557-1.216.988-1.596 1.292-.355.278-.874.646-1.558 1.102-.659.43-1.14.747-1.444.95-.279.177-.747.468-1.406.874-.659.405-1.064.658-1.216.76h7.866c1.115 0 2.039-.254 2.774-.76.76-.532 1.482-1.394 2.166-2.584h.38l-2.28 8.246h-18.24v-.342c.633-.659 1.52-1.558 2.66-2.698a262.602 262.602 0 0 0 2.888-2.926 54.151 54.151 0 0 0 2.622-2.85c.988-1.115 1.773-2.116 2.356-3.002 1.419-2.128 2.128-3.99 2.128-5.586 0-1.622-.443-2.838-1.33-3.648-.861-.836-1.989-1.254-3.382-1.254-1.875 0-3.293.582-4.256 1.748-.937 1.14-1.406 2.71-1.406 4.712h-.38l-1.786-5.472c.937-.76 2.204-1.356 3.8-1.786a18.023 18.023 0 0 1 4.902-.684Zm17.863 3.686c2.052-2.154 4.838-3.23 8.36-3.23 3.521 0 6.295 1.076 8.322 3.23 2.052 2.128 3.078 5.028 3.078 8.702 0 3.673-1.026 6.586-3.078 8.74-2.027 2.128-4.801 3.192-8.322 3.192-2.331 0-4.358-.482-6.08-1.444-1.723-.963-3.04-2.344-3.952-4.142-.912-1.799-1.368-3.914-1.368-6.346 0-3.674 1.013-6.574 3.04-8.702Zm11.286-.38c-.836-.836-1.812-1.254-2.926-1.254-1.115 0-2.09.418-2.926 1.254-1.723 1.722-2.584 4.75-2.584 9.082 0 3.192.494 5.712 1.482 7.562.988 1.85 2.33 2.774 4.028 2.774 1.697 0 3.04-.925 4.028-2.774 1.013-1.85 1.52-4.37 1.52-7.562 0-4.332-.874-7.36-2.622-9.082Zm19.316-3.306c2.939 0 5.32.608 7.144 1.824 1.849 1.19 2.774 2.837 2.774 4.94 0 1.621-.595 3.166-1.786 4.636-.887 1.09-1.685 1.925-2.394 2.508-.684.557-1.216.988-1.596 1.292-.355.278-.874.646-1.558 1.102-.659.43-1.14.747-1.444.95-.279.177-.747.468-1.406.874-.659.405-1.064.658-1.216.76h7.866c1.115 0 2.039-.254 2.774-.76.76-.532 1.482-1.394 2.166-2.584h.38l-2.28 8.246h-18.24v-.342c.633-.659 1.52-1.558 2.66-2.698a262.602 262.602 0 0 0 2.888-2.926 54.151 54.151 0 0 0 2.622-2.85c.988-1.115 1.773-2.116 2.356-3.002 1.419-2.128 2.128-3.99 2.128-5.586 0-1.622-.443-2.838-1.33-3.648-.861-.836-1.989-1.254-3.382-1.254-1.875 0-3.293.582-4.256 1.748-.937 1.14-1.406 2.71-1.406 4.712h-.38l-1.786-5.472c.937-.76 2.204-1.356 3.8-1.786a18.023 18.023 0 0 1 4.902-.684Zm13.856 3.23c1.976-1.799 4.775-2.698 8.398-2.698 2.559 0 4.611.557 6.156 1.672 1.545 1.09 2.318 2.596 2.318 4.522 0 1.09-.266 2.077-.798 2.964-.507.886-1.153 1.57-1.938 2.052a5.088 5.088 0 0 1-2.47.798c1.596.304 2.989 1 4.18 2.09 1.317 1.216 1.989 2.926 2.014 5.13a8.552 8.552 0 0 1-1.064 4.18c-1.317 2.381-3.61 4.091-6.878 5.13-1.368.43-2.825.646-4.37.646-1.849 0-3.635-.304-5.358-.912l.076-.38h.38c1.9 0 3.699-.355 5.396-1.064 1.697-.71 3.065-1.774 4.104-3.192 1.064-1.419 1.596-3.028 1.596-4.826 0-2.508-1.039-4.307-3.116-5.396-1.191-.634-2.597-.95-4.218-.95l.076-.38h.19c1.723 0 3.205-.583 4.446-1.748 1.267-1.166 1.9-2.572 1.9-4.218 0-1.546-.431-2.686-1.292-3.42-.861-.735-1.875-1.102-3.04-1.102-3.141 0-4.712 1.976-4.712 5.928v.57h-.38l-1.596-5.396Z"/><path fill="#FED395" d="M42.057 111.528H50.2v.999h-1.472c-.315 0-.544.065-.687.193-.143.122-.215.305-.215.548v12.3c0 .287.075.491.226.612.193.158.472.237.837.237H50.2v.999h-8.143v-.999h1.247c.43 0 .73-.072.902-.215.179-.143.268-.355.268-.634v-12.16c0-.301-.082-.523-.247-.666-.157-.143-.408-.215-.752-.215h-1.418v-.999Zm23.44 14.889v.999h-6.048v-.999h.634c.337 0 .587-.086.752-.258.165-.172.247-.423.247-.752v-4.361c0-.745-.172-1.314-.516-1.708-.336-.401-.78-.602-1.332-.602-.752 0-1.364.283-1.837.849-.472.558-.709 1.378-.709 2.46v3.362c0 .329.083.58.247.752.172.172.39.258.656.258h.762v.999H52.08v-.999h.816c.316 0 .552-.086.71-.258.164-.172.246-.423.246-.752v-5.983c0-.344-.118-.616-.354-.817-.23-.208-.534-.311-.913-.311h-.43v-.935l4.19-.226c.15.616.265 1.35.343 2.203.588-.795 1.214-1.39 1.88-1.784a4.08 4.08 0 0 1 2.106-.59c1.002 0 1.794.333 2.374.999.573.666.86 1.593.86 2.782v4.662c0 .358.081.616.246.773.165.158.426.237.784.237h.559Zm1.074-9.056h6.005v.956h-.494c-.394 0-.662.05-.806.151a.492.492 0 0 0-.215.429c0 .201.08.444.237.731l2.578 4.78 2.245-4.469a1.44 1.44 0 0 0 .172-.666c0-.609-.509-.927-1.526-.956v-.956h4.394v.956c-.401.043-.709.14-.924.29-.215.143-.408.383-.58.72l-4.21 8.443h-.774l-4.64-8.54c-.209-.379-.395-.626-.56-.741-.157-.115-.368-.172-.633-.172h-.269v-.956Zm16.973-5.801c.48 0 .891.172 1.235.516.344.337.516.748.516 1.235 0 .487-.172.903-.516 1.246a1.702 1.702 0 0 1-1.235.505 1.7 1.7 0 0 1-1.246-.515 1.687 1.687 0 0 1-.516-1.236c0-.487.172-.898.516-1.235.343-.344.759-.516 1.246-.516Zm-2.76 5.801 4.468-.204v8.54c0 .229.072.408.215.537.15.122.376.183.676.183h.677v.999h-6.037v-.999h.666c.358 0 .609-.083.752-.247.15-.165.226-.451.226-.86v-5.822c0-.365-.108-.648-.323-.849-.207-.2-.497-.3-.87-.3h-.45v-.978Zm11.074-4.136h.967v4.136h3.32v1.16h-3.32v6.392c0 .422.108.752.322.988.215.229.498.344.849.344 1.003 0 1.532-.935 1.59-2.804h.967c-.022.996-.18 1.798-.473 2.406a3.244 3.244 0 0 1-1.268 1.397 3.502 3.502 0 0 1-1.847.494c-.602 0-1.125-.122-1.569-.365a2.7 2.7 0 0 1-1.052-1.085 3.326 3.326 0 0 1-.387-1.579v-6.188h-1.783v-.988c1.088-.143 1.937-.562 2.546-1.257.608-.695.988-1.711 1.138-3.051Zm16.672 9.228h-7.057c.021 1.411.304 2.453.848 3.126.552.666 1.257.999 2.116.999.616 0 1.2-.172 1.751-.516.552-.343 1.118-.967 1.698-1.869l.784.484c-.609 1.074-1.307 1.844-2.095 2.309-.781.458-1.737.688-2.868.688-1.647 0-2.979-.502-3.996-1.504-1.017-1.003-1.526-2.288-1.526-3.857 0-1.568.513-2.879 1.537-3.931 1.024-1.053 2.28-1.58 3.77-1.58 1.031 0 1.916.212 2.653.634.745.423 1.322 1.042 1.73 1.859.415.809.634 1.862.655 3.158Zm-7.057-.967h3.362c.315 0 .541-.079.677-.236.136-.158.204-.444.204-.86 0-.83-.19-1.471-.57-1.922a1.799 1.799 0 0 0-1.45-.688c-.694 0-1.228.308-1.6.924-.366.616-.573 1.543-.623 2.782Zm16.199-3.824.709-.849h.655l.215 3.438h-.87c-.459-.91-.963-1.547-1.515-1.912-.544-.373-1.207-.559-1.987-.559-.673 0-1.185.129-1.536.387s-.527.583-.527.977c0 .387.136.681.409.881.272.208 1.016.433 2.234.677 1.103.222 1.837.408 2.202.558.695.28 1.235.695 1.622 1.247.394.551.591 1.196.591 1.933 0 .931-.376 1.715-1.128 2.353-.745.63-1.726.945-2.943.945a5.592 5.592 0 0 1-1.601-.215c-.473-.136-.967-.379-1.482-.73l-.763.902h-.816l-.194-3.803h.892c.759 1.92 2.062 2.879 3.91 2.879.759 0 1.339-.147 1.74-.44.401-.294.602-.645.602-1.053 0-.372-.126-.655-.376-.849-.251-.193-.917-.401-1.998-.623-1.168-.236-1.963-.44-2.385-.612-.723-.279-1.268-.666-1.633-1.16-.365-.501-.548-1.103-.548-1.805 0-1.002.333-1.822.999-2.46.666-.644 1.558-.967 2.675-.967.544 0 1.031.065 1.461.194.437.129.899.351 1.386.666Zm10.076-.301h5.94v.924h-.569c-.344 0-.587.05-.73.15a.454.454 0 0 0-.215.387c0 .179.061.383.182.612l2.503 4.877 2.106-4.415c.114-.243.172-.465.172-.666a.836.836 0 0 0-.323-.687c-.214-.172-.53-.258-.945-.258h-.311v-.924h4.372v.924c-.43.014-.77.111-1.021.29-.251.172-.473.458-.666.859l-4.007 8.39c-.68 1.432-1.4 2.474-2.159 3.126-.58.487-1.232.73-1.955.73-.752 0-1.346-.182-1.783-.547-.437-.366-.656-.817-.656-1.354 0-.401.126-.73.376-.988.258-.251.581-.376.967-.376.394 0 .716.122.967.365.251.251.376.562.376.935 0 .121-.025.275-.075.462a1.017 1.017 0 0 0-.043.247c0 .171.093.257.279.257.33 0 .741-.268 1.236-.805.494-.53 1.034-1.379 1.622-2.546l-4.287-8.25c-.157-.308-.318-.516-.483-.623a1.007 1.007 0 0 0-.591-.172h-.279v-.924Zm19.347-.559c1.124 0 2.155.244 3.093.731.946.487 1.648 1.124 2.106 1.912.458.781.687 1.722.687 2.825 0 1.762-.601 3.115-1.804 4.061a6.423 6.423 0 0 1-4.072 1.407c-1.074 0-2.059-.24-2.954-.72-.888-.487-1.572-1.138-2.051-1.955-.48-.823-.72-1.751-.72-2.782 0-1.554.54-2.854 1.622-3.899 1.088-1.053 2.453-1.58 4.093-1.58Zm.064 1.021c-.745 0-1.339.329-1.783.988-.437.652-.655 1.801-.655 3.449 0 1.711.218 2.893.655 3.544.437.645 1.028.967 1.772.967.759 0 1.372-.333 1.837-.999.466-.666.698-1.815.698-3.448 0-1.676-.229-2.843-.687-3.502-.458-.666-1.071-.999-1.837-.999Zm7.638-.462 4.49-.258v6.703c0 .623.168 1.118.505 1.483.336.358.773.537 1.31.537.76 0 1.365-.301 1.816-.902.458-.602.687-1.307.687-2.117v-3.287c0-.386-.107-.68-.322-.881-.215-.2-.508-.3-.881-.3h-.494v-.978l4.533-.258v8.143c0 .365.111.652.333.859.229.208.53.312.903.312h.462v.999l-4.158.129a11.527 11.527 0 0 1-.3-2.299c-.695.881-1.365 1.5-2.009 1.858a4.084 4.084 0 0 1-2.009.537c-.688 0-1.268-.143-1.74-.429-.466-.287-.838-.742-1.117-1.365-.28-.623-.419-1.378-.419-2.266v-3.996c0-.437-.111-.749-.333-.935-.222-.193-.641-.297-1.257-.311v-.978Zm24.675-4.136h.966v4.136h3.32v1.16h-3.32v6.392c0 .422.108.752.323.988.214.229.497.344.848.344 1.003 0 1.533-.935 1.59-2.804h.967c-.022.996-.179 1.798-.473 2.406a3.241 3.241 0 0 1-1.267 1.397 3.503 3.503 0 0 1-1.848.494c-.602 0-1.124-.122-1.568-.365a2.7 2.7 0 0 1-1.053-1.085 3.324 3.324 0 0 1-.387-1.579v-6.188h-1.783v-.988c1.089-.143 1.937-.562 2.546-1.257.609-.695.988-1.711 1.139-3.051Zm11.837 3.577c1.125 0 2.156.244 3.094.731.946.487 1.647 1.124 2.106 1.912.458.781.687 1.722.687 2.825 0 1.762-.601 3.115-1.805 4.061a6.42 6.42 0 0 1-4.071 1.407c-1.074 0-2.059-.24-2.954-.72-.888-.487-1.572-1.138-2.052-1.955-.479-.823-.719-1.751-.719-2.782 0-1.554.54-2.854 1.622-3.899 1.088-1.053 2.452-1.58 4.092-1.58Zm.065 1.021c-.745 0-1.339.329-1.783.988-.437.652-.656 1.801-.656 3.449 0 1.711.219 2.893.656 3.544.437.645 1.027.967 1.772.967.759 0 1.372-.333 1.837-.999.466-.666.698-1.815.698-3.448 0-1.676-.229-2.843-.687-3.502-.459-.666-1.071-.999-1.837-.999Zm24.535 4.63h-7.058c.022 1.411.305 2.453.849 3.126.552.666 1.257.999 2.116.999.616 0 1.2-.172 1.751-.516.552-.343 1.117-.967 1.698-1.869l.784.484c-.609 1.074-1.307 1.844-2.095 2.309-.781.458-1.737.688-2.868.688-1.647 0-2.979-.502-3.996-1.504-1.017-1.003-1.526-2.288-1.526-3.857 0-1.568.512-2.879 1.536-3.931 1.025-1.053 2.281-1.58 3.771-1.58 1.031 0 1.916.212 2.653.634.745.423 1.322 1.042 1.73 1.859.415.809.634 1.862.655 3.158Zm-7.058-.967h3.363c.315 0 .54-.079.677-.236.136-.158.204-.444.204-.86 0-.83-.19-1.471-.57-1.922a1.799 1.799 0 0 0-1.45-.688c-.695 0-1.228.308-1.6.924-.366.616-.573 1.543-.624 2.782Zm9.078-4.125h5.951v.935h-.43c-.265 0-.448.032-.548.096a.31.31 0 0 0-.139.269.44.44 0 0 0 .107.29l1.568 1.998 1.311-1.397c.243-.25.365-.472.365-.666a.455.455 0 0 0-.215-.408c-.186-.121-.465-.182-.838-.182h-.225v-.935h4.619v.935c-.458.035-.831.121-1.117.257-.28.137-.605.398-.978.785l-2.299 2.374 3.062 3.878c.272.343.562.58.87.709.201.078.526.118.978.118v.999h-6.36v-.999h.591c.251 0 .43-.032.537-.097.108-.072.161-.15.161-.236 0-.108-.053-.233-.161-.376l-1.622-2.084-1.525 1.579c-.151.157-.226.326-.226.505 0 .207.075.379.226.515a.917.917 0 0 0 .601.194h.484v.999h-4.856v-.999h.387c.566 0 1.146-.305 1.74-.913l2.568-2.632-2.955-3.695c-.315-.394-.558-.634-.73-.72-.172-.093-.473-.147-.902-.161v-.935Zm13.653.054 4.093-.258c.164.659.261 1.314.29 1.966a4.488 4.488 0 0 1 1.622-1.579 4.385 4.385 0 0 1 2.213-.57c1.296 0 2.345.462 3.147 1.386.802.924 1.203 2.231 1.203 3.921 0 1.174-.193 2.17-.58 2.986-.387.817-.927 1.433-1.622 1.848-.687.415-1.493.623-2.417.623-.737 0-1.393-.165-1.966-.494-.573-.337-1.106-.874-1.6-1.611v3.598c0 .473.036.774.107.903.072.136.204.236.398.3.2.072.594.111 1.181.118v1.032h-6.069v-1.032h.322c.38 0 .634-.035.763-.107a.655.655 0 0 0 .301-.344c.05-.114.075-.404.075-.87v-9.517c0-.466-.036-.774-.108-.924a.624.624 0 0 0-.333-.333c-.143-.072-.483-.118-1.02-.14v-.902Zm6.875 1.063c-.695 0-1.286.333-1.773.999-.487.666-.73 1.64-.73 2.922 0 1.268.254 2.238.763 2.911.515.673 1.103 1.01 1.761 1.01.645 0 1.164-.29 1.558-.87.516-.766.773-1.798.773-3.094 0-1.189-.207-2.13-.623-2.825-.415-.702-.991-1.053-1.729-1.053Zm7.53-6.95 4.705-.236v14.298c0 .257.083.462.247.612.165.143.401.215.709.215h.634v.999h-6.048v-.999h.688c.315 0 .548-.083.698-.247.158-.172.236-.43.236-.774v-11.741c0-.365-.1-.645-.3-.838-.201-.2-.473-.301-.817-.301h-.752v-.988Zm13.6 5.274c1.124 0 2.155.244 3.094.731.945.487 1.647 1.124 2.105 1.912.458.781.688 1.722.688 2.825 0 1.762-.602 3.115-1.805 4.061a6.422 6.422 0 0 1-4.071 1.407c-1.075 0-2.059-.24-2.955-.72-.888-.487-1.571-1.138-2.051-1.955-.48-.823-.72-1.751-.72-2.782 0-1.554.541-2.854 1.622-3.899 1.089-1.053 2.453-1.58 4.093-1.58Zm.064 1.021c-.745 0-1.339.329-1.783.988-.437.652-.655 1.801-.655 3.449 0 1.711.218 2.893.655 3.544.437.645 1.028.967 1.773.967.759 0 1.371-.333 1.836-.999.466-.666.699-1.815.699-3.448 0-1.676-.229-2.843-.688-3.502-.458-.666-1.07-.999-1.837-.999Zm14.717 8.594v.999h-7.025v-.999h.87c.358 0 .619-.068.784-.204a.718.718 0 0 0 .247-.57v-5.951c0-.48-.111-.831-.333-1.053-.215-.222-.519-.333-.913-.333h-.569v-.945l4.296-.226v3.277c.251-1.096.688-1.937 1.311-2.525.623-.587 1.325-.88 2.105-.88.666 0 1.193.179 1.58.537.386.351.58.805.58 1.364 0 .48-.136.87-.409 1.171-.265.293-.59.44-.977.44-.344 0-.641-.129-.892-.386-.243-.258-.365-.588-.365-.989 0-.222.061-.454.183-.698.064-.136.096-.233.096-.29 0-.1-.025-.172-.075-.215-.043-.05-.114-.075-.215-.075-.257 0-.54.15-.848.451-.473.466-.87 1.193-1.193 2.181a9.487 9.487 0 0 0-.483 2.975v2.17c0 .251.068.444.204.58.136.129.326.194.569.194h1.472Zm14.932-3.964h-7.058c.022 1.411.304 2.453.849 3.126.551.666 1.257.999 2.116.999.616 0 1.199-.172 1.751-.516.551-.343 1.117-.967 1.697-1.869l.784.484c-.608 1.074-1.307 1.844-2.094 2.309-.781.458-1.737.688-2.869.688-1.647 0-2.979-.502-3.996-1.504-1.017-1.003-1.525-2.288-1.525-3.857 0-1.568.512-2.879 1.536-3.931 1.024-1.053 2.281-1.58 3.771-1.58 1.031 0 1.915.212 2.653.634.745.423 1.321 1.042 1.729 1.859.416.809.634 1.862.656 3.158Zm-7.058-.967h3.362c.315 0 .541-.079.677-.236.136-.158.204-.444.204-.86 0-.83-.19-1.471-.569-1.922a1.8 1.8 0 0 0-1.45-.688c-.695 0-1.228.308-1.601.924-.365.616-.573 1.543-.623 2.782Z"/></svg>