<svg xmlns="http://www.w3.org/2000/svg" width="702" height="364" fill="none" viewBox="0 0 702 364"><rect width="702" height="324.806" fill="#080F24" rx="20.955"/><g fill="#FED395" clip-path="url(#clip0_523_2648)"><path d="M45.239 194.916c-.386-.348-.773-.734-1.152-1.113v-73.017h1.25v74.05l-.091.08h-.007Z"/><path d="M44.09 209.774v-43.709c.413-.06.83-.098 1.246-.115v43.824H44.09ZM51.726 282.999v-33.205l.195.128c.367.256.716.538 1.044.843v32.234h-1.239Z"/><path d="M51.726 282.999v-32.92c.437.354.854.731 1.25 1.131v31.789h-1.25Z"/><path d="M52.965 43.144h-1.25v239.855h1.25V43.144ZM652.551 43.283h-1.249v239.855h1.249V43.283ZM659 116.804h-1.249v94.282H659v-94.282ZM127.492 280.629a5.374 5.374 0 0 1 1.013-1.249h522.678v1.249H127.492Z"/><path d="M47.466 280.629v-1.249h419.808l5.457.177c2.123.07 4.249.153 6.376.185l24.174.348c5.718.083 11.443-.094 17.161-.181l11.322-.174c1.667-.028 3.334-.147 5.001-.237l2.196-.122h91.532l-7.97 1.25-575.057.003ZM653.574 46.064H49.857v1.25h603.717v-1.25ZM610.923 30.187H90.946v1.25h519.977v-1.25ZM96.441 295.274v-.003h-2.474v-1.246h519.981v1.249H96.441Z"/><path d="M90.264 294.745c-.17-2.784-.435-5.53-.832-8.276-1.145-7.942-2.562-15.87-4.681-23.614-3.31-11.001-7.333-22.121-14.46-31.267-4.369-5.711-9.826-10.416-15.533-14.721-3.523-2.663-7.278-5.036-10.758-7.741 1.615.428 3.365 1.483 4.852 2.475a242.59 242.59 0 0 1 5.944 3.981c5.868 4.156 11.426 8.844 15.943 14.464 4.97 6.074 8.502 13.159 11.287 20.461a111.085 111.085 0 0 1 5.969 20.833 188.108 188.108 0 0 1 2.784 19.89c.108 2.088.417 4.211 0 6.265a14.67 14.67 0 0 1-.515-2.75Z"/><path d="M91.788 294.836a7.743 7.743 0 0 0-1.152-.192c.024.021 0 .025 0 0v-.042c.176-.079.358-.147.543-.201 1.159-.422 2.415-.101 3.519.264a9.284 9.284 0 0 1-1.956.265 4.13 4.13 0 0 1-.954-.094Z"/><path d="M93.528 294.682a19.069 19.069 0 0 1-2.784-.389l.06.024s-.102 0-.123-.045c-.02-.045.066-.025.112-.025h.062a16.953 16.953 0 0 1 4.685.38c-.488.045-1.02.055-1.539.055h-.473Z"/><path d="M90.552 294.122c1.81-.007 3.619.126 5.409.397a47.498 47.498 0 0 1-5.409-.397Z"/><path d="M94.677 294.348c-1.368-.038-2.743-.184-4.097-.32a2.27 2.27 0 0 1 .387-.024h.623c1.422.033 2.84.149 4.25.348a18.02 18.02 0 0 1-1.163-.004Z"/><path d="M94.513 294.286a22.596 22.596 0 0 1-3.306-.268h.835c1.181.03 2.36.12 3.532.268h-.347c-.227.014-.48 0-.714 0Z"/><path d="M90.42 294.206c.025-.063.195-.063.261-.077a23.555 23.555 0 0 1 2.088-.111h.435c.766 0 1.528.049 2.27.118-.92.059-1.848.052-2.785.042-.762 0-1.524 0-2.269.021v.007ZM94.367 295.271a25.647 25.647 0 0 1-3.648-.369c1.542.041 3.08.164 4.608.369h-.96Z"/><path d="M91.75 295.02c-.421 0-.835-.038-1.246 0 1.336-.247 3.163-.163 4.611-.104-.88.069-1.764.118-2.648.118-.233-.003-.47-.007-.717-.014Z"/><path d="M95.07 294.787c-1.08.101-2.166.14-3.25.118h-1.334c1.438-.261 3.084-.16 4.584-.118Z"/><path d="M92.039 295.051c-.52.007-1.041-.027-1.556-.1 1.775-.035 3.55-.171 5.325-.174a26.339 26.339 0 0 1-3.658.274h-.111Z"/><path d="M90.67 295.013c1.609-.052 3.3-.056 4.929.056-.759.066-1.598.073-2.384.08-.85 0-1.7-.045-2.544-.136Z"/><path d="M95.467 295.055c-1.674.143-3.435.094-5.075.129a24.456 24.456 0 0 1 5.075-.129Z"/><path d="M93.549 295.111c-1.013 0-2.036-.167-3.042-.22a40.182 40.182 0 0 1 5.506.237c-.282 0-.574.017-.874.017-.528 0-1.068-.017-1.59-.034Z"/><path d="M92.06 294.916c-.189-.039-1.306-.042-1.045-.38a.83.83 0 0 1 .415 0c.08.015.161.023.243.025.335.011.666.074.982.188.146.222-.296.139-.408.125a.268.268 0 0 1-.16.045l-.028-.003Z"/><path d="M90.87 294.714c-.297 0-.349-.442-.147-.595.111-.122.348-.052.501-.094h.498c.198.031.348.122.31.348a.255.255 0 0 1-.209.17 3.564 3.564 0 0 1-.933.164l-.02.007Z"/><path d="M90.744 294.999c-.16-.038-.105-.247.049-.243a.078.078 0 0 1 0-.077c.174-.164.403-.271.588-.421-.15-.028-.31-.052-.46-.073.018 0 .063 0 .053.024-.328-.08.348-.035.414-.021.313.042-.296.387-.373.477.164 0 .328-.031.491-.056a.09.09 0 0 1 .033.004.09.09 0 0 1 .049.041c.005.01.008.021.009.032.097.108-.039.195-.143.202a2.573 2.573 0 0 0-.432.101h.018a2.273 2.273 0 0 1-.247.028l-.05-.018ZM90.87 295.093s-.022 0 0 0c.137-.016.276-.016.414 0a.382.382 0 0 1-.15.021c-.101-.021-.192-.021-.265-.021Z"/><path d="M90.64 295.114c0-.143.26-.094.347-.132a.733.733 0 0 0 .192-.032c.125-.027.26-.055.303.025.041.08-.272.097-.348.125a.648.648 0 0 0-.195.035.83.83 0 0 1-.192.035.119.119 0 0 1-.108-.056Z"/><path d="M96.441 295.274h-5.47v-.905c.368-.07.741-.113 1.116-.128.436-.031.873-.039 1.309-.025.439.033.875.097 1.305.192l.519.118 1.329.066h.073v.696l-.18-.014ZM47.616 119.241c1.942-1.18 3.856-2.402 5.676-3.756a64.355 64.355 0 0 0 11.238-10.538c8.562-10.013 14.447-21.999 19.104-34.24 2.662-7.287 4.079-14.964 5.377-22.583.528-3.212.89-6.45 1.086-9.7.187-2.436 0-4.907.166-7.353 0 0 0 .048-.017.031a.886.886 0 0 0 .021-.317.07.07 0 0 1 .047-.061.07.07 0 0 1 .075.02c.154.22.272.465.348.724.609 1.67.431 3.497.494 5.244 0 5.917-.95 11.757-1.99 17.551a117.237 117.237 0 0 1-3.383 14.144 127.33 127.33 0 0 1-5.896 14.496c-4.177 9.049-9.46 17.655-16.215 25.034a64.842 64.842 0 0 1-11.189 9.786c-1.59 1.117-3.264 2.109-4.914 3.133a7.363 7.363 0 0 1-3.31 1.179 10.273 10.273 0 0 1 3.282-2.794ZM657.584 118.04h-.453c-8.095-.592-16.009-6.404-21.449-12.153-7.02-7.539-12.345-16.525-15.908-26.169-2.896-7.395-5.151-15.07-6.355-22.928-.857-5.325-1.612-10.677-1.654-16.075-.048-1.807-.066-3.616-.17-5.423-.146-1.44-.157-2.958.418-4.294.512 1.449.792 2.97.828 4.507.233 3.48.285 6.988.553 10.44.348 4.076 1.01 8.075 1.636 12.105 1.284 7.521 3.515 14.784 6.31 21.863 4.006 10.567 10.19 20.444 18.445 28.191 3.408 2.979 7.166 5.662 11.329 7.475 2.387 1.079 5.022 1.441 7.451 2.388-.028-.031 0 0 0 0-.2.036-.403.052-.606.049l-.375.024Z"/><path d="M611.999 32.557a3.954 3.954 0 0 1-.738-1.392c-.174 0-.348.038-.512.038.202-.22.348-.526.588-.696 1.044-.24.919 1.451.665 2.057l-.003-.007ZM613.446 295.859c-1.468-3.48-1.573-7.344-1.914-11.05a103.666 103.666 0 0 1 .912-22.514 100.798 100.798 0 0 1 4.566-15.592c2.889-6.773 6.613-13.225 11.29-18.919 2.113-2.603 4.382-5.081 6.714-7.489 1.942-1.991 3.95-3.951 6.313-5.437 3.345-2.043 6.808-4.141 10.66-5.029 2.214-.431 4.549-1.044 6.769-.431-2.22 1.493-5.102 1.284-7.548 2.06-3.937 1.309-7.601 3.446-10.956 5.861-2.934 2.38-5.478 5.22-8.005 8.005a72.704 72.704 0 0 0-10.093 14.074c-4.093 7.079-6.564 14.965-8.328 22.904-1.789 11.085-1.57 22.434-.348 33.553.028-.021.021 0 0 0l-.032.004Z"/><path d="M637.46 251.45c-3.699-5.137 4.309-10.357 7.657-5.189 1.967 3.543-1.02 6.982-4.176 6.982a4.379 4.379 0 0 1-3.481-1.793ZM607.262 257.395a.858.858 0 0 1 .414-.046.926.926 0 0 0-.129 0 .73.73 0 0 0-.285.046Zm-1.253 2.913c-3.132-1.393-1.211-6.119 2.008-4.942 2.837 1.127 1.483 5.126-1.044 5.129a2.654 2.654 0 0 1-.964-.187ZM560.02 257.506c.129-.172.306-.302.508-.372a.958.958 0 0 0-.508.372Zm1.358 2.436a1.74 1.74 0 0 0 .95-.557c-.254.281-.584.48-.95.575v-.018Zm-2.868.202c-2.346-3.104 2.488-6.383 4.524-3.132 1.184 2.088-.581 4.148-2.46 4.148a2.636 2.636 0 0 1-2.064-.999v-.017ZM515.528 252.738c-2.38-3.171 1.594-7.524 4.994-5.569 3.676 2.277.721 6.961-2.384 6.961a3.263 3.263 0 0 1-2.61-1.392ZM532.181 260.384a8.897 8.897 0 0 1-3.48-.88c.095.03.191.055.289.073 3.397.515 6.578-1.504 8.812-3.895a19.318 19.318 0 0 0 2.339-3.804c1.138-2.046.818-3.577.063-5.676-2.172-5.781-6.738-7.761-12.463-5.663 3.292-1.698 7.353-1.959 10.621-.062 2.047 1.065 3.429 3.024 4.306 5.109.671 1.583 1.35 3.268 1.131 5.025-.957 5.433-5.381 9.794-10.967 9.794-.205 0-.428-.007-.651-.021Z"/><path d="M529.777 259.389c3.243-.989 4.938-4.852 5.164-8.061.143-1.698-.525-3.281-1.27-4.768a14.026 14.026 0 0 0-1.959-3.132 8.011 8.011 0 0 0-2.172-2.182 4.734 4.734 0 0 0-2.294-1.135c1.685.039 3.105 1.344 4.525 2.176 2.784 2.088 5.537 5.318 4.917 9.014-.504 3.518-3.243 7.454-6.898 8.091l-.013-.003Z"/><path d="M538.272 253.622c.209-.08.31-.369.348-.567a1.686 1.686 0 0 0 0-.348c0-.073-.024-.143-.038-.213-1.493-.532-2.249-1.559-3.133-2.721-1.534-2.05-1.103-5.318 1.392-6.39 2.047-.954 4.413.247 5.099 2.325a6.798 6.798 0 0 1-1.347 6.014c-.397.515-1.228 1.956-2.022 1.956a.654.654 0 0 1-.299-.056Z"/><path d="M539.006 252.867c.279-.936-.083-2.012-.243-2.966a5.532 5.532 0 0 0-2.089-3.167c-1.319-1.082-3.097-1.465-4.308-2.683a2.525 2.525 0 0 1-.636-2.731c.117-.31.294-.594.521-.836 1.74-1.74 4.27-.209 5.475 1.42 1.075.4 2.321.953 2.756 2.088.237.797-.574 1.298-1.288 1.166.282 1.782.167 3.424.112 5.185-.049.777 0 1.594-.195 2.343 0 .055-.07.177-.105.177v.004Z"/><path d="M533.841 239.99a.128.128 0 0 1 .087.132c-.02.066-.118.062-.17.101a1.082 1.082 0 0 0-.181.118c.038-.083.177-.163.261-.233-1.131-.289-2.304.268-3.414.32 1.072-.421 2.279-1.02 3.417-.438Z"/><path d="M529.7 240.285c1.1-.462 2.579-.737 3.64-.431-1.322.059-2.641.397-3.936.598 0 0 .032 0 0 .025-.104-.07.244-.153.296-.192Z"/><path d="M529.867 240.254a7.547 7.547 0 0 1 3.48-.404c.046 0 .206.042.164.136v-.035a8.458 8.458 0 0 0-1.879.153c-.517.097-1.041.153-1.567.168l-.198-.018Z"/><path d="M533.546 240.78c-1.187-.314-2.548-.039-3.717-.488a8.448 8.448 0 0 1 3.299.265s.519.157.418.233v-.01Z"/><path d="M530.584 240.362c-.035 0-.101 0-.118-.024a6.577 6.577 0 0 1 3.069 0c0 .052-.09.052-.122.083-.031.031.032-.042.06-.059-.62.021-1.243.09-1.862.09a5.7 5.7 0 0 1-1.027-.09Z"/><path d="M531.725 240.599c-.219 0-.403-.105-.616-.115.185-.721 1.504-.54 2.012-.226.077.1-.122.118-.184.156l.048-.059a5.744 5.744 0 0 1-1.145.247l-.115-.003Z"/><path d="M531.593 240.313c.453-.504 1.372-.417 1.876-.035.025.028-.076.074-.042.028-.374.108-.757.18-1.145.216a1.148 1.148 0 0 1-.689-.209ZM531.311 241.43c-.403-.382-.198-.668.321-.616.327-.02 1.012.519.696.784a1.312 1.312 0 0 1-.429.087.824.824 0 0 1-.588-.255Z"/><path d="M531.075 242.252c-.672-.453-1.285-.922-1.915-1.392a.493.493 0 0 1-.236-.328.409.409 0 0 1 .157-.378.41.41 0 0 1 .407-.05c.348.094.619.348.946.46.493.118.979.265 1.455.438.191-.08.39-.142.578-.208-.321-.171-.895-.136-1.246-.223.145.008.29.008.435 0 .326-.051.659-.011.964.115.233.233-.192.379-.348.452.146.052.292.115.438.174.042.021.146.038.122.101v-.028a4.908 4.908 0 0 0-.696-.181 1.114 1.114 0 0 1-.212.101 1 1 0 0 1-.293.038c.282.177.52.415.696.696a.347.347 0 0 1-.483.449.35.35 0 0 1-.206.063 1.055 1.055 0 0 1-.563-.299Z"/><path d="M532.087 241.058a2.223 2.223 0 0 0-.922-.045 1.74 1.74 0 0 1-1.107-.136.32.32 0 0 1-.113-.094.322.322 0 0 1-.057-.136c.045-.438.738-.184 1.02-.348.577-.087 1.576-.149 1.907.425.038.146-.059.209-.139.289a.732.732 0 0 1-.31.056l-.279-.011ZM531.966 239.868c-.964.177-1.974.247-2.913.47a5.379 5.379 0 0 1 2.913-.47Z"/><path d="M531.924 239.805c-1.163.174-2.374.435-3.515.529 1.11-.404 2.349-.779 3.515-.529Z"/><path d="M532.512 239.774c-.947.073-1.824.372-2.763.452a6.53 6.53 0 0 0-1.309.115 5.236 5.236 0 0 1 4.072-.567Z"/><path d="M528.83 240.452a3.575 3.575 0 0 1-.425-.139c.323-.038.651.009.95.136a.816.816 0 0 1-.236.028 1.858 1.858 0 0 1-.289-.025Z"/><path d="M528.412 240.313a1.71 1.71 0 0 1 .696-.069 1.613 1.613 0 0 1-.511.083 1.426 1.426 0 0 1-.185-.014Z"/><path d="M528.875 240.407c-.136-.021-.282-.069-.417-.083.285-.015.572.02.845.104a.427.427 0 0 1-.101 0c-.09.025-.215-.014-.327-.021ZM528.475 240.369c-.021-.021.017 0 .031 0 .234.055.458.149.661.278a4.018 4.018 0 0 1-.692-.278Z"/><path d="M528.468 240.348c.017.024 0 0-.031 0-.032 0 0-.024.045 0 .288.047.561.157.8.324a3.367 3.367 0 0 1-.814-.324Z"/><path d="M528.545 240.348h-.039l.157-.024c.284.006.566.034.846.083a1.347 1.347 0 0 1-.22 0 4.418 4.418 0 0 1-.744-.059Z"/><path d="M529.655 240.219c-.272.084-.627.039-.912.129.283-.138.602-.183.912-.129Z"/><path d="M529.259 240.289c-.173.054-.35.094-.53.118.073-.111.397-.118.53-.118Z"/><path d="M528.722 240.365c.227-.103.479-.136.724-.093a2 2 0 0 1-.696.09l-.028.003Z"/><path d="M528.781 240.376c-.021-.059.297-.066.328-.066a.83.83 0 0 1-.303.063h-.025v.003Z"/><path d="M530.267 240.539a13.533 13.533 0 0 1-1.83-.18c1.106-.133 2.415-.505 3.522 0a5.551 5.551 0 0 1-1.598.177l-.094.003ZM535.864 257.158c-.857-.665 1.656-4.57 1.882-5.69.157-.463.275-.982.425-1.42-.042.348-.087.668-.122 1.002a9.752 9.752 0 0 0 .557-1.709c.031.783-1.577 7.859-2.61 7.859a.238.238 0 0 1-.132-.042Z"/><path d="M535.648 258.397c-1.438-.533 1.503-3.853 2.011-4.577.756-.978 1.741-1.963 1.741-3.278a.194.194 0 0 0-.08-.122c.024-.021.093.073.107.111.047.362.019.729-.08 1.079.348-.48.696-.957 1.044-1.43.115-.279.456-.508.696-.23.241.279-.045.616-.135.898a15.642 15.642 0 0 1-1.507 2.899c-.588.947-1.351 1.779-1.96 2.704-.348.55-.835 1.981-1.611 1.981a.64.64 0 0 1-.226-.035Z"/><path d="M535.589 257.297c.146-1.907 1.096-3.682 1.698-5.481.258-1.006.414-2.089.985-2.969a.349.349 0 0 1 .571 0c.198.299 0 .675-.035.999a20.45 20.45 0 0 1-.696 2.982c.574-1.044 1.107-2.147 1.625-3.184-.083.745-2.3 8.081-3.647 8.081-.199-.014-.359-.142-.501-.428Z"/><path d="M533.198 259.03c-.787-.038-.728-.985-.077-1.221-.146-.261.045-.508.23-.675a23.655 23.655 0 0 0 2.812-4.678c0-.814-.038-1.625 0-2.436a1.083 1.083 0 0 1 .139-.654.466.466 0 0 1 .839.271.507.507 0 0 1 .625-.168.503.503 0 0 1 .276.586c.178-.404.696-.717 1.1-.446.647.38.171 1.149-.038 1.657a2.341 2.341 0 0 0-.373 1.319 3.874 3.874 0 0 1-.633 1.935c-.237.299-.553.696-.982.592-.386.469-.278 1.172-.696 1.6-.243.839-1.124 1.215-1.788 1.674-.36.392-.861.625-1.393.648l-.041-.004Z"/><path d="M530.807 259.705a1.382 1.382 0 0 1-.623-.038c.202.011.404-.022.591-.097 0-.261.261-.348.467-.411.571-.226 1.006-.696 1.479-1.086.473-.39.974-1.451 1.608-.675 1.013.498-.996 1.74-1.472 1.991a7.301 7.301 0 0 1-1.671.522h-.063a.348.348 0 0 1-.316-.206Z"/><path d="M533.166 257.743v-.032c.056.066-.215.261-.282.324a6.604 6.604 0 0 1-3.316 1.43 16.393 16.393 0 0 0 3.598-1.722Z"/><path d="M532.355 258.456c-.87.647-2.088.947-3.132 1.187.992-.473 2.106-.745 3.132-1.187Z"/><path d="M532.171 258.609c-.794.752-2.088 1.003-3.132 1.096 1.016-.41 2.144-.609 3.132-1.096Z"/><path d="M531.659 259.103c-.574.415-1.496.533-2.199.578.703-.254 1.503-.292 2.199-.578Z"/><path d="M529.491 259.702c.56-.181 1.253-.097 1.824-.237a2.017 2.017 0 0 1-1.152.282 5.804 5.804 0 0 1-.672-.045Z"/><path d="M529.787 259.643c.24-.056.484-.112.727-.146.244-.035.435-.046.644-.091a3.723 3.723 0 0 1-1.35.237h-.021ZM52.342 254.541c-10.977-2.555-8.7-17.635 2.395-17.026 10.973 1.559 9.553 17.179-.599 17.182a10.918 10.918 0 0 1-1.796-.156ZM51.886 261.912c.077-.169.197-.316.348-.425a.882.882 0 0 0-.348.425Zm-1.942 2.722c-2.15-3.634 4.086-7.173 5.791-3.07 1.044 2.436-1.12 4.524-3.236 4.524a2.921 2.921 0 0 1-2.554-1.454ZM73.927 260.353c-4.263-1.897-.592-8.266 3.223-5.711 2.63 1.809.591 5.916-2.144 5.916a2.828 2.828 0 0 1-1.079-.205ZM221.241 259.288c-2.948-1.392-2.088-5.753 1.145-5.871 4.33.128 3.637 6.184.258 6.184a3.538 3.538 0 0 1-1.403-.313ZM206.133 49.732c-5.367-4.086-.696-11.76 5.353-9.198 5.735 2.906 2.805 10.42-1.991 10.42a5.662 5.662 0 0 1-3.362-1.222ZM221.979 47.818c-2.029-.484-1.044-3.696.873-3.132 1.762.518 1.065 3.156-.522 3.156a1.562 1.562 0 0 1-.351-.024ZM310.504 36.535c-5.861-.919-6.522-9.72-.195-10.305 4.646-1.107 6.908 1.98 6.787 5.067-.108 2.649-1.974 5.297-5.607 5.297-.329 0-.658-.02-.985-.06Z"/><path d="M221.976 48.98c-1.977-.925-2.284-3.929-.063-4.76a2.617 2.617 0 0 1 3.522 2.509 2.573 2.573 0 0 1-2.541 2.436 2.191 2.191 0 0 1-.918-.185ZM637.729 248.614h-95.263v1.465h95.263v-1.465Z"/><path d="M518.636 250.079c.004-.493.062-.984.171-1.465h21.449c.619.4 1.253.779 1.903 1.131l-.041-.024c.135.069.348.132.407.278.01.026.017.053.021.08h-23.91ZM607.37 257.495h-46.942v1.466h46.942v-1.466ZM222.553 256.399H75.82v1.465h146.733v-1.465ZM414.06 167.276h-79.709v.696h79.709v-.696Z"/><path d="M334.351 167.968v-.696h77.743c.615.249 1.238.481 1.869.696h-79.612ZM401.197 225.814h-79.709v.696h79.709v-.696ZM400.678 106.113h-79.709v.696h79.709v-.696Z"/><path d="M334.939 168.247c-.442-.261-.654-.936-.974-1.347a108.314 108.314 0 0 1-1.633-2.673 51.713 51.713 0 0 1-5.105-12.355 120.851 120.851 0 0 1-3.234-13.789c-.716-4.65-1.461-9.299-2.049-13.966-.446-3.846-.696-7.713-.992-11.555 0-.957-.644-6.355.348-6.265-.021 2.746.212 5.569.463 8.294.431 6.035 1.11 12.014 2.105 17.979a124.38 124.38 0 0 0 5.12 22.58 48.151 48.151 0 0 0 4.789 10.128 117.19 117.19 0 0 0 1.538 2.461.348.348 0 0 1-.289.529.264.264 0 0 1-.087-.021ZM414.102 167.15c-2.221-3.901-4.873-7.573-6.613-11.746-1.74-4.235-2.739-8.735-3.769-13.186-2.227-9.655-3.699-19.542-3.48-29.475.063-2.109-.087-4.25.233-6.338a.675.675 0 0 1 .028-.118.086.086 0 0 1 .113-.05.086.086 0 0 1 .05.113c-.174 2.833.046 5.7.067 8.547.111 8.137 1.333 16.225 2.989 24.178 1.243 5.384 2.308 10.869 4.385 16.009 1.598 3.773 3.749 7.243 5.771 10.789.226.348.376.745.584 1.096a.21.21 0 0 1 .011.102.208.208 0 0 1-.116.162.215.215 0 0 1-.1.022.172.172 0 0 1-.153-.105ZM400.873 225.929c-.605-2.436-.477-5.06-.696-7.569-.543-6.265.279-12.53 1.166-18.745.505-3.355.978-6.742 1.932-9.999 1.775-6.157 4.524-12.018 7.566-17.628.887-1.486 1.615-3.104 2.756-4.413.028-.024.066-.024.094-.049a.104.104 0 0 1 .051-.02.091.091 0 0 1 .095.107 90.842 90.842 0 0 0-3.268 6.16c-2.579 5.221-5.077 10.525-6.657 16.146-.923 3.177-1.393 6.449-1.869 9.71-.481 3.195-.884 6.396-1.149 9.616-.473 4.308-.066 8.62.032 12.932.045 1.086.114 2.169.132 3.255.018.149.007.3-.032.445a.11.11 0 0 1-.041.047.104.104 0 0 1-.112.005Z"/><path d="M321.71 226.343a.314.314 0 0 1-.128-.195 23.261 23.261 0 0 1-.401-2.867 44.226 44.226 0 0 1-.066-5.569c.15-3.25.286-6.504.46-9.745.233-6.243 1.465-12.393 2.874-18.445a76.11 76.11 0 0 1 6.808-16.379c.411-.581 3.261-6.396 3.522-5.171-.835 1.552-1.771 3.115-2.572 4.698-2.628 4.984-5.022 10.142-6.665 15.522-.842 2.785-1.329 5.614-1.89 8.447a68.084 68.084 0 0 0-1.308 9.397c-.223 3.223-.369 6.452-.56 9.675-.192 2.958-.376 5.917-.164 8.892.038.498.056 1.009.129 1.497a.17.17 0 0 0 .076.115.086.086 0 0 1 .024.045.102.102 0 0 1-.005.052.097.097 0 0 1-.032.04.098.098 0 0 1-.049.016.088.088 0 0 1-.053-.025ZM355.285 131.564a11.508 11.508 0 0 1 2.589-4.061 8.64 8.64 0 0 0-.765 1.834l-.641.877c-.191.268-.383.536-.578.797a2.02 2.02 0 0 1-.417.463.705.705 0 0 1-.094.059l-.056.024-.038.007Z"/><path d="M354.954 138.539a11.464 11.464 0 0 1 2.924-11.04 8.496 8.496 0 0 0-.912 5.917 8.263 8.263 0 0 0-.129.94c-.04.509-.05 1.02-.031 1.531.028.394.073.788.135 1.18.067.343.153.682.258 1.016.118.348.251.658.4.978.15.32.397.727.616 1.082.202.286.411.568.63.839.296.348.602.658.926.964.442.39.894.755 1.371 1.103.56.381 1.141.729 1.74 1.044.49.243.993.458 1.507.644.475.168.959.312 1.448.432l.327.073c.463.084.926.15 1.392.195.415 0 .825.024 1.236 0h.129c.323-.028.644-.066.964-.108.188-.035.376-.073.56-.118.185-.046.463-.122.696-.188.233-.066.407-.146.606-.23.198-.084.393-.171.584-.261.192-.09.435-.237.644-.348.208-.138.408-.286.599-.446.223-.198.431-.414.64-.629l.348-.411c.143-.167.268-.348.4-.529.557-.808 1.072-1.643 1.626-2.454l.445-.647a11.519 11.519 0 0 1-22.072-.526l-.007-.003Z"/><path d="M354.951 138.539a11.479 11.479 0 0 1 2.927-11.043 8.584 8.584 0 0 0 .511 9.173 8.582 8.582 0 0 0 8.514 3.45 8.575 8.575 0 0 0 6.754-6.228 8.585 8.585 0 0 0-2.753-8.765 11.479 11.479 0 0 1 5.835 14.56 11.48 11.48 0 0 1-14.134 6.802 11.482 11.482 0 0 1-7.654-7.949ZM362.145 199.688a5.219 5.219 0 0 1 8.942-3.569 5.215 5.215 0 0 1 1.092 5.677 5.226 5.226 0 0 1-4.814 3.203 5.273 5.273 0 0 1-5.22-5.311ZM358.264 199.66c-3.132-.157-6.334-.16-9.494-.24-1.932-.063-3.829.031-5.75-.254 2.182-.3 4.466 0 6.682 0 2.844.177 5.736.021 8.545.483.007-.01.038.007.017.011ZM385.268 200.885c-3.101-.205-6.286-.052-9.338-.588 3.78.257 7.813.129 11.656.536a16.61 16.61 0 0 1-2.318.052ZM367.494 190.684v-1.413l.031-.637c0-.348.035-.696.056-1.044.042-.786.094-1.569.142-2.356.049-.786.091-1.51.129-2.269.039-.759.066-1.497.094-2.245.025-.609.049-1.218.07-1.827 0-.303 0-.602.038-.905 0-.139.024-.275.042-.411.017-.135.038-.275.056-.41 0-.08.017-.164.024-.244.024.178.049.348.066.536.017.188.028.348.035.55 0 .348 0 .724-.021 1.086-.031.741-.059 1.482-.094 2.224-.035.741-.07 1.51-.122 2.265-.028.415-.052.825-.08 1.239-.028.415-.059.815-.087 1.218-.052.731-.108 1.462-.153 2.193-.024.366-.049.727-.059 1.093 0 .191-.025.383-.038.578-.014.195-.035.41-.06.616v.16l-.069.003ZM366.895 221.311a17.012 17.012 0 0 1-.153-1.323c0-.195-.021-.389-.031-.581-.011-.191 0-.369-.021-.553-.028-.735-.059-1.465-.084-2.2 0-.578-.035-1.155-.048-1.74 0-.296 0-.595-.021-.891v-.846a.785.785 0 0 1 0-.097v-2.857c.012-.319.042-.636.09-.951 0-.073.021-.146.035-.219l.021-.118a.331.331 0 0 1 0-.063V213.247c0 .393.024.787.035 1.18.027.8.058 1.601.09 2.401.025.696.052 1.371.077 2.061l.021.553v.574c0 .435 0 .87-.042 1.302l.031-.007ZM360.926 193.274a.792.792 0 0 1-.107-.084l-.171-.143-.306-.264c-.293-.258-.571-.536-.846-.811l-.442-.439-.348-.348a64.4 64.4 0 0 0-.887-.856l-.735-.696-1.444-1.35c-.237-.223-.477-.442-.696-.675a31.68 31.68 0 0 1-.759-.839c.348.271.696.546 1.044.849.129.115.254.233.38.348.125.115.254.244.379.348l.832.794c.296.278.584.563.877.842l.797.773.668.65c.289.286.581.568.867.856.285.289.455.488.671.742.052.059.108.122.157.184a.533.533 0 0 1 .062.073v.035l.007.011ZM380.614 212.641c-.323-.25-.64-.515-.943-.79l-.372-.348-.428-.407-.825-.793c-.56-.536-1.11-1.083-1.66-1.626-.55-.543-1.013-1.009-1.518-1.517a6.123 6.123 0 0 1-.348-.376c-.107-.129-.261-.285-.389-.435a4.336 4.336 0 0 1-.164-.195c-.052-.066-.083-.101-.122-.153-.038-.052-.028-.031-.024-.045l.073.069.48.421c.139.126.279.255.414.387.136.132.275.278.415.417l.386.387 1.583 1.573.815.793.832.801.793.762c.275.265.536.543.79.828.073.084.146.164.216.247h-.004ZM374.037 193.837l.191-.181.348-.348c.282-.247.578-.48.867-.717l1.768-1.437c.602-.498 1.211-.988 1.809-1.49l1.706-1.413.383-.316.4-.306c.132-.098.268-.192.404-.286l.369-.257c-.234.25-.481.49-.738.72-.258.23-.561.48-.846.713l-1.771 1.441-.909.745-.769.63-1.778 1.448a19.969 19.969 0 0 1-1.222.946l-.195.136-.017-.028ZM353.204 212.29c.288-.306.584-.602.891-.888l.368-.327.463-.41c.561-.491 1.118-.982 1.671-1.48.348-.295.665-.591.992-.894l1.044-.978.633-.609.314-.303c.104-.104.215-.205.327-.306.111-.101.219-.198.348-.289l.125-.101.056-.042h.024c0 .021.035.046.056.067l-.035.031-.209.219-.386.397c-.139.139-.286.278-.428.414l-.401.386a38.75 38.75 0 0 1-.81.769l-.502.467-.386.348a90.401 90.401 0 0 1-1.74 1.549l-.787.696-.463.403c-.125.112-.257.216-.389.324-.247.195-.498.386-.752.571 0 0-.024-.011-.024-.014ZM371.472 191.728c.021-.076.045-.156.069-.233.046-.156.098-.317.153-.47.126-.348.272-.696.411-1.065.139-.369.303-.751.453-1.131.062-.153.121-.31.184-.466l.209-.526c.181-.435.386-.859.592-1.284-.101.372-.22.738-.349 1.1-.066.181-.135.348-.205.532-.069.185-.136.348-.205.515-.129.331-.261.662-.393.992l-.22.543c-.069.181-.142.348-.216.547-.041.104-.09.212-.135.32-.094.212-.195.424-.289.637l-.059-.011ZM375.742 196.949l.265-.119c.083-.038.174-.073.261-.107l.24-.094.529-.206 2.13-.825 1.298-.522c.198-.08.403-.16.609-.233l.132-.049-.005-.007a.019.019 0 0 1-.002-.008.03.03 0 0 1 .002-.009.018.018 0 0 1 .005-.007s.021 0 .035-.021l.07-.024-.063.038c.04-.008.08-.02.118-.035.041-.011.082-.025.122-.041a.205.205 0 0 1 .077-.021.036.036 0 0 1 .017.007c.006.004.01.009.014.014a.06.06 0 0 1 .006.019.063.063 0 0 1-.003.019.102.102 0 0 1-.055.045l-.167.084c-.15.076-.3.146-.453.215-.153.07-.348.143-.504.209l-.505.206c-.696.275-1.392.546-2.064.81l-1.284.495-.348.128-.261.094-.192.07-.024-.125ZM381.533 205.956c-.059 0-.118-.035-.177-.052-.15-.053-.299-.112-.449-.171a14.37 14.37 0 0 1-1.02-.456c-.665-.31-1.329-.616-1.987-.94l-.658-.348-.651-.348-.536-.282c-.17-.094-.348-.187-.501-.285 0-.042.031-.083.045-.122l.348.153.543.279c.348.177.676.348 1.02.525.647.331 1.309.641 1.97.95l.612.286.533.25.532.265.234.125.135.066.067.035a.05.05 0 0 1 .024.028.045.045 0 0 1 0 .028h-.021l-.063.014ZM372.45 215.325a.811.811 0 0 1-.07-.153 3.124 3.124 0 0 1-.08-.202c-.063-.167-.125-.348-.181-.501a8.463 8.463 0 0 1-.171-.533c-.052-.184-.097-.348-.146-.511-.108-.349-.205-.721-.309-1.083-.105-.362-.188-.675-.286-1.013l-.376-1.329-.209-.748c-.062-.216-.125-.432-.177-.651-.031-.119-.059-.237-.087-.348l.122-.045c.045.135.094.271.136.41.041.139.111.366.163.554.052.188.108.382.16.574l.627 2.21a356.222 356.222 0 0 0 .598 2.123c.039.142.073.278.105.417.031.14.066.289.097.432.031.143.052.247.08.365v.032h.004ZM358.929 213.971c.177-.348.348-.696.567-1.023.219-.327.404-.623.609-.933l1.246-1.886c.348-.536.696-1.072 1.068-1.612l.241-.348c.08-.122.163-.24.25-.348l.056-.073.129.07c-.167.271-.348.543-.522.807l-.648.975-1.274 1.924c-.261.394-.522.787-.779 1.184-.258.396-.609.873-.936 1.294 0 0-.011-.028-.007-.031ZM351.429 205.649c.396-.205.8-.4 1.211-.577l.56-.226.529-.213 2.168-.873c.672-.268 1.344-.547 2.012-.822l.821-.348c.021.056.039.112.056.167l-.807.331-2.009.821-2.168.874-.532.212-.561.223c-.396.153-.804.285-1.211.411h-.066s-.007.02-.003.02ZM358.824 196.093l-.953-.404-1.017-.442-1.065-.473-2.088-.933-1.159-.519c-.348-.153-.696-.299-1.016-.456-.32-.156-.696-.348-1.044-.546l.626.219c.161.056.321.119.481.185.16.066.348.149.529.229.369.16.738.324 1.103.491l.94.418 1.075.484c.696.313 1.392.626 2.116.932l1.11.477.609.261c-.024.052-.048.104-.069.16l-.178-.083ZM363.596 190.218c-.052-.195-.108-.386-.16-.578-.053-.191-.08-.278-.119-.417l-.348-1.156c-.215-.715-.434-1.428-.654-2.14a33.087 33.087 0 0 0-.348-1.097c-.125-.365-.233-.741-.348-1.113-.115-.373-.164-.655-.233-.982.17.407.33.822.47 1.243.059.181.114.348.17.546l.167.54.696 2.234c.112.362.22.724.324 1.086.052.17.097.348.146.508.049.16.091.306.132.463.108.386.216.769.321 1.155l.135.501.063.244-.164.066-.25-1.103ZM343.079 161.596c-.466-.045-.932-.087-1.392-.136l-.215-.021-.672-.028 1.221.167h.101-2.899l-.459-.069-.348-.056c-.105 0-.205-.031-.306-.052a1.292 1.292 0 0 1-.164-.035h-.595v-.108h12.087l.4.025c.616.038 1.236.062 1.852.094.616.031 1.242.045 1.865.066.533.021 1.069.028 1.601.042h.856-.142l-.728-.06c-.264-.021-.529-.038-.793-.066l-.94-.104h34.89v.348l-45.22-.007Z"/><path d="m385.63 161.596.873-.132h-.035l1.305-.209h.54v.348l-2.683-.007ZM364.515 161.596a75.852 75.852 0 0 0-6.373-.272h-.797l.581.042.697.052.313.025c.198.009.396.032.591.069a.4.4 0 0 1 .167.084h-22.35v-.348h29.495c1.177.111 2.357.23 3.533.348h-5.857ZM391.055 172.959v-.049l-.723-.045-.373-.028v-.216h12.31v.185h-.021a6.96 6.96 0 0 1-.39.038l-.435.025-.64.024c-.324.017-.644.024-.964.038l-.738.025-8.026.003Z"/><path d="m394.581 172.959.738-.038c.348 0 .696-.035 1.016-.056.752-.045 1.504-.09 2.252-.146h-3.595c-1.392 0-2.776.01-4.152.031l-.857.049h-.02v-.171h12.309v.282a8.454 8.454 0 0 1-.431.053l-7.26-.004Z"/><path d="M389.963 172.959v-.024h.522c.306 0 .612-.025.918-.028h-.041c.696-.019 1.392-.033 2.088-.042a1.66 1.66 0 0 1 .223 0 .313.313 0 0 1 .243.125l-3.953-.031Z"/><path d="M390.975 172.96c.025-.025.049-.046.07-.07a3.93 3.93 0 0 1 .167-.181c.028-.035.06-.067.088-.098h.23l-.063.063-.195.188-.094.084-.203.014Z"/><path d="M402.272 172.625h-12.309v.334h12.309v-.334ZM337.591 161.589c-.727-.755-1.138-1.74-1.594-2.659a72.379 72.379 0 0 1-2.088-5.137 63.963 63.963 0 0 1-3.442-12.752 9.033 9.033 0 0 1-.07-1.127c.108.348.213.696.3 1.044a70.682 70.682 0 0 0 2.968 11.217v-.018c1.204 3.181 2.28 6.498 3.982 9.435 0 0-.021.042-.056-.003Z"/><path d="M337.424 161.617c-.585-.564-.867-1.319-1.162-2.054a28.07 28.07 0 0 1-1.483-4.085c.905 1.99 2.088 3.981 2.659 6.128 0 0 .028 0 0 0s-.007.018-.014.011ZM398.841 187.984c-.073-5.245 1.413-10.386 3.282-15.241 0 1.104-.425 2.165-.783 3.199-.575 1.646-1.152 3.316-1.566 5.004-.599 2.294-.599 4.723-.933 7.038ZM320.823 209.046c-.216-.271-.428-.546-.641-.821.578.599 1.17 1.179 1.775 1.74a.85.85 0 0 0-.055.355v.052a35.54 35.54 0 0 1-1.079-1.326ZM312.425 198.177c-.15-.191-.299-.383-.445-.577l-.697-.951c-.153-.198-.295-.407-.438-.612-.143-.205-.32-.432-.466-.658l-.627-.957c-.136-.209-.257-.428-.383-.644l-.292-.497c-.038-.063-.073-.129-.108-.195l-.348-.724c-.066-.133-.139-.265-.202-.404l-.348-.769c-.059-.143-.129-.286-.181-.432-.094-.25-.188-.501-.278-.751-.056-.15-.115-.3-.167-.453-.087-.254-.167-.511-.254-.766-.056-.17-.119-.348-.167-.511a126.554 126.554 0 0 1-.989-3.359c-.348-1.169-.654-2.335-.971-3.508-.459-1.684-.915-3.372-1.392-5.057a59.616 59.616 0 0 1-.146-1.145l.08.289c.146.505.285 1.009.428 1.514.32 1.16.643 2.313.968 3.46l.737 2.585c.216.745.435 1.486.658 2.231.157.501.313 1.003.46 1.507.125.373.24.748.348 1.124.094.289.191.571.292.857.101.285.202.598.317.89.09.241.184.477.278.697.045.121.087.243.139.348v-.021c.011.022.02.046.028.069v-.021c.157.348.31.696.463 1.045a.053.053 0 0 1 0-.025c0 .031.024.059.035.087a.074.074 0 0 0 0-.021c.202.38.397.762.595 1.142.031.059.07.118.104.174l.23.386c.108.181.216.348.327.543.112.195.254.383.38.574.125.192.233.348.348.533l.066.094a54.634 54.634 0 0 0 1.635 2.881l-.017.028Z"/><path d="m305.708 185.572.466.696c-.062-.143-.121-.289-.184-.432a6.174 6.174 0 0 1-.188-.494 4.43 4.43 0 0 1-.15-.553.888.888 0 0 1 .039-.505c-.073-.275-.147-.55-.216-.825-.172-.661-.338-1.322-.498-1.984a18.58 18.58 0 0 1-.39-1.896 6.243 6.243 0 0 1-.052-1.393c.01-.149.043-.296.098-.435a.714.714 0 0 1 .108-.16l-.028.046a.18.18 0 0 0-.025.045c0 .028 0 .052-.028.076a.982.982 0 0 0-.027.171 1.263 1.263 0 0 0 0 .174c.007.154.023.307.048.459.101.602.279 1.187.421 1.782.087.348.181.696.279 1.044.198.696.411 1.413.616 2.123.028.098.059.195.09.293l.126-.053A56.63 56.63 0 0 0 321.947 210a.745.745 0 0 0-.052.25v.105a3.825 3.825 0 0 0-.031.414v.097a.69.69 0 0 0 0 .091 57.595 57.595 0 0 1-16.156-25.385Z"/><path d="M304.417 180.664c.415.091.811.255 1.169.484a56.569 56.569 0 0 0 16.358 28.834.68.68 0 0 0-.053.251.602.602 0 0 0 0 .104 3.21 3.21 0 0 0-.034.415v.097a.69.69 0 0 0 0 .091 57.465 57.465 0 0 1-17.44-30.276ZM400.8 209.241a56.672 56.672 0 0 0 14.092-22.587 66.71 66.71 0 0 0 1.74-2.669 57.481 57.481 0 0 1-15.821 26.21c-.011-.32-.011-.637-.011-.954Z"/><path d="M401.079 208.973a56.59 56.59 0 0 0 .508-79.699.28.28 0 0 0 0-.041 3.677 3.677 0 0 0-.108-.589 2.956 2.956 0 0 0-.219-.511l-.032-.08c-.028-.101-.062-.199-.094-.293a.58.58 0 0 1 0-.059.204.204 0 0 1 0-.035v-.048c.034-.115.062-.231.084-.348v-.077a57.424 57.424 0 0 1 .108 82.532 5.376 5.376 0 0 1-.247-.752ZM303.122 168.497a57.375 57.375 0 0 1 5.057-23.594 57.37 57.37 0 0 1 14.314-19.426 1.601 1.601 0 0 0 0 .098c0 .101.032.205.049.306.018.101 0 .251 0 .379.017.264.063.526.136.78a56.605 56.605 0 0 0-9.105 73.003c.049.463.098.926.143 1.392l.077.386a57.177 57.177 0 0 1-10.671-33.324Z"/><path d="M273.675 168.257c0-40.274 27.056-74.238 64.017-84.77-.446.45-.888.898-1.343 1.337l-.512.157a87.257 87.257 0 0 0-30.247 16.608 86.942 86.942 0 0 0-31.006 66.626c0 3.691.233 7.378.696 11.04 4.524 35.68 30.626 64.639 64.859 73.413.741.529 1.486 1.044 2.237 1.559-39.334-8.902-68.701-44.018-68.701-85.97Z"/><path d="M314.033 94.847a236.818 236.818 0 0 1 5.147-3.706 88.62 88.62 0 0 1 78.624-3.48 305.51 305.51 0 0 0-3.067-.29 87.922 87.922 0 0 0-47.036-5.206h-.042l-.198.031h-.059l-.32.056h-.098l-.156.028-.115.02-.15.029-.24.041-.104.018-.181.031-.098.021-.254.045h-.017l-.282.056h-.066l-.251.049h-.031l-.303.059-.296.063h-.021a86.913 86.913 0 0 0-11.098 3.027 87.08 87.08 0 0 0-23.471 12.404 40.45 40.45 0 0 1 4.183-3.296ZM308.196 238.169l-.097-.104-.031-.028a.053.053 0 0 1-.025 0 .035.035 0 0 1 .019-.006c.007 0 .014.002.02.006.323.073.633.219.957.303.42.093.845.164 1.273.212a87.492 87.492 0 0 0 102.199.801l.411-.185-.108.049a191.808 191.808 0 0 0 4.364-2.088 88.434 88.434 0 0 1-108.933 1.086l-.049-.046Z"/><path d="M429.022 224.022a90.798 90.798 0 0 0 2.955-3.738c.919-.672 1.83-1.35 2.735-2.046a88.66 88.66 0 0 1-32.565 28.538l-.679.185c-1.524.403-3.052.821-4.59 1.179a87.546 87.546 0 0 0 32.144-24.118Z"/><path d="M429.022 224.022a87.451 87.451 0 0 0 8.005-11.276 85.627 85.627 0 0 0 3.591-6.665 88.81 88.81 0 0 0 3.206-7.514 86.681 86.681 0 0 0 3.588-12.428c0-.077.031-.153.048-.23.018-.076.032-.149.049-.226 0-.073.032-.143.045-.216a.037.037 0 0 0 0-.021l.042-.212v-.028c0-.069.025-.139.038-.205a.103.103 0 0 0 0-.035c0-.066.028-.132.039-.195v-.052c0-.059.024-.122.035-.181v-.059c0-.059.024-.119.034-.178v-.062l.032-.171a.364.364 0 0 1 0-.066c0-.056.021-.115.031-.171a.963.963 0 0 1 0-.076c0-.052 0-.104.028-.157a.534.534 0 0 1 0-.08c0-.052 0-.104.024-.16.025-.056 0-.052 0-.08 0-.028 0-.101.028-.153v-.087c0-.049.021-.097.028-.15.007-.052 0-.062 0-.097l.021-.139c0-.032 0-.066.017-.098.018-.031 0-.09.025-.139.024-.049 0-.073 0-.108v-.129l.02-.111c0-.042 0-.084.018-.125l.021-.119v-.243l.021-.112v-.135a.92.92 0 0 0 0-.105l.02-.132v-.104l.021-.143v-.098l.021-.142v-.098l.021-.146a.737.737 0 0 1 0-.094v-.237l.021-.163v-.077l.021-.163v-.077c0-.059 0-.118.024-.177a.58.58 0 0 1 0-.059l.021-.178v-.066c0-.059 0-.122.025-.181a.29.29 0 0 1 0-.059c0-.063 0-.129.024-.192.024-.062 0-.031 0-.048 0-.018 0-.129.024-.195.025-.066 0-.032 0-.049s0-.132.025-.198v-.042c0-.07 0-.139.024-.209v-.031c0-.073 0-.143.024-.213v-.031c0-.073 0-.146.028-.223v-.017c0-.077 0-.153.025-.23.299-2.951.448-5.915.448-8.881v-.658c.063-.317.119-.63.175-.943.191-1.128.348-2.259.48-3.394.042-.476.087-.95.122-1.423.157 2.137.236 4.292.236 6.466a87.756 87.756 0 0 1-23.112 59.458 80.113 80.113 0 0 1-2.917 1.848c-.202.122-.407.24-.616.348a57.79 57.79 0 0 0 5.781-5.955ZM418.504 101.79c-.372-.723-.748-1.447-1.127-2.164a88.758 88.758 0 0 1 18.967 21.104l1.215 3.856a87.617 87.617 0 0 0-19.055-22.796Z"/><path d="M448.658 183.793a27.72 27.72 0 0 0-.456-1.987 87.134 87.134 0 0 0 1.02-10.984v-5.565a.17.17 0 0 1 0-.045v-.188a.262.262 0 0 1 0-.056v-.696a.24.24 0 0 0 0-.038v-.452a88.556 88.556 0 0 0-.759-7.904 86.44 86.44 0 0 0-3.811-15.658 86.33 86.33 0 0 0-4.023-9.828l-.028-.056a87.248 87.248 0 0 0-1.27-2.52l-.021-.038-.063-.122c0-.028-.031-.059-.045-.087l-.045-.084-.07-.132s0-.028-.024-.045l-.094-.174a87.427 87.427 0 0 0-8.513-12.961c-.139-.306-.275-.609-.411-.915-.383-.833-.769-1.665-1.159-2.495a88.2 88.2 0 0 1 19.838 73.855 8.14 8.14 0 0 0-.066-.825Z"/><path d="m396.074 87.942-.815-.633c-.619-.478-1.241-.951-1.865-1.42l-.073-.056a88.375 88.375 0 0 1 32.638 21.693c.506.717 1.001 1.439 1.486 2.165a187.21 187.21 0 0 1 2.52 3.852 87.573 87.573 0 0 0-33.891-25.6Z"/><path d="M374.482 81.918c1.274-.101 2.548-.247 3.829-.226h.449a88.213 88.213 0 0 1 48.456 27.167h-.383l-.888.031a87.197 87.197 0 0 0-51.463-26.972Z"/><path d="m426.168 108.232-1.615-.786a87.143 87.143 0 0 0-50.415-25.577l.581.031c1.514.084 3.031.178 4.524.349l-.473-.05c1.458.15 2.92.297 4.375.481a88.283 88.283 0 0 1 43.851 25.97l-.828-.418ZM350.016 103.499c.727-.167 1.451-.348 2.182-.487a38.8 38.8 0 0 1 2.227-.348c.407-.049.811-.09 1.218-.129-.668.157-1.336.303-2.011.432s-1.365.254-2.054.348l-.348.045c-.4.052-.8.101-1.204.136l-.01.003Z"/><path d="M349.424 103.6a.266.266 0 0 1 .111-.059l.181-.066.418-.136c.254-.08.508-.153.769-.216.261-.062.55-.132.832-.188.282-.055.578-.114.87-.149a31.5 31.5 0 0 1 1.709-.178c.571-.045 1.155-.09 1.74-.121-.571.107-1.142.212-1.712.306a48.92 48.92 0 0 1-1.702.254c-.508.08-1.016.139-1.521.223-.261.041-.522.083-.783.132s-.519.094-.773.153a.46.46 0 0 0-.094.028l-.045.017Z"/><path d="M350.684 103.116c.147-.063.298-.117.452-.163.164-.052.348-.094.501-.136a9.664 9.664 0 0 1 1.107-.191c.739-.09 1.483-.134 2.228-.133h1.326a49.92 49.92 0 0 1-2.367.241l-.571.048-.539.042c-.376.031-.755.063-1.131.105h-.042a9.375 9.375 0 0 0-.936.17h-.028v.017ZM350.875 103.273s.032-.021.046-.024a.896.896 0 0 1 .198-.049c.15-.035.299-.063.449-.087.333-.049.669-.08 1.006-.094-.279.056-.554.108-.835.15-.282.041-.512.055-.773.08a.224.224 0 0 0-.073 0h-.021l.003.024ZM350.263 103.656a.534.534 0 0 1 .129-.045l.302-.073c.244-.056.484-.108.724-.154.47-.09.95-.146 1.424-.194-.637.166-1.283.293-1.935.379l-.515.063c-.039 0-.081 0-.119.02 0 0-.01.025-.01.004Z"/><path d="m349.699 103.726.118-.039.32-.097.697-.206a9.85 9.85 0 0 1 1.308-.257c.348-.045.696-.08 1.065-.115-.289.08-.574.164-.863.24a14.98 14.98 0 0 1-1.336.286c-.449.073-.881.139-1.323.191l.014-.003ZM349.553 103.861h.035l.128-.028.272-.066.56-.122c.348-.076.696-.132 1.069-.174.348-.045.668-.08 1.005-.107-.504.121-1.012.229-1.527.316-.248.042-.502.077-.756.108-.139.021-.278.035-.421.052l-.348.032-.017-.011Z"/><path d="M349.8 103.705c0-.021.021-.035.035-.049a.561.561 0 0 1 .16-.094l.202-.087a7.17 7.17 0 0 1 1.848-.411l.978-.069c-.47.097-.94.191-1.413.282-.474.09-.971.16-1.448.278l-.254.077-.059.027h-.021l-.028.046ZM350.59 103.256c0-.025.104-.056.115-.06.153-.055.31-.1.466-.146.157-.045.348-.09.515-.128.167-.039.327-.053.491-.074.23-.031.463-.055.696-.073-.383.091-.766.174-1.152.247l-.553.108c-.185.035-.369.063-.55.108h-.028v.018Z"/><path d="M350.684 103.176a.336.336 0 0 1 .049-.035.756.756 0 0 1 .09-.045c.087-.042.174-.077.261-.112.171-.065.345-.121.522-.167a18.267 18.267 0 0 1 4.417-.435 98.07 98.07 0 0 1-3.787.466l-.226.032a9.067 9.067 0 0 0-1.02.191c-.083.025-.163.045-.247.077h-.045l-.014.028Z"/><path d="M350.701 102.981a.167.167 0 0 1 .063 0 .705.705 0 0 1 .111-.032c.074-.024.15-.044.226-.059.195-.042.39-.076.589-.104a11.83 11.83 0 0 1 1.078-.094 15.08 15.08 0 0 1-1.667.254l-.167.021-.222.031-.011-.017ZM284.513 215.283c-3.024-.404-5.123-3.745-4.135-6.64 1.212-3.919 6.463-4.873 8.893-1.521 2.752 3.389.191 8.224-3.919 8.227-.281 0-.562-.022-.839-.066ZM291.599 222.56a1.638 1.638 0 0 1-1.282-2.599c.236-.323.581-.548.972-.634a1.683 1.683 0 0 1 1.418.306 1.676 1.676 0 0 1 .646 1.299 1.467 1.467 0 0 1-.393 1.182 1.479 1.479 0 0 1-1.159.457l-.202-.011ZM277.866 232.775c-2.524-.059-3.366-3.505-.937-4.465 1.166-.794 2.886-.174 3.373 1.131.626 1.535-.651 3.341-2.28 3.341l-.156-.007ZM272.903 244.41c-4.466-2.294-.742-8.659 3.48-5.976 3.153 2.064 1.141 6.338-1.939 6.338a3.642 3.642 0 0 1-1.541-.362ZM296.558 246.982c-2.968-3.439 2.057-7.462 5.054-4.431 2.126 2.541-.115 5.523-2.631 5.523a3.313 3.313 0 0 1-2.423-1.092ZM353.924 265.472a108.8 108.8 0 0 1-16.991-2.314c-5.001-1.096-9.971-2.436-14.652-4.524-.303-.126-.609-.268-.915-.373.327.075.649.17.964.286a127.058 127.058 0 0 0 20.969 5.307c3.574.62 7.204.853 10.789 1.263 1.698.195 3.428.39 5.091.627a218.44 218.44 0 0 1-5.255-.272ZM423.074 249.021c-2.151-.348-2.492-3.376-.511-4.239a2.177 2.177 0 0 1 1.936-.068 2.177 2.177 0 0 1 1.227 1.498 2.376 2.376 0 0 1-2.283 2.84 1.902 1.902 0 0 1-.369-.031ZM440.208 245.499c-4.33-1.932-2.854-8.739 1.949-8.436 6.215.838 4.872 8.78-.084 8.78a5.45 5.45 0 0 1-1.865-.344ZM440.984 231.317a.209.209 0 0 1-.057-.198.206.206 0 0 1 .14-.15.203.203 0 0 1 .258.223c0 .115-.073.226-.177.226a.236.236 0 0 1-.164-.101Z"/><path d="M440.771 231.188a.401.401 0 0 1 .378-.275.401.401 0 0 1 .378.275.417.417 0 0 1-.249.441.408.408 0 0 1-.176.036c-.202-.011-.386-.157-.331-.477Z"/><path d="M440.246 231.348a.988.988 0 0 1 .603-.99.992.992 0 0 1 .403-.075c.992.035 1.392 1.42.459 1.893a.864.864 0 0 1-.438.115 1.042 1.042 0 0 1-1.027-.943ZM355.414 64.92c-4.024-2.269-1.699-8.248 2.833-6.372 3.873 1.528 1.949 6.73-1.33 6.73a3.477 3.477 0 0 1-1.503-.358ZM376.233 67.893a.266.266 0 0 1 .31-.275.27.27 0 0 1 .21.358.273.273 0 0 1-.241.175.272.272 0 0 1-.279-.258ZM376.462 70.813s.102-.08.13-.067c-.032.025-.084.08-.133.08l.003-.013ZM376.911 63.73c-3.504-.226-5.937-4.524-3.713-7.462 1.858-2.335 5.123-3.95 7.806-1.907 4.138 3.132 1.448 9.418-3.344 9.418-.251-.001-.5-.018-.749-.05ZM394.188 69.918c-3.053-.717-3.85-4.873-1.121-6.519 1.838-1.117 4.458-.508 5.325 1.542 1.096 2.436-.881 5.085-3.355 5.085-.287 0-.572-.037-.849-.108ZM402.373 72.612c-.403-1.093.975-2.12 1.907-1.417a1.231 1.231 0 0 1 .61.727 1.225 1.225 0 0 1-.568 1.432 1.279 1.279 0 0 1-.661.173 1.345 1.345 0 0 1-1.288-.915ZM441.652 91.148a3.55 3.55 0 0 1-.459-4.413c.29-.45.678-.828 1.134-1.107 2.955-1.817 6.522 1.392 5.374 4.552a3.588 3.588 0 0 1-3.394 2.231 3.29 3.29 0 0 1-2.655-1.263ZM328.062 225.894h.056c.424 0 .852 0 1.277-.027h.216l.167.02c.383.056.769.122 1.155.161a65.069 65.069 0 0 0 4.838 2.272c.853.78 1.709 1.552 2.565 2.328a65.608 65.608 0 0 1-10.274-4.754ZM351.683 102.768l-1.883 1.42c-1.639.282-3.261.63-4.873 1.044l-.177.046h-.028c-.056 0-.111.028-.167.041h-.024l-.167.042h-.028l-.567.153h-.056l-.122.032-.09.024-.091.028-.104.028h-.07l-.118.035h-.059l-.126.038h-.041l-.14.042h-.028c-.73.212-1.451.438-2.171.675a15.076 15.076 0 0 0-.794-.042 15.337 15.337 0 0 0-1.646.07 9.922 9.922 0 0 0-1.239.135h-.174a65.99 65.99 0 0 1 14.983-3.811Z"/><path d="M328.062 225.898h.059c.425 0 .853 0 1.277-.031h.23l.153.02c.38.053.762.119 1.149.161a64.93 64.93 0 0 0 27.591 7.308h.415l.828.021h4.479c.292 0 .585-.028.877-.049h.167a64.875 64.875 0 0 0 26.102-7.35c.449 0 .895-.038 1.337-.08l.271.042.627.094a66.525 66.525 0 0 1-65.597-.049l.035-.087ZM400.49 221.213a2.883 2.883 0 0 0-.132-.998h.021c.07-.049.143-.105.209-.157l.049-.038.087-.066.062-.046.073-.059.073-.056.066-.052.091-.069.052-.042.108-.08.035-.032.146-.114.115-.091 2.314-.484a68.978 68.978 0 0 1-3.379 2.687 1.32 1.32 0 0 0 .01-.303ZM318.957 219.651c.03-.476.129-.945.293-1.392a67.702 67.702 0 0 0 1.883 1.514v.087a.066.066 0 0 1 0-.028.121.121 0 0 0 0 .038v.017-.017a3.745 3.745 0 0 0 .024 1.51 68.938 68.938 0 0 1-2.2-1.729ZM400.675 115.59a2.153 2.153 0 0 0-.018-.254l.641.484-.623-.23ZM363.909 103.284h-2.857c-1.392 0-2.785.044-4.177.132h-.205a1.263 1.263 0 0 0-.174 0h-.661l-.199.017a65.505 65.505 0 0 0-7.736 1.114 89.177 89.177 0 0 1 5.272-1.681l1.64-.456a68.092 68.092 0 0 1 6.107-.278 66.274 66.274 0 0 1 23.03 4.099h-.202c-.413.018-.824.06-1.232.126h-.087l-.498.073a.808.808 0 0 0-.278.097 65.046 65.046 0 0 0-17.743-3.243Z"/><path d="m424.466 150.751-1.079-1.482a65.183 65.183 0 0 0-22.883-32.764.2.2 0 0 0 0-.049c.077-.258.125-.524.143-.793a1.704 1.704 0 0 0-.017-.327 66.272 66.272 0 0 1 24.487 36.432 7.706 7.706 0 0 0-.651-1.017ZM373.382 104.373l-.696-.132a4.802 4.802 0 0 1-.069-1.097 66.175 66.175 0 0 1 11.325 3.073h-.195c-.413.018-.825.06-1.232.126h-.087l-.498.073a.808.808 0 0 0-.278.097 65.32 65.32 0 0 0-8.27-2.14ZM341.813 105.365l-1.045-.126c.328-.104.658-.205.989-.302h.08c.825 0 1.65-.025 2.474-.042h2.061c-.512.118-1.027.244-1.535.372h-.035l-.118.032-.087.024h-.073l-.164.045c-.25.063-.501.132-.752.199-.581-.063-1.197-.15-1.795-.202ZM386.287 229.528v-.348a35.114 35.114 0 0 1-3.108.365 64.467 64.467 0 0 0 8.266-3.647c.446 0 .891-.038 1.333-.08l.272.042c.208.031.417.066.63.094a66.63 66.63 0 0 1-7.372 3.605.074.074 0 0 1-.021-.031Z"/><path d="M400.49 221.213a2.985 2.985 0 0 0-.128-.998 65.352 65.352 0 0 0 20.109-25.125l.24-.539.237-.54.073-.167a.049.049 0 0 0 0-.024c.027-.056.048-.108.073-.164l.229-.546.22-.543c.021-.059.045-.118.069-.177.073-.181.146-.348.216-.547.073-.181.143-.348.212-.55a2.54 2.54 0 0 0 .066-.177l.136-.348c0-.056.042-.115.059-.171a.025.025 0 0 0 0-.017c.07-.185.133-.348.199-.55l.062-.174.188-.553v-.025c0-.055.039-.111.056-.17.063-.188.125-.373.184-.561.063-.188.119-.372.181-.56v-.021c0-.052.032-.104.046-.153.014-.049 0-.024 0-.038l.052-.174.115-.369v-.028c0-.056.035-.108.048-.16v-.025c.039-.125.074-.247.108-.372l.049-.174v-.021l.052-.177.105-.376v-.021c0-.056.031-.111.048-.171 0-.059.035-.121.049-.181.018-.062.031-.125.049-.191l.042-.164v-.041l.041-.157a.131.131 0 0 1 0-.028l.094-.369v-.031c0-.052.025-.104.039-.157a.193.193 0 0 0 0-.034l.142-.564c0-.059.028-.112.039-.171a.096.096 0 0 0 0-.024c.031-.125.059-.254.087-.379a.074.074 0 0 0 0-.021c0-.056.024-.105.034-.16v-.042c0-.052.025-.105.035-.157a.066.066 0 0 0 0-.028l.084-.369v-.048c0-.049 0-.091.028-.14a.193.193 0 0 1 0-.048.95.95 0 0 1 .031-.15.103.103 0 0 1 0-.035c0-.059.024-.122.035-.181a.17.17 0 0 0 0-.045c0-.045.021-.09.028-.136a.58.58 0 0 0 0-.059c0-.049 0-.094.027-.139a.148.148 0 0 0 0-.042c.028-.125.053-.247.077-.372a.294.294 0 0 1 0-.042c0-.045 0-.094.028-.139v-.056c0-.049 0-.101.028-.153a.066.066 0 0 1 0-.028c0-.062.024-.129.034-.191 0-.063.021-.122.035-.185a.24.24 0 0 1 0-.038c0-.049 0-.097.028-.146a.2.2 0 0 1 0-.049l.031-.167c0-.063.025-.129.035-.191 0-.06.018-.119.032-.174a.086.086 0 0 1 0-.032c0-.055 0-.108.027-.163.028-.056 0-.021 0-.032l.063-.386v-.021c0-.055 0-.111.028-.163a.148.148 0 0 1 0-.042l.021-.157v-.035c.021-.128.038-.254.055-.379v-.045l.021-.146a.177.177 0 0 0 0-.046c0-.055 0-.111.025-.167a.034.034 0 0 1 0-.02c0-.063 0-.126.024-.192v-.038l.021-.146a.331.331 0 0 1 0-.063v-.184c0-.018 0-.122.024-.181 0-.06 0-.122.025-.181a.235.235 0 0 1 0-.053v-.139a.262.262 0 0 0 0-.056v-.153a.193.193 0 0 0 0-.034l.021-.192a.16.16 0 0 0 0-.031c0-.049 0-.101.017-.153a.29.29 0 0 0 0-.059v-.756a.29.29 0 0 1 0-.059v-.195c0-.122.024-.25.035-.376v-.4a.103.103 0 0 1 0-.035v-.577a.262.262 0 0 1 0-.056v-.379a.235.235 0 0 0 0-.053V171.052a.331.331 0 0 1 0-.063v-.769a.726.726 0 0 0 0-.066v-.132a.29.29 0 0 1 0-.059V166.844a.505.505 0 0 0 0-.055v-.14a.397.397 0 0 1 0-.069v-.129a.889.889 0 0 0 0-.073v-1.002a.235.235 0 0 0 0-.053v-.348a.253.253 0 0 1 0-.055v-.185c0-.136 0-.275-.025-.411v-.382a.103.103 0 0 0 0-.035V163.708c0-.201-.027-.407-.045-.612v-.192a.067.067 0 0 1 0-.02v-.188a36.762 36.762 0 0 0-.094-1.017v-.017l-.021-.191a64.6 64.6 0 0 0-5.982-21.171v-.024c-.025-.046-.046-.094-.07-.143l-.021-.045c-.021-.042-.042-.08-.059-.122-.017-.042-.021-.035-.028-.052l-.052-.108-.031-.066-.06-.115-.02-.049-.073-.143c0-.031-.032-.059-.046-.09l-.045-.091-.038-.076-.042-.087c0-.025-.028-.056-.045-.084l-.035-.073-.052-.101-.021-.041a65.335 65.335 0 0 0-7.17-11.085 4.81 4.81 0 0 1 .999-.348 66.149 66.149 0 0 1 5.12 74.599 66.15 66.15 0 0 1-17.593 19.567c.633-.129.633-.212.626-.31ZM544.749 167.579v-.328c.083-.104.174-.205.271-.306.074-.08.155-.152.244-.216l-.028.035-.024.038a.349.349 0 0 0-.039.08.492.492 0 0 1-.024.077 1.72 1.72 0 0 0-.038.237v.132l.031.139c0 .045.038.091.059.136l.087.132c.049.059.101.115.153.174l-.066-.066c.06.059.122.115.188.167.125.087.247.167.376.24l.271.126c.188.066.376.128.568.187a4.359 4.359 0 0 0 6.167 2.928 4.356 4.356 0 0 0 1.872-1.769l.22-.149c.268-.394.522-.801.758-1.215a8.97 8.97 0 0 0 .289-.581c.306-.87.55-1.758.776-2.652.025-.104.045-.209.066-.317.41.871.623 1.822.623 2.784a6.42 6.42 0 0 1-1.878 4.536 6.408 6.408 0 0 1-4.536 1.879 6.409 6.409 0 0 1-4.535-1.879 6.41 6.41 0 0 1-1.879-4.536l.028-.013Z"/><path d="M556.021 170.895c0-.083-.02-.167-.034-.247-.06-.372-.119-.745-.181-1.114-.164-.348-.348-.654-.512-.974a4.39 4.39 0 0 0-.605-3.576 4.383 4.383 0 0 0-7.645.68 4.389 4.389 0 0 0-.374 1.817 4.49 4.49 0 0 0 .536 2.134c-.254.205-.536.382-.801.577l-.104.091v.021a.193.193 0 0 0 0 .034.235.235 0 0 0 0 .053v.139c0 .035 0 .066.024.101 0 .038.028.076.046.115a.24.24 0 0 0 .031.062l.066.094.024.028c-.041.08-.198-.09-.236-.125l-.126-.08c-.149-.077-.285-.167-.428-.247h.021c-.118-.067-.243-.122-.365-.181a6.56 6.56 0 0 1-.599-2.743 6.418 6.418 0 0 1 3.96-5.926 6.418 6.418 0 0 1 6.99 1.391 6.403 6.403 0 0 1 1.39 2.081 6.4 6.4 0 0 1 .489 2.454 6.554 6.554 0 0 1-1.598 4.298c-.014-.309.031-.63.031-.957Z"/><path d="M553.136 172.454c-.021-.02.039-.167.052-.212.039-.167.067-.337.084-.508v.031c0-.156.021-.313.021-.473a4.467 4.467 0 0 0-.018-7.632c-.02-.167-.041-.348-.069-.498v-.077c0-.045-.018-.094-.025-.142a5.819 5.819 0 0 0-.121-.529c-.084-.272-.185-.54-.286-.808.32 0 .644.021.964 0h.025a6.547 6.547 0 0 1 3.676 4.583 6.563 6.563 0 0 1-1.473 5.688l-.16.017c-.227 0-.442.049-.669.052H554.678c-.195 0-.393.035-.585.063a2.026 2.026 0 0 0-.264.063.989.989 0 0 0-.174.066 2.003 2.003 0 0 0-.456.275l-.045.034-.018.007ZM334.748 168.567a16.396 16.396 0 0 1-1.918-3.132c-.94-1.831-1.862-3.672-2.68-5.569a95.191 95.191 0 0 1-6.017-18.943c-.839-4.681-1.636-9.397-2.141-14.116-.539-5.196-.518-10.441-.898-15.637-.09-1.392-.243-2.784.039-4.176.037-.207.086-.412.146-.613.056.219.132.432.195.651.696 2.506.518 5.172.818 7.736a189.754 189.754 0 0 0 3.48 26.103 156.361 156.361 0 0 0 4.789 16.907c1.294 3.62 2.784 7.194 4.176 10.761 0-.059.025 0 0 .018l.011.01ZM409.665 159.633a90.86 90.86 0 0 1-4.271-10.712c-1.235-4.246-2.683-8.457-3.48-12.811-1.162-7.549-2.015-15.164-2.186-22.803 0-1.608-.184-3.223-.073-4.827.052-.662.407-1.271.529-1.901.63 1.149.54 2.569.505 3.853-.035 1.966-.094 3.929-.049 5.892.068 3.723.325 7.44.769 11.137.394 3.48.696 6.961 1.441 10.382 1.438 5.788 3.042 11.565 5.276 17.099.874 2.154 1.807 4.301 2.851 6.379.811 1.611 1.876 3.153 2.544 4.81-1.626-1.935-2.757-4.232-3.856-6.498Z"/><path d="M399.735 106.774s.032 0 .035.025c.004.024 0 0 0 0v-.021c.05.546.064 1.095.042 1.642a6.624 6.624 0 0 1-.077-1.646ZM399.92 106.732h.041c.011 0 0 0 0 0 .009.175.009.349 0 .523a1.462 1.462 0 0 1-.041-.523Z"/><path d="M399.899 107.634c-.101-.178 0-.411.042-.602 0-.052.094-.035.076-.025h-.042a.88.88 0 0 0 0 .251.065.065 0 0 1 .02-.017.058.058 0 0 1 .051 0c.008.004.015.01.02.017.16-.139.264.251.139.31a.107.107 0 0 1-.076.06.11.11 0 0 1-.051-.001.114.114 0 0 1-.043-.024.105.105 0 0 1-.03.022.08.08 0 0 1-.037.009.06.06 0 0 1-.069 0Z"/><path d="M400.299 107.853a3.043 3.043 0 0 1-.216-.616c-.002.007-.007.012-.012.017a.034.034 0 0 1-.019.007.054.054 0 0 1-.049 0c-.021.039-.042.094-.09.094h-.021c0 .028-.028 0-.028-.041 0-.042 0-.056.028-.049a.225.225 0 0 1 .062-.143h.032c.177-.463.264.62.316.728v.034l-.003-.031Z"/><path d="M399.937 109.224c.008.087.008.175 0 .261a19.35 19.35 0 0 1-.289-3 .13.13 0 0 1-.003-.052.128.128 0 0 1 .02-.05.13.13 0 0 1 .088-.054c.016 0 .033.004.047.011a.107.107 0 0 1 .06.075.106.106 0 0 1 0 .05c.032 1.012.073 2.088.115 3.062a3.135 3.135 0 0 0-.038-.303Z"/><path d="M399.69 106.367c.084 1.092.106 2.188.066 3.282a14.645 14.645 0 0 1-.066-3.282ZM399.888 107.742a.093.093 0 0 1-.036-.035.085.085 0 0 1-.012-.049c0-.369-.025-.738-.032-1.103.101-.188.261-.056.227.143.066-.059.153 0 .177.076a.07.07 0 0 1 .045 0 .104.104 0 0 1 .024-.023.096.096 0 0 1 .032-.012.069.069 0 0 1 .035.003c.012.004.022.01.031.018.101-.073.111.115.07.171a.14.14 0 0 1 0 .195V107.418a1.86 1.86 0 0 1-.063-.285.07.07 0 0 1-.032-.006.058.058 0 0 1-.027-.019.249.249 0 0 1-.025-.052.075.075 0 0 1-.055 0 .102.102 0 0 1-.035.063.11.11 0 0 1-.066.028v.041a.11.11 0 0 1-.042.049c0 .101.038.272-.097.299 0 .067 0 .216-.091.216a.048.048 0 0 1-.028-.01ZM321.154 222.832a56.414 56.414 0 0 1 0-8.701 87.494 87.494 0 0 1 4.294-25.058c1.74-5.433 3.48-10.88 5.955-16.037.947-1.838 1.66-4.413 3.616-5.263-.348.522-.452 1.187-.696 1.765-.769 1.681-1.765 3.261-2.586 4.921a83.662 83.662 0 0 0-3.922 9.376c-3.334 9.049-5.826 18.446-6.139 28.11-.08 2.586-.275 5.176-.105 7.758a31.87 31.87 0 0 0 .543 4.792c.134.541.204 1.096.209 1.653-.526-1.061-1.121-2.136-1.169-3.316ZM335.023 167.739h-.025a.036.036 0 0 1 .025 0Z"/><path d="M335.023 167.568a14.333 14.333 0 0 1-2.632 4.956 13.74 13.74 0 0 1 2.632-4.956ZM335.009 167.565v.004h-.004l.004-.004ZM324.084 192.703a.074.074 0 0 1 0 .021v-.021ZM326.123 186.066c.422-1.149.839-2.318 1.316-3.442.386-.78.905-1.542 1.315-2.28-.386 2.245-1.287 4.305-2.199 6.376-.821 1.987-1.58 4.009-2.464 5.965.47-2.244 1.277-4.437 2.032-6.619Z"/><path d="M332.739 169.959c.453-.814.909-1.632 1.393-2.436.066-.112.268-.153.348-.045a.148.148 0 0 1 .243.09c0 .118-.08.219-.125.324-.164.216-.56 1.242-.867 1.044-1.82 2.739-2.961 5.889-4.301 8.84a57.835 57.835 0 0 1 3.309-7.817ZM321.978 226.117c0-.083-.038-.17-.062-.254h-.049c-.143.118-.324-.028-.317-.188-.153-.101-.094-.296-.108-.445-.013-.15-.059-.47.195-.495.251-.212.449.129.519.348.07.22.285.606-.038.721 0 .066.066.223-.032.233-.045-.038-.055-.118-.097-.17h-.028c0 .076.045.205 0 .257l.017-.007ZM400.229 226.184a3.865 3.865 0 0 1-.094-.349h.133a.296.296 0 0 0 .094 0c-.043.127-.094.25-.153.37l.02-.021ZM400.323 225.654h-.045a.148.148 0 0 0 0-.042.097.097 0 0 0 0-.034.29.29 0 0 1 0-.059v-.178l-.021-.07a.339.339 0 0 0 0-.09.726.726 0 0 1 0-.066 1.601 1.601 0 0 1 0-.098v-.257a1.164 1.164 0 0 0 0-.167c0-.042 0-.084-.017-.126v-1.204a2.18 2.18 0 0 0 0-.198v-.15a.451.451 0 0 0 0-.09.262.262 0 0 0 0-.056c.035-.125.073-.25.115-.376a5.384 5.384 0 0 1 .236 3.338.135.135 0 0 0-.012-.106.14.14 0 0 0-.189-.054.142.142 0 0 0-.067.083Z"/><path d="M400.497 225.905c-.062-.031-.121-.049-.142-.08a.101.101 0 0 0 .045-.032l.104-.017a2.256 2.256 0 0 1-.08-1.392c.171.198.669 1.57.247 1.57a.445.445 0 0 1-.174-.049Z"/><path d="M400.431 225.745v-.028a.055.055 0 0 0 0-.031 3.614 3.614 0 0 1-.059-1.42c.127.495.156 1.01.087 1.517l-.028-.038Z"/><path d="M400.553 225.835a6.466 6.466 0 0 1-.077-2.61c.209.821.094 1.74.084 2.596l-.007.014Z"/><path d="M400.348 223.399a4.3 4.3 0 0 1 0 2.224 3.525 3.525 0 0 1 0-2.224Z"/><path d="M400.358 225.654c-.205-.79-.348-1.646.073-2.38a2.973 2.973 0 0 1 0 2.436.083.083 0 0 0-.073-.056ZM400.344 225.835a.105.105 0 0 0 0 .025.055.055 0 0 0 .007-.025h-.007Z"/><path d="M400.323 225.654a35.162 35.162 0 0 1-.247-2.405 1.635 1.635 0 0 0 0-.198v-.15a.676.676 0 0 0 0-.09.69.69 0 0 0 0-.091v-.101a.61.61 0 0 0-.024-.111c-.164-3.251.038-6.532.143-9.776.118-3.167 0-6.341.275-9.498.41-5.011 1.792-9.88 3.278-14.662 1.674-5.356 3.752-10.619 6.522-15.509 1.103-1.882 2.165-3.873 3.581-5.516-1.131 2.496-2.749 4.733-4.012 7.166a89.292 89.292 0 0 0-6.091 15.223c-1.044 3.442-2.057 6.926-2.548 10.493-.508 3.386-.435 6.797-.438 10.204 0 2.524-.157 5.043-.212 7.566-.056 2.524-.025 5.012-.164 7.473l-.063-.018Z"/><path d="M400.821 203.596a.261.261 0 0 1-.234-.08.26.26 0 0 1-.058-.24c.062-.661.184-1.312.285-1.966.237-1.347.397-2.75.961-4.006 0-.025.038-.035.059 0 .021.035 0 0 0 0a2.609 2.609 0 0 0-.219.859c.055-.181.201-.32.386-.132.101.192 0 .435-.031.641-.237 1.527-.55 3.045-.804 4.566-.275 2.088-.418 4.211-.742 6.264.053-1.994.216-3.946.397-5.906ZM400.205 226.033v-.198h.038l-.031.195-.007.003ZM400.271 225.602a.121.121 0 0 0 0-.038v-.16a.788.788 0 0 0 0-.119l-.021-.069a.347.347 0 0 0 0-.091v-.038a28.916 28.916 0 0 1 .167-3.355 20.49 20.49 0 0 1-.083 3.86l-.063.01Z"/><path d="M400.424 224.589c.074.226.117.46.129.696 0 .025 0 .094-.024.112-.025.017 0 .048 0 .073 0 .024 0 0 0 0s-.035 0-.049-.07c-.014-.069 0-.09 0-.083a.127.127 0 0 1 0-.039c0-.038-.017-.076-.024-.115 0 .181 0 .369.024.547v-.017c0 .017 0 .045-.024.045.017-.115-.254-1.274-.032-1.149Z"/><path d="M400.497 225.592c-.076 0-.024.152-.055.163.01-.045-.028-.156.055-.163ZM400.612 224.791c-.024.136.063.349.032.474-.021-.125-.105-.449-.032-.474ZM400.452 224.586v.08c0 .084 0 .164.021.247a.958.958 0 0 1 0 .262c-.049-.14-.129-.519-.021-.589Z"/><path d="M400.452 224.791a.17.17 0 0 0 0 .045c.026.207.026.417 0 .623-.028-.215-.111-.522 0-.668ZM400.257 225.533c0-.181 0-.46.122-.543-.069.149-.045.407-.111.568l-.011-.025Z"/><path d="M400.383 225.986a.086.086 0 0 1 0-.032.266.266 0 0 1-.039-.125h.035a.085.085 0 0 0 .062-.094.085.085 0 0 0-.027-.054.088.088 0 0 0-.056-.023.47.47 0 0 1 .091-.188c0-.021 0-.032.028 0 .202-.052.167.209.136.331-.032.122-.056.237-.143.237a.11.11 0 0 1-.05-.016.106.106 0 0 1-.037-.036ZM400.146 224.095c.034-.428.096-.854.184-1.274a.213.213 0 0 1 .136-.177c0-.035.042-.063 0 0 .418-.025.191.567.205.818-.059.254 0 .664-.295.783h-.049a.218.218 0 0 1-.114-.047.215.215 0 0 1-.067-.103Z"/><path d="M400.142 222.762c.084 1.044.084 2.141.185 3.132a8.946 8.946 0 0 1-.185-3.132ZM400.344 225.532c0 .133.049.349.035.457a.921.921 0 0 1-.035-.457Z"/><path d="M400.316 225.487c.023.153.038.306.046.46a.997.997 0 0 1-.046-.46ZM400.362 225.418c.036.177.053.359.048.54a1.427 1.427 0 0 1-.048-.54Z"/><path d="M400.355 225.487c0 .122.094.286.066.384a.696.696 0 0 1-.066-.384Z"/><path d="M400.452 225.864c-.048-.091-.136-.293-.083-.37.024.112.115.23.097.349l-.014.021ZM400.33 225.487c0 .122.115.307.06.436-.07-.087-.126-.356-.06-.436ZM400.88 225.595c0 .101.039.241 0 .328a.35.35 0 0 1 0-.328ZM400.852 223.295c.168.957.268 1.924.3 2.895a13.675 13.675 0 0 1-.3-2.895Z"/><path d="M401.016 225.188c.065.287.088.583.069.877a4.296 4.296 0 0 1-.069-.877ZM321.71 226.771v-.978h51.443c1.877.038 3.751.07 5.624.098h1.225a.554.554 0 0 1-.049-.101h21.07v.978l-79.313.003ZM374.277 168.115h.042c.266-.042.534-.067.804-.077l.793-.049 1.611-.09.467-.028 2.815-.198c2.114-.151 4.227-.293 6.338-.425l1.559-.098h25.271v.978l-39.7-.013Z"/><path d="M342.728 168.114a.542.542 0 0 1-.063-.146c-.296.052-.595.101-.894.146h-7.096v-.977h58.51l.039.024.045-.024h2.346c-.293.156-.596.302-.895.452l-.752.376.216.069h-.348l-.167.08h-50.941Z"/><path d="M406.327 168.115c.167-.039.348-.074.508-.105.383-.073.769-.118 1.155-.177l.599-.087a.665.665 0 0 1 .219-.373c-.824.021-1.649 0-2.474 0-1.866-.028-3.731-.066-5.596-.073-1.741 0-3.519.021-5.28.063-1.904.045-3.808.087-5.711.104-1.74.021-3.501.035-5.249 0-.974-.016-1.951-.038-2.93-.066-.919-.024-1.834-.073-2.753-.115a301.437 301.437 0 0 0-4.03-.156h39.192v.978l-7.65.007ZM334.675 168.114v-.977h.897c0 .055 0 .107-.027.16 0 .107-.032.212-.053.316.728-.066 1.459-.142 2.19-.205.845-.073 1.698-.132 2.547-.198l.929-.073h23.437c-1.472.062-2.945.125-4.417.215-1.869.112-3.738.247-5.603.387-1.785.128-3.567.257-5.349.375h-14.551Z"/><path d="m411.533 168.114 1.222-.33c.348-.087.665-.178 1.002-.237l.209-.035v.234c-.348.08-.696.184-1.065.288l-.282.084-1.086-.004ZM409.936 168.114l.087-.055c.167-.105.348-.202.505-.303h-.032a4.57 4.57 0 0 0 .414-.275l.039-.038a.695.695 0 0 0 .08-.091l.031-.052a.407.407 0 0 0 .042-.08.121.121 0 0 1 0-.038v-.063h.372v.087a.592.592 0 0 1-.024.192 1.227 1.227 0 0 1-.202.396 1.58 1.58 0 0 1-.289.265l-.052.038-.971.017ZM413.969 168.062c-.065.005-.13.005-.194 0 .067 0 .134-.006.201-.017v.035l-.007-.018ZM348.122 106.976c-.32-.122-.633-.254-.943-.39.62-.232 1.253-.425 1.897-.577h35.151v.031h.223l.696-.024h15.567v.978l-52.591-.018Z"/><path d="M320.823 106.976v-.978h33.571a.82.82 0 0 1 .261.634l.748.038c.526.031 1.044.062 1.563.143.309.045.619.093.929.163h-37.072ZM176.084 88.482V88.92a.198.198 0 0 1 0 .049v.042a.517.517 0 0 0 0 .056v.118a.978.978 0 0 0 0 .076 1.162 1.162 0 0 0 0 .084.631.631 0 0 1 0 .087v.184a15.107 15.107 0 0 0 8.242 12.32v.001l.066.034.066.035.063.032h.017l.063.027.062.028.063.028.063.028h.017l.063.028.066.031.376.16.052.025h.031l.045.017h.08l.046.021H186.108l.055.017h.028l.059.021h.028l.066.021h.021l.073.021.174.056.08.024.077.024.073.021.069.021h.199l.066.021h.021l.066.017H187.378l.063.018h.368l.084.021.459.094H191.231a15.11 15.11 0 1 0-5.861-29.06 15.109 15.109 0 0 0-9.31 13.955l.024.759Zm-.41 0a15.598 15.598 0 0 1 9.588-14.456 15.599 15.599 0 0 1 21.31 11.325 15.607 15.607 0 0 1-6.614 16.035 15.607 15.607 0 0 1-8.672 2.639 15.57 15.57 0 0 1-15.612-15.526v-.017ZM209.732 86.717c-.484-.838-.136-1.778.47-2.436 1.176-1.514 3.737-.383 3.581 1.48a2.149 2.149 0 0 1-2.21 2.056 2.025 2.025 0 0 1-1.841-1.1ZM555.384 168.09c.026-.202.038-.405.039-.609v-.348h25.796v.971l-25.835-.014ZM518.462 168.09a.548.548 0 0 1 .031-.097c.163-.361.43-.665.766-.874h27.425v.348c0 .204.013.407.038.609l-28.26.014Z"/><path d="M555.384 168.09c.026-.202.038-.405.039-.609v-.348h25.792v.971l-25.831-.014Z"/><path d="M555.384 168.09c.026-.202.038-.405.039-.609v-.348h25.796v.929h-3.978l-21.857.028ZM449.817 168.09v-.143a4.9 4.9 0 0 0-.073-.828h96.94v.348c0 .204.013.407.038.609l-96.905.014ZM264.637 168.09c0-.247.021-.494.021-.745v-.226h9.898a4.044 4.044 0 0 0 0 .971h-9.919ZM190.66 168.087v-.411c0-.187-.011-.374-.032-.56h44.162v.971h-44.13ZM163.339 168.087a4.011 4.011 0 0 1 2.022-.731 17.647 17.647 0 0 1 3.032-.063c.55.028 1.099.042 1.653.056h.498c3.351-.045 6.703-.115 10.054-.181 0 .16-.024.324-.024.491v.41l-17.235.018Z"/><path d="M190.66 168.09v-.414c0-.187-.011-.374-.032-.56h11.527l1.128.066c3.647.205 7.308.348 10.959.529 1.552.069 3.101.156 4.657.219l4.176.16H190.66ZM154.834 168.09v-.974h25.754c0 .184-.032.372-.032.557 0 .139.007.278.021.417h-25.743ZM126.264 168.09v-.974h2.029v.974h-2.029ZM449.817 168.09v-.143a4.9 4.9 0 0 0-.073-.828h55.068a2.102 2.102 0 0 1-.619.4 4.612 4.612 0 0 1-1.646.348c-.495 0-.985 0-1.483.018-3.198.055-6.4.136-9.602.209l-41.645-.004ZM264.637 168.09c0-.247.021-.494.021-.745v-.226h9.898a4.044 4.044 0 0 0 0 .971h-9.919Z"/><path d="M224.38 168.087h-.031a3524.75 3524.75 0 0 0-26.248-.599 1535.48 1535.48 0 0 0-7.417-.129c0-.08 0-.16-.021-.243h44.127v.971h-10.41ZM190.66 168.087v-.181l4.047.181h-4.047ZM154.834 168.087V167.116h25.754v.121l-7.076-.045h-1.291a.575.575 0 0 1-.042.077l5.35.153c1.016.028 2.03.061 3.041.101v.567l-25.736-.003ZM126.26 168.087v-.971h2.033V168.087h-2.033Z"/><path d="M180.577 167.673a5.055 5.055 0 0 0 3.12 4.663 5.05 5.05 0 1 0-1.642-8.237 5.05 5.05 0 0 0-1.478 3.574Zm-3.741.045a8.7 8.7 0 0 1 10.413-8.506 8.706 8.706 0 0 1 4.449 2.386 8.708 8.708 0 0 1 1.875 9.479 8.7 8.7 0 0 1-8.036 5.366 8.724 8.724 0 0 1-8.701-8.729v.004ZM142.165 179.439c4.563-.181 8.527-2.436 10.758-5.711.237 0 .47-.021.696-.035.442-.041.884-.097 1.322-.167.439-.069.919-.233 1.375-.376.251-.1.498-.201.745-.309.247-.108.539-.296.804-.46.264-.163.487-.348.72-.55.167-.16.327-.32.484-.483.157-.164.327-.404.48-.613.213-.33.408-.668.595-1.013.122-.292.241-.581.348-.877l.178-.654c.066-.379.125-.759.174-1.145.049-.386.07-.696.09-1.044v-1.323c.204.939.306 1.897.307 2.858a13.241 13.241 0 0 1-12.588 13.247c-2.25.113-4.491-.35-6.512-1.345h.024Z"/><path d="m160.085 171.911-.125-.146-.191-.219a38.706 38.706 0 0 1-.811-.915 39.627 39.627 0 0 1-3.731-4.956 49.353 49.353 0 0 0-.839-1.201c-1.486-4.931-6.432-8.593-12.362-8.77a13.26 13.26 0 0 1 14.869 2.006 13.263 13.263 0 0 1 3.49 14.591 19.183 19.183 0 0 0-.3-.39Z"/><path d="M154.844 167.572c0-6.422-5.697-11.652-12.818-11.868a13.254 13.254 0 0 1 14.12 1.357l.16.348c.47 1.075.756 2.22.845 3.39.116 1.181.122 2.371.018 3.553a16.448 16.448 0 0 1-.564 3.213 17.03 17.03 0 0 1-1.319 3.323 19.146 19.146 0 0 1-1.646 2.496 16.37 16.37 0 0 1-3.571 3.32c2.934-2.186 4.775-5.464 4.775-9.132Z"/><path d="M154.712 175.952a13.184 13.184 0 0 1-1.521-.212l.181.035-.522-.094c-.442-.084-.884-.16-1.323-.254a11.14 11.14 0 0 0 3.317-7.852 10.954 10.954 0 0 0-2.287-6.665c.221-.382.491-.733.804-1.044a4.88 4.88 0 0 1 4.01-1.364c.135.016.27.039.403.07a13.273 13.273 0 0 1 .944 16.799 3.897 3.897 0 0 1-.63-.024l-.227.1a6.811 6.811 0 0 1-2.634.54c-.171-.014-.345-.021-.515-.035Z"/><path d="M126.305 168.09v-.957h35.172l-.205.122-.348.205c-.219.132-.435.275-.654.407h.028l-.394.244-33.599-.021ZM160.389 167.798l-.081.049.081-.049Z"/><path d="M125.456 170.001c-3.32-.369-2.76-5.221.554-4.827a2.432 2.432 0 0 1 1.962 2.67 2.437 2.437 0 0 1-2.516 2.157ZM210.247 179.62c-1.639-.992-.996-3.424.832-3.692a1.965 1.965 0 0 1 2.147 1.392c.525 1.684-1.497 3.247-2.979 2.3ZM232.768 137.387c-3.202-1.392-1.438-6.317 1.9-5.071 3.508 1.25 1.563 6.369-1.9 5.071ZM267.773 126.549c-5.718-.734-5.492-9.233.348-9.431 6.633.188 6.372 9.898-.348 9.431ZM305.255 188.746c-2.895-3.463 2.673-7.528 5.043-3.578 1.671 3.271-2.516 6.153-5.043 3.578ZM309.23 145.955c-3.411-.24-2.248-5.331.915-4.002 2.106.821 1.316 4.128-.915 4.002ZM313.869 126.09c-5.415-1.34-3.48-8.941 1.845-7.657 4.904 1.5 3.254 8.889-1.845 7.657ZM421.299 148.071c-3.438-.532-5.119-4.841-2.847-7.51 1.848-2.311 5.725-2.088 7.361.348 1.197 1.657 1.142 4.068-.404 5.492a4.176 4.176 0 0 1-4.11 1.67ZM425.347 152.551a.595.595 0 0 0-.133-.435.74.74 0 0 1 .133.435Zm-2.837.348c-.487-2.544 3.014-3.411 3.926-1.044.894 2.714-3.258 3.744-3.926 1.037v.007ZM459.878 172.176c-2.826-2.29-2.965-7.215.077-9.397 4.587-3.317 11.272 2.001 8.916 7.208-1.448 3.424-6.174 4.629-8.993 2.189ZM464.364 188.422c-2.304-1.392-1.044-4.639 1.448-4.684a2.4 2.4 0 0 1 2.252 1.855c.647 2.119-1.834 4.005-3.7 2.829ZM483.12 171.195c-2.21-1.045-2.955-3.937-1.393-5.83 1.981-2.492 6.463-.856 6.724 2.196.334 2.896-2.801 4.907-5.331 3.634ZM501.607 184.524a3.248 3.248 0 0 1-2.342-3.181c-.052-2.394 2.92-3.967 4.872-2.641 3.132 1.997 1.02 6.762-2.53 5.822ZM565.766 171.835c-4.04-1.236-4.622-6.978-.856-8.941 2.739-1.517 6.898.372 7.218 3.571.212 3.484-2.913 6.47-6.362 5.37ZM579.315 169.802c-2.555-1.66-.665-5.439 2.217-4.642 3.724 1.322 1.239 6.595-2.217 4.642ZM287.69 89.957c1.573-3.48 4.302-6.365 7.177-8.832h-.018c6.265-5.437 13.922-8.959 21.871-11.197.657-.191 1.35-.424 1.994-.57-4.177 1.639-8.377 3.316-12.449 5.24a56.648 56.648 0 0 0-11.858 8.075l.021-.02c-2.436 2.237-4.931 4.503-6.734 7.287l-.004.017ZM536.128 155.342a2.177 2.177 0 0 1 .538-1.7 2.175 2.175 0 0 1 1.623-.736 2.126 2.126 0 0 1 2.071 2.627c-.602 2.182-3.887 2.148-4.232-.191Z"/><path d="M538.046 154.785h-39.345v.606h39.345v-.606Z"/><path d="M497.956 158.519c-2.363-.25-3.828-2.697-3.244-4.942a3.907 3.907 0 0 1 7.386-.529c1.159 2.746-1.142 5.913-4.142 5.471ZM234.264 167.366a15.468 15.468 0 0 1 13.153-15.305 15.462 15.462 0 0 1 17.088 10.736 20.479 20.479 0 0 0-.317-.749 21.044 21.044 0 0 0-.825-1.5c-.296-.49-.696-.995-1.079-1.468-.181-.209-.348-.411-.557-.609a14.922 14.922 0 0 0-16.386-5.399 14.922 14.922 0 0 0-10.534 13.664v1.302a.409.409 0 0 1 0 .07v.031l.021.348v.09a14.934 14.934 0 0 0 7.229 11.59 14.925 14.925 0 0 0 7.649 2.105h.697a14.802 14.802 0 0 0 7.461-2.401l.216-.063c.348-.128.717-.271 1.069-.424.285-.146.563-.3.838-.46a15.457 15.457 0 0 1-16.597 2.536 15.459 15.459 0 0 1-9.126-14.094Z"/><path d="M253.013 182.21a6.36 6.36 0 0 1-.933-.105 14.826 14.826 0 0 0 6.07-2.436l.059-.042.062-.041c.216-.15.429-.31.637-.474l.053-.038.048-.038v-.018l.046-.035.024-.017.038-.031.025-.025.041-.031h.021l.045-.038.046-.039.048-.041.227-.199a.256.256 0 0 0 .048-.045l.046-.042.045-.038.042-.038.021-.021.038-.038.045-.042h.017l.042-.042.038-.042.025-.021.038-.038c.111-.111.223-.223.331-.348l.048-.049.046-.048.045-.049.045-.049.045-.049.042-.048.042-.049.049-.052.048-.059.303-.348.098-.122.045-.059.045-.059c.018-.021.031-.042.049-.06a14.92 14.92 0 0 0 3.038-8.352.989.989 0 0 1 0-.077.409.409 0 0 1 0-.07v-.529a14.935 14.935 0 0 0-14.144-14.923c.106-.176.222-.346.348-.508a15.484 15.484 0 0 1 3.324 30.278c-.289.025-.581.042-.87.042.219-.351.122-.351.021-.358ZM242.666 181.12a15.157 15.157 0 0 1-1.96-1.225l.505-.296a14.832 14.832 0 0 0 2.829 1.549c-.469-.003-.922-.021-1.374-.028Z"/></g><path fill="#080F24" d="M235 324h233v30H235z"/><path fill="#fff" d="M284.825 357.947c3.964 0 7.166-.781 9.605-2.344l.4.457c-3.278 4.536-7.356 7.052-12.235 7.547a24.845 24.845 0 0 1-2.687.172c-.724 0-1.581-.039-2.572-.115-.953-.038-2.306-.286-4.06-.743-1.753-.457-3.297-.934-4.631-1.429-1.334-.458-2.877-1.087-4.631-1.887-1.753-.762-3.201-1.448-4.345-2.058a252.612 252.612 0 0 1-4.116-2.116c-1.563-.8-2.935-1.486-4.116-2.058a42.281 42.281 0 0 0-3.431-1.486c-3.125-1.258-6.327-1.887-9.605-1.887v-.572h.743c.991 0 1.83-.343 2.516-1.029.724-.686 1.105-1.543 1.143-2.573v-31.673c-.038-1.029-.419-1.887-1.143-2.573-.686-.686-1.525-1.029-2.516-1.029h-.743v-.572h17.381l-.058.572h-.571c-1.449 0-2.535.591-3.259 1.772-.343.534-.515 1.144-.515 1.83v33.16c0 1.258.248 2.134.744 2.63a4.334 4.334 0 0 0 1.658.972c14.331 4.688 24.679 7.032 31.044 7.032Zm-21.282-8.519c.991 0 1.83-.343 2.516-1.029.724-.724 1.105-1.582 1.143-2.573v-31.73a3.532 3.532 0 0 0-1.143-2.516c-.686-.686-1.525-1.029-2.516-1.029h-.743v-.572h17.38l-.057.572h-.686c-.991 0-1.848.343-2.573 1.029-.724.686-1.086 1.525-1.086 2.516v31.73c0 .991.362 1.849 1.086 2.573a3.617 3.617 0 0 0 2.573 1.029h.686l.057.572H262.8v-.572h.743Zm42.293-37.105v33.561c.038.991.4 1.829 1.086 2.515a3.615 3.615 0 0 0 2.573 1.029h.686l.057.572h-17.38v-.572h.743c.953 0 1.772-.343 2.458-1.029.725-.686 1.125-1.505 1.201-2.458v-33.618h-7.718c-1.753.039-3.145.591-4.174 1.658-1.029 1.068-1.543 2.459-1.543 4.174v.686h-.572v-9.948c.533.229 1.486.458 2.858.686 1.411.229 2.707.343 3.888.343h23.041c1.867-.038 3.392-.19 4.573-.457 1.182-.267 1.906-.458 2.173-.572v9.948h-.572v-.686c0-1.715-.514-3.106-1.543-4.174-1.03-1.067-2.421-1.619-4.174-1.658h-7.661Zm30.073 19.153v14.35c0 .991.363 1.849 1.087 2.573a3.613 3.613 0 0 0 2.572 1.029h.687l.057.572h-17.381v-.572h.744c.991 0 1.829-.343 2.515-1.029.724-.724 1.105-1.582 1.144-2.573v-31.845c-.077-.952-.477-1.753-1.201-2.401-.686-.686-1.506-1.029-2.458-1.029h-.744v-.572h21.897c1.677 0 3.145-.133 4.403-.4 1.257-.267 2.077-.476 2.458-.629v9.662h-.572v-.571c0-2.287-.857-3.907-2.573-4.86-.8-.457-1.753-.705-2.858-.743h-9.777v16.637h16.466c1.41-.038 2.573-.515 3.488-1.429.914-.953 1.372-2.116 1.372-3.488v-.514h.571v13.206h-.571v-.457c0-1.41-.458-2.573-1.372-3.488-.877-.914-2.001-1.391-3.374-1.429h-16.58Zm25.173 17.952c.991 0 1.83-.343 2.516-1.029.724-.724 1.105-1.582 1.143-2.573v-31.845c-.114-1.334-.743-2.325-1.886-2.972a3.723 3.723 0 0 0-1.773-.458h-.743v-.572h21.897c1.181 0 2.477-.114 3.888-.343 1.41-.228 2.401-.457 2.973-.686v10.005h-.572v-.686c0-1.715-.515-3.087-1.544-4.116-.991-1.067-2.344-1.639-4.059-1.715h-9.605v16.637h7.547c1.41-.038 2.573-.515 3.487-1.429.915-.953 1.372-2.116 1.372-3.488v-.514h.572v13.206h-.572v-.457c0-1.906-.762-3.316-2.286-4.231a5.638 5.638 0 0 0-2.516-.686h-7.604v16.066h7.49c2.782 0 5.107-.801 6.975-2.402 1.905-1.6 3.316-3.868 4.23-6.803h.572L389.954 350h-29.615v-.572h.743Zm35.782-4.745c0-2.744.591-5.088 1.772-7.032h.515c-.038.305-.057.61-.057.915 0 2.629.934 4.935 2.801 6.917 1.906 1.944 4.498 2.916 7.776 2.916 2.553 0 4.535-.61 5.945-1.829 1.449-1.22 2.173-2.764 2.173-4.631 0-2.249-1.525-4.212-4.574-5.889l-9.948-6.575c-1.982-1.143-3.411-2.515-4.288-4.116-.838-1.639-1.257-3.297-1.257-4.974 0-3.583 1.124-6.346 3.373-8.29 2.287-1.944 5.202-2.916 8.747-2.916 2.096 0 4.688.191 7.776.572h3.601l-.743 8.404h-.572c0-1.982-.743-3.564-2.229-4.745-1.449-1.22-3.393-1.83-5.832-1.83-2.973 0-5.126.915-6.46 2.745a4.695 4.695 0 0 0-1.029 2.972c0 1.83 1.334 3.526 4.002 5.089l10.92 7.089c3.43 1.982 5.145 4.898 5.145 8.748 0 4.078-1.391 7.203-4.174 9.376-2.744 2.134-6.403 3.201-10.977 3.201-2.591 0-4.993-.305-7.203-.914-2.173-.648-3.774-1.506-4.803-2.573-.267-.724-.4-1.601-.4-2.63Zm53.578-32.36v33.561c.038.991.4 1.829 1.086 2.515a3.615 3.615 0 0 0 2.573 1.029h.686l.057.572h-17.381v-.572h.744c.953 0 1.772-.343 2.458-1.029.724-.686 1.124-1.505 1.201-2.458v-33.618h-7.719c-1.753.039-3.144.591-4.173 1.658-1.029 1.068-1.544 2.459-1.544 4.174v.686h-.572v-9.948c.534.229 1.487.458 2.859.686 1.41.229 2.706.343 3.888.343h23.04c1.868-.038 3.392-.19 4.574-.457s1.906-.458 2.173-.572v9.948h-.572v-.686c0-1.715-.515-3.106-1.544-4.174-1.029-1.067-2.42-1.619-4.173-1.658h-7.661Z"/><defs><clipPath id="clip0_523_2648"><path fill="#fff" d="M44 26h615v271.498H44z"/></clipPath></defs></svg>