<svg xmlns="http://www.w3.org/2000/svg" width="46" height="42" fill="none" viewBox="0 0 46 42"><path fill="#FED395" d="m18.881 14.366-6.026-3.154 5.479 5 .547-1.846ZM12.658 11.392l3.454 5.502 2.022-.502-5.476-5ZM27.994 16.212l5.476-5-6.027 3.154.55 1.846ZM21.654 15.52l1.367-.34V1.406L19.207 14.24l2.447 1.28ZM18.206 16.64l-1.95.483 1.227 1.954.723-2.437ZM24.674 15.52l2.443-1.28-3.814-12.834V15.18l1.37.34ZM23.5 20.674h4.18l-1.523-2.425-2.657 2.425ZM15.978 17.191 1.915 20.674h15.092l.372-1.249-1.401-2.234ZM28.163 20.674h.866l-.278-.937-.588.937ZM17.295 20.674h.867l-.589-.937-.278.937ZM18.647 20.674h4.177l-2.657-2.425-1.52 2.425ZM28.648 19.388l-.798-2.682-1.487 1.357 1.559 2.482.726-1.157ZM30.212 16.894l3.455-5.502-5.476 5 2.021.502ZM18.603 16.277l2.67-.663-2.141-1.116-.529 1.78ZM23.303 16.237l1.026-.537-1.026-.254v.791ZM25.055 15.614l2.666.663-.529-1.78-2.137 1.117ZM28.845 19.077l1.226-1.954-1.952-.483.726 2.437ZM26.163 17.88l1.49-1.357-2.942-.729-1.267.663 2.72 1.423ZM28.948 19.425l.372 1.249h15.09L30.35 17.19l-1.402 2.234ZM25.96 18.068l-2.657-1.39v3.816l2.657-2.426ZM20.161 17.88l2.72-1.423-1.268-.663-2.938.729 1.486 1.357ZM18.406 20.545l1.558-2.482-1.49-1.357-.794 2.682.726 1.157ZM23.021 16.677l-2.656 1.391 2.656 2.426v-3.817ZM21.998 15.7l1.023.537v-.791l-1.023.254ZM22.824 20.93h-4.177l1.52 2.426 2.657-2.425ZM18.162 20.93h-.867l.278.938.589-.937ZM17.483 22.528l-1.227 1.954 1.95.483-.723-2.437ZM30.35 24.413l14.06-3.482H29.32l-.372 1.248 1.402 2.234ZM27.443 27.238l6.027 3.154-5.476-4.999-.551 1.845ZM27.68 20.93H23.5l2.657 2.426 1.523-2.425ZM17.007 20.93H1.915l14.063 3.483 1.402-2.234-.373-1.248ZM16.112 24.71l-3.454 5.502 5.476-4.999-2.022-.503ZM24.674 26.084l-1.371.337V40.2l3.814-12.835-2.444-1.28ZM18.334 25.393l-5.48 5 6.027-3.155-.547-1.845ZM21.654 26.084l-2.447 1.28 3.814 12.835V26.421l-1.367-.337ZM29.03 20.93h-.867l.588.938.278-.937ZM17.68 22.216l.795 2.683 1.49-1.357-1.56-2.483-.725 1.157ZM20.365 23.536l2.656 1.388v-3.813l-2.656 2.425ZM24.711 25.81l2.942-.728-1.49-1.36-2.72 1.425 1.268.663ZM23.303 24.924l2.657-1.388-2.657-2.425v3.813ZM27.922 21.06l-1.559 2.482 1.487 1.357.798-2.683-.726-1.157ZM28.119 24.965l1.952-.483-1.226-1.954-.726 2.437ZM24.33 25.904l-1.027-.537v.791l1.026-.254ZM33.667 30.212l-3.455-5.502-2.021.503 5.476 5ZM27.721 25.327l-2.666.66 2.137 1.12.53-1.78ZM21.613 25.81l1.268-.663-2.72-1.425-1.486 1.36 2.938.728ZM21.272 25.987l-2.669-.66.529 1.78 2.14-1.12ZM23.021 25.367l-1.023.537 1.023.255v-.792Z"/><path fill="#080F24" d="m23.24 41.261 4.068-13.712 6.884 3.597a.153.153 0 0 0 .167-.022.124.124 0 0 0 .04-.072.118.118 0 0 0-.016-.08l-3.94-6.285 15.02-3.713a.142.142 0 0 0 .076-.046.121.121 0 0 0 .03-.079.121.121 0 0 0-.03-.078.142.142 0 0 0-.076-.046l-15.02-3.714 3.94-6.284a.118.118 0 0 0 .015-.08.125.125 0 0 0-.04-.072.153.153 0 0 0-.167-.022l-6.883 3.596L23.24.483a.129.129 0 0 0-.05-.07.15.15 0 0 0-.172 0 .128.128 0 0 0-.05.07L18.9 14.195l-6.884-3.597a.152.152 0 0 0-.167.022.119.119 0 0 0-.024.152l3.94 6.285L.77 20.747a.142.142 0 0 0-.076.047.121.121 0 0 0-.029.078c0 .028.01.056.03.079a.142.142 0 0 0 .075.045l15.02 3.714-3.94 6.285a.118.118 0 0 0-.015.08.125.125 0 0 0 .04.072.153.153 0 0 0 .167.022l6.883-3.597 4.068 13.712a.128.128 0 0 0 .05.07.15.15 0 0 0 .172 0 .129.129 0 0 0 .05-.07l-.025-.023Zm6.772-24.067-1.227 1.951-.723-2.436 1.95.485Zm-5.007-1.508 2.14-1.12.53 1.78-2.67-.66Zm2.597.908-1.496 1.357-2.722-1.428 1.267-.663 2.951.734Zm-3.332-.823-1.027.537v-.78l1.027.243Zm-1.305.537-1.02-.537 1.02-.242v.78Zm-4.422.038.532-1.78 2.137 1.12-2.669.66Zm3.014-.48 1.251.663-2.722 1.428L18.6 16.6l2.957-.734Zm-1.652 2.265-1.565 2.485-.726-1.142.798-2.686 1.492 1.343Zm3.06-1.383v3.817l-2.657-2.425 2.657-1.392Zm.278 0L25.9 18.14l-2.657 2.425v-3.817Zm3.06 1.383 1.487-1.357.798 2.685-.726 1.143-1.558-2.47Zm3.853-1.174-2.025-.5 5.48-5-3.455 5.5Zm3.254-5.682-5.476 5.008-.548-1.848 6.024-3.16Zm-6.352 3.037-2.444 1.28-1.37-.349V1.473l3.814 12.839ZM22.965 1.474v13.769l-1.37.34-2.445-1.28 3.815-12.83Zm-4.15 12.96-.547 1.849-5.47-5.002 6.018 3.154Zm-6.217-2.97 5.48 4.999-2.026.494-3.454-5.493Zm5.548 5.245-.723 2.436-1.226-1.95 1.949-.486Zm-16.29 4.036 14.062-3.482 1.402 2.23-.382 1.252H1.856Zm15.382 0 .279-.931.588.937-.867-.006Zm1.35 0 1.523-2.425 2.657 2.425h-4.18Zm4.856 0 2.653-2.425 1.524 2.425h-4.177Zm4.659 0 .588-.931.279.937-.867-.006Zm1.158 0-.373-1.251 1.402-2.231 14.063 3.482H29.26Zm-1.878 6.57.548-1.848 5.476 5.002-6.024-3.154Zm-1.08-3.702 1.565-2.482.726 1.142-.798 2.686-1.492-1.346Zm1.29 1.537-2.942.728-1.267-.662 2.722-1.429 1.487 1.363Zm-4.35-.154v-3.814l2.657 2.423-2.657 1.39Zm-.278 0-2.657-1.391 2.657-2.423v3.814Zm-3.06-1.383-1.487 1.357-.798-2.685.726-1.143 1.558 2.471Zm.197.18 2.722 1.428-1.252.663-2.941-.728 1.47-1.363Zm1.11 2.265-2.137 1.12-.532-1.78 2.67.66Zm.726-.085 1.027-.537v.79l-1.027-.253Zm1.305-.537 1.027.537-1.027.254v-.791Zm4.422-.038-.53 1.78-2.14-1.12 2.67-.66Zm5.945 4.883-5.479-5 2.025-.5 3.454 5.5Zm-5.548-5.245.723-2.437 1.227 1.954-1.95.483Zm16.29-4.037L30.29 24.482l-1.402-2.232.373-1.25h15.091ZM28.97 21l-.279.937-.588-.937h.867Zm-1.349 0-1.524 2.425L23.444 21h4.177Zm-4.853 0-2.657 2.425L18.587 21h4.18Zm-4.663 0-.588.937-.266-.937h.854Zm-16.25 0h15.083l.372 1.251-1.401 2.232-14.053-3.483Zm14.341 3.554 1.227-1.954.723 2.437-1.95-.483Zm-.144.228 2.025.5-5.48 5 3.455-5.5Zm-3.254 5.682 5.476-5.002.541 1.849-6.017 3.153Zm6.352-3.03 2.444-1.28 1.37.34V40.27L19.15 27.432Zm4.093-.94 1.37-.34 2.445 1.28-3.815 12.837V26.493Z"/></svg>