<svg xmlns="http://www.w3.org/2000/svg" width="45" height="194" fill="none" viewBox="0 0 45 194"><path stroke="#E0C088" stroke-linecap="round" stroke-linejoin="round" stroke-width="1.02" d="m18.814 137.078 2.104 2.104M8.847 127.111l2.1 2.1M10.947 137.078l-2.1 2.104M20.918 127.111l-2.104 2.1M23.022 133.147s-2.193-.514-4.24-.894a3.437 3.437 0 0 1-1.617-.759 9.176 9.176 0 0 0 1.09-1.729 9.025 9.025 0 0 0-1.702 1.068 3.464 3.464 0 0 1-.63-1.667c-.187-1.827-.505-3.887-1.04-5.254-.541 1.367-.858 3.431-1.046 5.263-.06.65-.304 1.27-.702 1.787-.786-.558-1.626-1.175-1.626-1.175.318.605.693 1.178 1.122 1.711a3.494 3.494 0 0 1-1.654.787c-2.028.37-4.235.893-4.235.893 1.307.481 2.666.811 4.048.983a3.603 3.603 0 0 1 1.742.746 9.096 9.096 0 0 0-1.023 1.64 8.959 8.959 0 0 0 1.649-1.046 3.5 3.5 0 0 1 .71 1.787c.137 1.732.482 3.44 1.028 5.089.546-1.648.89-3.357 1.023-5.089a3.507 3.507 0 0 1 .737-1.787c.5.403 1.04.753 1.613 1.046 0 0-.581-.791-1.126-1.56a3.623 3.623 0 0 1 1.845-.826 18.223 18.223 0 0 0 4.034-1.014v0ZM18.398 38.758a4.668 4.668 0 0 1-4.642-5.16c0-.116.031-.26.05-.447.314-2.95.48-5.914.495-8.882a9.451 9.451 0 0 1 .357-2.948c.653-1.662 3.03-7.251 3.03-7.251l3.958-4.915a2.56 2.56 0 0 1 1.099-.79c1.425-.528 4.69-1.747 5.106-2.029.537-.353.773 2.341-.83 3.49-1.604 1.148-2.793 2.037-2.793 2.037l-2.68 3.154s4.914-4.15 6.254-4.722c1.34-.572 4.468-3.289 4.468-3.289s4.44-5.271 5.45-5.91c1.01-.64 2.793-.523.416 2.448-2.377 2.971-3.127 4.995-3.628 5.361-.5.367-3.744 3.838-3.744 3.838l6.778-6.398s3.507-4.914 5.647-4.338c2.14.576-1.894 3.69-2.31 4.915 0 0-.782 2.774-1.496 3.927a12.15 12.15 0 0 0-1.305 3.176c-.12.532-1.13 1.84-1.13 1.84a3.189 3.189 0 0 1-.18 2.681c-.772 1.247-3.328 5.111-3.328 5.111l-8.667 6.907a17.769 17.769 0 0 0-1.653 4.508 4.696 4.696 0 0 1-4.575 3.686h-.147ZM19.533 16.835l2.02-1.783M33.383 19.793l3.565-3.91"/><path stroke="#E0C088" stroke-linecap="round" stroke-linejoin="round" stroke-width="1.02" d="m32.726 16.143 5.29-5.062L40.88 6.94M26.891 54.489 22.5 55.963l-.92-4.543-.921 4.543-4.396-1.474 3.475 3.07-3.475 3.069 4.396-1.475.92 4.54.92-4.54 4.392 1.475-3.471-3.07 3.471-3.069ZM26.891 183.475l-4.391 1.474-.92-4.539-.921 4.539-4.396-1.474 3.471 3.069-3.471 3.07 4.396-1.475.92 4.544.92-4.544 4.392 1.475-3.471-3.07 3.471-3.069ZM34.057 74.196a1.376 1.376 0 0 1-1.068-1.099 2.532 2.532 0 0 0-.116-.447v0a2.52 2.52 0 0 0-.12.447 1.382 1.382 0 0 1-1.068 1.104l-.228.049c.096.036.195.068.295.094a1.39 1.39 0 0 1 1.01 1.09c.021.143.059.284.111.42.049-.137.086-.278.112-.42a1.376 1.376 0 0 1 1.01-1.09c.1-.026.198-.058.294-.094l-.232-.054ZM10.602 72.592a1.367 1.367 0 0 1-1.063-1.1 2.52 2.52 0 0 0-.12-.446v0a2.538 2.538 0 0 0-.117.447 1.385 1.385 0 0 1-1.072 1.103l-.228.05c.096.036.195.067.295.093a1.376 1.376 0 0 1 1.01 1.09c.025.143.063.284.111.42v0c.053-.135.09-.276.112-.42a1.39 1.39 0 0 1 1.01-1.09c.1-.026.198-.057.295-.093l-.233-.054ZM25.542 89.19a2.608 2.608 0 0 1-2.015-2.078 4.686 4.686 0 0 0-.223-.858 4.756 4.756 0 0 0-.223.858 2.6 2.6 0 0 1-2.024 2.082l-.447.094c.182.072.368.132.558.178a2.61 2.61 0 0 1 1.908 2.06c.046.27.116.537.21.795.096-.258.167-.524.214-.795a2.601 2.601 0 0 1 1.904-2.06c.19-.046.377-.105.558-.178l-.42-.099ZM8.274 45.013a2.613 2.613 0 0 1-2.015-2.082 4.713 4.713 0 0 0-.223-.853v0a4.672 4.672 0 0 0-.223.858 2.61 2.61 0 0 1-2.038 2.077l-.446.094c.182.069.369.127.558.174a2.61 2.61 0 0 1 1.908 2.06c.046.272.116.54.21.8.095-.26.167-.528.214-.8a2.6 2.6 0 0 1 1.903-2.06c.19-.047.376-.105.559-.174 0 0-.143-.036-.407-.094ZM24.497 45.116h2.372M27.946 45.116h2.372M27.41 42.203v2.207M27.41 45.817v2.207M27.41 43.45c0 1.577-.081 1.666-1.475 1.666 1.394 0 1.474.085 1.474 1.666 0-1.581.076-1.666 1.47-1.666-1.394 0-1.47-.103-1.47-1.666ZM.992 4.973h2.373M4.441 4.973h2.373M3.905 2.065v2.207M3.905 5.68v2.206M3.905 3.308c0 1.581-.08 1.666-1.47 1.666 1.39 0 1.47.09 1.47 1.667 0-1.578.076-1.667 1.47-1.667-1.394 0-1.47-.085-1.47-1.666ZM33.91 106.667a1.363 1.363 0 0 1-1.063-1.099 2.499 2.499 0 0 0-.121-.446v0a2.526 2.526 0 0 0-.116.446 1.377 1.377 0 0 1-1.073 1.104l-.227.049c.096.037.195.068.294.094a1.378 1.378 0 0 1 1.01 1.09c.026.143.063.283.112.42.052-.136.09-.276.111-.42a1.388 1.388 0 0 1 1.01-1.09c.1-.026.199-.057.295-.094l-.232-.054ZM32.493 139.129a1.363 1.363 0 0 1-1.063-1.099 2.532 2.532 0 0 0-.12-.447v0a2.23 2.23 0 0 0-.117.447 1.387 1.387 0 0 1-1.072 1.104l-.228.049c.097.037.195.068.295.094a1.378 1.378 0 0 1 1.01 1.09c.025.143.063.283.111.42.053-.136.09-.276.112-.42a1.386 1.386 0 0 1 1.01-1.09c.1-.026.198-.057.295-.094l-.233-.054ZM10.821 103.803h2.373M14.27 103.803h2.372M13.73 100.895v2.207M13.73 104.509v2.207M13.73 102.137c0 1.582-.076 1.666-1.47 1.666 1.394 0 1.47.09 1.47 1.667 0-1.577.08-1.667 1.474-1.667-1.394 0-1.474-.084-1.474-1.666ZM8.542 162.486h2.372M11.996 162.486h2.372M11.455 159.574v2.211M11.455 163.188v2.211M11.455 164.152c.812 0 1.47-.746 1.47-1.666 0-.921-.658-1.667-1.47-1.667-.812 0-1.47.746-1.47 1.667 0 .92.658 1.666 1.47 1.666Z"/></svg>