<svg xmlns="http://www.w3.org/2000/svg" width="34" height="32" fill="none" viewBox="0 0 34 32"><path stroke="#FED395" stroke-linecap="round" stroke-linejoin="round" stroke-width=".827" d="M33.544 21.42c-11.118 9.736-18.653 3.232-18.653 2.448 0-.783-1.882-1.558-1.882-1.558l.04-.4c.04-.401-.688-.503-.688-.503.117-.283.07-.44-.343-.617-.414-.179-.31-.802-.31-.802.886-.362 1.118-.665 1.107-.925-.011-.26-1.753-1.815-2.769-2.204-1.015-.388-1.29-1.043-1.29-1.043.14-.29.223-.601.246-.918a.88.88 0 0 0-.235-.567c-1.235-1.382-1.642-3.23-.836-4.851 1.326-2.675 3.608-4.867 6.478-6.224 2.87-1.357 6.162-1.8 9.345-1.256a18.33 18.33 0 0 0-6.761-.983 18.146 18.146 0 0 0-6.63 1.55C2.349 6.132-1.183 14.9 2.396 22.302c1.345 2.778 3.578 5.129 6.412 6.748 2.833 1.62 6.137 2.435 9.487 2.34 3.35-.095 6.59-1.095 9.307-2.872 2.716-1.776 4.783-4.248 5.933-7.097"/><path stroke="#FED395" stroke-linecap="round" stroke-linejoin="round" stroke-width=".827" d="M7.702 16.006s.203.604-.076.874c-.28.27-1.554 1.386-1.554 1.386s1.491-.112 1.93-.32c.438-.21.606.369.606.369M10.298 22.163c1.885-.158 2.048-.52 2.083-.648l.03-.121"/><path stroke="#FED395" stroke-linecap="round" stroke-linejoin="round" stroke-width=".827" d="M8.104 17.196c.138.31.096.636-.095.715-.19.079-.46-.088-.591-.4-.132-.313-.095-.637.094-.715.189-.08.456.088.592.4ZM9.875 19.854s.054 1.145 1.268.641M4.381 16.776a4.661 4.661 0 0 1 1.03-.86c1.442-.963 2.352-.62 2.352-.62M11.99 21.008l-.032.312a.765.765 0 0 0-.26.032.548.548 0 0 0-.205.112c-.133.096-.25.2-.35.314M11.144 22.547h1.268M7.34 16.776c-.35.198-.682.422-.99.669-.436.361-1.123.87-1.123.87M9.503 21.778s-.25.697.373 1.155"/></svg>