<svg xmlns="http://www.w3.org/2000/svg" width="1305" height="112" fill="none" viewBox="0 0 1305 112"><g stroke="#FED395" stroke-linecap="round" stroke-linejoin="round" stroke-width="2.5" clip-path="url(#clip0_602_2403)"><path d="M1060.62 88.322H153.649M1303.55 88.322h-113.03M1160.21 82.843c4.34-19.36-7.91-38.553-27.36-42.87-19.46-4.317-38.74 7.878-43.08 27.237-4.34 19.36 7.92 38.553 27.37 42.87 19.45 4.316 38.74-7.878 43.07-27.237Z"/><path d="M1125.01 98.131a31.099 31.099 0 0 1-16.11-4.49 30.946 30.946 0 0 1-11.43-12.17 30.76 30.76 0 0 1-3.4-16.306 30.674 30.674 0 0 1 5.6-15.693 35.813 35.813 0 0 0-10.01 18.38 35.744 35.744 0 0 0 1.97 20.817 35.946 35.946 0 0 0 13.29 16.196 36.193 36.193 0 0 0 20.09 6.086c7.16 0 14.16-2.119 20.1-6.086a35.946 35.946 0 0 0 13.29-16.196 35.744 35.744 0 0 0 1.97-20.816 35.885 35.885 0 0 0-10.01-18.381 30.77 30.77 0 0 1 5.6 15.695 30.677 30.677 0 0 1-3.41 16.307 30.844 30.844 0 0 1-11.42 12.17 31.15 31.15 0 0 1-16.12 4.487v0ZM107.656 73.517c-35.964 34.625-60.339 11.492-60.339 8.706 0-2.786-6.084-5.543-6.084-5.543l.129-1.425c.128-1.424-2.227-1.788-2.227-1.788.38-1.004.23-1.56-1.11-2.194-1.338-.634-1.001-2.85-1.001-2.85 2.863-1.29 3.615-2.365 3.579-3.291-.036-.927-5.67-6.455-8.955-7.837-3.286-1.382-4.174-3.712-4.174-3.712a9.679 9.679 0 0 0 .795-3.263 3.297 3.297 0 0 0-.759-2.016c-3.994-4.916-5.312-11.492-2.706-17.256A46.5 46.5 0 0 1 45.761 8.915a46.827 46.827 0 0 1 30.226-4.468 54.374 54.374 0 0 0-43.316 2.016C6.751 19.144-4.674 50.327 6.901 76.652a54.109 54.109 0 0 0 20.74 24 54.49 54.49 0 0 0 30.688 8.322A54.469 54.469 0 0 0 88.435 98.76a54.072 54.072 0 0 0 19.193-25.243"/><path d="M24.031 54.56s.716 2.037-.272 2.95c-.988.911-5.505 4.68-5.505 4.68s5.283-.378 6.837-1.083c1.553-.705 2.147 1.247 2.147 1.247M32.685 76.56c5.727-.635 6.221-2.081 6.329-2.594l.093-.485"/><path d="M25.727 58.748c.43.926.301 1.902-.293 2.137-.594.235-1.432-.263-1.84-1.197-.408-.933-.293-1.902.294-2.137.587-.235 1.417.264 1.84 1.197ZM31.39 67.951s.143 3.562 3.386 1.995M13.822 57.523A15.234 15.234 0 0 1 16.8 54.24c4.166-3.684 6.794-2.373 6.794-2.373M38.011 71.287l-.086 1.282a1.496 1.496 0 0 0-1.295.592 7.255 7.255 0 0 0-.974 1.29M34.618 77.656s3.078.834 4.596.043M22.156 56.575a23.906 23.906 0 0 0-3.243 2.48c-1.431 1.339-3.686 3.227-3.686 3.227M29.758 75.027s-.48 2.195.716 3.634"/></g><defs><clipPath id="clip0_602_2403"><path fill="#fff" d="M.445 0h1304v111.832H.445z"/></clipPath></defs></svg>