<svg xmlns="http://www.w3.org/2000/svg" width="38" height="38" fill="none" viewBox="0 0 38 38"><path stroke="#FED395" stroke-linecap="round" stroke-linejoin="round" d="M34.528 22.352c1.912-8.537-3.491-17.002-12.07-18.905C13.882 1.543 5.377 6.92 3.464 15.458c-1.912 8.538 3.491 17.002 12.07 18.905 8.577 1.904 17.082-3.474 18.995-12.011Z"/><path stroke="#FED395" stroke-linecap="round" stroke-linejoin="round" d="M18.998 28.65c-2.52 0-4.991-.656-7.144-1.899-2.154-1.242-3.906-3.023-5.065-5.147a12.498 12.498 0 0 1-1.51-6.895 12.638 12.638 0 0 1 2.484-6.637c-2.26 2.116-3.805 4.822-4.44 7.773a14.472 14.472 0 0 0 .874 8.804c1.205 2.787 3.256 5.17 5.892 6.849A16.613 16.613 0 0 0 19 34.072c3.174 0 6.276-.896 8.911-2.574 2.636-1.678 4.687-4.062 5.892-6.85a14.472 14.472 0 0 0 .874-8.803c-.635-2.951-2.18-5.657-4.44-7.773a12.639 12.639 0 0 1 2.485 6.637 12.497 12.497 0 0 1-1.511 6.897c-1.16 2.123-2.913 3.904-5.067 5.146a14.306 14.306 0 0 1-7.146 1.898v0Z"/></svg>