<svg xmlns="http://www.w3.org/2000/svg" width="104" height="85" fill="none" viewBox="0 0 104 85"><path stroke="#FED395" stroke-width="3" d="M91.434 14.835c3.468-2.928 6.55-6.117 7.73-10.901-1.724.75-3.194 1.479-4.727 2.028-2.28.818-4.611 1.5-6.913 2.255-.863.28-1.433.015-2.044-.668-2.092-2.345-4.69-3.903-7.745-4.75-5.16-1.43-10.168-.9-14.963 1.273-5.938 2.693-10.359 6.961-11.682 13.507-.581 2.865-.098 5.942-.098 9.03-16.934-1.072-30.457-8.854-41.764-21.241-2.598 4.795-2.816 9.657-1.781 14.616 1.038 4.97 3.153 9.388 7.378 12.585-.082.15-.165.295-.251.444-2.497-.675-4.994-1.351-7.525-2.038.39 10.049 5.628 16.58 15.154 20.124h-7.565c3.261 8.768 9.5 13.432 18.67 14.5-8.627 6.588-18.247 9.135-28.887 8.358.117.135.184.276.297.344 8.36 4.918 17.223 8.428 27.05 8.675 10.834.272 21.242-1.722 30.903-6.827 12.897-6.811 21.43-17.342 26.356-30.902 2.59-7.129 3.742-14.53 4.131-22.077.03-.59.435-1.278.874-1.703 1.312-1.277 2.774-2.401 4.094-3.671 1.533-1.471 2.83-3.118 3.295-5.213l-9.792 2.651c-.068-.134-.131-.269-.199-.403l.004.004Z"/></svg>