<svg xmlns="http://www.w3.org/2000/svg" width="35" height="60" fill="none" viewBox="0 0 35 60"><g fill="#D8850C" clip-path="url(#clip0_90_849)"><path d="M25.888 27.975c-.58-.135.404.716-.18.608-.217-.037.217.538-.02.522.139.982.276 1.916.404 2.851.034.236.053.474.056.713 0 .714-.037 1.43.011 2.143.096 1.41-.456 2.537-1.363 3.54-1.149 1.265-2.53 2.212-3.958 3.114-.25.181-.518.34-.797.471-.634.252-.938.779-1.085 1.385-.18.745-.274 1.513-.4 2.272a2.867 2.867 0 0 0-.02.32h-.407c-.052-.541-.065-1.077-.165-1.594a5.42 5.42 0 0 0-.434-1.297 1.27 1.27 0 0 0-.494-.55 1.236 1.236 0 0 0-.711-.175v4.026c-.435.128-.458.104-.513-.306-.121-.9-.28-1.796-.373-2.698-.059-.56-.018-1.128-.046-1.693a.448.448 0 0 0-.189-.331 515.562 515.562 0 0 0-5.069-2.394 1.54 1.54 0 0 0-.527-.163 2.542 2.542 0 0 0-.706.064c-.237.055-.46.172-.692.25a.483.483 0 0 1-.34-.02c.435-.443.87-.905 1.345-1.327a1.174 1.174 0 0 0 .404-.967c-.02-2.25 0-4.5 0-6.749v-.35c-.042-.398 0 .204 0-.278-.391-.146.234-.56-.391-.987-.626-.427.838-.907.41-1.49-.597-.817.102-2.073.193-2.419.137-.515-.176-.621.313-.71 1.89.306-1.014 1.153-.53 1.091l-.03-7.574H8.32c-.102-.31-.041-.453.267-.549 1.74-.535 3.46-1.163 5.048-2.106a.68.68 0 0 1 .132-.05c-.106.376-.195.727-.306 1.07-.265.819-.282 1.661-.28 2.509v6.193c0 .635.217.918.834 1.038.3.06.78.307 1.098.352 0 .126-.156.504-.156.643m.156-.643c.2-.68.046-.781.736-1.235-.14-1.44-.334-2.902-.415-4.37-.065-1.164-.158-2.341.13-3.496a.574.574 0 0 1 .07-.206c.296-.398.183-.787-.03-1.16a9.19 9.19 0 0 0-.588-.908.59.59 0 0 1 .034-.78 1 1 0 0 0 .358-.872c-.012-3.033 0-6.068 0-9.1v-.43h-.868c.48-.884.858-1.732.869-2.712h.794l.925 2.655c-.313.122-.651.263-1.003.39a.369.369 0 0 0-.184.148.38.38 0 0 0-.057.232c.134 1.962.273 3.924.382 5.888.052.93.087 1.86.05 2.79-.017.473.091.619.471.592a2.984 2.984 0 0 0-.484 1.606c.017 6.685 0 13.37.015 20.055-.074.36 0-.02-.174.816-.069.255-.088.52-.056.783.06.641.475 1.197.764 1.77a.878.878 0 0 0 .326.345.856.856 0 0 0 .456.121v-25.45l-.854-.039-.039-.363 1.099-.442c.367.745.742 1.45.727 2.364a326.866 326.866 0 0 0 0 9.793 15.568 15.568 0 0 1-.434 3.464c0 .051-.017.102-.03.175l.42.033a1.052 1.052 0 0 1-.075.2c-.324.48-.365 1.01-.36 1.576.017 2.575 0 5.148.012 7.72a4.5 4.5 0 0 0 .159 1.206c.278.951.986 1.398 1.91 1.528.821.116 1.045.014 1.249-.811.28-1.1.498-2.217.651-3.343.217-1.634.317-3.285.48-4.928.076-.772-.232-1.383-.73-1.92a4.845 4.845 0 0 0-1.686-1.126.537.537 0 0 1-.313-.392c-.104-.495-.235-.986-.36-1.513.197-.072.39-.159.575-.26.559-.323 1.093-.688 1.598-1.093.298-.275.536-.611.697-.987.16-.376.24-.782.234-1.192.015-.79 0-1.569-.367-2.296a.392.392 0 0 1 .028-.29c.261-.571.375-1.2.332-1.83a11.746 11.746 0 0 1 0-1.725 1.06 1.06 0 0 0-.27-.865 99.13 99.13 0 0 0-1.712-1.758c-.58-.578-1.29-1.106-1.721-1.863-.243-.425-.252-.402.117-.714.758-.64 1.505-1.292 2.238-1.923.474.62.934 1.277 1.446 1.883.932 1.106 2.015 2.004 3.42 2.406.434.124.868.175 1.343.264a5.691 5.691 0 0 0-1.317 2.101c-.15.442-.27.885-.38 1.327-.01.12.011.24.063.348.13.37.269.734.423 1.143l-.493.036c.021.076.05.15.087.22a2.47 2.47 0 0 1 .352 1.55c-.029.84-.044 1.68 0 2.519.042.427-.052.856-.267 1.225a3.81 3.81 0 0 0-.163.34c.417.092-.688 1.795-.304 1.917 1.025.325 2.84.584 2.488.095m-14.698 3.12c0-.017.033 2.877.117 4.299.034.864.292 1.704.75 2.433.142.245.336.455.568.615.232.16.495.265.771.31.07-.15.122-.308.152-.471.091-.339.091-.339-.05-.721-.141-.383 0-.998.043-1.341a1.478 1.478 0 0 0 0-.442.277.277 0 0 0-.056-.131c-.239-.319-.11-.721-.106-1.12.02-1.183 0-2.364 0-3.538m8.9-3.16c-.123-.066-.23-.121-.336-.18ZM-3.954 19.646c-.376.023-.754.062-1.13.056-.086 0-.216-.155-.247-.261-.408-1.44-.903-2.867-1.207-4.334-.217-1.066.115-2.125.578-3.097.772-1.626 2.116-2.61 3.69-3.318C.118 7.632 2.64 7.365 5.2 7.586c1.737.153 3.316.896 4.842 1.715 1.035.557 2.032 1.188 3.057 1.77.449.254 1.163 1.362 1.662 1.61a2.997 2.997 0 0 1-.48.442c-1.938 1.197-3.52 1.637-5.742 2.685a43.56 43.56 0 0 0-2.17.996c-.32.127-.65.228-.986.303V15.75l1.96-.69c-.165-.405-.288-.748-.434-1.075a6.393 6.393 0 0 0-2.692-2.907.836.836 0 0 0-.378-.137c-1.765.011-3.54-.07-5.297.082-2.46.21-3.69 1.674-3.801 4.203-.068 1.625.451 3.074 1.302 4.424l.003-.005ZM17.74 57.335c-.543-.053-.881-.24-.931-.75a.328.328 0 0 1 .043-.22c.462-.457.604-1.058.738-1.66.339-1.493.417-3.02.484-4.543.046-1.022.042-2.049.061-3.073 0-.07 0-.144.015-.221h.435v.354c0 2.27.023 4.539 0 6.809-.014.796.189 1.58.586 2.267l.3.535-.18.064c-.652.24-.808.595-.524 1.248 0 .02.015.037.022.057.373.872.286 1.106-.608 1.34a.954.954 0 0 1-.715-.22.623.623 0 0 1-.163-.741c.135-.407.272-.797.437-1.246Z"/></g><defs><clipPath id="clip0_90_849"><path fill="#fff" d="M.4.461h34.562v59.077H.4z"/></clipPath></defs></svg>