<svg xmlns="http://www.w3.org/2000/svg" width="114" height="80" fill="none" viewBox="0 0 114 80"><mask id="path-1-inside-1_1235_3287" fill="#fff"><path d="M111.122 12.838c-1.3-4.892-5.127-8.744-9.988-10.052C92.325.41 57 .41 57 .41s-35.325 0-44.134 2.376c-4.861 1.308-8.69 5.16-9.988 10.052C.518 21.705.518 40.205.518 40.205s0 18.498 2.36 27.366c1.299 4.892 5.127 8.744 9.988 10.053 8.809 2.375 44.133 2.375 44.133 2.375s35.326 0 44.135-2.375c4.861-1.309 8.688-5.16 9.987-10.052 2.361-8.868 2.361-27.367 2.361-27.367s0-18.5-2.361-27.366"/></mask><path fill="#FED395" d="m101.134 2.786-.781 2.897h.002l.779-2.897Zm-88.268 0 .78 2.897h.001l-.781-2.897ZM2.878 12.838l2.9.772v-.002l-2.9-.77Zm0 54.733 2.9-.77V66.8l-2.9.772Zm9.988 10.053.78-2.897-.78 2.897Zm44.133 2.375v3-3Zm44.135-2.375-.78-2.897h-.001l.781 2.897Zm9.987-10.052-2.899-.772v.002l2.899.77Zm2.361-27.367h3-3Zm.539-28.137c-1.573-5.922-6.203-10.59-12.108-12.179l-1.558 5.794c3.817 1.027 6.842 4.063 7.867 7.925l5.799-1.54ZM101.915-.11c-2.516-.679-6.646-1.137-11.173-1.47-4.613-.338-9.902-.562-14.889-.711a702.38 702.38 0 0 0-18.748-.299H57L57 .41v3h.024a123.936 123.936 0 0 1 .368 0l1.129.005a696.302 696.302 0 0 1 17.153.291c4.946.148 10.14.369 14.628.699 4.574.335 8.162.768 10.051 1.278l1.562-5.793ZM57 .41v-3h-.105a260.91 260.91 0 0 0-1.444.005 702.356 702.356 0 0 0-17.304.294c-4.986.149-10.276.373-14.888.712-4.528.332-8.658.79-11.174 1.469l1.562 5.793c1.889-.51 5.477-.943 10.051-1.278 4.489-.33 9.682-.551 14.628-.7a696.318 696.318 0 0 1 18.65-.295h.023l.001-3ZM12.087-.11C6.183 1.476 1.55 6.145-.021 12.067l5.799 1.54c1.025-3.862 4.05-6.898 7.867-7.925L12.087-.11ZM-.021 12.065c-1.27 4.772-1.867 11.903-2.162 17.626a237.7 237.7 0 0 0-.298 10.29 78.327 78.327 0 0 0 0 .206v.015c0 .001 0 .002 3 .002h3v-.011a75.186 75.186 0 0 1 .004-.775A231.732 231.732 0 0 1 3.81 30c.295-5.744.877-12.297 1.967-16.391L-.02 12.066Zm.54 28.139h-3v.004a5.47 5.47 0 0 0 0 .055 78.276 78.276 0 0 0 .004.78 237.685 237.685 0 0 0 .294 9.673c.295 5.723.892 12.853 2.162 17.626l5.798-1.544c-1.09-4.094-1.672-10.647-1.968-16.39a231.722 231.722 0 0 1-.29-10.007 72.358 72.358 0 0 1 0-.187V40.205h-3Zm-.54 28.136c1.572 5.923 6.204 10.59 12.106 12.18l1.56-5.794c-3.818-1.028-6.842-4.064-7.867-7.925l-5.8 1.538Zm12.105 12.18c2.516.678 6.647 1.135 11.174 1.468 4.612.338 9.902.563 14.888.712a702.987 702.987 0 0 0 18.448.297h.404c.001 0 .002 0 .002-3v-3h-.393a683.978 683.978 0 0 1-5.233-.036c-3.436-.037-8.107-.111-13.048-.259-4.947-.148-10.14-.369-14.628-.698-4.574-.336-8.163-.769-10.052-1.278l-1.562 5.793ZM57 79.998v3H57.405l1.144-.005a703.005 703.005 0 0 0 17.304-.294c4.986-.148 10.276-.373 14.888-.711 4.527-.333 8.658-.79 11.174-1.469l-1.562-5.793c-1.89.51-5.477.942-10.051 1.278-4.49.33-9.682.55-14.628.698a696.036 696.036 0 0 1-18.282.295H57v3Zm44.913.522c5.904-1.59 10.535-6.258 12.108-12.18l-5.799-1.54c-1.026 3.862-4.05 6.898-7.868 7.926l1.559 5.794Zm12.107-12.178c1.271-4.772 1.868-11.903 2.163-17.626a238.19 238.19 0 0 0 .298-10.29l.001-.163V40.206l-3-.001h-3v.047l-.001.15a190.87 190.87 0 0 1-.035 2.773c-.037 1.85-.11 4.407-.255 7.234-.296 5.743-.879 12.296-1.969 16.39l5.798 1.544Zm-.538-28.138h3v-.06l-.001-.163a185.906 185.906 0 0 0-.037-2.866 238.19 238.19 0 0 0-.261-7.424c-.295-5.723-.892-12.853-2.163-17.625l-5.798 1.543c1.09 4.095 1.673 10.647 1.969 16.39a235.138 235.138 0 0 1 .286 9.42c.003.256.004.454.004.588l.001.15v.047h3Z" mask="url(#path-1-inside-1_1235_3287)"/><path stroke="#FED395" stroke-width="3" d="m46.947 25.987 24.99 14.219-24.99 14.216V25.987Z"/></svg>