<svg width="64" height="64" viewBox="0 0 64 64" fill="none" xmlns="http://www.w3.org/2000/svg">
<path fill-rule="evenodd" clip-rule="evenodd" d="M1.43968 1.381C2.28797 0.532956 3.43835 0.0565529 4.63784 0.0565529C5.83734 0.0565529 6.98772 0.532956 7.83601 1.381L31.7793 25.3243L55.7226 1.381C56.1399 0.948948 56.639 0.604331 57.1909 0.367255C57.7428 0.130179 58.3364 0.00539017 58.937 0.000170797C59.5377 -0.00504858 60.1333 0.109405 60.6893 0.336854C61.2452 0.564304 61.7503 0.900193 62.175 1.32492C62.5997 1.74965 62.9356 2.25472 63.1631 2.81065C63.3905 3.36658 63.505 3.96225 63.4998 4.56288C63.4945 5.16352 63.3697 5.7571 63.1327 6.309C62.8956 6.86089 62.551 7.36005 62.1189 7.77733L38.1756 31.7206L62.1189 55.6639C62.9429 56.5171 63.3989 57.6597 63.3886 58.8458C63.3783 60.0319 62.9025 61.1664 62.0638 62.0051C61.2251 62.8439 60.0906 63.3196 58.9045 63.3299C57.7184 63.3402 56.5757 62.8843 55.7226 62.0603L31.7793 38.117L7.83601 62.0603C6.98286 62.8843 5.84019 63.3402 4.65412 63.3299C3.46806 63.3196 2.33349 62.8439 1.49478 62.0051C0.656072 61.1664 0.180331 60.0319 0.170025 58.8458C0.159718 57.6597 0.615671 56.5171 1.43968 55.6639L25.383 31.7206L1.43968 7.77733C0.591637 6.92904 0.115234 5.77865 0.115234 4.57916C0.115234 3.37967 0.591637 2.22929 1.43968 1.381Z" fill="white"/>
</svg>
