<svg width="58" height="17" viewBox="0 0 58 17" fill="none" xmlns="http://www.w3.org/2000/svg">
<g clip-path="url(#clip0_19_2111)">
<path d="M38.6445 8.50737C38.6468 7.10744 38.3031 5.7286 37.6441 4.49312C36.985 3.25764 36.0309 2.20371 34.8664 1.4248C33.7019 0.645882 32.363 0.166056 30.9683 0.0278752C29.5737 -0.110306 28.1664 0.0974271 26.8714 0.632652C25.5764 1.16788 24.4336 2.01405 23.5445 3.09613C22.6553 4.17821 22.0472 5.46275 21.774 6.83584C21.5009 8.20892 21.5713 9.62811 21.9788 10.9675C22.3863 12.307 23.1185 13.5253 24.1103 14.5143C25.3011 15.7019 26.8174 16.5105 28.4679 16.838C30.1184 17.1656 31.829 16.9974 33.3839 16.3548C34.9387 15.7122 36.2682 14.6239 37.2045 13.2272C38.1407 11.8306 38.6418 10.1882 38.6445 8.50737ZM22.0403 8.50737C22.0402 6.63754 22.6893 4.82555 23.8767 3.38013C25.0642 1.93471 26.7167 0.945289 28.5527 0.580461C30.3886 0.215632 32.2944 0.497966 33.9453 1.37936C35.5962 2.26075 36.89 3.68666 37.6064 5.41413C38.3228 7.14161 38.4174 9.06376 37.874 10.8531C37.3307 12.6424 36.183 14.1882 34.6266 15.227C33.0702 16.2659 31.2013 16.7335 29.3384 16.5503C27.4755 16.367 25.7339 15.5443 24.4102 14.2221C23.6562 13.4736 23.0585 12.583 22.6517 11.6021C22.2449 10.6211 22.0371 9.56918 22.0403 8.50737Z" fill="#FED395"/>
<path d="M-0.000125885 8.34082H44.0803V8.65522H-0.000125885V8.34082Z" fill="#FED395"/>
<path d="M47.7537 2.39697C46.1179 2.43669 44.5625 3.1137 43.4196 4.28341C42.2767 5.45312 41.6369 7.02283 41.6369 8.65731C41.6369 10.2918 42.2767 11.8615 43.4196 13.0312C44.5625 14.2009 46.1179 14.8779 47.7537 14.9176C48.3659 14.9184 48.9749 14.8287 49.5608 14.6513C48.2711 14.2631 47.141 13.4704 46.3376 12.3905C45.5342 11.3105 45.1004 10.0009 45.1004 8.65546C45.1004 7.31003 45.5342 6.00038 46.3376 4.92046C47.141 3.84054 48.2711 3.04778 49.5608 2.65959C48.9743 2.48525 48.3656 2.39679 47.7537 2.39697Z" fill="#FED395"/>
<path d="M50.2903 14.6513L49.62 14.4516C48.3736 14.0766 47.2812 13.3106 46.5047 12.2669C45.7282 11.2233 45.3089 9.9576 45.3089 8.65731C45.3089 7.35702 45.7282 6.0913 46.5047 5.04767C47.2812 4.00404 48.3736 3.238 49.62 2.86303L50.2903 2.65959L49.62 2.45986C48.6531 2.17065 47.6319 2.11119 46.6378 2.28623C45.6438 2.46128 44.7045 2.86597 43.8949 3.46803C43.0852 4.07008 42.4277 4.85283 41.9746 5.75382C41.5216 6.6548 41.2857 7.64908 41.2857 8.65731C41.2857 9.66554 41.5216 10.6598 41.9746 11.5608C42.4277 12.4618 43.0852 13.2445 43.8949 13.8466C44.7045 14.4486 45.6438 14.8533 46.6378 15.0284C47.6319 15.2034 48.6531 15.144 49.62 14.8548L50.2903 14.6513ZM41.7067 8.65546C41.7097 7.77191 41.9058 6.89966 42.2813 6.09971C42.6569 5.29975 43.2029 4.59141 43.8811 4.02421C44.5594 3.45702 45.3534 3.04466 46.2078 2.81598C47.0622 2.5873 47.9563 2.54781 48.8276 2.70028C47.6586 3.1977 46.6619 4.02742 45.9612 5.08624C45.2606 6.14506 44.8871 7.38626 44.8871 8.65546C44.8871 9.92466 45.2606 11.1659 45.9612 12.2247C46.6619 13.2835 47.6586 14.1132 48.8276 14.6106C47.9559 14.7665 47.0606 14.7294 46.2048 14.502C45.349 14.2746 44.5535 13.8624 43.8745 13.2946C43.1955 12.7267 42.6495 12.017 42.275 11.2155C41.9004 10.4139 41.7064 9.54003 41.7067 8.65546Z" fill="#FED395"/>
<path d="M56.493 9.89104C56.7502 9.89104 57.0016 9.8148 57.2155 9.67198C57.4293 9.52915 57.5959 9.32617 57.6941 9.08872C57.7924 8.85127 57.8179 8.59003 57.7675 8.33809C57.717 8.08614 57.5929 7.85481 57.4107 7.67339C57.2286 7.49197 56.9966 7.36861 56.7443 7.31893C56.4919 7.26925 56.2304 7.29549 55.993 7.39433C55.7556 7.49316 55.5528 7.66014 55.4105 7.87413C55.2681 8.08812 55.1925 8.3395 55.1932 8.59644C55.1932 8.76676 55.2269 8.93541 55.2922 9.09272C55.3576 9.25003 55.4534 9.39291 55.5741 9.51317C55.6949 9.63343 55.8382 9.72872 55.9959 9.79356C56.1535 9.8584 56.3225 9.89153 56.493 9.89104Z" fill="#FED395"/>
<path d="M58 8.59633C58.0007 8.29754 57.9126 8.00525 57.7469 7.75651C57.5812 7.50777 57.3453 7.31376 57.0691 7.19908C56.7928 7.0844 56.4888 7.0542 56.1953 7.11231C55.9019 7.17043 55.6324 7.31423 55.4209 7.52551C55.2094 7.73679 55.0654 8.00603 55.0072 8.29912C54.949 8.59221 54.9793 8.89595 55.0941 9.17186C55.2089 9.44777 55.4031 9.68343 55.6521 9.84898C55.9011 10.0145 56.1938 10.1025 56.4929 10.1018C56.8923 10.1008 57.2751 9.94187 57.5575 9.65976C57.8399 9.37764 57.999 8.9953 58 8.59633ZM55.4079 8.59633C55.4072 8.38109 55.4704 8.17048 55.5896 7.99116C55.7088 7.81184 55.8785 7.67188 56.0774 7.58901C56.2763 7.50613 56.4953 7.48407 56.7067 7.52561C56.9181 7.56715 57.1124 7.67043 57.2651 7.82237C57.4177 7.9743 57.5218 8.16806 57.5641 8.37911C57.6064 8.59016 57.585 8.809 57.5027 9.00793C57.4204 9.20685 57.2809 9.37691 57.1018 9.49657C56.9227 9.61622 56.7121 9.6801 56.4966 9.6801C56.2085 9.6801 55.9321 9.56604 55.7281 9.3629C55.524 9.15975 55.4089 8.8841 55.4079 8.59633Z" fill="#FED395"/>
<path d="M50.7438 6.83907L52.5034 8.59668L50.7438 10.3543L48.9843 8.59668L50.7438 6.83907Z" fill="#FED395"/>
</g>
<defs>
<clipPath id="clip0_19_2111">
<rect width="58" height="17" fill="white" transform="matrix(-1 0 0 1 58 0)"/>
</clipPath>
</defs>
</svg>
