<svg width="58" height="17" viewBox="0 0 58 17" fill="none" xmlns="http://www.w3.org/2000/svg">
<g clip-path="url(#clip0_19_2096)">
<path d="M19.3555 8.50737C19.3532 7.10744 19.6969 5.7286 20.3559 4.49312C21.015 3.25764 21.9691 2.20371 23.1336 1.4248C24.2981 0.645882 25.637 0.166056 27.0317 0.0278752C28.4263 -0.110306 29.8336 0.0974271 31.1286 0.632652C32.4236 1.16788 33.5664 2.01405 34.4555 3.09613C35.3447 4.17821 35.9528 5.46275 36.226 6.83584C36.4991 8.20892 36.4287 9.62811 36.0212 10.9675C35.6137 12.307 34.8815 13.5253 33.8897 14.5143C32.6989 15.7019 31.1826 16.5105 29.5321 16.838C27.8816 17.1656 26.171 16.9974 24.6161 16.3548C23.0613 15.7122 21.7318 14.6239 20.7955 13.2272C19.8593 11.8306 19.3582 10.1882 19.3555 8.50737ZM35.9597 8.50737C35.9598 6.63754 35.3107 4.82555 34.1233 3.38013C32.9358 1.93471 31.2833 0.945289 29.4473 0.580461C27.6114 0.215632 25.7056 0.497966 24.0547 1.37936C22.4038 2.26075 21.11 3.68666 20.3936 5.41413C19.6772 7.14161 19.5826 9.06376 20.126 10.8531C20.6693 12.6424 21.817 14.1882 23.3734 15.227C24.9298 16.2659 26.7987 16.7335 28.6616 16.5503C30.5245 16.367 32.2661 15.5443 33.5898 14.2221C34.3438 13.4736 34.9415 12.583 35.3483 11.6021C35.7551 10.6211 35.9629 9.56918 35.9597 8.50737Z" fill="#FED395"/>
<path d="M58.0001 8.34082H13.9197V8.65522H58.0001V8.34082Z" fill="#FED395"/>
<path d="M10.2463 2.39697C11.8821 2.43669 13.4375 3.1137 14.5804 4.28341C15.7233 5.45312 16.3631 7.02283 16.3631 8.65731C16.3631 10.2918 15.7233 11.8615 14.5804 13.0312C13.4375 14.2009 11.8821 14.8779 10.2463 14.9176C9.63406 14.9184 9.0251 14.8287 8.43921 14.6513C9.72885 14.2631 10.859 13.4704 11.6624 12.3905C12.4658 11.3105 12.8996 10.0009 12.8996 8.65546C12.8996 7.31003 12.4658 6.00038 11.6624 4.92046C10.859 3.84054 9.72885 3.04778 8.43921 2.65959C9.02568 2.48525 9.63437 2.39679 10.2463 2.39697Z" fill="#FED395"/>
<path d="M7.70972 14.6513L8.37996 14.4516C9.6264 14.0766 10.7188 13.3106 11.4953 12.2669C12.2718 11.2233 12.6911 9.9576 12.6911 8.65731C12.6911 7.35702 12.2718 6.0913 11.4953 5.04767C10.7188 4.00404 9.6264 3.238 8.37996 2.86303L7.70972 2.65959L8.37996 2.45986C9.3469 2.17065 10.3681 2.11119 11.3622 2.28623C12.3562 2.46128 13.2955 2.86597 14.1051 3.46803C14.9148 4.07008 15.5723 4.85283 16.0254 5.75382C16.4784 6.6548 16.7143 7.64908 16.7143 8.65731C16.7143 9.66554 16.4784 10.6598 16.0254 11.5608C15.5723 12.4618 14.9148 13.2445 14.1051 13.8466C13.2955 14.4486 12.3562 14.8533 11.3622 15.0284C10.3681 15.2034 9.3469 15.144 8.37996 14.8548L7.70972 14.6513ZM16.2933 8.65546C16.2903 7.77191 16.0942 6.89966 15.7187 6.09971C15.3431 5.29975 14.7971 4.59141 14.1189 4.02421C13.4406 3.45702 12.6466 3.04466 11.7922 2.81598C10.9378 2.5873 10.0437 2.54781 9.1724 2.70028C10.3414 3.1977 11.3381 4.02742 12.0388 5.08624C12.7394 6.14506 13.1129 7.38626 13.1129 8.65546C13.1129 9.92466 12.7394 11.1659 12.0388 12.2247C11.3381 13.2835 10.3414 14.1132 9.1724 14.6106C10.0441 14.7665 10.9394 14.7294 11.7952 14.502C12.651 14.2746 13.4465 13.8624 14.1255 13.2946C14.8045 12.7267 15.3505 12.017 15.725 11.2155C16.0996 10.4139 16.2936 9.54003 16.2933 8.65546Z" fill="#FED395"/>
<path d="M1.50702 9.89104C1.2498 9.89104 0.998358 9.8148 0.784535 9.67198C0.570713 9.52915 0.404123 9.32617 0.305858 9.08872C0.207593 8.85127 0.182071 8.59003 0.232523 8.33809C0.282975 8.08614 0.407132 7.85481 0.589276 7.67339C0.77142 7.49197 1.00336 7.36861 1.25573 7.31893C1.5081 7.26925 1.76955 7.29549 2.00699 7.39433C2.24442 7.49316 2.44715 7.66014 2.58953 7.87413C2.7319 8.08812 2.80751 8.3395 2.80677 8.59644C2.80677 8.76676 2.77313 8.93541 2.70776 9.09272C2.6424 9.25003 2.5466 9.39291 2.42586 9.51317C2.30512 9.63343 2.16181 9.72872 2.00413 9.79356C1.84646 9.8584 1.67753 9.89153 1.50702 9.89104Z" fill="#FED395"/>
<path d="M4.52896e-06 8.59633C-0.00072773 8.29754 0.0873511 8.00525 0.25308 7.75651C0.41881 7.50777 0.65473 7.31376 0.930947 7.19908C1.20716 7.0844 1.51125 7.0542 1.80466 7.11231C2.09808 7.17043 2.36762 7.31423 2.57913 7.52551C2.79065 7.73679 2.93462 8.00603 2.99279 8.29912C3.05097 8.59221 3.02074 8.89595 2.90593 9.17186C2.79112 9.44777 2.5969 9.68343 2.34788 9.84898C2.09886 10.0145 1.80625 10.1025 1.50712 10.1018C1.10771 10.1008 0.724937 9.94187 0.442509 9.65976C0.160082 9.37764 0.000982287 8.9953 4.52896e-06 8.59633ZM2.5921 8.59633C2.59283 8.38109 2.52961 8.17048 2.41043 7.99116C2.29125 7.81184 2.12148 7.67188 1.92261 7.58901C1.72375 7.50613 1.50473 7.48407 1.29331 7.52561C1.08188 7.56715 0.887551 7.67043 0.734926 7.82237C0.582301 7.9743 0.478245 8.16806 0.435937 8.37911C0.393629 8.59016 0.414972 8.809 0.497261 9.00793C0.579551 9.20685 0.719087 9.37691 0.898199 9.49657C1.07731 9.61622 1.28794 9.6801 1.50342 9.6801C1.79152 9.6801 2.06787 9.56604 2.27193 9.3629C2.47599 9.15975 2.59112 8.8841 2.5921 8.59633Z" fill="#FED395"/>
<path d="M7.25616 6.83907L5.49658 8.59668L7.25616 10.3543L9.01573 8.59668L7.25616 6.83907Z" fill="#FED395"/>
</g>
<defs>
<clipPath id="clip0_19_2096">
<rect width="58" height="17" fill="white"/>
</clipPath>
</defs>
</svg>
