<svg width="85" height="84" viewBox="0 0 85 84" fill="none" xmlns="http://www.w3.org/2000/svg">
<path d="M0.00146484 11.0052C0.432714 10.49 0.796477 9.89088 1.30838 9.47445C4.95754 6.50015 8.63632 3.56206 12.3085 0.617383C13.4245 -0.278035 14.1273 -0.199028 15.0112 0.918599C16.5552 2.87074 18.0909 4.82782 19.699 6.87049C20.7278 6.28946 21.7417 5.71666 22.754 5.1455C23.2066 4.89037 23.6543 4.62372 24.1152 4.38505C25.3431 3.74805 26.4048 4.36036 26.436 5.74134C26.4624 6.91823 26.441 8.09511 26.4443 9.27364C26.4443 9.45963 26.4657 9.64563 26.4805 9.87936H57.6703C57.6703 8.83251 57.6703 7.77908 57.6703 6.724C57.6703 6.36847 57.6555 6.01129 57.6753 5.65575C57.746 4.38011 58.7962 3.75134 59.927 4.34884C61.1829 5.01382 62.4075 5.7397 63.6469 6.4376C63.8806 6.56928 64.1209 6.69108 64.4205 6.85239C65.3999 5.61296 66.3628 4.39657 67.3257 3.17525C67.9528 2.38024 68.5668 1.5737 69.2038 0.786919C69.9494 -0.13648 70.6983 -0.254991 71.6102 0.472536C75.5046 3.58016 79.3842 6.7026 83.2621 9.83163C84.016 10.4406 84.2201 11.2291 84.0028 12.1854C82.1906 20.1553 80.3965 28.1284 78.5991 36.1016C78.5283 36.4176 78.4707 36.737 78.3933 37.1205C79.7101 37.1205 80.9676 37.1205 82.2252 37.1205C82.4984 37.1205 82.7766 37.1057 83.0449 37.1468C83.6638 37.2439 84.0358 37.6373 84.0851 38.2463C84.1345 38.857 83.83 39.3162 83.221 39.4759C82.8836 39.5648 82.5182 39.573 82.1659 39.573C55.417 39.5763 28.668 39.5746 1.92069 39.5862C1.13884 39.5862 0.454112 39.4858 0.00311083 38.7714V37.9501C0.396502 37.2966 0.974244 37.0826 1.72975 37.1073C3.03831 37.1501 4.35017 37.1188 5.70482 37.1188C5.64885 36.7913 5.61758 36.523 5.55832 36.2613C4.22013 30.3489 2.88194 24.4348 1.53553 18.5241C1.03515 16.3432 0.513367 14.1688 0.00146484 11.9912V11.0052ZM23.3729 37.0662H60.6199V12.4504H23.3696C23.3696 13.4413 23.386 14.368 23.3646 15.2947C23.3449 16.1588 22.8856 16.6674 22.1729 16.6773C21.4652 16.6872 20.973 16.1851 20.9269 15.3309C20.8874 14.6215 20.9137 13.9087 20.9137 13.196C20.9137 10.5789 21.2594 10.1855 23.8304 9.87936C23.8551 9.87607 23.8798 9.85961 23.9325 9.83657V7.34948C23.6 7.52066 23.335 7.64411 23.0815 7.78731C19.9377 9.56004 16.8119 11.3673 13.6418 13.089C12.8978 13.4923 12.771 13.9417 12.8468 14.7054C13.464 20.8844 14.0417 27.0668 14.6343 33.2491C14.7561 34.5198 14.8911 35.7905 15.0211 37.076H20.9121C20.9121 36.7188 20.9121 36.3979 20.9121 36.0786C20.9121 31.0698 20.9088 26.0594 20.9154 21.0507C20.9154 20.0121 21.3746 19.4244 22.1334 19.408C22.8939 19.3915 23.3515 19.9857 23.3696 21.0112C23.3729 21.2021 23.3696 21.3947 23.3696 21.5856C23.3696 26.4034 23.3696 31.2212 23.3696 36.0391C23.3696 36.3617 23.3696 36.6843 23.3696 37.0662H23.3729ZM75.8601 37.076C77.7415 28.749 79.6081 20.4598 81.4993 12.1755C81.6195 11.6504 81.3676 11.4365 81.0351 11.1715C78.4262 9.08928 75.8239 6.99888 73.22 4.91012C72.3937 4.24679 71.5674 3.58345 70.6868 2.87732C69.3042 4.63853 67.9643 6.34707 66.5899 8.10005C68.5997 9.23578 70.4926 10.3287 72.4101 11.3772C73.4438 11.9418 73.9343 12.7417 73.7763 13.9236C73.7368 14.2215 73.7319 14.5243 73.7039 14.8239C73.4488 17.4921 73.1953 20.1602 72.9369 22.8284C72.8414 23.8209 72.7542 24.8134 72.657 25.8059C72.555 26.8561 72.4431 27.9046 72.2982 28.9481C72.2785 29.088 72.2126 29.2395 72.1172 29.386C71.9345 29.6641 71.648 29.9193 71.3896 30.0197C71.0752 30.1415 70.4712 29.8962 70.193 29.6181C69.9609 29.3827 69.9214 28.856 69.956 28.4724C70.3691 23.8966 70.7987 19.3207 71.2612 14.7482C71.3403 13.9647 71.225 13.4923 70.4382 13.0676C67.2615 11.3558 64.1407 9.54358 60.9985 7.7692C60.7483 7.62765 60.4899 7.5042 60.1903 7.34783V9.86455C62.7614 10.1658 63.1185 10.5723 63.1185 13.1335C63.1185 20.7972 63.1185 28.4609 63.1185 36.123C63.1185 36.439 63.1185 36.7551 63.1185 37.0744H69.1017C69.1972 36.0605 69.2647 35.0827 69.3865 34.1116C69.5 33.1997 70.0152 32.7356 70.7559 32.8047C71.495 32.8738 71.8736 33.4071 71.8176 34.3618C71.8077 34.5215 71.7978 34.6811 71.7863 34.8408C71.7731 35.0235 71.7583 35.2062 71.7435 35.3889C71.6991 35.9419 71.6464 36.5016 71.6003 37.081H75.8618L75.8601 37.076ZM13.4261 2.87568C9.96957 5.64752 6.61011 8.3667 3.21608 11.0431C2.65974 11.4826 2.53793 11.871 2.69595 12.5557C4.01439 18.2541 5.29003 23.9624 6.57884 29.6674C7.13683 32.1381 7.69975 34.6087 8.25445 37.0546H12.4649C12.4649 36.7172 12.4879 36.4423 12.4616 36.1724C11.7752 29.0107 11.0905 21.8473 10.3893 14.6856C10.177 12.5179 10.3465 12.1525 12.2575 11.0743C13.9891 10.0966 15.7174 9.11891 17.528 8.09511C16.142 6.33225 14.8121 4.64018 13.4261 2.87732V2.87568Z" fill="#FED395"/>
<path d="M0.00164599 71.2977C0.488859 70.4615 0.819702 69.4509 1.50443 68.832C2.31591 68.0996 3.43189 67.7062 4.41619 67.1663L4.54457 67.3671C4.61371 66.8042 4.63181 66.2297 4.75855 65.6816C5.13384 64.0521 6.10003 62.8653 7.66043 62.2678C8.26945 62.0357 8.42088 61.7411 8.39125 61.142C8.28097 58.9594 9.07434 57.2245 11.0808 56.204C11.652 55.9127 12.3103 55.7958 12.9391 55.5966C13.2996 52.0512 15.2451 49.969 18.0598 50.1385C20.9287 50.3097 22.8167 52.4972 22.7607 55.4781C23.8602 56.0114 24.9219 56.5283 25.9161 57.0105C26.9794 56.5184 28.0987 56.0015 29.2805 55.4551C29.1126 52.5828 31.1882 50.2027 34.2119 50.1418C37.0347 50.0842 38.8223 52.1219 39.1433 55.6378C39.7095 55.8254 40.3037 55.9604 40.8353 56.2205C41.3423 56.469 41.7851 56.8476 42.1192 57.0764C43.3027 56.525 44.417 56.0048 45.6285 55.4403C46.0186 52.0248 47.8127 50.0546 50.6224 50.1319C53.4617 50.2093 55.1752 52.1647 55.4451 55.6295C56.0179 55.8188 56.6138 55.9522 57.1471 56.2122C57.6557 56.4591 58.1001 56.8393 58.4507 57.0764C59.6144 56.5315 60.732 56.0081 61.9731 55.4271C61.927 53.9967 62.355 52.5236 63.6323 51.3862C64.5754 50.5467 65.6914 50.127 66.9325 50.1402C69.7751 50.1698 71.561 52.2026 71.8095 55.6641C72.1322 55.7481 72.4762 55.8188 72.8087 55.9258C74.9024 56.6023 76.1632 58.3915 76.1418 60.8424C76.1352 61.6802 76.3311 62.1164 77.1409 62.4983C78.8972 63.3262 79.5934 64.7862 79.7169 67.3589C80.2732 67.5399 80.874 67.6535 81.3941 67.9201C83.0895 68.7892 84.0557 70.2048 84.087 72.1158C84.1413 75.3995 84.1133 78.6849 84.1018 81.9703C84.0985 82.8213 83.6179 83.3365 82.9035 83.3513C82.1562 83.3661 81.6558 82.8361 81.6509 81.9407C81.6377 78.8479 81.6476 75.755 81.6443 72.6606C81.6427 70.7776 80.7621 69.8756 78.8972 69.869C76.1056 69.8575 73.3123 69.8575 70.5207 69.869C68.6805 69.8772 67.7983 70.7595 67.7917 72.5898C67.7818 75.546 67.7917 78.5022 67.7851 81.4584C67.7851 81.758 67.7719 82.0608 67.7176 82.3555C67.5975 83.0171 67.1728 83.3595 66.5095 83.3398C65.8461 83.32 65.4478 82.948 65.3622 82.283C65.3276 82.0131 65.3309 81.7366 65.3309 81.4633C65.3293 78.5615 65.3342 75.6596 65.3276 72.7593C65.3243 70.7298 64.4553 69.8706 62.4142 69.8673C59.7049 69.8641 56.994 69.8624 54.2847 69.8673C52.3145 69.8723 51.4371 70.7578 51.4355 72.738C51.4322 75.6662 51.4355 78.596 51.4338 81.5242C51.4338 81.7975 51.4503 82.0773 51.4009 82.3423C51.2972 82.9135 50.9499 83.2706 50.3574 83.3315C49.7352 83.3957 49.2793 83.134 49.0933 82.5316C48.9994 82.2254 48.9797 81.8864 48.9797 81.5621C48.9715 78.5516 48.9797 75.5394 48.9731 72.5289C48.9682 70.7973 48.0793 69.8805 46.3527 69.869C43.4788 69.8492 40.6049 69.8492 37.731 69.869C36.169 69.8789 35.3822 70.5899 35.1369 72.1421C35.0217 72.868 34.6974 73.3881 33.8975 73.4276C33.2342 73.4605 32.7963 72.9881 32.6679 72.1602C32.4342 70.6443 31.5997 69.8772 30.0689 69.8657C27.167 69.8443 24.2652 69.841 21.3649 69.8657C19.714 69.8805 18.7955 70.827 18.784 72.5075C18.7643 75.4917 18.7791 78.4742 18.7758 81.4584C18.7758 81.7596 18.7824 82.0641 18.7313 82.3588C18.626 82.9826 18.2244 83.32 17.6006 83.3398C16.9784 83.3595 16.5455 83.0583 16.4089 82.4378C16.3397 82.1217 16.3233 81.7876 16.3233 81.4617C16.3167 78.5335 16.3233 75.6036 16.3183 72.6754C16.3134 70.7397 15.4443 69.8673 13.5103 69.8624C10.745 69.8558 7.9814 69.8525 5.21614 69.8624C3.35123 69.869 2.46569 70.7743 2.46404 72.6524C2.46075 75.6365 2.45746 78.6191 2.46734 81.6032C2.46898 82.2896 2.42783 82.9546 1.69208 83.2608C0.962903 83.5636 0.460877 83.1241 0 82.6353C0 78.8561 0 75.0785 0 71.2994L0.00164599 71.2977ZM63.392 67.1844C64.5968 67.795 65.6239 68.3152 66.6543 68.8353C67.0971 68.544 67.5892 68.1341 68.1505 67.8757C68.7085 67.6189 69.3356 67.5119 69.9512 67.3325C69.8508 65.1022 70.6639 63.3048 72.7428 62.4011C73.6712 61.9979 73.7683 61.4843 73.7238 60.6778C73.6399 59.1898 72.7988 58.1775 71.4524 58.1627C68.3349 58.1282 65.2174 58.1347 62.0999 58.1594C60.9789 58.1693 60.123 58.9116 59.9058 60.0112C59.8119 60.4885 59.863 60.9905 59.8103 61.4777C59.7642 61.9073 59.9617 62.0884 60.3386 62.2497C62.3336 63.099 63.2899 64.666 63.3887 66.7976C63.3969 66.9852 63.3887 67.1729 63.3887 67.1827L63.392 67.1844ZM17.7816 68.7859C18.4417 68.1374 19.4441 67.5745 20.6654 67.4461C20.7806 67.4346 20.9518 67.1432 20.9534 66.9803C20.9732 64.6068 22.0842 63.0003 24.2816 62.123C24.4363 62.0604 24.6289 61.9287 24.6767 61.7855C25.3071 59.9124 24.0594 58.1561 22.0957 58.1496C19.4984 58.1397 16.8977 58.2302 14.3053 58.1249C11.5252 58.0113 10.6528 59.1552 10.8438 61.6818C10.852 61.7905 10.8635 61.8975 10.875 62.0209C13.1926 62.9147 14.4238 64.559 14.3892 67.0856C14.3876 67.2206 14.544 67.4263 14.6756 67.484C15.6517 67.9136 16.6409 68.3135 17.7816 68.7876V68.7859ZM37.2635 67.1613C37.4232 64.6973 38.1639 63.1731 40.0189 62.439C41.0394 62.0357 41.1102 61.4498 41.0625 60.5906C40.9785 59.0927 40.0551 58.1561 38.5458 58.1496C35.5649 58.1364 32.584 58.1347 29.6047 58.1496C28.2452 58.1561 27.3497 58.9841 27.1901 60.3338C27.1522 60.658 27.1884 60.9905 27.1522 61.3164C27.0979 61.8152 27.2642 62.0769 27.7678 62.2859C29.2756 62.9147 30.2335 64.0652 30.5775 65.6734C30.701 66.2478 30.724 66.8453 30.7668 67.2008C31.9388 67.7918 32.9659 68.3102 33.8498 68.7563C34.946 68.2428 36.0373 67.7325 37.2635 67.1597V67.1613ZM50.1895 68.7448C51.0981 68.3415 52.0067 67.8527 52.9712 67.5449C53.4584 67.3901 53.5967 67.2667 53.6181 66.7531C53.7053 64.6216 54.7061 63.048 56.7142 62.2415C57.2524 62.0259 57.4335 61.7609 57.3676 61.2276C57.3347 60.9576 57.3676 60.6794 57.3512 60.4078C57.2788 59.1256 56.3685 58.1742 55.0912 58.1611C51.9984 58.1314 48.904 58.1331 45.8112 58.1594C44.496 58.1709 43.5792 59.1404 43.5232 60.4655C43.5117 60.7387 43.5413 61.0152 43.5117 61.2868C43.4557 61.8086 43.6138 62.0769 44.152 62.3155C45.9214 63.104 46.886 64.5179 47.0193 66.47C47.0407 66.7877 47.0522 67.1054 47.0572 67.2008C48.2209 67.7753 49.2315 68.274 50.1895 68.7464V68.7448ZM31.9141 55.6345H36.5031C36.7632 54.5317 36.4619 53.6609 35.6439 53.0651C34.8258 52.4692 33.7954 52.4281 32.9461 52.9597C32.0441 53.5227 31.6853 54.4247 31.9157 55.6345H31.9141ZM20.1568 55.6839C20.4547 54.5169 20.0893 53.5507 19.1856 52.9746C18.3182 52.4215 17.245 52.4676 16.4204 53.0964C15.6073 53.7153 15.3044 54.6732 15.6336 55.6493C15.7554 55.6608 15.8887 55.6822 16.0221 55.6839C17.3882 55.6872 18.7544 55.6839 20.1568 55.6839ZM52.8445 55.6559C53.0765 54.3769 52.693 53.4552 51.7499 52.917C50.8528 52.4034 49.7944 52.4989 48.9961 53.1655C48.2324 53.8025 47.9773 54.716 48.3114 55.6559H52.8445ZM69.1184 55.6608C69.4689 54.7094 69.176 53.7432 68.3628 53.1079C67.5003 52.4347 66.3449 52.4149 65.4676 53.0585C64.5985 53.6939 64.2923 54.6354 64.638 55.6608H69.12H69.1184ZM56.2039 67.4C57.6442 67.4 59.0038 67.4247 60.3601 67.3737C60.5559 67.3654 60.8933 67.0033 60.9016 66.7943C60.9394 65.8166 60.4769 65.0693 59.6144 64.6002C58.7898 64.1525 57.6442 64.2776 56.9364 64.9063C56.2105 65.5516 55.9044 66.3449 56.2023 67.4H56.2039ZM23.536 67.4C24.9664 67.4 26.3539 67.4231 27.7382 67.372C27.9193 67.3654 28.2238 66.9836 28.2336 66.763C28.2781 65.81 27.8271 65.0726 26.9909 64.6315C26.0971 64.1607 25.1869 64.215 24.3771 64.8306C23.5673 65.4462 23.2693 66.2791 23.536 67.3984V67.4ZM77.1458 67.3622C77.3302 66.0552 76.978 65.2191 76.0727 64.6743C75.2546 64.1837 74.1436 64.2414 73.3798 64.8142C72.5667 65.4248 72.2836 66.2923 72.57 67.3622H77.1458ZM11.8034 67.4017C12.075 66.3252 11.8034 65.5121 11.0462 64.8866C10.2858 64.2578 9.40682 64.1656 8.5147 64.5557C7.61434 64.9508 7.14688 65.6882 7.08104 66.6675C7.05306 67.0757 7.09586 67.4198 7.66866 67.4099C9.0266 67.3852 10.3862 67.4017 11.8017 67.4017H11.8034ZM44.4697 67.4C44.7199 66.3301 44.473 65.4907 43.6697 64.8586C42.8665 64.2265 41.9579 64.1574 41.0608 64.6117C40.1901 65.0528 39.7226 65.8083 39.7737 66.7976C39.7835 67.005 40.0568 67.3687 40.2181 67.3737C41.6254 67.4198 43.0344 67.4 44.4697 67.4Z" fill="#FED395"/>
<path d="M0.00146484 47.4747C0.42613 46.7916 1.06313 46.6484 1.82851 46.6484C28.6334 46.66 55.4367 46.6583 82.2416 46.6583C82.4605 46.6583 82.6811 46.6468 82.8984 46.6715C83.6127 46.7538 84.1049 47.2624 84.1032 47.8977C84.1032 48.5397 83.6078 49.0368 82.8901 49.1092C82.7009 49.1289 82.5066 49.1191 82.3157 49.1191C55.4844 49.1191 28.6532 49.1191 1.82193 49.1289C1.05654 49.1289 0.416254 48.9973 0.00475682 48.2944V47.4731L0.00146484 47.4747Z" fill="#FED395"/>
<path d="M32.6776 79.8375C32.6776 79.1001 32.6661 78.361 32.6809 77.6236C32.6957 76.8978 33.0447 76.4286 33.7952 76.3513C34.4981 76.2789 35.0742 76.7332 35.1005 77.5134C35.1532 79.0688 35.1515 80.6292 35.0989 82.1847C35.0742 82.9237 34.5228 83.3648 33.866 83.35C33.1731 83.3352 32.727 82.8464 32.6776 82.0513C32.6743 81.997 32.6743 81.9427 32.6743 81.8867C32.6743 81.2037 32.6743 80.5206 32.6743 79.8358H32.6776V79.8375Z" fill="#FED395"/>
<path d="M72.4763 27.5191L71.7472 35.3128L69.2617 35.2552L70.0732 27.1504L72.4763 27.5191Z" fill="#FED395"/>
<path d="M20.9157 22.7245L20.9141 13.377L23.3748 13.4609V22.6356L20.9157 22.7245Z" fill="#FED395"/>
<path d="M32.4111 71.2285H35.3854L35.1287 78.5647L32.6745 78.7013L32.4111 71.2285Z" fill="#FED395"/>
</svg>
