<svg width="100" height="88" viewBox="0 0 100 88" fill="none" xmlns="http://www.w3.org/2000/svg">
<g clip-path="url(#clip0_19_2127)">
<path d="M50.4197 58.3515L99.4185 64.2455V10.1482C99.4185 10.1482 66.9957 -3.39748 50.4197 1.45736" stroke="#FED395" stroke-width="2" stroke-miterlimit="10"/>
<path d="M50.4197 60.0765C50.4197 60.0765 90.4096 69.0961 94.7348 74.9942V16.7199C94.7348 16.7199 70.5959 0.0689667 50.4197 1.45722" stroke="#FED395" stroke-width="2" stroke-miterlimit="10"/>
<path d="M50.4197 67.3835C50.4197 67.3835 90.4096 78.1405 93.2931 81.5908V20.1909C93.2931 20.1909 67.354 2.50081 50.4197 6.66152" stroke="#FED395" stroke-width="2" stroke-miterlimit="10"/>
<path d="M94.7347 75.0024L93.293 81.5906" stroke="#FED395" stroke-width="2" stroke-miterlimit="10"/>
<path d="M50.4197 71.5319L94.7348 87.4888C94.7348 87.4888 99.0686 88.5279 99.4185 84.0262C99.7684 79.5246 99.4185 7.71276 99.4185 7.71276C99.4185 7.71276 99.7768 4.58715 97.2558 3.54799C94.7348 2.50883 50.4197 6.66953 50.4197 6.66953" stroke="#FED395" stroke-width="2" stroke-miterlimit="10"/>
<path d="M49.5763 58.3515L0.581787 64.2455V10.1482C0.581787 10.1482 33.0045 -3.39748 49.5763 1.45736" stroke="#FED395" stroke-width="2" stroke-miterlimit="10"/>
<path d="M49.5763 60.0765C49.5763 60.0765 9.58645 69.1043 5.26538 75.0023V16.7199C5.26538 16.7199 29.4043 0.0689669 49.5763 1.45722" stroke="#FED395" stroke-width="2" stroke-miterlimit="10"/>
<path d="M49.5765 67.3835C49.5765 67.3835 9.58658 78.1405 6.70728 81.5908V20.1909C6.70728 20.1909 32.6463 2.50081 49.5765 6.66152" stroke="#FED395" stroke-width="2" stroke-miterlimit="10"/>
<path d="M5.26538 75.0024L6.70714 81.5906" stroke="#FED395" stroke-width="2" stroke-miterlimit="10"/>
<path d="M49.5764 71.5318L5.26548 87.4886C5.26548 87.4886 0.940198 88.5277 0.581866 84.0261C0.223534 79.5244 0.581866 7.71257 0.581866 7.71257C0.581866 7.71257 0.223534 4.57885 2.74451 3.53969C5.26548 2.50052 49.5764 6.66123 49.5764 6.66123" stroke="#FED395" stroke-width="2" stroke-miterlimit="10"/>
</g>
<defs>
<clipPath id="clip0_19_2127">
<rect width="100" height="88" fill="white"/>
</clipPath>
</defs>
</svg>
