<svg width="71" height="71" viewBox="0 0 71 71" fill="none" xmlns="http://www.w3.org/2000/svg">
<path d="M0.273456 35.3706C0.265262 27.4528 2.95501 19.7686 7.89939 13.5844C12.8438 7.40029 19.7476 3.08533 27.473 1.3508C29.995 0.777424 32.5735 0.489419 35.1599 0.492208C39.7391 0.492207 44.2736 1.39415 48.5042 3.14654C52.7349 4.89894 56.5789 7.46748 59.817 10.7055C63.055 13.9435 65.6235 17.7875 67.3758 22.0182C69.1282 26.2488 70.0302 30.7833 70.0302 35.3625C70.0302 39.9417 69.1282 44.4761 67.3758 48.7068C65.6235 52.9374 63.055 56.7815 59.817 60.0195C56.5789 63.2575 52.7349 65.826 48.5042 67.5784C44.2736 69.3308 39.7391 70.2327 35.1599 70.2327C32.5733 70.2397 29.9943 69.9516 27.473 69.3741C19.7503 67.6402 12.8485 63.3276 7.90443 57.1468C2.96035 50.966 0.268946 43.2855 0.273456 35.3706Z" fill="#FED395"/>
<path d="M0.273456 35.3704C0.265262 27.4526 2.95501 19.7684 7.89939 13.5842C12.8438 7.40007 19.7476 3.08512 27.473 1.35059C35.198 3.08869 42.1013 7.40412 47.0477 13.5871C51.994 19.77 54.6888 27.4523 54.6888 35.3704C54.6888 43.2884 51.994 50.9707 47.0477 57.1536C42.1013 63.3366 35.198 67.652 27.473 69.3901C19.7476 67.6556 12.8438 63.3406 7.89939 57.1565C2.95501 50.9723 0.265262 43.2881 0.273456 35.3704Z" fill="#080F24"/>
</svg>
