<svg width="71" height="71" viewBox="0 0 71 71" fill="none" xmlns="http://www.w3.org/2000/svg">
<path d="M70.0305 35.4459C70.0387 43.3636 67.3489 51.0478 62.4046 57.232C57.4602 63.4161 50.5563 67.7311 42.8309 69.4656C40.3096 70.0431 37.7307 70.3312 35.1441 70.3242C30.5654 70.3242 26.0315 69.4224 21.8013 67.6702C17.5712 65.918 13.7275 63.3498 10.4899 60.1121C7.25225 56.8745 4.68406 53.0309 2.93187 48.8007C1.17968 44.5706 0.277832 40.0367 0.277832 35.458C0.277832 30.8793 1.17968 26.3454 2.93187 22.1153C4.68406 17.8851 7.25225 14.0415 10.4899 10.8039C13.7275 7.56624 17.5712 4.998 21.8013 3.24581C26.0315 1.49362 30.5654 0.591773 35.1441 0.591773C37.7286 0.572554 40.3071 0.844262 42.8309 1.40177C50.5604 3.13721 57.4674 7.45579 62.4122 13.6449C67.357 19.8341 70.0442 27.524 70.0305 35.4459Z" fill="#FED395"/>
<path d="M70.0307 35.4455C70.0389 43.3633 67.3492 51.0475 62.4048 57.2317C57.4604 63.4158 50.5565 67.7308 42.8311 69.4653C35.1062 67.7272 28.2028 63.4118 23.2564 57.2288C18.31 51.0459 15.6152 43.3636 15.6152 35.4455C15.6152 27.5275 18.31 19.8452 23.2564 13.6623C28.2028 7.47931 35.1062 3.16389 42.8311 1.42578C50.5565 3.16031 57.4604 7.47524 62.4048 13.6594C67.3492 19.8435 70.0389 27.5278 70.0307 35.4455Z" fill="#080F24"/>
</svg>
