<svg width="702" height="372" viewBox="0 0 702 372" fill="none" xmlns="http://www.w3.org/2000/svg">
<rect width="702" height="324.806" rx="20.9552" fill="#0D1838"/>
<g clip-path="url(#clip0_523_2429)">
<path d="M656.744 130.786C657.132 131.148 657.517 131.516 657.899 131.888L657.899 202.605L656.648 202.605L656.648 130.878L656.74 130.797L656.744 130.786Z" fill="#FED395"/>
<path d="M657.895 116.408L657.895 158.748C657.484 158.803 657.066 158.843 656.648 158.862L656.648 116.408L657.895 116.408Z" fill="#FED395"/>
<path d="M650.268 45.4768L650.268 77.6413L650.074 77.5201C649.704 77.2739 649.352 77.0014 649.022 76.7046L649.022 45.4804L650.268 45.4768Z" fill="#FED395"/>
<path d="M650.268 45.4778L650.268 77.3669C649.833 77.0223 649.417 76.6544 649.022 76.2648L649.022 45.4705L650.268 45.4778Z" fill="#FED395"/>
<path d="M649.022 277.814L650.268 277.814L650.268 45.4768L649.022 45.4768L649.022 277.814Z" fill="#FED395"/>
<path d="M49.4114 277.682L50.658 277.682L50.658 45.3449L49.4113 45.3449L49.4114 277.682Z" fill="#FED395"/>
<path d="M42.9582 206.462L44.2048 206.462L44.2048 115.137L42.9582 115.137L42.9582 206.462Z" fill="#FED395"/>
<path d="M574.487 47.7656C574.215 48.2184 573.875 48.6261 573.479 48.9742L50.7753 48.9742L50.7753 47.7657L574.487 47.7656Z" fill="#FED395"/>
<path d="M654.518 47.7656L654.518 48.9742L234.692 48.9742L229.236 48.8016C227.11 48.7355 224.983 48.6546 222.856 48.6253L198.682 48.2836C192.962 48.2028 187.239 48.3755 181.519 48.46L170.2 48.6289C168.528 48.6546 166.864 48.7685 165.195 48.8603L162.995 48.9742L71.455 48.9742L79.4298 47.7657L654.518 47.7656Z" fill="#FED395"/>
<path d="M48.3811 274.989L652.124 274.989L652.124 273.78L48.3811 273.78L48.3811 274.989Z" fill="#FED395"/>
<path d="M91.0347 290.367L611.036 290.367L611.036 289.158L91.0347 289.158L91.0347 290.367Z" fill="#FED395"/>
<path d="M605.54 33.5861L605.54 33.5897L608.011 33.5897L608.011 34.7946L88.0134 34.7947L88.0134 33.5861L605.54 33.5861Z" fill="#FED395"/>
<path d="M611.718 34.0941C611.89 36.7757 612.154 39.45 612.55 42.1095C613.694 49.8017 615.117 57.4828 617.232 64.984C620.532 75.6369 624.566 86.4111 631.693 95.2714C636.06 100.804 641.52 105.362 647.225 109.528C650.752 112.099 654.507 114.41 657.983 117.029C656.373 116.614 654.621 115.593 653.132 114.634C651.134 113.374 649.146 112.092 647.188 110.773C641.322 106.732 635.763 102.211 631.242 96.7665C626.278 90.889 622.743 84.016 619.957 76.93C617.297 70.4212 615.297 63.6612 613.987 56.7518C612.709 50.3841 611.781 43.9508 611.208 37.481C611.102 35.457 610.79 33.4072 611.208 31.4199C611.467 32.2919 611.638 33.1879 611.718 34.0941V34.0941Z" fill="#FED395"/>
<path d="M610.196 34.013C610.575 34.1013 610.96 34.1627 611.347 34.1967V34.1967C611.325 34.1967 611.347 34.1746 611.347 34.1967C611.347 34.2187 611.347 34.2297 611.347 34.2371C611.172 34.3162 610.99 34.3825 610.805 34.4354C609.646 34.8432 608.388 34.5346 607.285 34.1783C607.926 34.0269 608.581 33.9407 609.239 33.9212C609.561 33.9157 609.882 33.9466 610.196 34.013V34.013Z" fill="#FED395"/>
<path d="M608.454 34.1737C609.386 34.2301 610.312 34.3529 611.226 34.541L611.168 34.5153C611.168 34.5153 611.27 34.5153 611.292 34.5594C611.314 34.6035 611.226 34.5851 611.182 34.5851L611.116 34.5851C609.546 34.6728 607.972 34.5492 606.434 34.2178C606.922 34.1737 607.45 34.1626 607.97 34.1626L608.454 34.1737Z" fill="#FED395"/>
<path d="M611.432 34.7033C609.622 34.71 607.814 34.581 606.024 34.3176C607.832 34.3468 609.637 34.4756 611.432 34.7033V34.7033Z" fill="#FED395"/>
<path d="M607.307 34.4826C608.674 34.523 610.049 34.6626 611.402 34.7949C611.274 34.8121 611.144 34.8194 611.014 34.8169C611.015 34.8097 611.015 34.8021 611.014 34.7949L611.014 34.8132L610.394 34.8132C608.972 34.7838 607.553 34.6722 606.144 34.479C606.529 34.4679 606.918 34.4716 607.307 34.4826Z" fill="#FED395"/>
<path d="M607.468 34.5423C608.573 34.5515 609.675 34.6374 610.768 34.7994L609.936 34.7994C608.759 34.7663 607.574 34.6929 606.401 34.5423C606.511 34.5423 606.625 34.5423 606.746 34.5423C606.984 34.5423 607.237 34.5423 607.468 34.5423Z" fill="#FED395"/>
<path d="M611.575 34.6218C611.556 34.6805 611.38 34.6806 611.318 34.6952C610.629 34.7614 609.928 34.7981 609.228 34.8018L608.795 34.8018C608.029 34.8018 607.266 34.7577 606.526 34.6879C607.442 34.6328 608.359 34.6401 609.298 34.6475C610.06 34.6475 610.819 34.6475 611.567 34.6475L611.575 34.6218Z" fill="#FED395"/>
<path d="M607.615 33.5907C608.844 33.6296 610.069 33.7523 611.281 33.958C609.738 33.917 608.199 33.7944 606.669 33.5907L607.615 33.5907Z" fill="#FED395"/>
<path d="M610.225 33.8334C610.647 33.8334 611.061 33.8702 611.472 33.8334C610.134 34.0722 608.308 33.9914 606.86 33.9363C607.743 33.8665 608.623 33.8187 609.511 33.8187C609.75 33.8114 609.988 33.8163 610.225 33.8334Z" fill="#FED395"/>
<path d="M606.915 34.0607C607.994 33.9599 609.079 33.9218 610.163 33.9469C610.61 33.9469 611.058 33.9469 611.494 33.9469C610.06 34.2003 608.414 34.0975 606.915 34.0607Z" fill="#FED395"/>
<path d="M609.943 33.8074C610.464 33.8006 610.985 33.8325 611.501 33.9029C609.723 33.9397 607.952 34.0719 606.174 34.0719C607.389 33.9015 608.614 33.8132 609.84 33.8074L609.943 33.8074Z" fill="#FED395"/>
<path d="M611.311 33.8394C609.705 33.8909 608.011 33.8909 606.383 33.7843C607.142 33.7219 607.982 33.7145 608.77 33.7072C609.617 33.7145 610.475 33.7476 611.311 33.8394Z" fill="#FED395"/>
<path d="M606.515 33.8071C608.191 33.6675 609.95 33.7152 611.593 33.6822C609.909 33.8942 608.208 33.9361 606.515 33.8071Z" fill="#FED395"/>
<path d="M608.433 33.7441C609.448 33.7441 610.471 33.9057 611.476 33.9571C609.639 34.0029 607.802 33.9268 605.976 33.7294C606.258 33.7294 606.552 33.7294 606.852 33.7294C607.373 33.711 607.908 33.7257 608.433 33.7441Z" fill="#FED395"/>
<path d="M609.925 33.9352C610.112 33.9719 611.23 33.9719 610.959 34.3025C610.822 34.3338 610.681 34.3338 610.544 34.3025C610.465 34.2867 610.384 34.2781 610.302 34.2768C609.969 34.2678 609.639 34.2071 609.323 34.0968C609.177 33.8801 609.617 33.9609 609.727 33.9756C609.775 33.9442 609.831 33.9276 609.888 33.9278L609.925 33.9352Z" fill="#FED395"/>
<path d="M611.116 34.1297C611.41 34.1297 611.483 34.5558 611.263 34.7065C611.146 34.824 610.896 34.7542 610.761 34.7946L610.68 34.7946L610.262 34.7946C610.064 34.7689 609.895 34.6807 609.954 34.4273C609.97 34.383 609.998 34.3441 610.035 34.3149C610.072 34.2857 610.116 34.2673 610.163 34.262C610.465 34.1691 610.778 34.116 611.094 34.104L611.116 34.1297Z" fill="#FED395"/>
<path d="M611.241 33.8516C611.399 33.892 611.344 34.0941 611.19 34.0904C611.198 34.1016 611.202 34.1151 611.202 34.129C611.202 34.1428 611.198 34.1563 611.19 34.1675C611.017 34.3218 610.786 34.4247 610.603 34.5716C610.753 34.601 610.911 34.6231 611.061 34.6451C611.061 34.6451 610.999 34.6451 611.01 34.6194C611.336 34.6965 610.669 34.6561 610.596 34.6414C610.284 34.601 610.889 34.2741 610.962 34.1749C610.797 34.1749 610.632 34.208 610.471 34.23C610.449 34.2321 610.428 34.2256 610.41 34.2119C610.393 34.1981 610.382 34.1783 610.379 34.1565C610.284 34.0537 610.42 33.9692 610.522 33.9618C610.625 33.9545 610.812 33.9067 610.951 33.8626C611.034 33.8472 611.117 33.8374 611.201 33.8333L611.241 33.8516Z" fill="#FED395"/>
<path d="M611.116 33.7659C611.116 33.7659 611.138 33.7659 611.116 33.7659C610.979 33.7824 610.84 33.7824 610.702 33.7659C610.75 33.7481 610.801 33.7406 610.852 33.7439C610.951 33.7549 611.043 33.7659 611.116 33.7659Z" fill="#FED395"/>
<path d="M611.344 33.7406C611.344 33.8801 611.083 33.8324 610.977 33.8728C610.912 33.8736 610.848 33.8835 610.786 33.9022C610.662 33.9279 610.522 33.9573 610.482 33.8765C610.442 33.7957 610.757 33.781 610.849 33.7552C610.915 33.753 610.98 33.7419 611.043 33.7222C611.107 33.7047 611.172 33.6936 611.237 33.6891C611.258 33.6879 611.279 33.692 611.297 33.701C611.316 33.71 611.332 33.7236 611.344 33.7406V33.7406Z" fill="#FED395"/>
<path d="M605.543 33.5898L611.014 33.5898L611.014 34.4641C610.644 34.5313 610.271 34.573 609.895 34.589C609.46 34.6202 609.023 34.6276 608.586 34.6111C608.149 34.5798 607.714 34.5172 607.285 34.4237L606.764 34.3098C606.321 34.3098 605.877 34.2731 605.433 34.2474L605.342 34.2474L605.342 33.5935L605.543 33.5898Z" fill="#FED395"/>
<path d="M654.368 204.103C652.428 205.246 650.514 206.428 648.692 207.74C644.553 210.682 640.781 214.109 637.454 217.948C628.892 227.646 623.007 239.254 618.351 251.116C615.689 258.176 614.27 265.604 612.972 272.991C612.439 276.1 612.072 279.236 611.872 282.384C611.685 284.757 611.872 287.159 611.703 289.507C611.703 289.507 611.703 289.463 611.721 289.481C611.697 289.581 611.691 289.684 611.703 289.786C611.702 289.799 611.697 289.812 611.688 289.823C611.68 289.833 611.669 289.841 611.656 289.846C611.643 289.85 611.629 289.85 611.616 289.847C611.603 289.844 611.591 289.836 611.582 289.826C611.421 289.615 611.297 289.378 611.215 289.125C610.607 287.508 610.786 285.738 610.724 284.044C610.724 278.325 611.674 272.657 612.715 267.044C613.546 262.409 614.675 257.834 616.096 253.345C617.762 248.544 619.732 243.853 621.992 239.302C626.182 230.526 631.451 222.198 638.205 215.057C641.564 211.48 645.319 208.299 649.399 205.576C650.987 204.496 652.663 203.534 654.313 202.546C655.308 201.911 656.438 201.519 657.613 201.403C656.728 202.518 655.624 203.437 654.368 204.103V204.103Z" fill="#FED395"/>
<path d="M44.377 205.265L44.8281 205.265C52.9276 205.834 60.8475 211.466 66.2814 217.02C73.2258 224.315 78.6349 232.935 82.187 242.367C85.1397 249.504 87.2727 256.955 88.545 264.576C89.3993 269.719 90.1546 274.92 90.1949 280.151C90.2426 281.9 90.2609 283.652 90.3673 285.404C90.5139 286.797 90.5249 288.27 89.9493 289.563C89.4369 288.162 89.1582 286.686 89.1243 285.195C88.8859 281.827 88.8346 278.425 88.5669 275.067C88.2333 271.118 87.5586 267.247 86.9316 263.342C85.6447 256.057 83.4154 249.015 80.6214 242.165C76.6175 231.927 70.4319 222.361 62.1784 214.838C58.7721 211.954 55.0102 209.353 50.8486 207.598C48.4616 206.554 45.8254 206.202 43.3981 205.287C43.4274 205.32 43.3981 205.287 43.3981 205.287C43.5979 205.252 43.8004 205.236 44.0031 205.239L44.377 205.265Z" fill="#FED395"/>
<path d="M89.964 288.071C90.2995 288.47 90.5491 288.934 90.6974 289.434V289.434C90.8734 289.434 91.064 289.397 91.207 289.397C91.0054 289.61 90.866 289.908 90.6203 290.066C89.579 290.297 89.7037 288.655 89.9567 288.067L89.964 288.071Z" fill="#FED395"/>
<path d="M88.5192 33.0213C89.9859 36.3751 90.0922 40.1367 90.4332 43.7256C90.9494 51.0054 90.6431 58.3202 89.5202 65.5311C88.4193 70.6843 86.8924 75.7368 84.9553 80.6362C82.1005 87.262 78.2974 93.4358 73.6658 98.963C71.5502 101.483 69.2659 103.885 66.9486 106.218C65.009 108.147 62.9997 110.042 60.6348 111.482C57.2945 113.462 53.8295 115.493 49.9759 116.357C47.776 116.772 45.4293 117.378 43.2074 116.772C45.4293 115.328 48.3113 115.526 50.7569 114.773C54.6948 113.51 58.3541 111.438 61.7127 109.098C64.646 106.791 67.1906 104.062 69.7242 101.358C73.6306 97.2372 77.026 92.6588 79.8367 87.7223C83.9287 80.864 86.3963 73.2343 88.1636 65.5348C89.9529 54.7974 89.7329 43.8028 88.5302 33.0323C88.5009 33.0543 88.5302 33.0323 88.5302 33.0323L88.5192 33.0213Z" fill="#FED395"/>
<path d="M64.4993 76.0512C68.1989 81.0287 60.1911 86.0834 56.8399 81.0765C54.8709 77.6492 57.8592 74.3174 61.0088 74.3137C61.6843 74.3177 62.3499 74.4763 62.9549 74.7775C63.5599 75.0786 64.0881 75.5143 64.4993 76.0512V76.0512Z" fill="#FED395"/>
<path d="M94.7013 70.2795C94.5685 70.3261 94.4266 70.3412 94.287 70.3236C94.3285 70.3271 94.3702 70.3271 94.4117 70.3236C94.5101 70.3273 94.6084 70.3123 94.7013 70.2795ZM95.9553 67.4546C99.0682 68.8064 97.1653 73.3835 93.946 72.2301C91.1081 71.128 92.4794 67.2636 94.9947 67.2636C95.3235 67.2707 95.6487 67.3353 95.9553 67.4546V67.4546Z" fill="#FED395"/>
<path d="M141.945 70.1745C141.814 70.3429 141.637 70.4703 141.436 70.5419C141.641 70.4786 141.82 70.3495 141.945 70.1745ZM140.585 67.7978C140.219 67.8717 139.886 68.0609 139.635 68.3378C139.895 68.0705 140.224 67.8821 140.585 67.7942L140.585 67.7978ZM143.452 67.6031C145.799 70.608 140.966 73.7855 138.939 70.6337C137.758 68.595 139.522 66.6186 141.399 66.615C141.793 66.6172 142.182 66.707 142.537 66.8779C142.892 67.0488 143.204 67.2965 143.452 67.6031Z" fill="#FED395"/>
<path d="M186.436 74.7883C188.819 77.863 184.845 82.0801 181.442 80.1882C177.775 77.9842 180.709 73.4402 183.829 73.4402C184.338 73.4483 184.838 73.5741 185.29 73.808C185.742 74.0419 186.135 74.3774 186.436 74.7883V74.7883Z" fill="#FED395"/>
<path d="M169.782 67.3826C170.984 67.4368 172.164 67.7276 173.254 68.2385C173.185 68.2385 173.06 68.1761 172.965 68.1651C169.57 67.6655 166.387 69.6344 164.165 71.9377C163.248 73.0681 162.464 74.3007 161.829 75.6111C160.693 77.5948 161.008 79.0751 161.763 81.1212C163.938 86.7159 168.503 88.6334 174.23 86.602C170.93 88.2477 166.875 88.5012 163.597 86.6608C161.551 85.6322 160.168 83.722 159.288 81.7163C158.617 80.1808 157.939 78.5462 158.159 76.8454C159.116 71.585 163.538 67.3606 169.126 67.3606C169.339 67.3643 169.558 67.3716 169.782 67.3826Z" fill="#FED395"/>
<path d="M172.187 68.3367C168.946 69.2954 167.249 73.035 167.021 76.1464C166.878 77.7884 167.549 79.3239 168.294 80.7639C168.808 81.8605 169.468 82.8824 170.255 83.8018C170.836 84.6399 171.573 85.3572 172.426 85.914C173.077 86.4816 173.868 86.8624 174.717 87.0161C173.034 86.9793 171.615 85.7157 170.204 84.9112C167.432 82.8871 164.667 79.7684 165.287 76.1758C165.793 72.7705 168.532 68.9575 172.187 68.3404L172.187 68.3367Z" fill="#FED395"/>
<path d="M163.71 73.9344C163.501 74.0079 163.402 74.3017 163.369 74.4817C163.359 74.5941 163.359 74.7073 163.369 74.8197L163.413 75.0217C164.902 75.5434 165.657 76.5352 166.545 77.6593C168.081 79.6466 167.645 82.8021 165.166 83.849C164.686 84.0556 164.169 84.1611 163.646 84.1587C163.124 84.1564 162.608 84.0464 162.13 83.8355C161.652 83.6246 161.222 83.3174 160.867 82.9329C160.513 82.5485 160.241 82.095 160.069 81.6008C159.805 80.5933 159.789 79.5362 160.023 78.5211C160.258 77.506 160.735 76.5634 161.415 75.7748C161.811 75.2752 162.643 73.8793 163.435 73.8793C163.53 73.8764 163.624 73.8952 163.71 73.9344V73.9344Z" fill="#FED395"/>
<path d="M162.959 74.6667C162.68 75.574 163.043 76.6136 163.201 77.5393C163.509 78.7764 164.247 79.8629 165.283 80.603C166.6 81.6536 168.382 82.0246 169.592 83.2037C169.833 83.4186 170.028 83.6805 170.166 83.9735C170.303 84.2664 170.379 84.5842 170.39 84.9076C170.4 85.231 170.345 85.5532 170.227 85.8545C170.11 86.1559 169.932 86.4301 169.705 86.6604C167.967 88.3612 165.434 86.8625 164.231 85.2829C163.157 84.9156 161.91 84.3609 161.477 83.2552C161.239 82.4837 162.049 81.9989 162.764 82.1238C162.482 80.4009 162.596 78.8177 162.651 77.1022C162.642 76.3409 162.707 75.5806 162.845 74.832C162.845 74.7806 162.918 74.663 162.951 74.663L162.959 74.6667Z" fill="#FED395"/>
<path d="M168.121 87.1415C168.095 87.1314 168.072 87.1131 168.057 87.0893C168.042 87.0655 168.035 87.0375 168.037 87.0093C168.059 86.9469 168.154 86.9505 168.206 86.9138C168.27 86.8803 168.331 86.8409 168.389 86.7962C168.352 86.8807 168.209 86.9579 168.128 87.024C169.258 87.3068 170.431 86.7669 171.542 86.7154C170.482 87.1232 169.258 87.6926 168.121 87.1415Z" fill="#FED395"/>
<path d="M172.264 86.8513C171.164 87.3031 169.698 87.586 168.624 87.2701C169.947 87.215 171.264 86.9027 172.561 86.6897C172.561 86.6897 172.528 86.6713 172.561 86.6676C172.664 86.7338 172.316 86.8146 172.264 86.8513Z" fill="#FED395"/>
<path d="M172.1 86.884C170.98 87.2766 169.787 87.4097 168.609 87.2733C168.561 87.2733 168.404 87.2329 168.444 87.1448L168.444 87.1778C169.074 87.1979 169.705 87.1487 170.325 87.0309C170.842 86.9379 171.365 86.8838 171.891 86.8693L172.1 86.884Z" fill="#FED395"/>
<path d="M168.418 86.3737C169.606 86.6749 170.985 86.4104 172.136 86.8439C171.03 86.9693 169.91 86.8833 168.836 86.5904C168.836 86.5904 168.319 86.4361 168.418 86.3627L168.418 86.3737Z" fill="#FED395"/>
<path d="M171.381 86.7781C171.418 86.7781 171.484 86.7781 171.498 86.8001C170.489 87.0353 169.439 87.0353 168.429 86.8001C168.429 86.7524 168.521 86.7524 168.55 86.723C168.58 86.6936 168.521 86.7597 168.492 86.7781C169.111 86.7561 169.735 86.6899 170.354 86.6899C170.698 86.6901 171.042 86.7196 171.381 86.7781Z" fill="#FED395"/>
<path d="M170.237 86.5502C170.461 86.5502 170.644 86.6531 170.857 86.6604C170.67 87.3584 169.353 87.182 168.844 86.8808C168.767 86.7816 168.968 86.7669 169.027 86.7302C169.086 86.6935 168.994 86.7669 168.979 86.7853C169.353 86.6664 169.737 86.5864 170.127 86.5465L170.237 86.5502Z" fill="#FED395"/>
<path d="M170.373 86.8223C169.918 87.3146 169.001 87.2301 168.495 86.859C168.47 86.8333 168.572 86.7856 168.539 86.8333C168.913 86.7273 169.296 86.6572 169.683 86.624C169.928 86.6192 170.168 86.6883 170.373 86.8223V86.8223Z" fill="#FED395"/>
<path d="M170.651 85.742C171.055 86.1093 170.846 86.3885 170.332 86.3407C170.002 86.3407 169.317 85.8375 169.625 85.5803C169.762 85.5288 169.907 85.5014 170.054 85.4995C170.164 85.4977 170.274 85.5182 170.377 85.5598C170.48 85.6015 170.573 85.6634 170.651 85.742V85.742Z" fill="#FED395"/>
<path d="M170.89 84.9482C171.561 85.3854 172.173 85.8409 172.807 86.3111C172.866 86.344 172.918 86.3892 172.959 86.4437C172.999 86.4982 173.027 86.5607 173.042 86.627C173.049 86.6975 173.037 86.7685 173.009 86.8332C172.98 86.8978 172.935 86.9539 172.878 86.9958C172.821 87.0377 172.754 87.064 172.684 87.0721C172.613 87.0802 172.542 87.0699 172.477 87.0421C172.136 86.9503 171.858 86.7115 171.531 86.594C171.035 86.4798 170.545 86.3388 170.065 86.1715C169.874 86.2486 169.676 86.3074 169.489 86.3735C169.808 86.5388 170.38 86.5058 170.736 86.5903C170.6 86.5903 170.45 86.5903 170.296 86.5903C169.97 86.641 169.637 86.6029 169.331 86.4801C169.1 86.2523 169.526 86.1127 169.698 86.0429C169.548 85.9915 169.405 85.9327 169.258 85.874C169.214 85.874 169.111 85.8372 169.133 85.7748C169.152 85.7748 169.133 85.8005 169.133 85.8042C169.356 85.8767 169.582 85.9356 169.812 85.9805C169.962 85.8841 170.139 85.8355 170.318 85.8409C170.03 85.6712 169.786 85.4358 169.606 85.154C169.576 85.0875 169.568 85.013 169.583 84.9415C169.598 84.87 169.636 84.8052 169.69 84.7567C169.745 84.7082 169.813 84.6785 169.886 84.672C169.959 84.6655 170.032 84.6825 170.094 84.7205C170.154 84.6826 170.224 84.6622 170.296 84.6617C170.519 84.6923 170.727 84.7925 170.89 84.9482V84.9482Z" fill="#FED395"/>
<path d="M169.878 86.1056C170.178 86.1815 170.491 86.1952 170.798 86.146C171.169 86.0754 171.554 86.1216 171.898 86.2783C171.942 86.2996 171.98 86.331 172.009 86.37C172.038 86.4089 172.058 86.4543 172.066 86.5023C172.022 86.9248 171.333 86.6823 171.047 86.8256C170.468 86.9101 169.467 86.9726 169.137 86.4142C169.1 86.2746 169.199 86.2121 169.28 86.135C169.379 86.0977 169.485 86.0803 169.591 86.0836C169.698 86.0946 169.79 86.1019 169.878 86.1056Z" fill="#FED395"/>
<path d="M169.999 87.2548C170.967 87.0858 171.971 87.0161 172.932 86.7993C172.014 87.2176 171 87.3752 169.999 87.2548Z" fill="#FED395"/>
<path d="M170.043 87.3178C171.205 87.1488 172.415 86.8954 173.559 86.8035C172.444 87.1966 171.216 87.5602 170.043 87.3178Z" fill="#FED395"/>
<path d="M169.452 87.3465C170.398 87.2767 171.286 86.9791 172.217 86.9056C172.656 86.9148 173.094 86.8791 173.526 86.7991C172.293 87.5123 170.829 87.709 169.452 87.3465V87.3465Z" fill="#FED395"/>
<path d="M173.134 86.6856C173.278 86.7231 173.42 86.7685 173.559 86.8215C173.236 86.8582 172.91 86.8127 172.609 86.6893C172.687 86.6705 172.767 86.6618 172.848 86.6636C172.943 86.6632 173.039 86.6705 173.134 86.6856V86.6856Z" fill="#FED395"/>
<path d="M173.555 86.8249C173.326 86.8943 173.086 86.918 172.847 86.8947C173.013 86.8391 173.186 86.8105 173.361 86.8102C173.426 86.8109 173.491 86.8158 173.555 86.8249V86.8249Z" fill="#FED395"/>
<path d="M173.078 86.7328C173.218 86.7548 173.361 86.8026 173.496 86.8136C173.212 86.8286 172.927 86.7951 172.653 86.7144C172.686 86.7104 172.719 86.7104 172.752 86.7144C172.855 86.7034 172.979 86.7254 173.078 86.7328Z" fill="#FED395"/>
<path d="M173.493 86.7736C173.493 86.7736 173.493 86.7919 173.464 86.7919C173.23 86.7406 173.007 86.6499 172.804 86.5238C173.041 86.5855 173.271 86.6691 173.493 86.7736V86.7736Z" fill="#FED395"/>
<path d="M173.496 86.7929C173.496 86.7672 173.496 86.7929 173.526 86.7929C173.555 86.7929 173.526 86.8149 173.482 86.7929C173.196 86.7481 172.923 86.6416 172.682 86.4807C172.966 86.5495 173.24 86.6544 173.496 86.7929V86.7929Z" fill="#FED395"/>
<path d="M173.416 86.7914L173.453 86.7914C173.453 86.7914 173.302 86.8171 173.299 86.8171C173.015 86.8091 172.732 86.7809 172.452 86.7326C172.525 86.7287 172.598 86.7287 172.672 86.7326C172.921 86.7317 173.17 86.7513 173.416 86.7914V86.7914Z" fill="#FED395"/>
<path d="M173.225 86.7886L173.222 86.7919L173.225 86.7886Z" fill="#FED395"/>
<path d="M172.316 86.9168C172.587 86.836 172.947 86.8764 173.229 86.7919C172.944 86.9252 172.626 86.9688 172.316 86.9168V86.9168Z" fill="#FED395"/>
<path d="M172.708 86.8475C172.881 86.7971 173.058 86.7602 173.236 86.7373C173.163 86.8439 172.84 86.8512 172.708 86.8475Z" fill="#FED395"/>
<path d="M173.244 86.7774C173.012 86.8755 172.758 86.9061 172.51 86.8656C172.739 86.7949 172.979 86.765 173.218 86.7774V86.7774L173.244 86.7774Z" fill="#FED395"/>
<path d="M173.185 86.7629C173.207 86.8217 172.888 86.8291 172.859 86.8291C172.954 86.7892 173.056 86.768 173.159 86.7666L173.185 86.7666L173.185 86.7629Z" fill="#FED395"/>
<path d="M171.711 86.6055C172.325 86.6237 172.938 86.6826 173.544 86.7818C172.444 86.9104 171.132 87.2704 170.024 86.7818C170.546 86.6497 171.085 86.5916 171.623 86.6091L171.711 86.6055Z" fill="#FED395"/>
<path d="M166.083 70.5127C166.941 71.1555 164.425 74.9392 164.198 76.0228C164.044 76.4673 163.927 76.9706 163.776 77.3967C163.817 77.0734 163.861 76.7502 163.897 76.4232C163.661 76.9571 163.474 77.5117 163.34 78.08C163.311 77.3232 164.917 70.4686 165.951 70.4686C165.998 70.4694 166.044 70.4847 166.083 70.5127V70.5127Z" fill="#FED395"/>
<path d="M166.317 69.3067C167.755 69.821 164.814 73.0426 164.304 73.7405C163.549 74.6883 162.581 75.6433 162.577 76.918C162.588 76.9652 162.616 77.0069 162.654 77.0356C162.632 77.0576 162.563 76.9621 162.548 76.9291C162.502 76.5783 162.529 76.2216 162.629 75.8821C162.28 76.345 161.932 76.8078 161.576 77.2707C161.463 77.5352 161.122 77.7629 160.883 77.4911C160.645 77.2192 160.931 76.8923 161.019 76.6205C161.42 75.6336 161.925 74.6927 162.526 73.814C163.113 72.8956 163.879 72.0912 164.488 71.1912C164.854 70.6585 165.32 69.2736 166.097 69.2736C166.172 69.2727 166.246 69.2839 166.317 69.3067V69.3067Z" fill="#FED395"/>
<path d="M166.376 70.3764C166.229 72.2131 165.276 73.9396 164.675 75.6845C164.418 76.6579 164.264 77.7049 163.692 78.5608C163.658 78.603 163.614 78.6371 163.565 78.6605C163.516 78.6839 163.462 78.696 163.408 78.696C163.353 78.696 163.3 78.6839 163.251 78.6605C163.201 78.6371 163.158 78.603 163.124 78.5608C162.922 78.2743 163.124 77.9106 163.157 77.5947C163.319 76.6152 163.557 75.6499 163.868 74.7074C163.296 75.7102 162.768 76.7865 162.244 77.7894C162.328 77.0547 164.546 69.9613 165.91 69.9613C166.083 69.9723 166.233 70.0972 166.376 70.3764Z" fill="#FED395"/>
<path d="M168.767 68.704C169.555 68.7407 169.5 69.6554 168.844 69.8868C168.99 70.1403 168.796 70.3754 168.616 70.5407C167.504 71.9345 166.558 73.4548 165.8 75.07C165.8 75.8598 165.837 76.6459 165.8 77.432C165.823 77.6529 165.776 77.8753 165.665 78.0675C165.605 78.1428 165.525 78.1983 165.433 78.2266C165.341 78.255 165.244 78.2548 165.152 78.2261C165.061 78.1974 164.98 78.1416 164.921 78.0661C164.862 77.9905 164.827 77.8988 164.821 77.803C164.754 77.8975 164.656 77.9656 164.544 77.9958C164.432 78.0261 164.313 78.0167 164.207 77.9691C164.101 77.9215 164.015 77.8388 163.964 77.7348C163.912 77.6309 163.897 77.5122 163.923 77.399C163.884 77.5032 163.823 77.5979 163.744 77.6771C163.666 77.7563 163.572 77.8181 163.468 77.8586C163.365 77.8991 163.254 77.9174 163.143 77.9122C163.031 77.9071 162.923 77.8787 162.823 77.8288C162.174 77.4614 162.651 76.7267 162.86 76.2271C163.11 75.849 163.238 75.4026 163.226 74.9488C163.263 74.2779 163.482 73.63 163.861 73.0753C164.099 72.7851 164.411 72.4031 164.843 72.4986C165.21 72.0468 165.118 71.3635 165.544 70.9484C165.789 70.1366 166.669 69.7729 167.333 69.3321C167.695 68.9491 168.193 68.7225 168.719 68.7003L168.767 68.704Z" fill="#FED395"/>
<path d="M171.161 68.0389C171.368 68.0053 171.579 68.0178 171.781 68.0756C171.579 68.0647 171.378 68.0973 171.19 68.1711C171.19 68.4246 170.93 68.5127 170.725 68.5715C170.186 68.8462 169.692 69.2003 169.258 69.6221C168.822 70.0299 168.283 71.0254 167.652 70.2723C166.636 69.7911 168.646 68.5752 169.119 68.3474C169.654 68.113 170.215 67.9441 170.791 67.8442C170.811 67.8404 170.832 67.8404 170.853 67.8442C170.917 67.8469 170.979 67.8663 171.033 67.9005C171.087 67.9346 171.131 67.9823 171.161 68.0389V68.0389Z" fill="#FED395"/>
<path d="M168.8 69.9426C168.796 69.9533 168.796 69.9649 168.8 69.9756V69.9756C168.745 69.9095 169.016 69.7222 169.082 69.6634C170.036 68.9098 171.177 68.431 172.382 68.2785C171.126 68.6875 169.923 69.2462 168.8 69.9426Z" fill="#FED395"/>
<path d="M169.617 69.2517C170.486 68.6273 171.722 68.3334 172.767 68.0983C171.748 68.5611 170.637 68.8256 169.617 69.2517Z" fill="#FED395"/>
<path d="M169.793 69.1007C170.585 68.3661 171.891 68.131 172.943 68.0428C171.913 68.4395 170.783 68.6305 169.793 69.1007Z" fill="#FED395"/>
<path d="M170.314 68.6237C170.893 68.2196 171.81 68.1094 172.514 68.0653C171.802 68.3078 171.007 68.3372 170.314 68.6237Z" fill="#FED395"/>
<path d="M172.473 68.0436C171.913 68.2199 171.22 68.1391 170.64 68.2714C170.991 68.0718 171.392 67.9786 171.795 68.0032C172.022 68.0048 172.248 68.0183 172.473 68.0436Z" fill="#FED395"/>
<path d="M172.18 68.1023C171.938 68.1574 171.696 68.2088 171.447 68.2418C171.198 68.2749 171.014 68.2859 170.802 68.3337C171.235 68.1751 171.693 68.0967 172.155 68.1023L172.18 68.1023Z" fill="#FED395"/>
<path d="M649.645 73.0421C660.619 75.518 658.339 90.1272 647.251 89.5358C636.273 88.0224 637.692 72.8915 647.848 72.8915C648.45 72.893 649.051 72.9433 649.645 73.0421Z" fill="#FED395"/>
<path d="M650.096 65.9053C650.021 66.0681 649.906 66.2096 649.762 66.3167C649.913 66.2167 650.029 66.0732 650.096 65.9053V65.9053ZM652.039 63.2678C654.192 66.7869 647.955 70.2142 646.25 66.2432C645.212 63.8812 647.372 61.8351 649.487 61.8351C650.001 61.8293 650.507 61.9586 650.954 62.21C651.402 62.4614 651.776 62.8261 652.039 63.2678V63.2678Z" fill="#FED395"/>
<path d="M628.056 67.4158C632.32 69.2525 628.65 75.4238 624.833 72.9479C622.204 71.1921 624.243 67.2064 626.978 67.2064C627.348 67.2057 627.714 67.2768 628.056 67.4158V67.4158Z" fill="#FED395"/>
<path d="M480.739 68.4443C481.37 68.7098 481.889 69.1861 482.208 69.7921C482.527 70.398 482.626 71.0961 482.489 71.7673C482.352 72.4385 481.987 73.0413 481.456 73.4729C480.925 73.9046 480.261 74.1384 479.577 74.1344C475.247 74.0095 475.94 68.1394 479.317 68.1394C479.806 68.1461 480.29 68.2497 480.739 68.4443V68.4443Z" fill="#FED395"/>
<path d="M495.846 271.43C501.21 275.387 496.55 282.818 490.493 280.339C484.754 277.525 487.688 270.248 492.48 270.248C493.698 270.277 494.876 270.691 495.846 271.43V271.43Z" fill="#FED395"/>
<path d="M479.999 273.289C482.026 273.755 481.025 276.87 479.126 276.305C477.362 275.802 478.059 273.248 479.647 273.248C479.765 273.248 479.883 273.261 479.999 273.289V273.289Z" fill="#FED395"/>
<path d="M391.469 284.217C397.335 285.11 397.992 293.632 391.667 294.201C387.021 295.27 384.755 292.28 384.88 289.29C384.986 286.718 386.852 284.147 390.482 284.147C390.812 284.151 391.142 284.174 391.469 284.217V284.217Z" fill="#FED395"/>
<path d="M480.002 272.161C481.979 273.061 482.283 275.966 480.065 276.774C479.671 276.923 479.248 276.973 478.831 276.922C478.414 276.871 478.015 276.719 477.669 276.48C477.323 276.242 477.04 275.922 476.843 275.55C476.647 275.178 476.543 274.764 476.541 274.343C476.586 273.698 476.873 273.094 477.346 272.653C477.818 272.212 478.44 271.968 479.086 271.97C479.401 271.968 479.714 272.033 480.002 272.161V272.161Z" fill="#FED395"/>
<path d="M64.2318 78.7847L159.497 78.7847L159.497 77.3667L64.2318 77.3667L64.2318 78.7847Z" fill="#FED395"/>
<path d="M183.316 77.3631C183.312 77.8419 183.254 78.3188 183.143 78.7847L161.694 78.7847C161.075 78.3953 160.441 78.028 159.791 77.6827L159.831 77.7047C159.695 77.6386 159.501 77.5761 159.428 77.4366C159.414 77.4117 159.407 77.384 159.406 77.3557L183.316 77.3631Z" fill="#FED395"/>
<path d="M94.5912 70.1818L141.535 70.1818L141.535 68.7639L94.5912 68.7639L94.5912 70.1818Z" fill="#FED395"/>
<path d="M479.423 71.2425L626.16 71.2425L626.16 69.8245L479.423 69.8245L479.423 71.2425Z" fill="#FED395"/>
<path d="M243.217 161.32C243.217 155.953 238.733 151.604 233.207 151.604C227.682 151.604 223.197 155.953 223.197 161.32C223.197 166.687 227.678 171.04 233.207 171.04C238.736 171.04 243.217 166.69 243.217 161.32ZM248.801 159.773L248.761 159.773L248.761 161.584L248.845 161.584C248.555 169.552 241.813 175.911 233.537 175.911C225.075 175.911 218.218 169.251 218.218 161.037C218.218 152.823 225.075 146.163 233.537 146.163C241.556 146.174 248.134 152.155 248.801 159.773Z" fill="#FED395"/>
<path d="M248.009 158.288C248.046 159.566 248.064 160.862 248.064 162.175C248.064 162.722 248.064 163.277 248.064 163.813L247.976 163.813L247.976 158.303L248.009 158.288Z" fill="#FED395"/>
<path d="M250.55 158.288C250.455 159.306 250.404 160.33 250.404 161.37C250.404 162.189 250.437 163.008 250.495 163.813L247.969 163.813L247.969 158.303L250.55 158.288Z" fill="#FED395"/>
<path d="M296.221 158.288L296.221 163.798L265.624 163.798C265.625 163.786 265.625 163.774 265.624 163.762C266.411 162.183 267.079 160.548 267.622 158.869C267.685 158.678 267.74 158.479 267.787 158.274L296.221 158.288Z" fill="#FED395"/>
<path d="M399.979 162.634C399.979 136.458 377.979 115.247 350.865 115.247C323.75 115.247 301.732 136.465 301.732 162.634C301.732 188.804 323.732 210.022 350.865 210.022C377.998 210.022 399.979 188.808 399.979 162.634ZM401.357 162.37C401.357 189.186 378.834 210.914 351.052 210.914C332.81 210.914 316.839 201.547 308.017 187.529L307.976 187.478C303.17 179.841 300.657 170.981 300.737 161.953C300.817 152.925 303.486 144.11 308.427 136.56C308.444 136.551 308.458 136.537 308.468 136.52C308.485 136.495 308.501 136.47 308.515 136.443L308.581 136.333L308.607 136.289C317.543 122.781 333.206 113.829 351.044 113.829C378.834 113.826 401.357 135.561 401.357 162.377L401.357 162.37Z" fill="#FED395"/>
<path d="M369.484 159.956C369.479 162.775 368.823 165.555 367.568 168.078C366.312 170.601 364.491 172.799 362.246 174.499C363.667 173.191 364.802 171.601 365.577 169.83C366.353 168.06 366.753 166.147 366.752 164.213C366.752 156.433 360.365 150.122 352.485 150.122C344.606 150.122 338.219 156.433 338.219 164.213C338.219 171.85 344.367 178.066 352.042 178.297C351.649 178.323 351.25 178.334 350.85 178.334C340.565 178.334 332.224 170.102 332.224 159.941C332.224 149.78 340.565 141.548 350.85 141.548C361.135 141.548 369.484 149.795 369.484 159.956Z" fill="#FED395"/>
<path d="M338.127 127.236C338.127 127.258 338.109 127.214 338.105 127.214C338.091 127.188 338.069 127.167 338.043 127.155C336.811 127.673 335.663 128.444 334.42 128.992C332.848 129.854 331.373 130.882 330.02 132.059C328.939 132.841 327.915 133.7 326.959 134.63C327.637 133.043 329.1 131.934 330.482 130.913C332.682 129.131 335.37 127.941 338.065 127.148C338.095 127.169 338.116 127.2 338.127 127.236Z" fill="#FED395"/>
<path d="M323.112 137.122C323.13 137.122 323.193 137.206 323.167 137.21C323.156 137.185 323.138 137.163 323.116 137.148L323.09 137.148C322.594 137.97 322.042 138.757 321.436 139.502C321.62 138.628 322.265 137.948 322.866 137.298C322.94 137.247 322.998 137.115 323.094 137.115L323.112 137.122Z" fill="#FED395"/>
<path d="M349.387 124.251C358.315 124.501 367.353 126.598 374.811 131.495C377.478 133.245 379.977 135.24 382.276 137.453C382.952 138.133 383.579 138.861 384.15 139.632C382.755 138.653 381.416 137.597 380.139 136.469C373.906 130.907 365.912 127.576 357.674 125.996C352.735 125.056 347.609 124.6 342.604 125.103C344.353 124.369 346.329 124.24 348.258 124.24C348.635 124.24 349.013 124.244 349.387 124.251Z" fill="#FED395"/>
<path d="M326.152 171.697C327.97 175.06 330.594 177.917 333.789 180.01C336.536 181.59 339.495 182.997 342.626 183.592C340.287 183.485 338.094 182.673 336.026 181.682C332.59 180.238 329.793 177.696 327.556 174.849C324.766 171.176 323.31 166.525 323.156 162.021C324.157 165.228 324.502 168.685 326.152 171.697Z" fill="#FED395"/>
<path d="M324.894 180.605C326.519 182.074 328.161 183.588 330.185 184.513C330.43 184.612 330.683 184.692 330.94 184.752C330.676 184.724 330.415 184.672 330.159 184.598C328.457 183.999 326.885 183.076 325.532 181.879C323.644 180.487 322.382 178.403 322.02 176.083C322.809 177.691 323.773 179.208 324.894 180.605Z" fill="#FED395"/>
<path d="M367.438 189.406C367.443 189.441 367.443 189.477 367.438 189.512C367.432 189.477 367.432 189.441 367.438 189.406Z" fill="#FED395"/>
<path d="M367.441 189.561C367.428 189.6 367.407 189.636 367.379 189.667C367.403 189.622 367.422 189.574 367.434 189.524C367.435 189.536 367.437 189.549 367.441 189.561Z" fill="#FED395"/>
<path d="M362.367 192.963C360.196 194.101 357.809 194.737 355.4 195.211C352.016 195.835 348.346 195.743 345.178 194.355C344.701 194.145 344.162 193.954 343.711 193.738C344.643 193.925 345.581 194.076 346.505 194.281C348.511 194.557 350.494 194.946 352.526 194.847C355.841 194.701 359.102 193.948 362.147 192.625C363.903 191.82 365.726 191.016 367.229 189.807C367.282 189.76 367.332 189.709 367.379 189.657C366.855 190.645 363.163 192.606 362.367 192.963Z" fill="#FED395"/>
<path d="M389.533 172.695C388.84 174.65 388.031 176.561 387.109 178.418C385.448 182.091 382.918 185.328 379.988 188.134C377.357 190.803 374.442 193.176 371.295 195.209C368.161 197.216 364.726 198.704 361.12 199.617C358.792 200.326 355.206 200.719 353.365 200.352C357.378 200.246 361.332 199.353 365.003 197.725C366.544 197.052 368.048 196.294 369.506 195.455C371.317 194.272 373.055 192.99 374.764 191.675C376.465 190.318 378.082 188.858 379.607 187.304C381.213 185.728 382.819 184.123 384.062 182.257C385.939 179.711 387.329 176.879 388.642 174.032C389.437 172.294 389.819 170.358 390.717 168.694C390.226 170.006 389.973 171.372 389.533 172.695Z" fill="#FED395"/>
<path d="M354.271 217.427C358.671 219.694 354.707 225.601 350.997 222.456C350.513 222.066 350.164 221.534 349.997 220.935C349.831 220.336 349.855 219.699 350.067 219.115C350.279 218.53 350.669 218.027 351.18 217.675C351.692 217.323 352.301 217.14 352.922 217.152C353.385 217.155 353.843 217.249 354.271 217.427V217.427Z" fill="#FED395"/>
<path d="M360.559 218.815C361.956 220.116 360.171 222.411 358.521 221.471C356.687 220.512 357.861 218.293 359.36 218.293C359.812 218.304 360.243 218.491 360.559 218.815V218.815Z" fill="#FED395"/>
<path d="M364.277 218.341C365.509 218.547 364.963 220.365 363.804 219.972C362.777 219.686 363.151 218.319 364.086 218.319C364.151 218.32 364.214 218.327 364.277 218.341V218.341Z" fill="#FED395"/>
<path d="M395.465 215.957C395.676 216.046 395.906 216.078 396.133 216.053L396.037 216.053C395.843 216.053 395.649 216.021 395.465 215.957ZM394.277 214.638C394.336 214.902 394.454 215.149 394.622 215.361C394.789 215.573 395.002 215.744 395.245 215.862C395.008 215.737 394.799 215.563 394.632 215.353C394.465 215.142 394.345 214.899 394.277 214.638V214.638ZM396.03 210.925C395.214 210.958 394.439 211.293 393.856 211.865C394.446 211.302 395.217 210.969 396.03 210.925V210.925ZM400.536 212.155C401.852 214.447 400.664 217.427 398.149 218.334C395.418 219.359 392.165 217.441 391.916 214.605C391.652 211.667 394.065 209.83 396.525 209.83C397.34 209.822 398.143 210.033 398.848 210.442C399.554 210.851 400.137 211.443 400.536 212.155V212.155Z" fill="#FED395"/>
<path d="M390.479 220.193L390.578 220.076C390.523 220.135 390.46 220.19 390.398 220.245L390.479 220.193ZM387.021 219.429C387.021 219.462 387.05 219.499 387.069 219.532L387.069 219.503L387.201 219.709L387.263 219.778C387.178 219.669 387.103 219.553 387.039 219.429L387.021 219.429ZM388.678 221.398C385.257 220.796 385.378 216.057 388.997 216.02C392.855 216.245 392.635 221.762 388.697 221.398L388.678 221.398Z" fill="#FED395"/>
<path d="M384.883 220.924C385.8 222.426 383.644 224.138 382.357 222.918C380.854 221.68 382.023 220.016 383.365 220.016C383.674 220.027 383.975 220.116 384.241 220.274C384.506 220.433 384.727 220.656 384.883 220.924V220.924Z" fill="#FED395"/>
<path d="M378.987 222.757C379.183 222.846 379.354 222.982 379.486 223.152C379.617 223.323 379.705 223.523 379.741 223.736C379.777 223.948 379.761 224.166 379.693 224.371C379.626 224.575 379.509 224.76 379.354 224.909C379.19 225.052 378.995 225.155 378.785 225.209C378.575 225.263 378.354 225.266 378.142 225.219C377.93 225.173 377.732 225.077 377.564 224.939C377.395 224.802 377.261 224.627 377.173 224.428C376.832 223.546 377.609 222.65 378.481 222.65C378.656 222.651 378.828 222.687 378.987 222.757V222.757Z" fill="#FED395"/>
<path d="M375.592 216.046C374.222 216.594 372.814 217.041 371.379 217.383C369.82 217.915 368.195 218.226 366.55 218.309C368.2 217.997 369.784 217.343 371.368 216.781C372.67 216.377 373.986 216.046 375.237 215.503C378.06 214.353 380.678 212.714 383.406 211.432C380.912 213.133 378.416 214.885 375.592 216.046Z" fill="#FED395"/>
<path d="M375.677 225.119C373.026 226.702 369.913 227.547 366.844 228.079C362.865 229.09 358.777 229.248 354.674 229.034C354.289 229.016 353.904 228.99 353.527 228.979C354.26 228.906 355.081 228.902 355.844 228.832C357.923 228.708 360.017 228.726 362.077 228.465C363.481 228.215 364.856 227.91 366.257 227.653C369.465 227.132 372.696 226.485 375.647 225.126C375.618 225.108 375.53 225.108 375.53 225.078C375.58 225.089 375.629 225.102 375.677 225.119V225.119Z" fill="#FED395"/>
<path d="M399.85 109.931C401.684 110.798 403.04 112.396 404.276 113.913C406.314 116 407.801 118.563 408.603 121.37C408.683 121.638 408.76 121.906 408.841 122.174C408.614 121.807 408.383 121.344 408.148 120.944C407.312 119.522 406.439 118.13 405.611 116.705C404.984 115.779 404.214 114.963 403.554 114.06C402.894 113.156 402.127 112.278 401.372 111.426C400.859 110.926 400.426 110.265 399.777 109.956C399.766 109.979 399.756 110.002 399.748 110.026C399.748 110.026 399.748 109.99 399.748 109.971C399.748 109.953 399.77 109.927 399.792 109.927L399.85 109.931Z" fill="#FED395"/>
<path d="M332.326 102.404C332.301 102.404 332.326 102.349 332.326 102.338C331.038 102.826 329.801 103.441 328.634 104.174C328.22 104.457 327.692 104.714 327.442 105.118C327.611 104.586 328.135 104.24 328.542 103.877C329.613 103.002 330.981 102.602 332.326 102.338C332.374 102.334 332.326 102.378 332.326 102.404Z" fill="#FED395"/>
<path d="M379.508 97.7873C379.149 98.0764 378.727 98.2776 378.276 98.3751L378.353 98.3751C378.78 98.2744 379.176 98.0728 379.508 97.7873V97.7873ZM378.46 92.4021C382.258 92.9898 382.673 98.2392 378.889 99.1355C378.199 99.4584 377.427 99.5611 376.678 99.4297C375.928 99.2983 375.237 98.9391 374.698 98.4008C372.325 96.0094 374.635 92.3103 377.704 92.3103C377.958 92.3157 378.212 92.3464 378.46 92.4021V92.4021Z" fill="#FED395"/>
<path d="M386.834 97.4458C389.247 100.208 384.612 103.275 382.687 100.223C381.682 98.4192 383.369 96.6707 385.085 96.6707C385.415 96.6691 385.741 96.7374 386.042 96.871C386.344 97.0046 386.613 97.2004 386.834 97.4458V97.4458Z" fill="#FED395"/>
<path d="M390.691 100.847C393.372 101.582 391.366 105.035 389.225 103.576C388.051 102.629 389.023 100.814 390.387 100.814C390.489 100.814 390.591 100.825 390.691 100.847V100.847Z" fill="#FED395"/>
<path d="M395.172 104.024C395.407 104.04 395.635 104.106 395.842 104.218C396.049 104.33 396.23 104.486 396.371 104.675C397.471 106.361 395.421 107.874 393.804 106.904C393.511 106.721 393.286 106.446 393.163 106.122C393.04 105.799 393.026 105.444 393.122 105.111C393.219 104.779 393.421 104.487 393.699 104.28C393.976 104.074 394.313 103.963 394.659 103.966C394.831 103.963 395.004 103.983 395.172 104.024V104.024Z" fill="#FED395"/>
<path d="M398.545 107.503C399.436 108.271 397.966 109.189 397.306 108.444C397.203 108.331 397.136 108.191 397.113 108.04C397.09 107.889 397.111 107.735 397.175 107.597C397.239 107.458 397.342 107.342 397.472 107.262C397.601 107.182 397.751 107.142 397.903 107.147V107.147C398.031 107.149 398.157 107.182 398.269 107.245C398.381 107.307 398.476 107.396 398.545 107.503V107.503Z" fill="#FED395"/>
<path d="M351.246 100.33C351.142 100.452 351.018 100.555 350.879 100.635V100.635C351.022 100.561 351.148 100.457 351.246 100.33ZM352.122 97.571C354.781 100.558 350.978 104.76 347.671 102.266C345.042 100.007 347.18 96.5608 349.798 96.5608C350.676 96.5773 351.513 96.9403 352.126 97.571L352.122 97.571Z" fill="#FED395"/>
<path d="M344.573 100.854C343.502 102.959 340.224 101.508 341.35 99.3845C341.551 98.9674 341.908 98.6458 342.342 98.4884C342.777 98.331 343.257 98.3503 343.678 98.5422C344.099 98.7341 344.428 99.0834 344.595 99.5154C344.762 99.9474 344.754 100.428 344.573 100.854V100.854Z" fill="#FED395"/>
<path d="M338.237 99.7233C338.458 99.7947 338.656 99.9242 338.81 100.098C338.964 100.273 339.069 100.485 339.113 100.714C339.158 100.942 339.14 101.179 339.062 101.398C338.984 101.617 338.848 101.811 338.67 101.96C337.859 102.563 336.341 102.434 336.224 101.226C336.22 101.019 336.257 100.813 336.333 100.62C336.409 100.427 336.522 100.252 336.665 100.103C336.809 99.9539 336.981 99.835 337.171 99.7529C337.36 99.6707 337.565 99.627 337.771 99.6241C337.931 99.6301 338.089 99.6637 338.237 99.7233V99.7233Z" fill="#FED395"/>
<path d="M334.358 102.063C333.859 102.856 332.744 102.026 333.558 101.453C333.665 101.343 333.809 101.279 333.962 101.273C334.052 101.276 334.14 101.303 334.216 101.352C334.292 101.401 334.353 101.469 334.394 101.55C334.434 101.631 334.452 101.721 334.446 101.811C334.44 101.902 334.409 101.988 334.358 102.063V102.063Z" fill="#FED395"/>
<path d="M429.84 197.822C430.023 198.061 430.121 198.356 430.117 198.658C430.113 198.96 430.008 199.252 429.818 199.486C429.629 199.721 429.366 199.885 429.072 199.952C428.778 200.019 428.47 199.984 428.198 199.854C427.926 199.724 427.705 199.506 427.572 199.236C427.438 198.965 427.4 198.657 427.462 198.361C427.525 198.066 427.685 197.8 427.917 197.607C428.149 197.414 428.438 197.305 428.74 197.297C428.95 197.302 429.156 197.351 429.346 197.442C429.535 197.532 429.704 197.662 429.84 197.822V197.822Z" fill="#FED395"/>
<path d="M461.977 103.925C461.862 104.006 461.729 104.058 461.589 104.079C461.73 104.066 461.865 104.012 461.977 103.925V103.925ZM461.886 101.533C464.628 101.989 463.528 106.081 460.911 104.917C460.512 104.783 460.175 104.51 459.961 104.147C459.747 103.785 459.67 103.358 459.745 102.943C459.82 102.529 460.041 102.156 460.368 101.891C460.695 101.627 461.107 101.49 461.527 101.504C461.652 101.504 461.777 101.514 461.9 101.533L461.886 101.533Z" fill="#FED395"/>
<path d="M406.142 164.397L453.034 164.397L453.034 156.914L406.142 156.914L406.142 164.397Z" fill="#FED395"/>
<path d="M479.881 153.135C478.803 151.905 477.474 150.921 475.984 150.249C474.494 149.577 472.877 149.233 471.243 149.241C465.01 149.241 459.939 154.148 459.939 160.206C459.939 166.263 465.002 171.171 471.243 171.171C473.235 171.183 475.194 170.67 476.926 169.685C478.658 168.699 480.1 167.275 481.11 165.554C479.02 171.278 473.388 175.381 466.77 175.381C458.369 175.381 451.557 168.769 451.557 160.621C451.557 152.473 458.369 145.847 466.77 145.847C469.396 145.833 471.981 146.496 474.277 147.772C476.573 149.048 478.503 150.895 479.881 153.135V153.135Z" fill="#FED395"/>
<path d="M309.04 135.271L309.219 135.609C309.223 135.624 309.223 135.641 309.219 135.656C309.219 135.726 309.179 135.796 309.073 135.763C308.82 135.681 308.575 135.578 308.339 135.454C307.885 135.094 307.423 134.747 306.954 134.411L306.616 134.172L306.44 134.051L306.378 134.007L306.143 133.849C306.048 133.739 305.949 133.625 305.846 133.518C305.67 133.327 305.509 133.133 305.348 132.931L305.348 132.949C305.221 132.794 305.106 132.629 305.003 132.457C306.411 133.302 307.759 134.242 309.04 135.271V135.271Z" fill="#FED395"/>
<path d="M309.736 135.844C309.755 135.881 309.773 135.917 309.795 135.954C309.838 136.009 309.877 136.068 309.909 136.13C309.912 136.139 309.912 136.147 309.911 136.156C309.91 136.165 309.908 136.173 309.903 136.18C309.899 136.188 309.892 136.194 309.885 136.199C309.878 136.203 309.87 136.206 309.861 136.208V136.208L309.835 136.208L309.784 136.263L309.813 136.211C309.663 136.213 309.512 136.206 309.362 136.189C309.26 136.189 309.157 136.189 309.051 136.208C308.944 136.226 308.867 136.244 308.776 136.27L308.622 136.314C308.699 136.186 308.772 136.053 308.842 135.921L308.878 135.859L308.812 135.8L308.721 135.726L308.651 135.671C308.113 135.238 307.563 134.819 307.001 134.415L306.682 134.187L306.554 134.099L306.506 134.066C306.312 133.934 306.114 133.798 305.916 133.669L305.344 133.302L305.212 133.221L305.109 133.155C305.096 133.149 305.084 133.142 305.072 133.133L304.988 133.082L304.933 133.048L304.871 133.012L304.794 132.964L304.75 132.938L304.644 132.872C302.771 131.749 300.8 130.8 298.755 130.036V130.036C294.629 128.501 290.261 127.719 285.859 127.726C276.526 127.677 267.534 131.245 260.765 137.684C259.029 139.351 257.474 141.198 256.127 143.194V143.194L256.039 143.327C256.04 143.337 256.04 143.346 256.039 143.356L255.955 143.485C255.903 143.558 255.856 143.632 255.808 143.709C255.792 143.728 255.779 143.749 255.768 143.771L255.713 143.852L255.658 143.944C255.64 143.966 255.624 143.989 255.61 144.014L255.544 144.12C255.544 144.142 255.518 144.157 255.507 144.175C255.496 144.194 255.452 144.267 255.423 144.315L255.423 144.344C253.16 147.993 251.646 152.057 250.971 156.299C250.295 160.541 250.471 164.875 251.489 169.048V169.048C255.126 183.959 269.158 195.071 285.915 195.071C290.124 195.076 294.303 194.361 298.271 192.955L298.348 192.929L298.418 192.903L298.48 192.881L298.586 192.841L298.627 192.841L298.759 192.793C300.975 191.969 303.104 190.928 305.116 189.685L305.194 189.638L305.248 189.605L305.281 189.583L305.314 189.564L305.362 189.535L305.41 189.502L305.883 189.197L305.989 189.131C306.11 189.05 306.231 188.973 306.356 188.888L306.389 188.866L306.411 188.866L306.521 188.789C306.836 188.576 307.148 188.352 307.456 188.128C307.745 188.128 308.035 188.102 308.325 188.102C301.875 192.92 294.026 195.487 285.981 195.409C266.221 195.409 250.205 180.149 250.205 161.323C250.205 142.497 266.221 127.233 285.98 127.233C294.666 127.198 303.084 130.249 309.736 135.844V135.844Z" fill="#FED395"/>
<path d="M308.526 187.173C308.676 187.243 308.796 187.362 308.867 187.511C308.134 188.084 307.401 188.631 306.638 189.146C306.582 189.118 306.535 189.074 306.505 189.018C306.475 188.963 306.462 188.9 306.469 188.837C306.488 188.743 306.529 188.654 306.59 188.58L306.62 188.558L306.667 188.525C306.924 188.349 307.173 188.158 307.423 187.981L307.448 187.963L307.536 187.897L307.635 187.823L307.778 187.713L307.833 187.673L307.914 187.61L307.958 187.574L307.903 187.504L307.852 187.423C307.815 187.36 307.778 187.298 307.738 187.239L307.705 187.184L307.727 187.184C307.827 187.128 307.939 187.099 308.053 187.1C308.215 187.068 308.382 187.094 308.526 187.173V187.173Z" fill="#FED395"/>
<path d="M301.747 128.125C304.431 132.567 297.545 135.891 295.312 131.204C294.293 128.713 296.676 126.74 298.979 126.74C299.518 126.724 300.054 126.843 300.537 127.084C301.02 127.326 301.435 127.684 301.747 128.125V128.125Z" fill="#FED395"/>
<path d="M273.305 190.911C273.741 191.025 274.134 191.263 274.435 191.599C274.736 191.934 274.932 192.35 274.999 192.796C275.03 193.137 274.959 193.48 274.795 193.781C274.631 194.082 274.382 194.327 274.079 194.486C273.667 194.922 273.106 195.184 272.508 195.221C271.911 195.258 271.321 195.066 270.86 194.684C269.092 193.152 270.493 190.787 272.513 190.787C272.782 190.788 273.049 190.83 273.305 190.911V190.911Z" fill="#FED395"/>
<path d="M283.821 158.259C284.286 160.08 284.258 161.992 283.74 163.798L248.907 163.798L248.907 158.259L283.821 158.259Z" fill="#FED395"/>
<path d="M295.558 211.528C293.046 213.364 291.198 208.956 294.505 208.857C294.814 208.857 295.117 208.95 295.372 209.124C295.628 209.298 295.826 209.545 295.939 209.833C296.053 210.122 296.077 210.437 296.009 210.739C295.941 211.042 295.784 211.316 295.558 211.528V211.528Z" fill="#FED395"/>
<path d="M250.895 195.857C250.936 195.906 250.964 195.966 250.975 196.029C250.987 196.076 250.986 196.126 250.973 196.173C250.961 196.22 250.936 196.263 250.902 196.297C251.041 196.617 250.535 196.551 250.484 196.297C250.442 196.254 250.414 196.199 250.402 196.14C250.391 196.081 250.397 196.02 250.419 195.964C250.442 195.908 250.48 195.86 250.529 195.825C250.578 195.79 250.637 195.771 250.697 195.768C250.734 195.769 250.771 195.778 250.805 195.793C250.839 195.808 250.869 195.83 250.895 195.857Z" fill="#FED395"/>
<path d="M250.649 195.839C250.712 195.843 250.772 195.871 250.815 195.917C250.858 195.964 250.881 196.025 250.88 196.089C250.88 196.618 249.78 196.276 250.231 195.85C250.285 195.807 250.353 195.786 250.422 195.791C250.5 195.791 250.577 195.808 250.649 195.839V195.839Z" fill="#FED395"/>
<path d="M250.627 195.577C250.703 195.57 250.779 195.579 250.851 195.603C250.923 195.627 250.989 195.665 251.046 195.715C251.103 195.765 251.149 195.826 251.182 195.894C251.214 195.963 251.233 196.037 251.236 196.113C251.196 197.116 249.318 196.48 250.022 195.654C250.062 195.606 250.112 195.568 250.169 195.542C250.225 195.516 250.286 195.503 250.349 195.503C250.446 195.506 250.541 195.531 250.627 195.577V195.577Z" fill="#FED395"/>
<path d="M531.54 152.147C531.404 151.842 531.269 151.537 531.129 151.232C530.792 150.497 530.462 149.763 530.132 149.028C529.832 148.348 529.557 147.654 529.271 146.967C528.699 145.586 528.095 144.219 527.459 142.868C526.869 141.604 526.205 140.373 525.52 139.154L524.937 138.202C524.768 137.93 524.588 137.67 524.409 137.409C524.042 136.847 523.631 136.307 523.232 135.756C522.832 135.205 522.33 134.577 521.871 133.996C521.413 133.416 521.002 132.894 520.566 132.369C520.291 132.027 520.02 131.686 519.745 131.348C525.692 136.921 529.806 144.175 531.54 152.147V152.147Z" fill="#FED395"/>
<path d="M517.028 128.978C517.233 129.206 517.431 129.434 517.629 129.665C518.091 130.212 518.553 130.767 519 131.318C519.928 132.468 520.834 133.636 521.725 134.808C522.146 135.359 522.575 135.91 523.001 136.457C523.426 137.005 523.873 137.519 524.31 138.044C524.464 138.232 524.632 138.412 524.794 138.584L525.67 139.547C526.11 140.032 526.561 140.509 527.008 140.987C527.28 141.281 527.544 141.582 527.8 141.887C528.14 142.528 528.463 143.18 528.768 143.841C528.321 143.271 527.844 142.725 527.338 142.206C526.73 141.589 526.088 141.001 525.446 140.41C523.542 137.293 521.223 134.451 518.553 131.961V131.961L518.465 131.88L518.384 131.807L518.362 131.785L518.289 131.719L518.263 131.693L518.194 131.63L518.164 131.601L518.087 131.535L518.069 131.517L517.974 131.432L517.93 131.395L517.875 131.344L517.816 131.292L517.783 131.263L517.721 131.208L517.688 131.179L517.622 131.12L517.596 131.098L517.526 131.035L517.504 131.017C516.201 129.875 514.827 128.816 513.39 127.847L513.357 127.817C513.284 127.751 513.2 127.689 513.123 127.626L512.599 127.2L511.836 126.583C511.304 126.19 510.773 125.797 510.237 125.411C510.156 125.352 510.072 125.296 509.984 125.246L509.361 124.842C509.082 124.658 508.8 124.475 508.514 124.295C507.938 123.957 507.366 123.615 506.787 123.281C506.479 123.101 506.167 122.913 505.856 122.752C505.614 122.612 505.372 122.473 505.122 122.337C509.424 123.888 513.445 126.132 517.028 128.978V128.978Z" fill="#FED395"/>
<path d="M531.5 151.97C531.5 152.106 531.5 152.245 531.5 152.385C531.474 152.168 531.46 151.948 531.449 151.731C531.467 151.808 531.485 151.889 531.5 151.97Z" fill="#FED395"/>
<path d="M526.51 139.601L526.418 139.601L526.631 139.84L526.726 139.95C526.912 140.259 527.095 140.571 527.276 140.887C527.273 141.078 527.205 141.262 527.082 141.408C526.975 141.529 526.836 141.617 526.682 141.663C526.528 141.709 526.364 141.711 526.209 141.669C524.591 138.781 522.621 136.105 520.342 133.705V133.705L520.133 133.485L520.111 133.459L520.031 133.378L520.005 133.349L519.913 133.257L519.811 133.15L519.781 133.125L519.715 133.055L519.671 133.011L519.602 132.941L519.569 132.912L519.477 132.816L519.429 132.772L519.374 132.717L519.327 132.669L519.272 132.618L519.202 132.548L519.132 132.478C519.114 132.462 519.097 132.445 519.081 132.427L519.037 132.386L518.975 132.328L518.938 132.291L518.711 132.078L518.63 132.001C511.343 125.195 501.856 121.243 491.901 120.867V120.867L491.604 120.867L491.395 120.867L491.193 120.867L491.028 120.867L490.478 120.867L488.945 120.867L488.579 120.867L488.337 120.867L488.205 120.867L488.142 120.867L488.014 120.867L487.849 120.867L487.79 120.867L487.662 120.867L487.644 120.867L487.508 120.867L487.486 120.867C486.83 120.907 486.181 120.966 485.532 121.036L485.502 121.036L485.414 121.036L485.345 121.036L485.29 121.036C483.337 121.26 481.403 121.621 479.5 122.116V122.116L479.339 122.16L479.317 122.16L479.166 122.2L479.141 122.2L478.983 122.24L478.638 122.34L478.62 122.34L478.477 122.38L478.415 122.398L478.319 122.428L478.242 122.45L478.162 122.472L478.074 122.498L478 122.52L477.909 122.549L477.85 122.549L477.744 122.582L477.3 122.722L477.161 122.769L477.018 122.817C476.02 123.144 475.038 123.511 474.085 123.919C470.815 125.275 467.735 127.048 464.918 129.194L464.768 129.308L464.72 129.345L464.614 129.426L464.566 129.466L464.423 129.576L464.383 129.609L464.276 129.69L464.214 129.742L464.115 129.822L464.06 129.863L463.935 129.966L463.873 130.017L463.792 130.083L463.723 130.138L463.627 130.215L463.444 130.417L463.371 130.48L463.301 130.539L463.228 130.601L463.11 130.697L463.037 130.763L462.964 130.825L462.894 130.884L462.821 130.946L462.7 131.053L462.63 131.112L462.564 131.174C462.539 131.193 462.516 131.214 462.494 131.237L462.41 131.306L462.315 131.395L462.234 131.464C462.212 131.488 462.187 131.511 462.161 131.531L462.095 131.589L462.025 131.655L461.908 131.762L461.842 131.824L461.768 131.894L461.706 131.953C461.675 131.978 461.646 132.005 461.618 132.034L461.545 132.104C461.511 132.132 461.479 132.163 461.449 132.195L461.391 132.247L461.303 132.331L461.255 132.379L461.127 132.504L461.086 132.541L460.991 132.636L460.943 132.684L460.819 132.805L460.683 132.941L460.646 132.974L460.536 133.088L460.511 133.114L460.375 133.253L460.375 133.272L460.25 133.4L460.25 133.419L459.964 133.716C458.553 135.206 457.259 136.803 456.093 138.492V138.492C455.931 138.727 455.77 138.966 455.612 139.226C455.202 139.847 454.813 140.479 454.439 141.122C454.19 141.552 453.948 141.989 453.706 142.426C452.955 143.812 452.289 145.242 451.711 146.709V146.709C451.638 146.9 451.564 147.076 451.495 147.286C451.403 147.539 451.311 147.793 451.223 148.05C451.008 148.072 450.791 148.034 450.596 147.94C456.038 131.615 471.841 119.801 490.489 119.801C505.793 119.801 519.176 127.743 526.51 139.601Z" fill="#FED395"/>
<path d="M523.969 137.147C524.145 137.334 524.335 137.514 524.493 137.709C524.656 137.911 524.808 138.122 524.948 138.341L525.01 138.44C525.01 138.389 524.981 138.341 524.962 138.29C524.918 138.146 524.903 137.995 524.918 137.846C524.932 137.696 524.976 137.551 525.047 137.419C530.31 144.799 532.886 153.765 532.346 162.819C531.807 171.873 528.183 180.468 522.08 187.168C522.278 186.647 522.473 186.125 522.674 185.607C522.876 185.089 523.041 184.545 523.221 184.013C528.377 177.224 531.151 168.919 531.111 160.388C531.071 151.857 528.22 143.579 523.001 136.839L523.151 136.839C523.454 136.829 523.748 136.94 523.969 137.147V137.147Z" fill="#FED395"/>
<path d="M530.198 171.502C530.274 171.514 530.346 171.546 530.406 171.595C530.467 171.643 530.514 171.706 530.543 171.777C530.618 172.089 530.59 172.417 530.462 172.711C530.462 172.751 530.462 172.791 530.433 172.828C525.028 189.219 509.196 201.084 490.5 201.084C487.832 201.083 485.17 200.837 482.547 200.349L484.67 199.945C486.251 200.15 487.843 200.265 489.437 200.291L492.088 200.291L492.267 200.291L492.286 200.291L492.443 200.291L492.48 200.291L492.649 200.291L492.678 200.291L492.828 200.291L492.865 200.291C492.922 200.294 492.98 200.294 493.037 200.291L493.063 200.291L493.217 200.291L493.25 200.291L493.426 200.291L493.595 200.291L493.62 200.291L493.987 200.261L494.005 200.261L494.372 200.228L494.738 200.191L495.105 200.147L495.472 200.103C509.852 198.267 521.871 189.204 527.555 176.795C527.665 176.648 527.778 176.505 527.892 176.362C528.156 175.932 528.409 175.491 528.651 175.05L528.629 175.095C528.886 174.632 529.12 174.162 529.362 173.691C529.604 173.221 529.835 172.74 530.033 172.251C530.033 172.222 530.052 172.193 530.059 172.163C530.066 172.134 530.059 172.108 530.059 172.082C530.057 172.067 530.057 172.05 530.059 172.035V172.035C529.817 172.093 529.568 172.141 529.326 172.185L529.388 171.991L529.447 171.957C529.586 171.884 529.725 171.814 529.868 171.748C529.948 171.699 530.039 171.668 530.132 171.66L530.198 171.502Z" fill="#FED395"/>
<path d="M452.001 175.139C452.762 177.011 453.668 178.821 454.71 180.553C456.111 182.88 457.745 185.057 459.587 187.052C466.342 194.335 475.488 198.94 485.352 200.026L485.48 200.026L485.502 200.026L485.62 200.026L485.649 200.026L486.016 200.063L486.045 200.063L486.151 200.063L486.195 200.063L486.305 200.063L486.342 200.063L486.679 200.092L486.745 200.092L486.837 200.092L486.91 200.092L487.002 200.092L487.218 200.092C487.273 200.096 487.328 200.096 487.383 200.092L487.457 200.092L487.614 200.092L487.695 200.092L487.849 200.092L487.988 200.092L488.56 200.092L488.703 200.092L491.006 200.092L491.373 200.092L491.615 200.092L491.798 200.092L491.816 200.092L492.014 200.092L492.044 200.092L492.443 200.07C496.057 199.878 499.631 199.219 503.076 198.109C503.703 198.072 504.33 198.046 504.957 198.053C505.153 198.058 505.342 198.119 505.504 198.23C502.005 199.593 498.342 200.488 494.61 200.893L492.938 200.933C492.931 200.962 492.921 200.991 492.909 201.018C492.11 201.062 491.304 201.084 490.493 201.084C472.493 201.084 457.127 190.082 451.205 174.635C451.48 174.793 451.744 174.962 452.001 175.139Z" fill="#FED395"/>
<path d="M449.474 167.52C449.605 167.676 449.727 167.839 449.841 168.009L449.922 168.152C450.462 170.856 451.289 173.495 452.389 176.024L452.411 176.142C452.436 176.227 452.465 176.312 452.499 176.395C452.573 176.553 452.65 176.707 452.738 176.861C452.778 176.935 452.822 177.008 452.87 177.078L452.969 177.291C452.852 177.224 452.746 177.139 452.653 177.041C452.437 176.843 452.217 176.652 451.986 176.468C450.646 173.446 449.692 170.267 449.144 167.006C449.243 167.178 449.353 167.351 449.474 167.52Z" fill="#FED395"/>
<path d="M449.045 164.662C449.045 164.71 449.045 164.762 449.075 164.809C449.104 164.918 449.14 165.025 449.181 165.129V165.129C449.221 165.228 449.265 165.316 449.313 165.408C449.361 165.5 449.441 165.61 449.504 165.706C450.06 169.864 451.288 173.904 453.141 177.666C453.003 177.598 452.869 177.521 452.741 177.435C452.564 177.317 452.396 177.186 452.239 177.042C450.528 173.345 449.401 169.404 448.899 165.36L448.932 165.217C448.957 165.114 448.976 165.011 448.994 164.909C449.003 164.825 449.018 164.743 449.042 164.662V164.662C449.042 164.662 449.045 164.659 449.045 164.662Z" fill="#FED395"/>
<path d="M453.445 142.856C452.799 144.109 452.22 145.395 451.711 146.709V146.709C451.638 146.9 451.568 147.077 451.495 147.286C450.596 149.747 449.95 152.294 449.566 154.886C449.415 155.137 449.279 155.395 449.159 155.662C449.119 155.753 449.082 155.841 449.049 155.937C449.03 155.994 449.017 156.053 449.009 156.113C449.009 156.113 449.009 156.132 449.009 156.143C449.006 156.149 449.006 156.155 449.009 156.161V156.161C449.007 156.17 449.007 156.178 449.009 156.187V156.187C449.017 156.206 449.027 156.224 449.038 156.242V156.242C449.017 156.22 448.997 156.197 448.979 156.172C448.923 156.075 448.893 155.965 448.891 155.853V155.853C448.891 155.757 448.866 155.661 448.855 155.566C449.356 151.511 450.484 147.559 452.199 143.851C452.279 143.767 452.364 143.69 452.448 143.609C452.745 143.337 453.082 143.102 453.405 142.874L453.445 142.856Z" fill="#FED395"/>
<path d="M458.578 136.579C458.619 136.885 458.556 137.197 458.399 137.463C458.242 137.73 458.001 137.936 457.713 138.048C455.319 138.948 453.68 135.131 456.643 134.911C457.578 134.918 458.567 135.62 458.578 136.579Z" fill="#FED395"/>
<path d="M510.256 192.937C515.623 193.701 513.636 200.732 508.569 199.516C504.352 198.105 506.138 192.933 510.113 192.933L510.256 192.937Z" fill="#FED395"/>
<path d="M534.14 155.471C538.213 158.119 537.711 164.482 533.212 166.436C528.354 168.684 522.542 164.566 523.716 159.372C524.31 156.286 527.36 154.295 530.407 154.295C531.744 154.283 533.051 154.694 534.14 155.471V155.471Z" fill="#FED395"/>
<path d="M551.388 159.284C551.495 159.602 551.511 159.945 551.435 160.272C551.517 159.945 551.5 159.601 551.388 159.284V159.284ZM552.176 156.606C555.366 159.655 551.879 164.529 547.842 162.575C543.809 160.342 546.181 155.596 549.536 155.596C550.507 155.613 551.441 155.97 552.176 156.606V156.606Z" fill="#FED395"/>
<path d="M567.128 158.623C567.433 160.206 565.709 161.44 564.224 160.926C563.863 160.801 563.545 160.577 563.306 160.278C563.067 159.98 562.917 159.62 562.873 159.24C562.828 158.86 562.892 158.476 563.057 158.131C563.221 157.785 563.48 157.494 563.803 157.289C564.099 157.105 564.434 156.994 564.781 156.964C565.128 156.933 565.478 156.985 565.801 157.115C566.125 157.245 566.414 157.449 566.644 157.71C566.875 157.972 567.04 158.285 567.128 158.623V158.623Z" fill="#FED395"/>
<path d="M504.055 158.619C506.116 161.745 501.61 165.165 498.83 162.778C497.793 161.925 497.565 160.574 497.917 159.365C498.354 157.936 499.791 157.161 501.217 157.161C501.775 157.144 502.328 157.269 502.824 157.524C503.32 157.779 503.744 158.156 504.055 158.619V158.619Z" fill="#FED395"/>
<path d="M494.438 160.198C494.955 160.198 495.464 160.22 495.981 160.228C494.381 160.492 492.752 160.532 491.142 160.345C492.154 160.275 493.169 160.195 494.185 160.195L494.438 160.198Z" fill="#FED395"/>
<path d="M511.99 159.493C509.885 159.82 507.667 159.72 505.526 159.665C506.673 159.471 507.835 159.383 508.998 159.401C510.01 159.401 511.029 159.437 511.99 159.493Z" fill="#FED395"/>
<path d="M501.668 164.702C501.921 166.209 501.988 167.741 501.87 169.264C501.87 169.264 501.896 169.264 501.87 169.264C501.852 169.264 501.888 169.415 501.83 169.371C501.635 167.856 501.574 166.327 501.646 164.801C501.646 164.863 501.628 164.801 501.624 164.753C501.621 164.705 501.624 164.676 501.646 164.676L501.668 164.702Z" fill="#FED395"/>
<path d="M500.928 151.267L500.928 151.291C500.926 151.283 500.926 151.275 500.928 151.267V151.267Z" fill="#FED395"/>
<path d="M501.045 155.313C501.027 155.313 501.067 155.199 501.045 155.173C500.781 153.896 500.739 152.582 500.92 151.291C501.104 152.617 501.36 153.983 501.045 155.313Z" fill="#FED395"/>
<path d="M507.322 154.537C507.322 154.537 507.322 154.559 507.322 154.537C506.576 155.44 505.768 156.288 504.902 157.076C504.88 157.076 504.822 157.116 504.822 157.098C504.847 157.077 504.874 157.058 504.902 157.043C505.579 156.086 506.396 155.237 507.326 154.526L507.322 154.537Z" fill="#FED395"/>
<path d="M504.169 163.563C504.538 163.805 504.871 164.1 505.155 164.437C505.742 165.102 506.391 165.811 506.681 166.641C505.713 165.741 504.976 164.65 504.169 163.625C504.16 163.653 504.16 163.683 504.169 163.71C504.169 163.71 504.169 163.736 504.198 163.739C504.228 163.743 504.231 163.739 504.217 163.739C504.202 163.739 504.14 163.699 504.129 163.648C504.118 163.596 504.129 163.552 504.169 163.552L504.169 163.563Z" fill="#FED395"/>
<path d="M495.677 166.454C496.628 165.342 497.688 164.328 498.841 163.427C498.126 164.741 497.02 165.799 495.677 166.454Z" fill="#FED395"/>
<path d="M504.323 152.598C504.04 153.838 503.573 155.03 502.937 156.132C503.197 154.927 503.813 153.762 504.301 152.624L504.301 152.594L504.323 152.598Z" fill="#FED395"/>
<path d="M499.454 166.249C499.136 166.741 498.788 167.213 498.412 167.663V167.663C498.387 167.692 498.357 167.784 498.346 167.773C498.714 166.858 499.151 165.972 499.655 165.124C499.8 164.834 499.987 164.567 500.209 164.331C499.941 164.948 499.813 165.653 499.454 166.249Z" fill="#FED395"/>
<path d="M507.352 157.661C506.739 157.932 506.108 158.158 505.463 158.337C506.64 157.632 507.872 156.867 509.233 156.588C508.598 156.867 508.004 157.371 507.352 157.661Z" fill="#FED395"/>
<path d="M497.43 162.277C497.43 162.277 497.4 162.277 497.393 162.277C497.386 162.277 497.323 162.277 497.287 162.299C496.865 162.536 496.457 162.795 496.062 163.074C495.252 163.549 494.391 163.933 493.495 164.217C494.672 163.511 496.025 162.637 497.375 162.255C497.395 162.258 497.413 162.266 497.43 162.277V162.277Z" fill="#FED395"/>
<path d="M505.639 161.825C506.364 162.014 507.064 162.29 507.722 162.648C508.197 162.845 508.648 163.098 509.064 163.401C509.061 163.415 509.061 163.43 509.064 163.445C509.064 163.445 509.031 163.412 509.027 163.397C507.77 163.081 506.706 162.244 505.496 161.847C505.496 161.847 505.496 161.924 505.496 161.909C505.449 161.836 505.496 161.814 505.551 161.814L505.639 161.825Z" fill="#FED395"/>
<path d="M493.121 156.822C494.446 157.464 495.691 158.258 496.832 159.188C495.409 158.725 494.196 157.752 493.114 156.815L493.121 156.822Z" fill="#FED395"/>
<path d="M498.453 153.018C498.487 153.071 498.517 153.126 498.544 153.183L498.467 153.095C498.896 153.965 499.251 154.869 499.531 155.798C498.994 155.048 498.62 154.193 498.431 153.289C498.431 153.231 498.354 153.014 498.431 153.014L498.453 153.018Z" fill="#FED395"/>
<path d="M503.223 164.58C503.223 164.602 503.164 164.58 503.15 164.58C503.822 165.615 504.357 166.734 504.741 167.908C504.089 166.845 503.547 165.717 503.124 164.543C503.155 164.561 503.188 164.573 503.223 164.58V164.58Z" fill="#FED395"/>
<path d="M483.489 159.049C484.256 159.898 483.728 161.294 482.668 161.621C481.359 162.025 480.12 160.71 480.651 159.483C480.802 159.176 481.036 158.918 481.326 158.739C481.617 158.56 481.953 158.468 482.294 158.472C482.525 158.465 482.754 158.514 482.962 158.614C483.17 158.714 483.351 158.864 483.489 159.049V159.049Z" fill="#FED395"/>
<path d="M489.162 218.662C492.946 221.259 488.846 226.798 485.128 224.087C481.729 221.913 483.951 217.927 486.962 217.927C487.753 217.938 488.522 218.195 489.162 218.662V218.662Z" fill="#FED395"/>
<path d="M206.049 161.642C206.065 161.796 206.065 161.951 206.049 162.105C206.076 161.952 206.076 161.795 206.049 161.642V161.642ZM204.12 159.306C205.953 159.306 207.42 161.187 207.031 162.895C206.093 166.774 200.358 165.672 200.981 161.775C201.146 160.265 202.54 159.306 204.032 159.306L204.12 159.306Z" fill="#FED395"/>
<path d="M212.747 161.789C212.824 161.789 212.843 161.91 212.747 161.921C211.063 162.165 209.352 162.173 207.666 161.943C208.761 161.823 209.863 161.772 210.966 161.792L211.864 161.792L212.498 161.792L212.722 161.792L212.747 161.789Z" fill="#FED395"/>
<path d="M197.414 162.01C198.196 162.022 198.977 162.078 199.753 162.175C199.753 162.175 199.753 162.212 199.753 162.175C197.86 162.574 195.908 162.604 194.004 162.264C195.037 162.106 196.079 162.017 197.124 161.995L197.414 162.01Z" fill="#FED395"/>
<path d="M204.476 171.649C204.215 169.977 204.446 168.218 204.476 166.55C204.949 168.214 204.78 169.97 204.476 171.649Z" fill="#FED395"/>
<path d="M204.673 152.624C204.673 152.624 204.673 152.605 204.673 152.594C204.703 152.643 204.703 152.692 204.673 152.624Z" fill="#FED395"/>
<path d="M204.256 157.907C204.136 156.137 204.276 154.36 204.67 152.632C204.655 154.384 204.663 156.202 204.256 157.907Z" fill="#FED395"/>
<path d="M210.184 167.908C209.15 167.14 207.984 166.439 207.251 165.337C208.3 166.075 209.528 166.858 210.184 167.908Z" fill="#FED395"/>
<path d="M201.124 159.298C199.718 158.588 198.47 157.598 197.458 156.389C198.798 157.199 200.03 158.177 201.124 159.298V159.298Z" fill="#FED395"/>
<path d="M208.161 159.019C208.887 157.949 209.824 157.039 210.914 156.345C210.11 157.346 209.185 158.245 208.161 159.019V159.019Z" fill="#FED395"/>
<path d="M200.963 165.257C200.121 166.527 199.107 167.673 197.949 168.662C198.756 167.384 199.665 166.039 200.978 165.227C200.996 165.231 200.974 165.26 200.963 165.257Z" fill="#FED395"/>
<path d="M189.153 161.947C189.402 162.509 188.61 162.828 188.233 162.49C188.147 162.419 188.085 162.321 188.057 162.213C188.029 162.104 188.036 161.989 188.076 161.885C188.117 161.78 188.189 161.691 188.283 161.629C188.377 161.568 188.487 161.538 188.599 161.543C188.722 161.544 188.841 161.584 188.941 161.656C189.04 161.728 189.114 161.83 189.153 161.947V161.947Z" fill="#FED395"/>
<path d="M188.955 160.981C190.788 161.715 189.633 164.316 187.855 163.354C186.608 162.601 187.122 160.863 188.372 160.863C188.572 160.864 188.77 160.904 188.955 160.981V160.981Z" fill="#FED395"/>
<path d="M170.226 163.339C170.216 163.698 170.269 164.056 170.38 164.397C170.295 164.05 170.244 163.696 170.226 163.339V163.339ZM178.978 156.294C183.206 159.085 184.302 164.588 180.382 168.148C176.316 171.906 169.225 170.275 167.439 165.084C165.562 159.824 169.826 155.048 174.772 155.048C176.263 155.058 177.721 155.49 178.978 156.294V156.294Z" fill="#FED395"/>
<path d="M156.124 162.591C155.841 162.792 155.5 162.896 155.153 162.884L155.248 162.884C155.564 162.884 155.871 162.781 156.124 162.591V162.591ZM156.231 162.517L156.318 162.422C156.256 162.481 156.19 162.536 156.12 162.587L156.231 162.517ZM157.796 161.922C157.685 162.044 157.562 162.155 157.429 162.253C157.566 162.16 157.69 162.049 157.796 161.922V161.922ZM156.641 156.871C159.813 157.481 161.617 161.191 159.395 163.693C158.647 164.427 157.696 164.919 156.665 165.104C155.634 165.288 154.572 165.158 153.616 164.729C149.4 162.572 151.394 156.772 155.648 156.772C155.981 156.77 156.314 156.802 156.641 156.867L156.641 156.871Z" fill="#FED395"/>
<path d="M140.783 158.299C144.362 159.086 142.983 164.177 139.496 162.921C136.68 162.083 137.663 158.241 140.229 158.241C140.415 158.242 140.601 158.262 140.783 158.299V158.299Z" fill="#FED395"/>
<path d="M237.504 129.592C237.551 129.599 237.596 129.618 237.634 129.647C237.672 129.675 237.701 129.713 237.721 129.757C237.795 129.88 237.837 130.018 237.845 130.161C237.851 130.254 237.851 130.347 237.845 130.44C237.845 130.514 237.845 130.584 237.845 130.653C237.002 133.049 236.286 135.488 235.7 137.96C235.757 137.59 235.815 137.223 235.876 136.858C236.121 135.388 236.358 133.919 236.588 132.45C236.588 132.42 236.588 132.387 236.588 132.358C236.883 131.378 237.185 130.464 237.493 129.614L237.504 129.592Z" fill="#FED395"/>
<path d="M231.59 173.584C231.59 173.566 231.59 173.551 231.59 173.532C231.592 173.55 231.592 173.567 231.59 173.584V173.584Z" fill="#FED395"/>
<path d="M231.594 173.559C231.594 173.581 231.594 173.607 231.594 173.632C231.595 173.602 231.595 173.571 231.594 173.54L231.594 173.559Z" fill="#FED395"/>
<path d="M231.766 180.788C231.748 181.156 231.722 181.523 231.696 181.89C231.671 182.394 231.638 182.89 231.605 183.389C231.564 184.142 231.517 184.895 231.473 185.652C231.352 184.385 231.249 183.051 231.176 181.652L231.242 180.414C231.267 179.863 231.297 179.312 231.33 178.764C231.328 178.786 231.328 178.809 231.33 178.831C231.355 178.261 231.385 177.692 231.418 177.119C231.418 177.141 231.418 177.163 231.418 177.189C231.447 176.586 231.473 175.987 231.506 175.389C231.531 174.782 231.561 174.176 231.597 173.57C231.583 176.12 231.641 178.54 231.766 180.788Z" fill="#FED395"/>
<path d="M234.835 195.771C234.945 196.271 235.062 196.763 235.202 197.241C235.257 197.446 235.308 197.656 235.359 197.865C235.411 198.074 235.458 198.232 235.502 198.423C235.532 198.519 235.557 198.611 235.583 198.703C235.429 198.616 235.284 198.514 235.15 198.398L235.062 198.188C234.934 197.875 234.823 197.555 234.729 197.23C234.622 196.884 234.523 196.528 234.428 196.172C234.333 195.815 234.278 195.547 234.201 195.235C234.124 194.923 234.061 194.57 233.988 194.236C233.966 194.129 233.944 194.019 233.926 193.909C234.158 194.562 234.463 195.187 234.835 195.771V195.771Z" fill="#FED395"/>
<path d="M231.605 183.377C231.607 183.362 231.607 183.347 231.605 183.332C231.607 183.347 231.607 183.362 231.605 183.377Z" fill="#FED395"/>
<path d="M243.305 121.558C246.891 121.863 248.926 133.265 248.596 148.8L248.449 148.73C248.724 134.036 246.781 123.303 243.378 123.016C239.096 122.649 234.131 138.959 232.287 159.427C230.442 179.895 232.415 196.786 236.687 197.15C240.141 197.44 244.042 186.886 246.389 172.042C246.477 171.803 246.572 171.568 246.667 171.34C244.247 187.566 240.038 199.258 236.324 198.95C231.858 198.582 229.797 180.95 231.722 159.574C233.629 138.437 238.722 121.558 243.155 121.554L243.305 121.558Z" fill="#FED395"/>
<path d="M236.896 133.485C239.649 134.488 238.362 138.374 235.543 137.757C234.021 137.39 233.665 136.064 233.896 134.708C234.08 133.76 235.037 133.334 235.968 133.334C236.283 133.333 236.597 133.384 236.896 133.485V133.485Z" fill="#FED395"/>
<path d="M241.56 189.675C242.293 189.847 243.111 190.409 243.026 191.214C242.975 192.143 241.926 192.683 241.054 192.316C239.525 191.783 239.719 189.653 241.31 189.653C241.394 189.655 241.477 189.662 241.56 189.675V189.675Z" fill="#FED395"/>
</g>
<rect x="243" y="324" width="239" height="30" fill="#0D1838"/>
<path d="M248.144 349.832C249.135 349.832 249.974 349.489 250.66 348.802C251.384 348.078 251.765 347.221 251.803 346.23V314.385C251.689 313.051 251.06 312.06 249.917 311.412C249.345 311.107 248.754 310.954 248.144 310.954H247.401V310.383H263.467C265.144 310.383 266.611 310.249 267.869 309.983C269.127 309.716 269.946 309.506 270.327 309.354V319.359H269.698V318.673C269.737 316.958 269.241 315.585 268.212 314.556C267.221 313.489 265.868 312.917 264.153 312.841H260.379V329.478H269.47C270.88 329.44 272.042 328.964 272.957 328.049C273.872 327.096 274.329 325.934 274.329 324.561V324.047H274.844V337.254H274.329V336.796C274.329 335.386 273.872 334.224 272.957 333.309C272.042 332.394 270.899 331.918 269.527 331.88H260.379V347.945H271.528C274.31 347.945 276.635 347.145 278.503 345.544C280.409 343.943 281.819 341.675 282.734 338.74H283.305L280.618 350.403H247.401V349.832H248.144ZM322.17 310.954H321.655C320.778 310.954 319.902 311.221 319.025 311.755C318.148 312.288 317.424 313.089 316.853 314.156L303.303 344.057C301.549 347.831 300.616 350.327 300.501 351.547H299.987L282.664 314.213C282.092 313.146 281.368 312.346 280.491 311.812C279.614 311.24 278.719 310.954 277.804 310.954H277.347V310.383H295.527V310.954H295.07C294.231 310.954 293.603 311.221 293.183 311.755C292.802 312.25 292.612 312.727 292.612 313.184C292.612 313.642 292.688 314.099 292.84 314.556L302.56 338.168L312.622 314.556C312.812 314.061 312.908 313.603 312.908 313.184C312.908 312.727 312.698 312.25 312.279 311.755C311.898 311.221 311.288 310.954 310.449 310.954H309.935V310.383H322.17V310.954ZM323.574 349.832C324.565 349.832 325.403 349.489 326.089 348.802C326.814 348.078 327.195 347.221 327.233 346.23V314.385C327.119 313.051 326.49 312.06 325.346 311.412C324.775 311.107 324.184 310.954 323.574 310.954H322.831V310.383H344.728C345.909 310.383 347.205 310.268 348.615 310.04C350.026 309.811 351.017 309.582 351.588 309.354V319.359H351.017V318.673C351.017 316.958 350.502 315.585 349.473 314.556C348.482 313.489 347.129 312.917 345.414 312.841H335.809V329.478H343.355C344.766 329.44 345.928 328.964 346.843 328.049C347.758 327.096 348.215 325.934 348.215 324.561V324.047H348.787V337.254H348.215V336.796C348.215 334.891 347.453 333.48 345.928 332.566C345.166 332.146 344.327 331.918 343.413 331.88H335.809V347.945H343.298C346.081 347.945 348.406 347.145 350.273 345.544C352.179 343.943 353.589 341.675 354.504 338.74H355.076L352.446 350.403H322.831V349.832H323.574ZM403.207 310.954C402.254 310.954 401.434 311.297 400.748 311.984C400.062 312.632 399.7 313.432 399.662 314.385V343.886C399.662 346.439 399.834 348.593 400.177 350.346L400.348 351.204H399.834L370.962 323.704V346.401C370.962 347.354 371.305 348.174 371.991 348.86C372.677 349.508 373.496 349.832 374.449 349.832H375.535V350.403H358.212V349.832H359.241C360.232 349.832 361.071 349.508 361.757 348.86C362.443 348.174 362.786 347.335 362.786 346.344V316.672C362.786 314.156 362.615 312.06 362.271 310.383L362.157 309.525H362.672L391.544 337.025V314.442C391.506 313.451 391.143 312.632 390.457 311.984C389.771 311.297 388.952 310.954 387.999 310.954H386.97V310.383H404.293V310.954H403.207ZM429.348 312.727V346.287C429.386 347.278 429.748 348.116 430.434 348.802C431.158 349.489 432.016 349.832 433.007 349.832H433.693L433.75 350.403H416.37V349.832H417.113C418.066 349.832 418.885 349.489 419.571 348.802C420.296 348.116 420.696 347.297 420.772 346.344V312.727H413.054C411.301 312.765 409.909 313.318 408.88 314.385C407.851 315.452 407.337 316.843 407.337 318.558V319.244H406.765V309.296C407.298 309.525 408.251 309.754 409.624 309.983C411.034 310.211 412.33 310.326 413.511 310.326H436.552C438.419 310.287 439.944 310.135 441.125 309.868C442.307 309.601 443.031 309.411 443.298 309.296V319.244H442.726V318.558C442.726 316.843 442.212 315.452 441.183 314.385C440.153 313.318 438.762 312.765 437.009 312.727H429.348ZM446.901 345.086C446.901 342.342 447.491 339.998 448.673 338.054H449.188C449.149 338.359 449.13 338.664 449.13 338.969C449.13 341.599 450.064 343.905 451.932 345.887C453.838 347.831 456.429 348.802 459.707 348.802C462.261 348.802 464.243 348.193 465.653 346.973C467.102 345.753 467.826 344.21 467.826 342.342C467.826 340.093 466.301 338.13 463.252 336.453L453.304 329.878C451.322 328.735 449.893 327.363 449.016 325.762C448.178 324.123 447.758 322.465 447.758 320.788C447.758 317.205 448.883 314.442 451.131 312.498C453.418 310.554 456.334 309.582 459.879 309.582C461.975 309.582 464.567 309.773 467.654 310.154H471.256L470.513 318.558H469.941C469.941 316.576 469.198 314.995 467.711 313.813C466.263 312.593 464.319 311.984 461.88 311.984C458.907 311.984 456.753 312.898 455.419 314.728C454.733 315.604 454.39 316.595 454.39 317.701C454.39 319.53 455.724 321.226 458.392 322.789L469.312 329.878C472.743 331.86 474.458 334.776 474.458 338.626C474.458 342.704 473.067 345.83 470.284 348.002C467.54 350.137 463.881 351.204 459.307 351.204C456.715 351.204 454.314 350.899 452.103 350.289C449.931 349.641 448.33 348.783 447.301 347.716C447.034 346.992 446.901 346.115 446.901 345.086Z" fill="#FED395"/>
<defs>
<clipPath id="clip0_523_2429">
<rect width="615.036" height="262.988" fill="white" transform="translate(657.994 294.421) rotate(180)"/>
</clipPath>
</defs>
</svg>
