<svg width="364" height="133" viewBox="0 0 364 133" fill="none" xmlns="http://www.w3.org/2000/svg">
<path d="M41.4933 37.5358C42.152 37.5358 42.7093 37.3078 43.1653 36.8518C43.6467 36.3704 43.9 35.8004 43.9253 35.1418V13.9758C43.8493 13.0891 43.4313 12.4304 42.6713 11.9998C42.2913 11.7971 41.8987 11.6958 41.4933 11.6958H40.9993V11.3158H51.6773C52.792 11.3158 53.7673 11.2271 54.6033 11.0498C55.4393 10.8724 55.984 10.7331 56.2373 10.6318V17.2818H55.8193V16.8258C55.8447 15.6858 55.5153 14.7738 54.8313 14.0898C54.1727 13.3804 53.2733 13.0004 52.1333 12.9498H49.6253V24.0078H55.6673C56.6047 23.9824 57.3773 23.6658 57.9853 23.0578C58.5933 22.4244 58.8973 21.6518 58.8973 20.7398V20.3978H59.2393V29.1758H58.8973V28.8718C58.8973 27.9344 58.5933 27.1618 57.9853 26.5538C57.3773 25.9458 56.6173 25.6291 55.7053 25.6038H49.6253V36.2818H57.0353C58.8847 36.2818 60.43 35.7498 61.6713 34.6858C62.938 33.6218 63.8753 32.1144 64.4833 30.1638H64.8633L63.0773 37.9158H40.9993V37.5358H41.4933ZM66.8019 37.5358C67.4606 37.5358 68.0179 37.3078 68.4739 36.8518C68.9552 36.3704 69.2086 35.8004 69.2339 35.1418V14.0898C69.2086 13.4311 68.9552 12.8738 68.4739 12.4178C68.0179 11.9364 67.4606 11.6958 66.8019 11.6958H66.3079V11.3158H77.8599L77.8219 11.6958H77.3659C76.7072 11.6958 76.1372 11.9364 75.6559 12.4178C75.1746 12.8738 74.9339 13.4311 74.9339 14.0898V36.2818H79.9119C81.7612 36.2818 83.3066 35.7498 84.5479 34.6858C85.8146 33.6218 86.7519 32.1144 87.3599 30.1638H87.7399L85.9919 37.9158H66.3079V37.5358H66.8019ZM116.172 37.5358H116.514V37.9158H104.392V37.5358H104.734C105.291 37.5358 105.697 37.3711 105.95 37.0418C106.229 36.6871 106.368 36.3578 106.368 36.0538C106.368 35.7498 106.305 35.4458 106.178 35.1418L104.316 30.4678H95.4239L93.4479 35.1418C93.3213 35.4711 93.2579 35.7878 93.2579 36.0918C93.2579 36.3704 93.3846 36.6871 93.6379 37.0418C93.9166 37.3711 94.3473 37.5358 94.9299 37.5358H95.2339V37.9158H87.1019V37.5358H87.4439C88.0266 37.5358 88.6093 37.3584 89.1919 37.0038C89.7746 36.6491 90.2559 36.1171 90.6359 35.4078L99.4139 15.5338C100.605 13.0258 101.238 11.3664 101.314 10.5558H101.656L112.942 35.3318C113.322 36.0664 113.803 36.6238 114.386 37.0038C114.969 37.3584 115.564 37.5358 116.172 37.5358ZM96.0699 28.8718H103.67L99.9839 19.5238L96.0699 28.8718ZM146.375 11.6958C145.742 11.6958 145.197 11.9238 144.741 12.3798C144.285 12.8104 144.044 13.3424 144.019 13.9758V33.5838C144.019 35.2811 144.133 36.7124 144.361 37.8778L144.475 38.4478H144.133L124.943 20.1698V35.2558C124.943 35.8891 125.171 36.4338 125.627 36.8898C126.083 37.3204 126.628 37.5358 127.261 37.5358H127.983V37.9158H116.469V37.5358H117.153C117.812 37.5358 118.369 37.3204 118.825 36.8898C119.281 36.4338 119.509 35.8764 119.509 35.2178V15.4958C119.509 13.8238 119.395 12.4304 119.167 11.3158L119.091 10.7458H119.433L138.623 29.0238V14.0138C138.598 13.3551 138.357 12.8104 137.901 12.3798C137.445 11.9238 136.9 11.6958 136.267 11.6958H135.583V11.3158H147.097V11.6958H146.375ZM202.89 41.9438C200.61 43.2358 198.102 43.8818 195.366 43.8818C191.262 43.8818 187.411 42.4884 183.814 39.7018C183.079 39.1191 181.787 38.0931 179.938 36.6238C177.658 37.7638 175.15 38.3338 172.414 38.3338C170.413 38.3338 168.589 38.0804 166.942 37.5738C165.295 37.0418 163.94 36.4591 162.876 35.8258C161.837 35.1924 160.963 34.3564 160.254 33.3178C159.57 32.2538 159.228 31.0504 159.228 29.7078C159.228 27.6304 160.051 25.9078 161.698 24.5398C162.585 23.8051 163.598 23.2351 164.738 22.8298C163.573 21.0311 162.99 19.3338 162.99 17.7378C162.99 16.1418 163.421 14.8244 164.282 13.7858C165.903 11.7844 168.487 10.7838 172.034 10.7838C174.289 10.7838 176.214 11.1891 177.81 11.9998C178.621 12.4051 179.229 12.8991 179.634 13.4818L178.342 18.9158H178C177.924 16.3571 177.215 14.4951 175.872 13.3298C175.137 12.6964 174.175 12.3798 172.984 12.3798C171.793 12.3798 170.805 12.7978 170.02 13.6338C169.235 14.4444 168.842 15.5211 168.842 16.8638C168.842 18.2064 169.361 19.5364 170.4 20.8538C171.439 22.1458 173.009 23.7038 175.112 25.5278C177.24 27.3264 179.875 29.5304 183.016 32.1398C186.056 29.0238 187.576 25.4264 187.576 21.3478C187.576 18.3331 186.613 15.5464 184.688 12.9878C183.371 11.2398 181.648 9.65644 179.52 8.23777L179.748 8.00977C182.003 9.30177 183.852 10.8218 185.296 12.5698C186.74 14.2924 187.703 15.9771 188.184 17.6238C188.665 19.2451 188.906 20.8158 188.906 22.3358C188.906 26.4904 187.399 30.1384 184.384 33.2798L185.562 34.2678C186.753 35.2811 187.753 36.1044 188.564 36.7378C189.4 37.3711 190.426 38.0678 191.642 38.8278C192.858 39.6131 193.998 40.1958 195.062 40.5758C196.962 41.3104 198.938 41.6778 200.99 41.6778C201.598 41.6778 202.206 41.6398 202.814 41.5638L202.89 41.9438ZM165.232 28.4158C165.232 31.0758 166.169 33.1404 168.044 34.6098C169.64 35.8511 171.489 36.4718 173.592 36.4718C175.239 36.4718 176.847 36.1171 178.418 35.4078C174.39 32.1651 171.933 30.1638 171.046 29.4038C168.969 27.6811 167.347 26.1358 166.182 24.7678C165.549 25.8064 165.232 27.0224 165.232 28.4158ZM70.4493 62.6958C69.816 62.6958 69.2713 62.9238 68.8153 63.3798C68.3593 63.8104 68.1187 64.3424 68.0933 64.9758V84.5838C68.0933 86.2811 68.2073 87.7124 68.4353 88.8778L68.5493 89.4478H68.2073L49.0173 71.1698V86.2558C49.0173 86.8891 49.2453 87.4338 49.7013 87.8898C50.1573 88.3204 50.702 88.5358 51.3353 88.5358H52.0573V88.9158H40.5433V88.5358H41.2273C41.886 88.5358 42.4433 88.3204 42.8993 87.8898C43.3553 87.4338 43.5833 86.8764 43.5833 86.2178V66.4958C43.5833 64.8238 43.4693 63.4304 43.2413 62.3158L43.1653 61.7458H43.5073L62.6973 80.0238V65.0138C62.672 64.3551 62.4313 63.8104 61.9753 63.3798C61.5193 62.9238 60.9747 62.6958 60.3413 62.6958H59.6573V62.3158H71.1713V62.6958H70.4493ZM107.47 52.8918C108.104 52.8918 108.636 52.9171 109.066 52.9678V53.3478C107.496 53.4238 106.14 53.8038 105 54.4878C103.708 55.2731 102.784 56.0078 102.226 56.6918C101.694 57.3504 101.264 57.8951 100.934 58.3258C100.63 58.7311 100.326 59.2251 100.022 59.8078C99.5409 60.6944 99.0976 61.5684 98.6922 62.4298L88.5082 84.6978C87.3429 87.2058 86.7222 88.8651 86.6462 89.6758H86.3042L74.7902 64.8618C74.4102 64.1524 73.9289 63.6204 73.3462 63.2658C72.7636 62.8858 72.1682 62.6958 71.5602 62.6958H71.2562V62.3158H83.3402V62.6958H83.0362C82.4789 62.6958 82.0609 62.8731 81.7822 63.2278C81.5289 63.5571 81.4022 63.8738 81.4022 64.1778C81.4022 64.4818 81.4529 64.7858 81.5542 65.0898L88.0142 80.7838L95.8802 62.4298C97.0709 59.6178 98.4642 57.5024 100.06 56.0838C102.416 53.9558 104.886 52.8918 107.47 52.8918ZM101.685 88.5358C102.343 88.5358 102.901 88.3078 103.357 87.8518C103.838 87.3704 104.091 86.8004 104.117 86.1418V65.0518C104.091 64.3931 103.838 63.8358 103.357 63.3798C102.901 62.9238 102.343 62.6958 101.685 62.6958H101.191V62.3158H112.743L112.705 62.6958H112.249C111.59 62.6958 111.02 62.9238 110.539 63.3798C110.057 63.8358 109.817 64.3931 109.817 65.0518V86.1418C109.817 86.8004 110.057 87.3704 110.539 87.8518C111.02 88.3078 111.59 88.5358 112.249 88.5358H112.705L112.743 88.9158H101.191V88.5358H101.685ZM116.153 85.3818C116.153 83.5578 116.546 81.9998 117.331 80.7078H117.673C117.648 80.9104 117.635 81.1131 117.635 81.3158C117.635 83.0638 118.256 84.5964 119.497 85.9138C120.764 87.2058 122.486 87.8518 124.665 87.8518C126.362 87.8518 127.68 87.4464 128.617 86.6358C129.58 85.8251 130.061 84.7991 130.061 83.5578C130.061 82.0631 129.048 80.7584 127.021 79.6438L120.409 75.2738C119.092 74.5138 118.142 73.6018 117.559 72.5378C117.002 71.4484 116.723 70.3464 116.723 69.2318C116.723 66.8504 117.47 65.0138 118.965 63.7218C120.485 62.4298 122.423 61.7838 124.779 61.7838C126.172 61.7838 127.895 61.9104 129.947 62.1638H132.341L131.847 67.7498H131.467C131.467 66.4324 130.973 65.3811 129.985 64.5958C129.022 63.7851 127.73 63.3798 126.109 63.3798C124.133 63.3798 122.702 63.9878 121.815 65.2038C121.359 65.7864 121.131 66.4451 121.131 67.1798C121.131 68.3958 122.018 69.5231 123.791 70.5618L131.049 75.2738C133.329 76.5911 134.469 78.5291 134.469 81.0878C134.469 83.7984 133.544 85.8758 131.695 87.3198C129.871 88.7384 127.439 89.4478 124.399 89.4478C122.676 89.4478 121.08 89.2451 119.611 88.8398C118.167 88.4091 117.103 87.8391 116.419 87.1298C116.242 86.6484 116.153 86.0658 116.153 85.3818ZM138.089 88.5358C138.748 88.5358 139.305 88.3078 139.761 87.8518C140.242 87.3704 140.496 86.8004 140.521 86.1418V65.0518C140.496 64.3931 140.242 63.8358 139.761 63.3798C139.305 62.9238 138.748 62.6958 138.089 62.6958H137.595V62.3158H149.147L149.109 62.6958H148.653C147.994 62.6958 147.424 62.9238 146.943 63.3798C146.462 63.8358 146.221 64.3931 146.221 65.0518V86.1418C146.221 86.8004 146.462 87.3704 146.943 87.8518C147.424 88.3078 147.994 88.5358 148.653 88.5358H149.109L149.147 88.9158H137.595V88.5358H138.089ZM166.524 61.7838C171.21 61.7838 174.934 63.0251 177.696 65.5078C180.457 67.9904 181.838 71.3598 181.838 75.6158C181.838 79.8718 180.457 83.2411 177.696 85.7238C174.934 88.2064 171.21 89.4478 166.524 89.4478C161.837 89.4478 158.113 88.2064 155.352 85.7238C152.59 83.2411 151.21 79.8718 151.21 75.6158C151.21 72.8038 151.83 70.3591 153.072 68.2818C154.338 66.1791 156.124 64.5704 158.43 63.4558C160.735 62.3411 163.433 61.7838 166.524 61.7838ZM159.874 84.5838C161.52 86.7624 163.737 87.8518 166.524 87.8518C169.31 87.8518 171.514 86.7624 173.136 84.5838C174.782 82.3798 175.606 79.3904 175.606 75.6158C175.606 73.1331 175.238 70.9671 174.504 69.1178C173.769 67.2684 172.718 65.8498 171.35 64.8618C169.982 63.8738 168.373 63.3798 166.524 63.3798C163.737 63.3798 161.52 64.4818 159.874 66.6858C158.252 68.8644 157.442 71.8411 157.442 75.6158C157.442 79.3904 158.252 82.3798 159.874 84.5838ZM213.914 62.6958C213.281 62.6958 212.736 62.9238 212.28 63.3798C211.824 63.8104 211.583 64.3424 211.558 64.9758V84.5838C211.558 86.2811 211.672 87.7124 211.9 88.8778L212.014 89.4478H211.672L192.482 71.1698V86.2558C192.482 86.8891 192.71 87.4338 193.166 87.8898C193.622 88.3204 194.167 88.5358 194.8 88.5358H195.522V88.9158H184.008V88.5358H184.692C185.351 88.5358 185.908 88.3204 186.364 87.8898C186.82 87.4338 187.048 86.8764 187.048 86.2178V66.4958C187.048 64.8238 186.934 63.4304 186.706 62.3158L186.63 61.7458H186.972L206.162 80.0238V65.0138C206.137 64.3551 205.896 63.8104 205.44 63.3798C204.984 62.9238 204.439 62.6958 203.806 62.6958H203.122V62.3158H214.636V62.6958H213.914ZM235.735 65.1278C238.674 65.1278 241.055 65.7358 242.879 66.9518C244.728 68.1424 245.653 69.7891 245.653 71.8918C245.653 73.5131 245.058 75.0584 243.867 76.5278C242.98 77.6171 242.182 78.4531 241.473 79.0358C240.789 79.5931 240.257 80.0238 239.877 80.3278C239.522 80.6064 239.003 80.9738 238.319 81.4298C237.66 81.8604 237.179 82.1771 236.875 82.3798C236.596 82.5571 236.128 82.8484 235.469 83.2538C234.81 83.6591 234.405 83.9124 234.253 84.0138H242.119C243.234 84.0138 244.158 83.7604 244.893 83.2538C245.653 82.7218 246.375 81.8604 247.059 80.6698H247.439L245.159 88.9158H226.919V88.5738C227.552 87.9151 228.439 87.0158 229.579 85.8758C230.744 84.7104 231.707 83.7351 232.467 82.9498C233.252 82.1644 234.126 81.2144 235.089 80.0998C236.077 78.9851 236.862 77.9844 237.445 77.0978C238.864 74.9698 239.573 73.1078 239.573 71.5118C239.573 69.8904 239.13 68.6744 238.243 67.8638C237.382 67.0278 236.254 66.6098 234.861 66.6098C232.986 66.6098 231.568 67.1924 230.605 68.3578C229.668 69.4978 229.199 71.0684 229.199 73.0698H228.819L227.033 67.5978C227.97 66.8378 229.237 66.2424 230.833 65.8118C232.454 65.3558 234.088 65.1278 235.735 65.1278ZM253.598 68.8138C255.65 66.6604 258.436 65.5838 261.958 65.5838C265.479 65.5838 268.253 66.6604 270.28 68.8138C272.332 70.9418 273.358 73.8424 273.358 77.5158C273.358 81.1891 272.332 84.1024 270.28 86.2558C268.253 88.3838 265.479 89.4478 261.958 89.4478C259.627 89.4478 257.6 88.9664 255.878 88.0038C254.155 87.0411 252.838 85.6604 251.926 83.8618C251.014 82.0631 250.558 79.9478 250.558 77.5158C250.558 73.8424 251.571 70.9418 253.598 68.8138ZM264.884 68.4338C264.048 67.5978 263.072 67.1798 261.958 67.1798C260.843 67.1798 259.868 67.5978 259.032 68.4338C257.309 70.1564 256.448 73.1838 256.448 77.5158C256.448 80.7078 256.942 83.2284 257.93 85.0778C258.918 86.9271 260.26 87.8518 261.958 87.8518C263.655 87.8518 264.998 86.9271 265.986 85.0778C266.999 83.2284 267.506 80.7078 267.506 77.5158C267.506 73.1838 266.632 70.1564 264.884 68.4338ZM284.2 65.1278C287.139 65.1278 289.52 65.7358 291.344 66.9518C293.193 68.1424 294.118 69.7891 294.118 71.8918C294.118 73.5131 293.523 75.0584 292.332 76.5278C291.445 77.6171 290.647 78.4531 289.938 79.0358C289.254 79.5931 288.722 80.0238 288.342 80.3278C287.987 80.6064 287.468 80.9738 286.784 81.4298C286.125 81.8604 285.644 82.1771 285.34 82.3798C285.061 82.5571 284.593 82.8484 283.934 83.2538C283.275 83.6591 282.87 83.9124 282.718 84.0138H290.584C291.699 84.0138 292.623 83.7604 293.358 83.2538C294.118 82.7218 294.84 81.8604 295.524 80.6698H295.904L293.624 88.9158H275.384V88.5738C276.017 87.9151 276.904 87.0158 278.044 85.8758C279.209 84.7104 280.172 83.7351 280.932 82.9498C281.717 82.1644 282.591 81.2144 283.554 80.0998C284.542 78.9851 285.327 77.9844 285.91 77.0978C287.329 74.9698 288.038 73.1078 288.038 71.5118C288.038 69.8904 287.595 68.6744 286.708 67.8638C285.847 67.0278 284.719 66.6098 283.326 66.6098C281.451 66.6098 280.033 67.1924 279.07 68.3578C278.133 69.4978 277.664 71.0684 277.664 73.0698H277.284L275.498 67.5978C276.435 66.8378 277.702 66.2424 279.298 65.8118C280.919 65.3558 282.553 65.1278 284.2 65.1278ZM298.056 68.3578C300.032 66.5591 302.831 65.6598 306.454 65.6598C309.013 65.6598 311.065 66.2171 312.61 67.3318C314.155 68.4211 314.928 69.9284 314.928 71.8538C314.928 72.9431 314.662 73.9311 314.13 74.8178C313.623 75.7044 312.977 76.3884 312.192 76.8698C311.432 77.3511 310.609 77.6171 309.722 77.6678C311.318 77.9718 312.711 78.6684 313.902 79.7578C315.219 80.9738 315.891 82.6838 315.916 84.8878C315.916 86.3824 315.561 87.7758 314.852 89.0678C313.535 91.4491 311.242 93.1591 307.974 94.1978C306.606 94.6284 305.149 94.8438 303.604 94.8438C301.755 94.8438 299.969 94.5398 298.246 93.9318L298.322 93.5518C298.449 93.5518 298.575 93.5518 298.702 93.5518C300.602 93.5518 302.401 93.1971 304.098 92.4878C305.795 91.7784 307.163 90.7144 308.202 89.2958C309.266 87.8771 309.798 86.2684 309.798 84.4698C309.798 81.9618 308.759 80.1631 306.682 79.0738C305.491 78.4404 304.085 78.1238 302.464 78.1238L302.54 77.7438C302.616 77.7438 302.679 77.7438 302.73 77.7438C304.453 77.7438 305.935 77.1611 307.176 75.9958C308.443 74.8304 309.076 73.4244 309.076 71.7778C309.076 70.2324 308.645 69.0924 307.784 68.3578C306.923 67.6231 305.909 67.2558 304.744 67.2558C301.603 67.2558 300.032 69.2318 300.032 73.1838C300.032 73.3611 300.032 73.5511 300.032 73.7538H299.652L298.056 68.3578Z" fill="white"/>
<path d="M42.0575 111.528H50.2001V112.527H48.7284C48.4133 112.527 48.1841 112.592 48.0409 112.72C47.8977 112.842 47.8261 113.025 47.8261 113.268V125.568C47.8261 125.855 47.9013 126.059 48.0517 126.18C48.245 126.338 48.5243 126.417 48.8895 126.417H50.2001V127.416H42.0575V126.417H43.3036C43.7333 126.417 44.0341 126.345 44.2059 126.202C44.385 126.059 44.4745 125.847 44.4745 125.568V113.408C44.4745 113.107 44.3921 112.885 44.2274 112.742C44.0699 112.599 43.8192 112.527 43.4755 112.527H42.0575V111.528ZM65.497 126.417V127.416H59.4491V126.417H60.0829C60.4195 126.417 60.6701 126.331 60.8349 126.159C60.9996 125.987 61.0819 125.736 61.0819 125.407V121.046C61.0819 120.301 60.91 119.732 60.5663 119.338C60.2297 118.937 59.7857 118.736 59.2343 118.736C58.4823 118.736 57.87 119.019 57.3974 119.585C56.9247 120.143 56.6884 120.963 56.6884 122.045V125.407C56.6884 125.736 56.7707 125.987 56.9354 126.159C57.1073 126.331 57.3257 126.417 57.5907 126.417H58.3534V127.416H52.08V126.417H52.8964C53.2115 126.417 53.4478 126.331 53.6054 126.159C53.7701 125.987 53.8524 125.736 53.8524 125.407V119.424C53.8524 119.08 53.7343 118.808 53.4979 118.607C53.2688 118.399 52.9644 118.296 52.5849 118.296H52.1552V117.361L56.3446 117.135C56.495 117.751 56.6096 118.485 56.6884 119.338C57.2756 118.543 57.9022 117.948 58.5683 117.554C59.2343 117.161 59.9361 116.964 60.6737 116.964C61.6763 116.964 62.4677 117.297 63.0477 117.963C63.6207 118.629 63.9071 119.556 63.9071 120.745V125.407C63.9071 125.765 63.9895 126.023 64.1542 126.18C64.3189 126.338 64.5803 126.417 64.9384 126.417H65.497ZM66.5712 117.361H72.5761V118.317H72.0819C71.688 118.317 71.4195 118.367 71.2763 118.468C71.133 118.568 71.0614 118.711 71.0614 118.897C71.0614 119.098 71.1402 119.341 71.2977 119.628L73.8759 124.408L76.121 119.939C76.2356 119.717 76.2929 119.495 76.2929 119.273C76.2929 118.664 75.7844 118.346 74.7675 118.317V117.361H79.161V118.317C78.76 118.36 78.452 118.457 78.2372 118.607C78.0224 118.75 77.829 118.99 77.6571 119.327L73.4462 127.77H72.6727L68.0321 119.23C67.8244 118.851 67.6382 118.604 67.4735 118.489C67.316 118.374 67.1047 118.317 66.8397 118.317H66.5712V117.361ZM83.5438 111.56C84.0237 111.56 84.4354 111.732 84.7792 112.076C85.1229 112.413 85.2948 112.824 85.2948 113.311C85.2948 113.798 85.1229 114.214 84.7792 114.557C84.4354 114.894 84.0237 115.062 83.5438 115.062C83.0569 115.062 82.6415 114.89 82.2977 114.547C81.954 114.203 81.7821 113.791 81.7821 113.311C81.7821 112.824 81.954 112.413 82.2977 112.076C82.6415 111.732 83.0569 111.56 83.5438 111.56ZM80.7831 117.361L85.2518 117.157V125.697C85.2518 125.926 85.3235 126.105 85.4667 126.234C85.6171 126.356 85.8427 126.417 86.1434 126.417H86.8202V127.416H80.7831V126.417H81.4491C81.8072 126.417 82.0578 126.334 82.2011 126.17C82.3515 126.005 82.4267 125.719 82.4267 125.31V119.488C82.4267 119.123 82.3192 118.84 82.1044 118.639C81.8967 118.439 81.6067 118.339 81.2343 118.339H80.7831V117.361ZM91.8583 113.225H92.8251V117.361H96.1444V118.521H92.8251V124.913C92.8251 125.335 92.9325 125.665 93.1474 125.901C93.3622 126.13 93.6451 126.245 93.996 126.245C94.9986 126.245 95.5285 125.31 95.5858 123.441H96.5526C96.5311 124.437 96.3736 125.239 96.08 125.847C95.7864 126.449 95.3638 126.914 94.8124 127.244C94.2681 127.573 93.6522 127.738 92.9647 127.738C92.3632 127.738 91.8404 127.616 91.3964 127.373C90.9595 127.129 90.6086 126.768 90.3436 126.288C90.0858 125.801 89.9569 125.274 89.9569 124.709V118.521H88.1737V117.533C89.2623 117.39 90.1109 116.971 90.7196 116.276C91.3283 115.581 91.7079 114.565 91.8583 113.225ZM108.53 122.453H101.473C101.494 123.864 101.777 124.906 102.321 125.579C102.873 126.245 103.578 126.578 104.437 126.578C105.053 126.578 105.637 126.406 106.188 126.062C106.74 125.719 107.306 125.095 107.886 124.193L108.67 124.677C108.061 125.751 107.363 126.521 106.575 126.986C105.794 127.444 104.838 127.674 103.707 127.674C102.06 127.674 100.728 127.172 99.7108 126.17C98.6939 125.167 98.1854 123.882 98.1854 122.313C98.1854 120.745 98.6975 119.434 99.7216 118.382C100.746 117.329 102.002 116.802 103.492 116.802C104.523 116.802 105.408 117.014 106.145 117.436C106.89 117.859 107.467 118.478 107.875 119.295C108.29 120.104 108.509 121.157 108.53 122.453ZM101.473 121.486H104.835C105.15 121.486 105.376 121.407 105.512 121.25C105.648 121.092 105.716 120.806 105.716 120.39C105.716 119.56 105.526 118.919 105.146 118.468C104.767 118.009 104.283 117.78 103.696 117.78C103.002 117.78 102.468 118.088 102.096 118.704C101.73 119.32 101.523 120.247 101.473 121.486ZM117.672 117.662L118.381 116.813H119.036L119.251 120.251H118.381C117.922 119.341 117.418 118.704 116.866 118.339C116.322 117.966 115.659 117.78 114.879 117.78C114.206 117.78 113.694 117.909 113.343 118.167C112.992 118.425 112.816 118.75 112.816 119.144C112.816 119.531 112.952 119.825 113.225 120.025C113.497 120.233 114.241 120.458 115.459 120.702C116.562 120.924 117.296 121.11 117.661 121.26C118.356 121.54 118.896 121.955 119.283 122.507C119.677 123.058 119.874 123.703 119.874 124.44C119.874 125.371 119.498 126.155 118.746 126.793C118.001 127.423 117.02 127.738 115.803 127.738C115.215 127.738 114.682 127.666 114.202 127.523C113.729 127.387 113.235 127.144 112.72 126.793L111.957 127.695H111.141L110.947 123.892H111.839C112.598 125.812 113.901 126.771 115.749 126.771C116.508 126.771 117.088 126.624 117.489 126.331C117.89 126.037 118.091 125.686 118.091 125.278C118.091 124.906 117.965 124.623 117.715 124.429C117.464 124.236 116.798 124.028 115.717 123.806C114.549 123.57 113.754 123.366 113.332 123.194C112.609 122.915 112.064 122.528 111.699 122.034C111.334 121.533 111.151 120.931 111.151 120.229C111.151 119.227 111.484 118.407 112.15 117.769C112.816 117.125 113.708 116.802 114.825 116.802C115.369 116.802 115.856 116.867 116.286 116.996C116.723 117.125 117.185 117.347 117.672 117.662ZM127.748 117.361H133.688V118.285H133.119C132.775 118.285 132.532 118.335 132.389 118.435C132.245 118.536 132.174 118.664 132.174 118.822C132.174 119.001 132.235 119.205 132.356 119.434L134.859 124.311L136.965 119.896C137.079 119.653 137.137 119.431 137.137 119.23C137.137 118.944 137.029 118.715 136.814 118.543C136.6 118.371 136.284 118.285 135.869 118.285H135.558V117.361H139.93V118.285C139.5 118.299 139.16 118.396 138.909 118.575C138.658 118.747 138.436 119.033 138.243 119.434L134.236 127.824C133.556 129.256 132.836 130.298 132.077 130.95C131.497 131.437 130.845 131.68 130.122 131.68C129.37 131.68 128.776 131.498 128.339 131.133C127.902 130.767 127.683 130.316 127.683 129.779C127.683 129.378 127.809 129.049 128.059 128.791C128.317 128.54 128.64 128.415 129.026 128.415C129.42 128.415 129.742 128.537 129.993 128.78C130.244 129.031 130.369 129.342 130.369 129.715C130.369 129.836 130.344 129.99 130.294 130.177C130.265 130.284 130.251 130.366 130.251 130.424C130.251 130.595 130.344 130.681 130.53 130.681C130.86 130.681 131.271 130.413 131.766 129.876C132.26 129.346 132.8 128.497 133.388 127.33L129.101 119.08C128.944 118.772 128.783 118.564 128.618 118.457C128.453 118.342 128.256 118.285 128.027 118.285H127.748V117.361ZM147.095 116.802C148.219 116.802 149.25 117.046 150.188 117.533C151.134 118.02 151.836 118.657 152.294 119.445C152.752 120.226 152.981 121.167 152.981 122.27C152.981 124.032 152.38 125.385 151.177 126.331C149.981 127.269 148.624 127.738 147.105 127.738C146.031 127.738 145.046 127.498 144.151 127.018C143.263 126.531 142.579 125.88 142.1 125.063C141.62 124.24 141.38 123.312 141.38 122.281C141.38 120.727 141.92 119.427 143.002 118.382C144.09 117.329 145.455 116.802 147.095 116.802ZM147.159 117.823C146.414 117.823 145.82 118.152 145.376 118.811C144.939 119.463 144.721 120.612 144.721 122.26C144.721 123.971 144.939 125.153 145.376 125.804C145.813 126.449 146.404 126.771 147.148 126.771C147.907 126.771 148.52 126.438 148.985 125.772C149.451 125.106 149.683 123.957 149.683 122.324C149.683 120.648 149.454 119.481 148.996 118.822C148.538 118.156 147.925 117.823 147.159 117.823ZM154.797 117.361L159.287 117.103V123.806C159.287 124.429 159.455 124.924 159.792 125.289C160.128 125.647 160.565 125.826 161.102 125.826C161.862 125.826 162.467 125.525 162.918 124.924C163.376 124.322 163.605 123.617 163.605 122.807V119.52C163.605 119.134 163.498 118.84 163.283 118.639C163.068 118.439 162.775 118.339 162.402 118.339H161.908V117.361L166.441 117.103V125.246C166.441 125.611 166.552 125.898 166.774 126.105C167.003 126.313 167.304 126.417 167.677 126.417H168.139V127.416L163.981 127.545C163.809 126.829 163.709 126.062 163.681 125.246C162.986 126.127 162.316 126.746 161.672 127.104C161.027 127.462 160.358 127.641 159.663 127.641C158.975 127.641 158.395 127.498 157.923 127.212C157.457 126.925 157.085 126.47 156.806 125.847C156.526 125.224 156.387 124.469 156.387 123.581V119.585C156.387 119.148 156.276 118.836 156.054 118.65C155.832 118.457 155.413 118.353 154.797 118.339V117.361ZM179.472 113.225H180.438V117.361H183.758V118.521H180.438V124.913C180.438 125.335 180.546 125.665 180.761 125.901C180.975 126.13 181.258 126.245 181.609 126.245C182.612 126.245 183.142 125.31 183.199 123.441H184.166C184.144 124.437 183.987 125.239 183.693 125.847C183.4 126.449 182.977 126.914 182.426 127.244C181.881 127.573 181.266 127.738 180.578 127.738C179.976 127.738 179.454 127.616 179.01 127.373C178.573 127.129 178.222 126.768 177.957 126.288C177.699 125.801 177.57 125.274 177.57 124.709V118.521H175.787V117.533C176.876 117.39 177.724 116.971 178.333 116.276C178.942 115.581 179.321 114.565 179.472 113.225ZM191.309 116.802C192.434 116.802 193.465 117.046 194.403 117.533C195.349 118.02 196.05 118.657 196.509 119.445C196.967 120.226 197.196 121.167 197.196 122.27C197.196 124.032 196.595 125.385 195.391 126.331C194.196 127.269 192.838 127.738 191.32 127.738C190.246 127.738 189.261 127.498 188.366 127.018C187.478 126.531 186.794 125.88 186.314 125.063C185.835 124.24 185.595 123.312 185.595 122.281C185.595 120.727 186.135 119.427 187.217 118.382C188.305 117.329 189.669 116.802 191.309 116.802ZM191.374 117.823C190.629 117.823 190.035 118.152 189.591 118.811C189.154 119.463 188.935 120.612 188.935 122.26C188.935 123.971 189.154 125.153 189.591 125.804C190.028 126.449 190.618 126.771 191.363 126.771C192.122 126.771 192.735 126.438 193.2 125.772C193.666 125.106 193.898 123.957 193.898 122.324C193.898 120.648 193.669 119.481 193.211 118.822C192.752 118.156 192.14 117.823 191.374 117.823ZM215.909 122.453H208.851C208.873 123.864 209.156 124.906 209.7 125.579C210.252 126.245 210.957 126.578 211.816 126.578C212.432 126.578 213.016 126.406 213.567 126.062C214.119 125.719 214.684 125.095 215.265 124.193L216.049 124.677C215.44 125.751 214.742 126.521 213.954 126.986C213.173 127.444 212.217 127.674 211.086 127.674C209.439 127.674 208.107 127.172 207.09 126.17C206.073 125.167 205.564 123.882 205.564 122.313C205.564 120.745 206.076 119.434 207.1 118.382C208.125 117.329 209.381 116.802 210.871 116.802C211.902 116.802 212.787 117.014 213.524 117.436C214.269 117.859 214.846 118.478 215.254 119.295C215.669 120.104 215.888 121.157 215.909 122.453ZM208.851 121.486H212.214C212.529 121.486 212.754 121.407 212.891 121.25C213.027 121.092 213.095 120.806 213.095 120.39C213.095 119.56 212.905 118.919 212.525 118.468C212.146 118.009 211.662 117.78 211.075 117.78C210.38 117.78 209.847 118.088 209.475 118.704C209.109 119.32 208.902 120.247 208.851 121.486ZM217.929 117.361H223.88V118.296H223.45C223.185 118.296 223.002 118.328 222.902 118.392C222.809 118.457 222.763 118.546 222.763 118.661C222.763 118.768 222.798 118.865 222.87 118.951L224.438 120.949L225.749 119.552C225.992 119.302 226.114 119.08 226.114 118.886C226.114 118.707 226.043 118.571 225.899 118.478C225.713 118.357 225.434 118.296 225.061 118.296H224.836V117.361H229.455V118.296C228.997 118.331 228.624 118.417 228.338 118.553C228.058 118.69 227.733 118.951 227.36 119.338L225.061 121.712L228.123 125.59C228.395 125.933 228.685 126.17 228.993 126.299C229.194 126.377 229.519 126.417 229.971 126.417V127.416H223.611V126.417H224.202C224.453 126.417 224.632 126.385 224.739 126.32C224.847 126.248 224.9 126.17 224.9 126.084C224.9 125.976 224.847 125.851 224.739 125.708L223.117 123.624L221.592 125.203C221.441 125.36 221.366 125.529 221.366 125.708C221.366 125.915 221.441 126.087 221.592 126.223C221.749 126.352 221.95 126.417 222.193 126.417H222.677V127.416H217.821V126.417H218.208C218.774 126.417 219.354 126.112 219.948 125.504L222.516 122.872L219.561 119.177C219.246 118.783 219.003 118.543 218.831 118.457C218.659 118.364 218.358 118.31 217.929 118.296V117.361ZM231.582 117.415L235.675 117.157C235.839 117.816 235.936 118.471 235.965 119.123C236.387 118.442 236.928 117.916 237.587 117.544C238.253 117.164 238.99 116.974 239.8 116.974C241.096 116.974 242.145 117.436 242.947 118.36C243.749 119.284 244.15 120.591 244.15 122.281C244.15 123.455 243.957 124.451 243.57 125.267C243.183 126.084 242.643 126.7 241.948 127.115C241.261 127.53 240.455 127.738 239.531 127.738C238.794 127.738 238.138 127.573 237.565 127.244C236.992 126.907 236.459 126.37 235.965 125.633V129.231C235.965 129.704 236.001 130.005 236.072 130.134C236.144 130.27 236.276 130.37 236.47 130.434C236.67 130.506 237.064 130.545 237.651 130.552V131.584H231.582V130.552H231.904C232.284 130.552 232.538 130.517 232.667 130.445C232.796 130.381 232.896 130.266 232.968 130.101C233.018 129.987 233.043 129.697 233.043 129.231V119.714C233.043 119.248 233.007 118.94 232.935 118.79C232.864 118.632 232.753 118.521 232.602 118.457C232.459 118.385 232.119 118.339 231.582 118.317V117.415ZM238.457 118.478C237.762 118.478 237.171 118.811 236.684 119.477C236.197 120.143 235.954 121.117 235.954 122.399C235.954 123.667 236.208 124.637 236.717 125.31C237.232 125.983 237.82 126.32 238.478 126.32C239.123 126.32 239.642 126.03 240.036 125.45C240.552 124.684 240.809 123.652 240.809 122.356C240.809 121.167 240.602 120.226 240.186 119.531C239.771 118.829 239.195 118.478 238.457 118.478ZM245.987 111.528L250.692 111.292V125.59C250.692 125.847 250.775 126.052 250.939 126.202C251.104 126.345 251.34 126.417 251.648 126.417H252.282V127.416H246.234V126.417H246.922C247.237 126.417 247.47 126.334 247.62 126.17C247.778 125.998 247.856 125.74 247.856 125.396V113.655C247.856 113.29 247.756 113.01 247.556 112.817C247.355 112.617 247.083 112.516 246.739 112.516H245.987V111.528ZM259.587 116.802C260.711 116.802 261.742 117.046 262.681 117.533C263.626 118.02 264.328 118.657 264.786 119.445C265.244 120.226 265.474 121.167 265.474 122.27C265.474 124.032 264.872 125.385 263.669 126.331C262.473 127.269 261.116 127.738 259.598 127.738C258.523 127.738 257.539 127.498 256.643 127.018C255.755 126.531 255.072 125.88 254.592 125.063C254.112 124.24 253.872 123.312 253.872 122.281C253.872 120.727 254.413 119.427 255.494 118.382C256.583 117.329 257.947 116.802 259.587 116.802ZM259.651 117.823C258.906 117.823 258.312 118.152 257.868 118.811C257.431 119.463 257.213 120.612 257.213 122.26C257.213 123.971 257.431 125.153 257.868 125.804C258.305 126.449 258.896 126.771 259.641 126.771C260.4 126.771 261.012 126.438 261.477 125.772C261.943 125.106 262.176 123.957 262.176 122.324C262.176 120.648 261.947 119.481 261.488 118.822C261.03 118.156 260.418 117.823 259.651 117.823ZM274.368 126.417V127.416H267.343V126.417H268.213C268.571 126.417 268.832 126.349 268.997 126.213C269.162 126.069 269.244 125.88 269.244 125.643V119.692C269.244 119.212 269.133 118.861 268.911 118.639C268.696 118.417 268.392 118.306 267.998 118.306H267.429V117.361L271.725 117.135V120.412C271.976 119.316 272.413 118.475 273.036 117.887C273.659 117.3 274.361 117.007 275.141 117.007C275.807 117.007 276.334 117.186 276.721 117.544C277.107 117.895 277.301 118.349 277.301 118.908C277.301 119.388 277.165 119.778 276.892 120.079C276.627 120.372 276.302 120.519 275.915 120.519C275.571 120.519 275.274 120.39 275.023 120.133C274.78 119.875 274.658 119.545 274.658 119.144C274.658 118.922 274.719 118.69 274.841 118.446C274.905 118.31 274.937 118.213 274.937 118.156C274.937 118.056 274.912 117.984 274.862 117.941C274.819 117.891 274.748 117.866 274.647 117.866C274.39 117.866 274.107 118.016 273.799 118.317C273.326 118.783 272.929 119.51 272.606 120.498C272.284 121.479 272.123 122.471 272.123 123.473V125.643C272.123 125.894 272.191 126.087 272.327 126.223C272.463 126.352 272.653 126.417 272.896 126.417H274.368ZM289.3 122.453H282.242C282.264 123.864 282.546 124.906 283.091 125.579C283.642 126.245 284.348 126.578 285.207 126.578C285.823 126.578 286.406 126.406 286.958 126.062C287.509 125.719 288.075 125.095 288.655 124.193L289.439 124.677C288.831 125.751 288.132 126.521 287.345 126.986C286.564 127.444 285.608 127.674 284.476 127.674C282.829 127.674 281.497 127.172 280.48 126.17C279.463 125.167 278.955 123.882 278.955 122.313C278.955 120.745 279.467 119.434 280.491 118.382C281.515 117.329 282.772 116.802 284.262 116.802C285.293 116.802 286.177 117.014 286.915 117.436C287.66 117.859 288.236 118.478 288.644 119.295C289.06 120.104 289.278 121.157 289.3 122.453ZM282.242 121.486H285.604C285.919 121.486 286.145 121.407 286.281 121.25C286.417 121.092 286.485 120.806 286.485 120.39C286.485 119.56 286.295 118.919 285.916 118.468C285.536 118.009 285.053 117.78 284.466 117.78C283.771 117.78 283.238 118.088 282.865 118.704C282.5 119.32 282.292 120.247 282.242 121.486Z" fill="#FED395"/>
</svg>
