<svg width="1015" height="177" viewBox="0 0 1015 177" fill="none" xmlns="http://www.w3.org/2000/svg">
<path d="M181.167 117.439H202.551V119.788H198.882C197.262 119.788 196.225 119.991 195.795 120.404C195.366 120.817 195.156 121.676 195.156 122.988V158.109C195.156 159.511 195.342 160.385 195.715 160.742C196.506 161.307 197.477 161.564 198.444 161.463H202.551V163.812H181.167V161.463H185.217C186.634 161.463 187.558 161.252 187.971 160.831C188.384 160.41 188.603 159.511 188.603 158.109V122.988C188.603 121.651 188.416 120.825 188.036 120.509C187.453 120.031 186.416 119.788 184.796 119.788H181.167V117.439Z" fill="#FED395"/>
<path d="M207.087 134.433L216.807 133.834C217.244 135.972 217.537 138.137 217.682 140.314C218.822 138.361 220.421 136.716 222.339 135.519C224.174 134.431 226.273 133.87 228.406 133.899C230.099 133.845 231.776 134.242 233.266 135.049C234.664 135.907 235.768 137.17 236.433 138.67C237.246 140.405 237.653 142.302 237.624 144.218V158.515C237.582 158.923 237.624 159.336 237.748 159.727C237.872 160.119 238.075 160.481 238.345 160.791C239.043 161.308 239.909 161.548 240.775 161.463H242.84V163.812H227.337V161.463H228.811C229.819 161.56 230.831 161.327 231.695 160.799C231.973 160.556 232.191 160.252 232.332 159.91C232.472 159.568 232.531 159.199 232.505 158.83V146.251C232.505 143.513 232.086 141.486 231.249 140.168C230.7 139.259 229.914 138.517 228.975 138.02C228.036 137.524 226.98 137.292 225.919 137.349C224.79 137.341 223.673 137.591 222.655 138.081C221.637 138.571 220.745 139.288 220.047 140.176C218.397 142.294 217.559 144.931 217.682 147.612V158.49C217.64 158.9 217.683 159.314 217.81 159.706C217.937 160.098 218.144 160.459 218.419 160.766C219.121 161.277 219.984 161.516 220.849 161.439H222.89V163.788H207.338V161.439H209.371C210.2 161.496 211.024 161.273 211.712 160.807C211.963 160.631 212.168 160.397 212.31 160.125C212.451 159.853 212.524 159.55 212.522 159.244V140.298C212.559 139.778 212.488 139.257 212.314 138.766C212.14 138.276 211.866 137.826 211.51 137.447C210.697 136.752 209.644 136.403 208.577 136.475H207.087V134.433Z" fill="#FED395"/>
<path d="M244.994 134.434H259.444V136.564C258.194 136.495 256.942 136.671 255.759 137.082C255.514 137.2 255.307 137.385 255.163 137.616C255.02 137.847 254.946 138.114 254.949 138.386C254.949 138.862 255.054 139.333 255.257 139.763L263.049 157.105L270.136 140.29C270.241 140.01 270.296 139.714 270.298 139.415C270.298 137.892 268.792 136.985 265.795 136.564V134.434H277.945V136.564C276.89 136.628 275.871 136.975 274.996 137.568C274.246 138.135 273.661 138.893 273.303 139.763L262.571 164.687H260.878L249.32 139.075C249.016 138.295 248.486 137.623 247.797 137.147C246.926 136.72 245.963 136.52 244.994 136.564V134.434Z" fill="#FED395"/>
<path d="M280.205 134.434L291.893 134.093V159.357C291.866 159.624 291.897 159.895 291.983 160.149C292.07 160.403 292.211 160.636 292.395 160.831C292.903 161.261 293.553 161.486 294.218 161.463H297.539V163.812H280.796V161.463H283.898C284.264 161.495 284.632 161.451 284.98 161.336C285.328 161.22 285.649 161.035 285.923 160.791C286.383 160.245 286.613 159.542 286.563 158.831V140.33C286.6 139.842 286.53 139.352 286.356 138.894C286.183 138.436 285.91 138.022 285.559 137.682C284.714 137.024 283.654 136.703 282.586 136.783H280.156L280.205 134.434ZM288.353 116.905C288.818 116.905 289.277 117 289.703 117.184C290.13 117.367 290.514 117.637 290.832 117.974C291.17 118.299 291.438 118.689 291.62 119.121C291.803 119.553 291.896 120.017 291.893 120.485C291.882 121.409 291.508 122.292 290.852 122.942C290.196 123.593 289.31 123.958 288.386 123.96C287.685 123.976 286.997 123.78 286.41 123.397C285.823 123.014 285.366 122.463 285.098 121.816C284.83 121.168 284.764 120.455 284.908 119.77C285.053 119.084 285.401 118.459 285.907 117.974C286.22 117.639 286.599 117.371 287.02 117.187C287.44 117.003 287.894 116.907 288.353 116.905Z" fill="#FED395"/>
<path d="M308.733 122.453H310.831V134.433H320.332V137.317H310.831V156.165C310.74 157.514 311.156 158.849 311.997 159.907C312.36 160.329 312.812 160.664 313.321 160.89C313.829 161.115 314.381 161.225 314.937 161.211C315.659 161.203 316.367 161.018 317.001 160.674C317.634 160.33 318.175 159.836 318.574 159.235C319.578 157.915 320.194 155.744 320.332 152.755H322.438C322.308 156.659 321.42 159.559 319.773 161.454C318.983 162.38 317.994 163.115 316.881 163.606C315.767 164.097 314.558 164.33 313.342 164.289C312.312 164.346 311.281 164.2 310.308 163.858C309.335 163.516 308.439 162.985 307.672 162.297C306.985 161.618 306.448 160.804 306.095 159.905C305.742 159.007 305.581 158.045 305.622 157.08V137.317H300.511V135.121C302.592 134.863 304.495 133.82 305.833 132.205C307.615 129.889 308.581 126.638 308.733 122.453Z" fill="#FED395"/>
<path d="M353.533 149.329H332.474C332.582 153.8 333.419 156.957 334.985 158.798C335.824 159.797 336.877 160.595 338.066 161.132C339.255 161.669 340.549 161.931 341.853 161.9C345.947 161.9 349.238 159.57 351.727 154.91L353.768 155.785C350.717 161.725 346.306 164.695 340.533 164.695C338.675 164.726 336.831 164.361 335.125 163.625C333.418 162.889 331.888 161.799 330.635 160.426C327.935 157.586 326.585 153.949 326.585 149.516C326.585 144.753 327.908 140.903 330.554 137.965C331.759 136.558 333.259 135.434 334.947 134.673C336.635 133.911 338.471 133.531 340.322 133.559C342.95 133.492 345.53 134.261 347.693 135.754C349.849 137.335 351.476 139.532 352.359 142.055C353.169 144.394 353.567 146.855 353.533 149.329ZM332.474 147.102H345.207C345.538 147.119 345.869 147.059 346.173 146.925C346.477 146.791 346.745 146.588 346.956 146.332C347.45 145.554 347.672 144.634 347.588 143.716C347.638 141.56 346.871 139.466 345.442 137.852C344.83 137.098 344.058 136.489 343.183 136.068C342.308 135.648 341.35 135.427 340.379 135.422C339.29 135.429 338.218 135.698 337.254 136.205C336.29 136.713 335.462 137.444 334.839 138.338C333.343 140.292 332.563 143.214 332.498 147.102H332.474Z" fill="#FED395"/>
<path d="M361.625 152.748C362.921 156.361 364.412 158.864 366.097 160.257C367.855 161.67 370.062 162.409 372.317 162.338C374.593 162.338 376.367 161.844 377.574 160.848C378.154 160.406 378.621 159.835 378.939 159.179C379.257 158.523 379.417 157.802 379.405 157.074C379.419 156.254 379.185 155.449 378.732 154.765C378.268 154.099 377.617 153.586 376.861 153.291C374.834 152.672 372.766 152.196 370.673 151.865C368.373 151.518 366.132 150.853 364.015 149.889C362.789 149.232 361.773 148.244 361.083 147.038C360.382 145.839 360.018 144.473 360.03 143.085C360.029 140.937 360.796 138.86 362.192 137.229C364.055 134.988 366.664 133.867 370.017 133.867C372.584 133.879 375.077 134.733 377.112 136.297L379.178 134.11H380.466L381.276 144.575H379.178C378.255 141.611 377.007 139.475 375.436 138.168C373.8 136.836 371.737 136.14 369.628 136.208C367.942 136.108 366.278 136.627 364.946 137.666C364.412 138.091 363.982 138.632 363.687 139.248C363.392 139.864 363.241 140.539 363.245 141.222C363.243 141.823 363.384 142.416 363.657 142.952C363.931 143.487 364.328 143.95 364.817 144.3C365.843 145.132 367.854 145.79 370.851 146.276C373.148 146.593 375.417 147.086 377.639 147.75C379.229 148.294 380.618 149.304 381.624 150.65C382.592 152.052 383.086 153.727 383.033 155.429C383.045 156.685 382.776 157.928 382.246 159.068C381.717 160.207 380.94 161.214 379.972 162.014C377.81 163.851 375.038 164.81 372.204 164.704C369.254 164.692 366.397 163.675 364.104 161.82L361.795 164.477H360.175L359.552 152.781L361.625 152.748Z" fill="#FED395"/>
<path d="M404.993 134.434H419.07V136.564H417.75C416.879 136.484 416.003 136.653 415.223 137.05C415.002 137.208 414.825 137.42 414.708 137.665C414.59 137.91 414.536 138.18 414.551 138.451C414.554 138.731 414.618 139.008 414.737 139.261L422.926 156.919L429.025 142.274C429.447 141.302 429.67 140.256 429.681 139.196C429.695 138.844 429.619 138.494 429.461 138.18C429.302 137.865 429.066 137.596 428.774 137.398C428.167 136.969 426.952 136.694 425.137 136.588V134.458H437.36V136.588C435 136.826 433.413 137.881 432.597 139.755L421.735 165.019C419.888 169.339 418.036 172.293 416.179 173.88C414.531 175.409 412.376 176.274 410.128 176.31C408.747 176.374 407.394 175.908 406.345 175.006C405.891 174.615 405.528 174.128 405.281 173.581C405.035 173.034 404.912 172.439 404.92 171.839C404.906 171.413 404.975 170.989 405.126 170.59C405.276 170.191 405.503 169.825 405.795 169.514C406.078 169.22 406.42 168.988 406.797 168.831C407.175 168.675 407.581 168.599 407.99 168.607C408.362 168.6 408.731 168.669 409.076 168.808C409.422 168.947 409.735 169.154 409.998 169.417C410.257 169.656 410.463 169.947 410.603 170.271C410.742 170.595 410.812 170.944 410.808 171.296C410.795 171.613 410.751 171.928 410.679 172.236C410.612 172.463 410.571 172.697 410.557 172.933C410.557 173.427 410.881 173.678 411.529 173.678C412.358 173.633 413.161 173.376 413.862 172.933C414.844 172.315 415.674 171.484 416.292 170.503C417.744 168.124 419.066 165.669 420.253 163.148L409.099 139.245C408.779 138.504 408.267 137.861 407.617 137.382C406.821 136.916 405.929 136.639 405.009 136.572L404.993 134.434Z" fill="#FED395"/>
<path d="M453.997 133.558C455.866 133.522 457.72 133.884 459.437 134.622C461.153 135.359 462.693 136.455 463.952 137.835C466.652 140.686 468.002 144.445 468.002 149.11C468.085 151.959 467.468 154.785 466.204 157.34C465.027 159.578 463.244 161.442 461.061 162.718C458.884 164.017 456.394 164.697 453.86 164.686C452.031 164.708 450.219 164.332 448.549 163.585C446.879 162.839 445.392 161.738 444.188 160.361C441.548 157.477 440.228 153.738 440.228 149.142C440.228 144.547 441.553 140.794 444.205 137.884C445.429 136.5 446.938 135.396 448.628 134.65C450.318 133.903 452.15 133.531 453.997 133.558ZM453.997 135.786C452.846 135.783 451.712 136.073 450.704 136.628C449.695 137.184 448.844 137.986 448.23 138.961C446.724 141.083 445.97 144.434 445.97 149.013C445.97 153.678 446.718 157.086 448.214 159.235C448.819 160.226 449.669 161.045 450.682 161.612C451.694 162.18 452.836 162.477 453.997 162.475C455.181 162.485 456.348 162.193 457.387 161.626C458.426 161.059 459.303 160.236 459.935 159.235C461.447 157.075 462.205 153.565 462.211 148.705C462.211 144.169 461.463 140.889 459.967 138.864C459.307 137.894 458.415 137.105 457.373 136.568C456.33 136.03 455.17 135.761 453.997 135.786Z" fill="#FED395"/>
<path d="M482.307 133.899V153.339C482.307 155.721 482.906 157.559 484.105 158.855C484.695 159.494 485.415 159.999 486.218 160.334C487.02 160.67 487.885 160.828 488.754 160.799C489.897 160.806 491.027 160.554 492.059 160.063C493.091 159.572 493.999 158.855 494.716 157.964C496.377 155.979 497.242 153.448 497.146 150.861V139.893C497.166 139.445 497.078 138.998 496.889 138.59C496.701 138.183 496.416 137.827 496.06 137.552C495.337 137.013 493.954 136.705 491.913 136.629V134.434L502.224 133.899V157.997C502.194 158.464 502.262 158.933 502.424 159.372C502.586 159.811 502.838 160.212 503.164 160.548C503.89 161.182 504.835 161.505 505.797 161.447H507.651V163.545L497.77 163.764L497.146 157.997C495.653 159.836 493.866 161.415 491.857 162.67C490.235 163.669 488.374 164.209 486.47 164.234C485.236 164.266 484.008 164.047 482.862 163.589C481.716 163.131 480.675 162.443 479.804 161.569C477.989 159.814 477.082 156.844 477.082 152.659V139.893C477.106 139.383 476.994 138.875 476.756 138.422C476.518 137.969 476.164 137.588 475.73 137.318C475.106 136.904 473.818 136.67 471.874 136.629V134.434L482.307 133.899Z" fill="#FED395"/>
<path d="M537.054 122.453H539.185V134.433H548.686V137.317H539.185V156.165C539.094 157.513 539.507 158.846 540.343 159.907C540.7 160.325 541.143 160.66 541.643 160.89C542.142 161.119 542.685 161.237 543.235 161.236C543.956 161.226 544.664 161.042 545.297 160.697C545.931 160.353 546.471 159.859 546.871 159.259C547.876 157.942 548.462 155.782 548.629 152.779H550.727C550.608 156.683 549.72 159.583 548.062 161.479C547.273 162.403 546.286 163.138 545.174 163.628C544.062 164.119 542.854 164.353 541.639 164.314C540.609 164.372 539.578 164.225 538.605 163.883C537.632 163.541 536.736 163.011 535.969 162.321C535.282 161.643 534.745 160.828 534.392 159.93C534.039 159.031 533.878 158.069 533.92 157.105V137.317H528.809V135.121C530.887 134.862 532.788 133.819 534.122 132.205C535.931 129.889 536.909 126.638 537.054 122.453Z" fill="#FED395"/>
<path d="M568.158 133.558C570.026 133.523 571.88 133.886 573.597 134.623C575.313 135.361 576.853 136.455 578.113 137.835C580.813 140.686 582.163 144.444 582.163 149.11C582.247 151.96 581.627 154.787 580.357 157.339C579.183 159.578 577.403 161.441 575.222 162.718C573.045 164.016 570.555 164.697 568.021 164.686C566.192 164.709 564.379 164.334 562.709 163.587C561.04 162.84 559.552 161.739 558.349 160.361C555.709 157.477 554.386 153.738 554.38 149.142C554.375 144.547 555.703 140.794 558.366 137.883C559.59 136.499 561.099 135.396 562.789 134.65C564.479 133.903 566.311 133.531 568.158 133.558ZM568.158 135.786C567.006 135.784 565.872 136.074 564.862 136.629C563.852 137.184 562.999 137.987 562.383 138.961C560.882 141.083 560.131 144.434 560.131 149.013C560.131 153.678 560.877 157.086 562.367 159.235C562.974 160.225 563.826 161.044 564.84 161.611C565.854 162.178 566.996 162.476 568.158 162.475C569.342 162.485 570.509 162.193 571.548 161.626C572.587 161.059 573.464 160.236 574.096 159.235C575.613 157.075 576.372 153.565 576.372 148.705C576.372 144.169 575.624 140.888 574.128 138.863C573.467 137.895 572.575 137.107 571.532 136.57C570.49 136.032 569.331 135.763 568.158 135.786Z" fill="#FED395"/>
<path d="M631.799 149.33H610.74C610.848 153.801 611.685 156.957 613.251 158.799C614.089 159.797 615.14 160.594 616.328 161.131C617.515 161.668 618.808 161.931 620.111 161.901C624.21 161.901 627.504 159.571 629.993 154.911L632.026 155.786C628.981 161.726 624.572 164.696 618.799 164.696C616.937 164.731 615.089 164.369 613.379 163.635C611.668 162.9 610.133 161.809 608.877 160.435C606.177 157.595 604.827 153.958 604.827 149.524C604.827 144.762 606.15 140.912 608.796 137.974C610 136.567 611.5 135.443 613.189 134.682C614.877 133.92 616.712 133.54 618.564 133.568C621.189 133.5 623.767 134.269 625.927 135.763C628.088 137.341 629.718 139.539 630.601 142.064C631.418 144.398 631.824 146.857 631.799 149.33ZM610.74 147.103H623.473C623.804 147.12 624.135 147.06 624.439 146.926C624.743 146.792 625.011 146.589 625.222 146.333C625.716 145.555 625.938 144.635 625.854 143.717C625.904 141.561 625.137 139.466 623.708 137.852C623.095 137.098 622.322 136.488 621.445 136.068C620.568 135.648 619.609 135.428 618.637 135.422C617.549 135.431 616.479 135.7 615.516 136.207C614.553 136.715 613.727 137.445 613.105 138.338C611.609 140.293 610.829 143.215 610.764 147.103H610.74Z" fill="#FED395"/>
<path d="M635.752 134.434H649.927V136.596C647.626 136.677 646.484 137.09 646.484 137.819C646.541 138.292 646.736 138.736 647.043 139.099L652.106 145.822L657.071 139.609C657.392 139.241 657.58 138.777 657.606 138.289C657.606 137.39 656.342 136.831 653.815 136.596V134.434H666.2V136.596C663.519 136.913 661.067 138.261 659.363 140.355L653.58 147.572L662.652 159.333C663.173 160.022 663.85 160.578 664.628 160.953C665.629 161.326 666.696 161.491 667.763 161.439V163.788H652.746V161.439H653.815C654.64 161.481 655.465 161.363 656.245 161.091C656.577 160.929 656.747 160.718 656.747 160.467C656.651 160.035 656.445 159.636 656.148 159.309L650.267 151.525L645.537 157.591C644.997 158.16 644.646 158.881 644.532 159.657C644.524 159.899 644.585 160.138 644.707 160.347C644.828 160.556 645.007 160.727 645.221 160.839C646.239 161.29 647.349 161.495 648.461 161.439V163.788H635.695V161.439C636.943 161.379 638.162 161.047 639.267 160.467C640.693 159.569 641.956 158.435 643.001 157.113L648.842 149.71L640.272 138.556C639.305 137.304 637.799 136.645 635.752 136.58V134.434Z" fill="#FED395"/>
<path d="M680.124 133.899C680.57 135.985 680.841 138.103 680.934 140.234C682.056 138.289 683.607 136.627 685.47 135.374C687.036 134.421 688.836 133.922 690.67 133.932C692.729 133.948 694.733 134.595 696.413 135.787C698.359 137.156 699.896 139.029 700.859 141.206C702.031 143.728 702.615 146.484 702.569 149.265C702.569 154.055 701.173 157.954 698.381 160.961C697.348 162.151 696.069 163.103 694.633 163.752C693.197 164.4 691.638 164.731 690.062 164.72C688.303 164.74 686.576 164.251 685.089 163.31C683.478 162.226 682.132 160.791 681.152 159.115V170.957C681.113 171.309 681.152 171.665 681.265 172.001C681.378 172.337 681.564 172.644 681.808 172.901C682.474 173.434 683.314 173.699 684.165 173.646H686.328V175.873H670.614V173.646H672.834C673.629 173.704 674.421 173.496 675.085 173.055C675.327 172.871 675.521 172.633 675.652 172.36C675.782 172.086 675.847 171.786 675.839 171.483V140.582C675.839 139.14 675.499 138.152 674.802 137.52C674.105 136.888 672.736 136.597 670.663 136.532V134.434L680.124 133.899ZM689.236 136.759C686.963 136.759 685.038 137.855 683.461 140.047C681.884 142.24 681.096 145.418 681.096 149.581C681.096 153.777 681.857 156.871 683.38 158.888C684.032 159.826 684.903 160.592 685.918 161.117C686.933 161.642 688.061 161.911 689.204 161.901C690.203 161.945 691.197 161.732 692.09 161.283C692.983 160.833 693.747 160.162 694.307 159.333C695.829 157.076 696.591 153.771 696.591 149.419C696.591 144.867 695.9 141.627 694.517 139.699C693.963 138.803 693.189 138.063 692.269 137.548C691.35 137.034 690.314 136.762 689.26 136.759H689.236Z" fill="#FED395"/>
<path d="M718.809 116.905V159.487C718.792 159.736 718.832 159.987 718.924 160.219C719.017 160.452 719.16 160.661 719.343 160.831C719.886 161.26 720.563 161.484 721.255 161.463H724.357V163.812H707.712V161.463H710.66C711.438 161.522 712.208 161.275 712.807 160.775C713.051 160.516 713.239 160.21 713.361 159.876C713.482 159.541 713.533 159.186 713.511 158.831V123.086C713.553 122.667 713.502 122.245 713.362 121.849C713.222 121.453 712.997 121.092 712.701 120.793C711.907 120.119 710.892 119.761 709.85 119.789H707.218V117.44L718.809 116.905Z" fill="#FED395"/>
<path d="M741.789 133.558C743.657 133.521 745.511 133.884 747.228 134.621C748.945 135.359 750.484 136.454 751.744 137.835C754.444 140.686 755.794 144.445 755.794 149.11C755.878 151.96 755.257 154.787 753.987 157.34C752.812 159.58 751.03 161.444 748.844 162.718C746.67 164.017 744.183 164.697 741.651 164.686C739.822 164.709 738.009 164.335 736.339 163.588C734.67 162.841 733.182 161.74 731.98 160.361C729.334 157.477 728.011 153.738 728.011 149.143C728.011 144.547 729.339 140.794 731.996 137.884C733.219 136.498 734.728 135.394 736.418 134.648C738.109 133.901 739.941 133.529 741.789 133.558ZM741.789 135.786C740.637 135.784 739.504 136.074 738.496 136.629C737.487 137.185 736.636 137.987 736.022 138.961C734.515 141.083 733.762 144.434 733.762 149.013C733.762 153.678 734.51 157.086 736.005 159.235C736.612 160.224 737.462 161.042 738.475 161.609C739.487 162.176 740.628 162.474 741.789 162.475C742.973 162.485 744.141 162.193 745.182 161.626C746.222 161.059 747.1 160.236 747.734 159.235C749.246 157.075 750.005 153.565 750.01 148.705C750.01 144.169 749.262 140.889 747.767 138.864C747.104 137.894 746.211 137.105 745.167 136.568C744.124 136.03 742.962 135.762 741.789 135.786Z" fill="#FED395"/>
<path d="M759.568 134.434L770.138 133.899V145.782C771.262 141.877 772.612 138.921 774.188 136.912C774.864 135.98 775.75 135.221 776.775 134.697C777.8 134.174 778.934 133.9 780.085 133.899C780.786 133.866 781.486 133.979 782.141 134.23C782.796 134.481 783.392 134.865 783.892 135.357C784.378 135.88 784.754 136.495 784.998 137.165C785.243 137.836 785.352 138.548 785.318 139.261C785.387 140.37 785.046 141.465 784.362 142.339C784.066 142.693 783.693 142.976 783.272 143.165C782.852 143.354 782.393 143.446 781.932 143.433C781.507 143.449 781.084 143.373 780.691 143.211C780.299 143.049 779.945 142.804 779.656 142.493C779.054 141.787 778.747 140.876 778.797 139.95C778.793 139.269 778.966 138.599 779.299 138.006C779.5 137.705 779.658 137.378 779.769 137.034C779.769 136.726 779.567 136.564 779.17 136.564C778.046 136.691 777.008 137.228 776.254 138.071C774.626 139.668 773.43 141.652 772.779 143.838C771.693 146.768 771.057 149.846 770.892 152.966V159.268C770.875 159.579 770.935 159.89 771.066 160.172C771.198 160.454 771.396 160.7 771.645 160.888C772.426 161.333 773.325 161.531 774.221 161.455H777.947V163.804H759.698V161.455H762.613C763.4 161.511 764.183 161.306 764.841 160.872C765.069 160.717 765.257 160.51 765.388 160.267C765.519 160.025 765.59 159.754 765.594 159.479V140.768C765.691 139.652 765.368 138.539 764.687 137.649C764.349 137.309 763.942 137.045 763.494 136.874C763.045 136.704 762.566 136.631 762.087 136.661H759.511L759.568 134.434Z" fill="#FED395"/>
<path d="M816.097 149.329H795.038C795.14 153.801 795.977 156.957 797.549 158.798C798.387 159.796 799.438 160.593 800.626 161.13C801.813 161.667 803.106 161.93 804.409 161.9C808.508 161.9 811.802 159.57 814.291 154.91L816.324 155.785C813.279 161.725 808.87 164.695 803.097 164.695C801.239 164.726 799.395 164.361 797.689 163.625C795.982 162.889 794.452 161.799 793.199 160.426C790.499 157.586 789.149 153.949 789.149 149.516C789.149 144.753 790.472 140.903 793.118 137.965C794.323 136.558 795.823 135.434 797.511 134.673C799.199 133.911 801.035 133.531 802.887 133.559C805.511 133.491 808.09 134.26 810.249 135.754C812.41 137.332 814.04 139.53 814.923 142.056C815.73 144.395 816.127 146.855 816.097 149.329ZM795.038 147.102H807.771C808.102 147.118 808.433 147.057 808.736 146.923C809.04 146.79 809.308 146.588 809.52 146.332C810.014 145.554 810.236 144.634 810.152 143.716C810.202 141.56 809.435 139.466 808.006 137.852C807.392 137.098 806.619 136.488 805.743 136.068C804.866 135.648 803.907 135.427 802.935 135.422C801.847 135.43 800.777 135.699 799.814 136.206C798.851 136.714 798.025 137.445 797.403 138.338C795.896 140.292 795.116 143.214 795.062 147.102H795.038Z" fill="#FED395"/>
<path d="M1.34811 83.2908C2.07889 83.3037 2.80454 83.1665 3.48023 82.8879C4.15592 82.6093 4.7673 82.1951 5.27659 81.6708C6.34408 80.6379 6.96358 79.2273 7.00188 77.7423V28.5028C6.95323 27.5497 6.65921 26.6253 6.14833 25.8193C5.63745 25.0132 4.92703 24.3528 4.0859 23.902C3.2459 23.4436 2.30504 23.2015 1.34811 23.1973H0.197909V22.3144H25C27.2834 22.3424 29.5636 22.1334 31.8039 21.6907C33.0922 21.4597 34.3619 21.1349 35.6028 20.7188V36.1896H34.6308V35.1285C34.7109 33.9636 34.5525 32.7946 34.1653 31.6929C33.7781 30.5913 33.1703 29.5802 32.379 28.7215C30.697 27.0516 28.4231 26.114 26.0529 26.1133H20.221V51.8306H34.2744C35.2782 51.8332 36.2724 51.6354 37.1987 51.2487C38.1251 50.8621 38.9649 50.2943 39.669 49.5789C40.3619 48.8751 40.9061 48.0391 41.2693 47.1207C41.6325 46.2023 41.8072 45.2202 41.7831 44.2329V43.4229H42.593V63.8428H41.7831V63.13C41.817 62.1355 41.6469 61.1445 41.2833 60.2181C40.9197 59.2917 40.3703 58.4496 39.669 57.7436C38.9737 57.0439 38.1471 56.4884 37.2367 56.1089C36.3262 55.7295 35.3499 55.5335 34.3635 55.5323H20.221V80.3667H37.4577C41.396 80.4873 45.2432 79.1684 48.2792 76.657C51.1952 74.1784 53.3552 70.6684 54.7592 66.127H55.642L51.4949 84.1575H0.165527V83.2746L1.34811 83.2908Z" fill="#FED395"/>
<path d="M60.1702 83.2912C60.901 83.3046 61.6268 83.1677 62.3026 82.889C62.9783 82.6104 63.5897 82.1959 64.0987 81.6713C65.1662 80.6383 65.7857 79.2277 65.824 77.7428V28.7624C65.7857 27.2775 65.1662 25.8668 64.0987 24.8339C63.5897 24.3093 62.9783 23.8948 62.3026 23.6161C61.6268 23.3375 60.901 23.2006 60.1702 23.2139H59.02V22.3311H85.8875L85.7984 23.2139H84.7778C84.0401 23.2029 83.3077 23.3407 82.6244 23.6191C81.9411 23.8974 81.3209 24.3106 80.8008 24.8339C80.2631 25.3359 79.8363 25.9446 79.5475 26.6211C79.2588 27.2976 79.1146 28.0269 79.1241 28.7624V80.3752H90.6989C94.6372 80.4958 98.4844 79.1769 101.52 76.6655C104.436 74.1869 106.596 70.6769 108 66.1356H108.883L104.833 84.166H59.02V83.2831L60.1702 83.2912Z" fill="#FED395"/>
<path d="M174.962 83.291H175.772V84.1739H147.584V83.291H148.394C148.933 83.3336 149.475 83.2479 149.975 83.041C150.475 82.834 150.918 82.5117 151.27 82.1003C151.819 81.4701 152.144 80.6752 152.193 79.8404C152.189 79.1137 152.04 78.3952 151.756 77.7264L147.422 66.8562H126.711L122.118 77.7264C121.835 78.4128 121.684 79.1465 121.672 79.889C121.732 80.7084 122.059 81.4854 122.604 82.1003C122.968 82.5177 123.426 82.843 123.939 83.05C124.453 83.2569 125.009 83.3395 125.56 83.291H126.273V84.1739H107.36V83.291H108.17C109.609 83.2615 111.011 82.8324 112.22 82.0517C113.652 81.141 114.811 79.859 115.573 78.3419L135.993 32.1236C138.763 26.2917 140.235 22.4334 140.408 20.5488H141.218L167.47 78.1637C168.222 79.7236 169.381 81.0524 170.823 82.0112C172.053 82.8217 173.489 83.2656 174.962 83.291ZM128.217 63.1384H145.891L137.313 41.3981L128.217 63.1384Z" fill="#FED395"/>
<path d="M245.221 23.1976C244.517 23.1878 243.817 23.3196 243.165 23.5854C242.512 23.8512 241.92 24.2454 241.422 24.7447C240.907 25.2289 240.493 25.8104 240.204 26.4554C239.915 27.1005 239.756 27.7964 239.738 28.5031V74.0977C239.693 77.4448 239.965 80.7886 240.548 84.0849L240.815 85.4133H240.005L195.374 42.9048V77.9856C195.367 78.6905 195.507 79.3891 195.786 80.0364C196.065 80.6838 196.477 81.2655 196.994 81.744C197.492 82.243 198.084 82.637 198.737 82.9028C199.389 83.1685 200.088 83.3006 200.793 83.2911H202.47V84.174H175.667V83.2911H177.287C178.006 83.3061 178.72 83.1769 179.388 82.9112C180.055 82.6455 180.663 82.2486 181.175 81.744C181.699 81.2519 182.114 80.6551 182.394 79.9923C182.673 79.3296 182.809 78.6155 182.795 77.8965V32.0347C182.843 28.776 182.571 25.5205 181.985 22.3147L181.807 20.9863H182.617L227.247 63.4949V28.5841C227.236 27.8649 227.082 27.1552 226.794 26.4961C226.507 25.837 226.091 25.2416 225.571 24.7447C225.073 24.2465 224.48 23.853 223.828 23.5873C223.175 23.3216 222.476 23.1891 221.772 23.1976H220.152V22.3147H246.93V23.1976H245.221Z" fill="#FED395"/>
<path d="M376.627 93.5379C371.293 96.5546 365.258 98.1109 359.131 98.0496C349.589 98.0496 340.634 94.8096 332.264 88.3296L323.248 81.1693C317.81 83.8518 311.816 85.2143 305.752 85.1463C301.443 85.1951 297.152 84.5832 293.027 83.332C289.743 82.3528 286.584 80.9936 283.615 79.282C281.184 77.8094 279.114 75.8111 277.557 73.4338C275.926 70.9576 275.079 68.0474 275.127 65.0828C275.084 62.7793 275.574 60.4971 276.557 58.4137C277.54 56.3303 278.991 54.5018 280.797 53.0706C282.901 51.3383 285.295 49.9918 287.868 49.0935C285.168 44.9085 283.818 40.9611 283.818 37.2514C283.689 33.9263 284.755 30.6649 286.823 28.0579C290.603 23.4086 296.613 21.0812 304.853 21.0758C309.49 20.9471 314.092 21.9157 318.283 23.9027C319.965 24.6792 321.424 25.8657 322.527 27.3533L319.522 39.9892H318.712C318.534 34.0492 316.884 29.7292 313.763 27.0292C311.873 25.4921 309.482 24.7049 307.048 24.818C305.762 24.7842 304.482 25.0229 303.294 25.5185C302.106 26.014 301.037 26.7553 300.155 27.6934C299.224 28.7105 298.502 29.9018 298.032 31.1988C297.562 32.4957 297.353 33.8728 297.418 35.2507C297.418 38.3665 298.625 41.4444 301.038 44.4846C304.367 48.4345 308.049 52.073 312.038 55.3548C316.952 59.5667 323.065 64.6967 330.376 70.7447C337.45 63.4979 340.985 55.128 340.979 45.6348C340.967 38.5881 338.604 31.7469 334.264 26.195C330.909 21.8607 326.845 18.1252 322.244 15.1466L322.779 14.6201C327.672 17.3336 332.042 20.8996 335.682 25.15C339.035 29.1946 341.273 33.1123 342.397 36.9031C343.479 40.4732 344.044 44.1803 344.073 47.9109C344.073 57.5715 340.563 66.0548 333.543 73.3609L336.281 75.6613C339.051 78.0157 341.392 79.93 343.304 81.4042C345.215 82.8784 347.589 84.4984 350.424 86.2641C352.916 87.9056 355.584 89.2639 358.378 90.3141C362.769 92.0159 367.439 92.8839 372.148 92.8737C373.564 92.8734 374.979 92.7842 376.384 92.6064L376.627 93.5379ZM289.05 62.0777C289.05 68.2661 291.229 73.0693 295.587 76.4875C299.269 79.3593 303.822 80.8856 308.49 80.8129C312.366 80.8059 316.196 79.9632 319.717 78.3424C310.348 70.7824 304.632 66.1277 302.569 64.3781C298.491 61.1111 294.698 57.5046 291.229 53.597C289.726 56.1653 288.971 59.1029 289.05 62.0777Z" fill="#FED395"/>
<path d="M443.435 23.1976C442.731 23.1882 442.032 23.3203 441.379 23.586C440.726 23.8518 440.134 24.2458 439.636 24.7447C439.122 25.2293 438.71 25.811 438.422 26.4561C438.134 27.1012 437.977 27.7969 437.96 28.5031V74.0977C437.912 77.4449 438.183 80.7892 438.77 84.0849L439.037 85.4133H438.227L393.604 42.9048V77.9856C393.596 78.6906 393.737 79.3894 394.016 80.0368C394.295 80.6842 394.706 81.2658 395.224 81.744C395.722 82.243 396.314 82.637 396.967 82.9028C397.62 83.1685 398.319 83.3006 399.023 83.2911H400.676V84.174H373.889V83.2911H375.509C376.228 83.3061 376.942 83.1769 377.61 82.9112C378.278 82.6455 378.885 82.2486 379.397 81.744C379.921 81.2519 380.337 80.6551 380.616 79.9923C380.895 79.3296 381.032 78.6155 381.017 77.8965V32.0347C381.069 28.7759 380.798 25.5199 380.207 22.3147L380.037 20.9863H380.847L425.478 63.4949V28.5841C425.463 27.8647 425.307 27.1553 425.018 26.4965C424.729 25.8377 424.313 25.2423 423.793 24.7447C423.295 24.2458 422.703 23.8518 422.05 23.586C421.398 23.3203 420.699 23.1882 419.994 23.1976H418.374V22.3147H445.152V23.1976H443.435Z" fill="#FED395"/>
<path d="M529.513 0.396316C530.752 0.383168 531.991 0.442671 533.223 0.574516V1.45741C529.91 1.54279 526.67 2.45018 523.795 4.098C521.396 5.4334 519.232 7.15163 517.388 9.18479C516.116 10.74 515.112 12.0116 514.383 12.9836C513.566 14.0867 512.84 15.2543 512.212 16.4747C511.094 18.5321 510.063 20.5652 509.118 22.574L485.441 74.3569C482.741 80.1889 481.297 84.0472 481.108 85.9318H480.298L453.511 28.2358C452.741 26.7092 451.582 25.4127 450.15 24.4774C448.918 23.663 447.479 23.2189 446.003 23.1977H445.29V22.3148H473.397V23.1977H472.684C472.146 23.1544 471.605 23.2398 471.107 23.4468C470.608 23.6539 470.166 23.9766 469.817 24.3883C469.262 25.013 468.934 25.8062 468.885 26.6402C468.888 27.3622 469.009 28.0789 469.242 28.7623L484.267 65.2607L502.557 22.5821C505.327 16.0373 508.567 11.1179 512.277 7.82395C517.763 2.87759 523.508 0.401716 529.513 0.396316Z" fill="#FED395"/>
<path d="M516.075 83.291C516.807 83.304 517.534 83.167 518.211 82.8884C518.888 82.6098 519.501 82.1955 520.012 81.671C521.075 80.6351 521.694 79.2263 521.737 77.7425V28.6731C521.698 27.2002 521.078 25.8025 520.012 24.7851C519.498 24.2648 518.885 23.8533 518.208 23.575C517.532 23.2967 516.807 23.1573 516.075 23.1651H514.925V22.2822H541.793L541.704 23.1651H540.643C539.906 23.1591 539.175 23.2992 538.492 23.5773C537.809 23.8553 537.189 24.2658 536.666 24.7851C536.127 25.2777 535.699 25.879 535.41 26.5492C535.121 27.2194 534.977 27.9433 534.989 28.6731V77.7264C534.979 78.4618 535.124 79.1911 535.412 79.8676C535.701 80.5441 536.128 81.1529 536.666 81.6548C537.186 82.1782 537.806 82.5913 538.489 82.8697C539.173 83.148 539.905 83.2858 540.643 83.2748H541.704L541.793 84.1577H514.925V83.2748L516.075 83.291Z" fill="#FED395"/>
<path d="M549.714 75.9523C549.604 72.1455 550.552 68.3826 552.452 65.0822H553.262C553.204 65.5525 553.175 66.0258 553.173 66.4997C553.158 68.4773 553.538 70.4381 554.29 72.2671C555.043 74.0961 556.153 75.7565 557.555 77.1511C560.46 80.1805 564.451 81.6979 569.527 81.7033C573.469 81.7033 576.547 80.7583 578.761 78.8683C579.82 78.0064 580.669 76.9143 581.243 75.6749C581.818 74.4356 582.101 73.0816 582.073 71.716C582.073 68.2438 579.716 65.2091 575.002 62.6117L559.612 52.4463C556.852 50.9808 554.568 48.7581 553.027 46.0392C551.741 43.6946 551.059 41.0669 551.043 38.3929C551.043 32.8579 552.795 28.5893 556.299 25.5869C559.804 22.5845 564.297 21.0806 569.778 21.0752C573.796 21.1332 577.807 21.428 581.79 21.9581H587.363L586.213 34.918H585.354C585.4 33.5081 585.117 32.1069 584.526 30.8259C583.936 29.5448 583.054 28.4193 581.952 27.5389C579.684 25.6867 576.663 24.758 572.888 24.7526C568.298 24.7526 564.972 26.1673 562.909 28.9969C561.859 30.2968 561.287 31.9182 561.289 33.5896C561.289 36.4246 563.352 39.0463 567.477 41.4546L584.358 52.4139C589.655 55.4811 592.306 59.9873 592.312 65.9327C592.312 72.2399 590.176 77.0566 585.905 80.383C581.633 83.7093 575.963 85.3752 568.895 85.3806C565.149 85.4151 561.416 84.9243 557.806 83.9226C554.42 82.9506 551.931 81.6385 550.338 79.9861C549.897 78.6881 549.686 77.323 549.714 75.9523Z" fill="#FED395"/>
<path d="M600.744 83.291C601.476 83.304 602.203 83.167 602.88 82.8884C603.557 82.6098 604.17 82.1955 604.681 81.671C605.745 80.6368 606.362 79.2263 606.398 77.7425V28.6731C606.382 27.9439 606.221 27.2251 605.927 26.5579C605.632 25.8907 605.209 25.2882 604.681 24.7851C604.167 24.2648 603.553 23.8533 602.877 23.575C602.201 23.2967 601.475 23.1573 600.744 23.1651H599.594V22.2822H626.461L626.372 23.1651H625.311C624.574 23.1591 623.843 23.2992 623.161 23.5773C622.478 23.8553 621.857 24.2658 621.334 24.7851C620.796 25.2777 620.368 25.879 620.079 26.5492C619.79 27.2194 619.646 27.9433 619.657 28.6731V77.7264C619.648 78.4618 619.792 79.1911 620.081 79.8676C620.37 80.5441 620.796 81.1529 621.334 81.6548C621.854 82.1782 622.474 82.5913 623.158 82.8697C623.841 83.148 624.573 83.2858 625.311 83.2748H626.372L626.461 84.1577H599.594V83.2748L600.744 83.291Z" fill="#FED395"/>
<path d="M666.928 21.1084C677.826 21.1084 686.484 23.9947 692.905 29.7672C699.326 35.5398 702.539 43.3697 702.544 53.2571C702.544 63.1552 699.331 70.9852 692.905 76.7469C686.479 82.5087 677.82 85.395 666.928 85.4058C656.026 85.4058 647.364 82.5195 640.944 76.7469C634.523 70.9744 631.313 63.1444 631.313 53.2571C631.313 46.7231 632.771 41.0235 635.687 36.1581C638.622 31.2803 642.946 27.3885 648.104 24.9802C653.466 22.399 659.741 21.1084 666.928 21.1084ZM651.539 74.0901C653.346 76.467 655.678 78.394 658.354 79.7205C661.029 81.047 663.975 81.7372 666.961 81.7372C669.947 81.7372 672.893 81.047 675.568 79.7205C678.243 78.394 680.576 76.467 682.383 74.0901C686.163 68.998 688.053 62.059 688.053 53.2733C688.162 48.1213 687.294 42.9954 685.494 38.1669C684.057 34.2268 681.507 30.7884 678.155 28.2688C674.885 25.9399 670.95 24.7296 666.937 24.8182C663.941 24.7302 660.969 25.3818 658.285 26.7155C655.601 28.0491 653.286 30.0237 651.547 32.4645C647.767 37.5567 645.877 44.493 645.877 53.2733C645.877 62.0536 647.753 68.9818 651.506 74.0577L651.539 74.0901Z" fill="#FED395"/>
<path d="M777.128 23.1976C776.424 23.1882 775.724 23.3203 775.072 23.586C774.419 23.8518 773.827 24.2458 773.329 24.7447C772.815 25.2293 772.403 25.811 772.115 26.4561C771.827 27.1012 771.67 27.7969 771.653 28.5031V74.0977C771.604 77.4449 771.876 80.7892 772.463 84.0849L772.722 85.4133H771.912L727.289 42.9048V77.9856C727.281 78.6906 727.421 79.3894 727.7 80.0368C727.979 80.6842 728.391 81.2658 728.909 81.744C729.407 82.243 729.999 82.637 730.652 82.9028C731.304 83.1685 732.004 83.3006 732.708 83.2911H734.393V84.174H707.582V83.2911H709.202C709.921 83.3061 710.635 83.1769 711.303 82.9112C711.97 82.6455 712.578 82.2486 713.09 81.744C713.614 81.2519 714.03 80.6551 714.309 79.9923C714.588 79.3296 714.724 78.6155 714.71 77.8965V32.0347C714.762 28.7759 714.49 25.52 713.9 22.3147L713.722 20.9863H714.532L759.154 63.4949V28.5841C759.143 27.8649 758.989 27.1552 758.701 26.4961C758.414 25.837 757.998 25.2416 757.478 24.7447C756.98 24.2458 756.388 23.8518 755.735 23.586C755.083 23.3203 754.383 23.1882 753.679 23.1976H752.059V22.3147H778.789V23.1976H777.128Z" fill="#FED395"/>
<path d="M827.85 28.8516C834.687 28.8516 840.24 30.2501 844.512 33.0473C848.783 35.8445 850.919 39.6893 850.919 44.5816C850.847 48.5525 849.375 52.3704 846.764 55.3627C845.116 57.469 843.266 59.4087 841.24 61.1541C839.62 62.4825 838.38 63.4789 837.53 64.1592C836.679 64.8396 835.464 65.6901 833.909 66.7188C832.354 67.7475 831.228 68.4927 830.548 68.9301C829.867 69.3675 828.766 70.0641 827.235 71.0037C825.704 71.9433 824.805 72.5427 824.408 72.7775H842.697C844.993 72.857 847.257 72.2231 849.177 70.9632C851.254 69.3601 852.959 67.3263 854.175 65.0016H855.082L849.777 84.1742H807.357V83.3642C808.832 81.836 810.908 79.73 813.586 77.0462C816.265 74.3625 818.506 72.108 820.309 70.2828C822.102 68.463 824.132 66.2544 826.4 63.6571C828.368 61.4557 830.184 59.1229 831.836 56.6749C835.14 51.7285 836.79 47.3842 836.785 43.6421C836.779 39.8999 835.764 37.0703 833.739 35.1533C831.583 33.1959 828.743 32.1658 825.833 32.2859C821.465 32.2859 818.179 33.6359 815.976 36.3359C813.773 39.0359 812.668 42.7025 812.663 47.3356H811.78L807.625 34.6106C810.277 32.6185 813.309 31.1906 816.535 30.4148C820.219 29.388 824.025 28.8622 827.85 28.8516Z" fill="#FED395"/>
<path d="M869.435 37.3813C874.171 32.4079 880.635 29.9185 888.827 29.9131C897.018 29.9077 903.485 32.3971 908.226 37.3813C912.972 42.3654 915.343 49.1154 915.338 57.6311C915.332 66.1469 912.962 72.8968 908.226 77.881C903.49 82.8652 897.024 85.3545 888.827 85.3491C883.904 85.4672 879.035 84.3092 874.692 81.9876C870.72 79.7868 867.513 76.4272 865.499 72.3568C863.284 67.759 862.193 62.7007 862.315 57.5987C862.315 49.0992 864.689 42.36 869.435 37.3813ZM888.827 33.6229C887.553 33.6186 886.293 33.8751 885.123 34.3766C883.953 34.8781 882.898 35.614 882.023 36.5388C878.021 40.551 876.018 47.5926 876.012 57.6635C876.012 65.0831 877.163 70.9447 879.463 75.2485C881.763 79.5523 884.885 81.7123 888.827 81.7285C892.779 81.7285 895.917 79.5685 898.239 75.2485C900.561 70.9285 901.724 65.0669 901.73 57.6635C901.73 47.5872 899.697 40.5456 895.631 36.5388C894.756 35.614 893.701 34.8781 892.53 34.3766C891.36 33.8751 890.1 33.6186 888.827 33.6229Z" fill="#FED395"/>
<path d="M940.528 28.8516C947.365 28.8516 952.916 30.2501 957.182 33.0473C961.448 35.8445 963.594 39.6947 963.621 44.5979C963.552 48.5678 962.083 52.3858 959.474 55.3789C957.824 57.4833 955.974 59.4228 953.95 61.1704C952.33 62.4988 951.091 63.495 950.24 64.1754C949.39 64.8558 948.175 65.7063 946.611 66.735C945.048 67.7637 943.93 68.5089 943.258 68.9463C942.586 69.3837 941.476 70.0803 939.945 71.0199C938.414 71.9595 937.466 72.5589 937.11 72.7938H955.408C957.703 72.8721 959.967 72.2383 961.888 70.9794C963.962 69.3757 965.664 67.3419 966.877 65.0178H967.76L962.463 84.1904H920.043V83.3804C921.507 81.8522 923.583 79.7462 926.272 77.0625C928.962 74.3787 931.2 72.1242 932.987 70.299C934.785 68.4792 936.818 66.2706 939.086 63.6732C941.052 61.4698 942.868 59.1372 944.522 56.6911C947.821 51.7447 949.471 47.4005 949.471 43.6583C949.471 39.9161 948.453 37.0865 946.417 35.1695C944.262 33.2097 941.421 32.1794 938.511 32.3021C934.154 32.3021 930.868 33.6521 928.654 36.3521C926.44 39.0521 925.335 42.7187 925.341 47.3519H924.458L920.303 34.6268C922.957 32.6373 925.988 31.2096 929.213 30.4311C932.897 29.3994 936.703 28.8681 940.528 28.8516Z" fill="#FED395"/>
<path d="M972.693 36.3683C977.294 32.1779 983.804 30.0854 992.222 30.0908C998.162 30.0908 1002.94 31.3733 1006.54 33.9383C1008.26 35.0964 1009.65 36.6693 1010.59 38.5104C1011.53 40.3516 1011.99 42.4012 1011.93 44.4682C1011.94 46.7871 1011.37 49.0721 1010.27 51.1111C1009.16 53.1501 1007.56 54.8772 1005.61 56.1321C1003.87 57.2358 1001.88 57.8771 999.828 57.9951C1003.46 58.6624 1006.83 60.3477 1009.55 62.8551C1012.61 65.6792 1014.17 69.6564 1014.23 74.7863C1014.26 78.1803 1013.42 81.526 1011.8 84.5063C1008.73 90.0412 1003.4 94.0183 995.803 96.4375C992.51 97.4516 989.082 97.9569 985.637 97.9359C981.394 97.9473 977.18 97.2295 973.179 95.8138L973.358 94.9309H974.24C978.543 94.9646 982.809 94.1384 986.787 92.5009C990.603 90.9482 993.92 88.3792 996.378 85.0732C998.802 81.8397 1000.09 77.8963 1000.05 73.8548C1000.05 68.012 997.617 63.8271 992.757 61.2999C989.718 59.7704 986.349 59.0137 982.948 59.0967L983.126 58.2057H983.564C987.421 58.2658 991.149 56.8119 993.948 54.1557C995.335 52.9284 996.444 51.4177 997.199 49.7256C997.953 48.0335 998.336 46.1994 998.322 44.3467C998.322 40.7503 997.32 38.099 995.317 36.3926C993.358 34.697 990.843 33.7829 988.253 33.8249C980.947 33.8249 977.294 38.4149 977.294 47.5948V48.9232H976.411L972.693 36.3683Z" fill="#FED395"/>
</svg>
