<svg width="46" height="42" viewBox="0 0 46 42" fill="none" xmlns="http://www.w3.org/2000/svg">
<path d="M18.8815 14.3662L12.8547 11.2124L18.3339 16.2116L18.8815 14.3662Z" fill="#FED395"/>
<path d="M12.6577 11.3923L16.1123 16.8943L18.1337 16.3915L12.6577 11.3923Z" fill="#FED395"/>
<path d="M27.9936 16.2116L33.4696 11.2124L27.4429 14.3662L27.9936 16.2116Z" fill="#FED395"/>
<path d="M21.654 15.5203L23.0215 15.1804V1.40552L19.207 14.2405L21.654 15.5203Z" fill="#FED395"/>
<path d="M18.2056 16.6401L16.2561 17.1229L17.4827 19.0769L18.2056 16.6401Z" fill="#FED395"/>
<path d="M24.6735 15.5203L27.1174 14.2405L23.303 1.40552V15.1804L24.6735 15.5203Z" fill="#FED395"/>
<path d="M23.5 20.6738H27.6805L26.1566 18.2485L23.5 20.6738Z" fill="#FED395"/>
<path d="M15.9776 17.1914L1.91528 20.6737H17.0071L17.3795 19.4253L15.9776 17.1914Z" fill="#FED395"/>
<path d="M28.1626 20.6738H29.0294L28.7509 19.7368L28.1626 20.6738Z" fill="#FED395"/>
<path d="M17.2949 20.6738H18.1617L17.5734 19.7368L17.2949 20.6738Z" fill="#FED395"/>
<path d="M18.6467 20.6738H22.8241L20.1675 18.2485L18.6467 20.6738Z" fill="#FED395"/>
<path d="M28.6476 19.3882L27.8496 16.7058L26.3633 18.0627L27.9216 20.5452L28.6476 19.3882Z" fill="#FED395"/>
<path d="M30.2121 16.8943L33.6667 11.3923L28.1907 16.3915L30.2121 16.8943Z" fill="#FED395"/>
<path d="M18.603 16.2773L21.2722 15.6145L19.1319 14.4976L18.603 16.2773Z" fill="#FED395"/>
<path d="M23.303 16.2373L24.3293 15.7003L23.303 15.446V16.2373Z" fill="#FED395"/>
<path d="M25.0552 15.6145L27.7212 16.2773L27.1924 14.4976L25.0552 15.6145Z" fill="#FED395"/>
<path d="M28.8446 19.0769L30.0712 17.1229L28.1187 16.6401L28.8446 19.0769Z" fill="#FED395"/>
<path d="M26.1631 17.8798L27.6525 16.5229L24.7111 15.7944L23.4438 16.4572L26.1631 17.8798Z" fill="#FED395"/>
<path d="M28.948 19.4253L29.3204 20.6737H44.4091L30.3499 17.1914L28.948 19.4253Z" fill="#FED395"/>
<path d="M25.9596 18.0684L23.303 16.6772V20.4938L25.9596 18.0684Z" fill="#FED395"/>
<path d="M20.1614 17.8798L22.8806 16.4572L21.6133 15.7944L18.675 16.5229L20.1614 17.8798Z" fill="#FED395"/>
<path d="M18.4059 20.5452L19.9642 18.0627L18.4747 16.7058L17.6799 19.3882L18.4059 20.5452Z" fill="#FED395"/>
<path d="M23.0214 16.6772L20.3647 18.0684L23.0214 20.4938V16.6772Z" fill="#FED395"/>
<path d="M21.998 15.7003L23.0213 16.2373V15.446L21.998 15.7003Z" fill="#FED395"/>
<path d="M22.8241 20.9309H18.6467L20.1675 23.3562L22.8241 20.9309Z" fill="#FED395"/>
<path d="M18.1617 20.9309H17.2949L17.5734 21.8679L18.1617 20.9309Z" fill="#FED395"/>
<path d="M17.4827 22.5278L16.2561 24.4818L18.2056 24.9646L17.4827 22.5278Z" fill="#FED395"/>
<path d="M30.3499 24.4132L44.4091 20.9309H29.3204L28.948 22.1793L30.3499 24.4132Z" fill="#FED395"/>
<path d="M27.4429 27.2385L33.4696 30.3922L27.9936 25.3931L27.4429 27.2385Z" fill="#FED395"/>
<path d="M27.6805 20.9309H23.5L26.1566 23.3562L27.6805 20.9309Z" fill="#FED395"/>
<path d="M17.0071 20.9309H1.91528L15.9776 24.4132L17.3795 22.1793L17.0071 20.9309Z" fill="#FED395"/>
<path d="M16.1123 24.7102L12.6577 30.2121L18.1337 25.213L16.1123 24.7102Z" fill="#FED395"/>
<path d="M24.6735 26.0842L23.303 26.4213V40.199L27.1174 27.364L24.6735 26.0842Z" fill="#FED395"/>
<path d="M18.3339 25.3931L12.8547 30.3922L18.8815 27.2385L18.3339 25.3931Z" fill="#FED395"/>
<path d="M21.654 26.0842L19.207 27.364L23.0215 40.199V26.4213L21.654 26.0842Z" fill="#FED395"/>
<path d="M29.0294 20.9309H28.1626L28.7509 21.8679L29.0294 20.9309Z" fill="#FED395"/>
<path d="M17.6799 22.2163L18.4747 24.8987L19.9642 23.5418L18.4059 21.0593L17.6799 22.2163Z" fill="#FED395"/>
<path d="M20.3647 23.5362L23.0214 24.9245V21.1108L20.3647 23.5362Z" fill="#FED395"/>
<path d="M24.7111 25.8101L27.6525 25.0817L26.1631 23.7219L23.4438 25.1474L24.7111 25.8101Z" fill="#FED395"/>
<path d="M23.303 24.9245L25.9596 23.5362L23.303 21.1108V24.9245Z" fill="#FED395"/>
<path d="M27.9216 21.0593L26.3633 23.5418L27.8496 24.8987L28.6476 22.2163L27.9216 21.0593Z" fill="#FED395"/>
<path d="M28.1187 24.9646L30.0712 24.4818L28.8446 22.5278L28.1187 24.9646Z" fill="#FED395"/>
<path d="M24.3293 25.9042L23.303 25.3672V26.1585L24.3293 25.9042Z" fill="#FED395"/>
<path d="M33.6667 30.2121L30.2121 24.7102L28.1907 25.213L33.6667 30.2121Z" fill="#FED395"/>
<path d="M27.7212 25.3271L25.0552 25.987L27.1924 27.1069L27.7212 25.3271Z" fill="#FED395"/>
<path d="M21.6133 25.8101L22.8806 25.1474L20.1614 23.7219L18.675 25.0817L21.6133 25.8101Z" fill="#FED395"/>
<path d="M21.2722 25.987L18.603 25.3271L19.1319 27.1069L21.2722 25.987Z" fill="#FED395"/>
<path d="M23.0213 25.3672L21.998 25.9042L23.0213 26.1585V25.3672Z" fill="#FED395"/>
<path d="M23.2402 41.2615L27.308 27.5495L34.1921 31.1461C34.2188 31.1593 34.2495 31.1642 34.2795 31.1602C34.3095 31.1563 34.3373 31.1435 34.3588 31.1239C34.3802 31.1043 34.3942 31.079 34.3985 31.0515C34.4029 31.0241 34.3975 30.9962 34.383 30.9718L30.4434 24.6871L45.4633 20.9735C45.4933 20.9662 45.5199 20.9501 45.5388 20.9276C45.5578 20.9051 45.5681 20.8776 45.5681 20.8492C45.5681 20.8209 45.5578 20.7933 45.5388 20.7708C45.5199 20.7483 45.4933 20.7322 45.4633 20.7249L30.4434 17.0113L34.383 10.7266C34.3975 10.7023 34.4029 10.6743 34.3985 10.6469C34.3942 10.6195 34.3802 10.5941 34.3588 10.5745C34.3373 10.5549 34.3095 10.5422 34.2795 10.5382C34.2495 10.5342 34.2188 10.5392 34.1921 10.5524L27.308 14.1489L23.2402 0.482599C23.2322 0.455183 23.2145 0.430938 23.1899 0.41364C23.1653 0.396342 23.1351 0.386963 23.104 0.386963C23.073 0.386963 23.0428 0.396342 23.0182 0.41364C22.9935 0.430938 22.9759 0.455183 22.9679 0.482599L18.9 14.1946L12.0159 10.5981C11.9892 10.5849 11.9586 10.5799 11.9286 10.5839C11.8986 10.5879 11.8708 10.6006 11.8493 10.6202C11.8278 10.6398 11.8139 10.6652 11.8095 10.6926C11.8052 10.72 11.8106 10.748 11.8251 10.7723L15.7646 17.057L0.769797 20.7478C0.739766 20.7551 0.713208 20.7712 0.694261 20.7937C0.675313 20.8161 0.665039 20.8437 0.665039 20.8721C0.665039 20.9004 0.675313 20.928 0.694261 20.9505C0.713208 20.9729 0.739766 20.9891 0.769797 20.9963L15.7897 24.71L11.8501 30.9947C11.8356 31.019 11.8302 31.047 11.8346 31.0744C11.8389 31.1018 11.8529 31.1272 11.8743 31.1468C11.8958 31.1664 11.9236 31.1791 11.9536 31.1831C11.9836 31.1871 12.0143 31.1821 12.041 31.1689L18.9251 27.5724L22.993 41.2844C23.0009 41.3118 23.0186 41.336 23.0432 41.3533C23.0678 41.3706 23.098 41.38 23.1291 41.38C23.1601 41.38 23.1903 41.3706 23.215 41.3533C23.2396 41.336 23.2572 41.3118 23.2652 41.2844L23.2402 41.2615ZM30.0116 17.1941L28.785 19.1452L28.0622 16.7085L30.0116 17.1941ZM25.005 15.6858L27.1453 14.566L27.6741 16.3457L25.005 15.6858ZM27.6022 16.5942L26.1064 17.9511L23.3841 16.5228L24.6514 15.86L27.6022 16.5942ZM24.2696 15.7715L23.2433 16.3085V15.5287L24.2696 15.7715ZM22.9648 16.3085L21.9447 15.7715L22.9648 15.5287V16.3085ZM18.5433 16.3457L19.0753 14.566L21.2125 15.6858L18.5433 16.3457ZM21.5567 15.8658L22.8083 16.5285L20.086 17.9568L18.5996 16.5999L21.5567 15.8658ZM19.9045 18.1311L18.3399 20.6164L17.614 19.4737L18.4119 16.7885L19.9045 18.1311ZM22.9648 16.7485V20.565L20.3082 18.1397L22.9648 16.7485ZM23.2433 16.7485L25.8999 18.1397L23.2433 20.565V16.7485ZM26.3036 18.1311L27.7899 16.7742L28.5879 19.4594L27.8619 20.6021L26.3036 18.1311ZM30.1556 16.957L28.131 16.4571L33.6101 11.4579L30.1556 16.957ZM33.4099 11.2751L27.9339 16.2828L27.3863 14.4346L33.4099 11.2751ZM27.0577 14.3117L24.6138 15.5915L23.2433 15.243V1.47386L27.0577 14.3117ZM22.9648 1.47386V15.243L21.5942 15.5829L19.1504 14.3032L22.9648 1.47386ZM18.8155 14.4346L18.268 16.2828L12.7982 11.2808L18.8155 14.4346ZM12.5979 11.4636L18.0771 16.4628L16.0525 16.957L12.5979 11.4636ZM18.1459 16.7085L17.4231 19.1452L16.1965 17.1941L18.1459 16.7085ZM1.85561 20.7449L15.918 17.2627L17.3198 19.4937L16.9381 20.7449H1.85561ZM17.2385 20.7449L17.517 19.8137L18.1052 20.7507L17.2385 20.7449ZM18.5871 20.7449L20.111 18.3196L22.7677 20.7449H18.5871ZM23.4436 20.7449L26.0971 18.3196L27.621 20.7449H23.4436ZM28.1028 20.7449L28.6911 19.8137L28.9696 20.7507L28.1028 20.7449ZM29.2606 20.7449L28.8883 19.4937L30.2901 17.2627L44.3525 20.7449H29.2606ZM27.3831 27.3153L27.9307 25.467L33.4067 30.469L27.3831 27.3153ZM26.3036 23.613L27.8682 21.1306L28.5941 22.2733L27.7962 24.9585L26.3036 23.613ZM27.5928 25.1499L24.6514 25.8784L23.3841 25.2156L26.1064 23.7873L27.5928 25.1499ZM23.2433 24.9957V21.182L25.8999 23.6045L23.2433 24.9957ZM22.9648 24.9957L20.3082 23.6045L22.9648 21.182V24.9957ZM19.9045 23.613L18.4181 24.97L17.6202 22.2847L18.3462 21.142L19.9045 23.613ZM20.1016 23.793L22.824 25.2213L21.5723 25.8841L18.6309 25.1556L20.1016 23.793ZM21.2125 26.0583L19.0753 27.1782L18.5433 25.3985L21.2125 26.0583ZM21.9384 25.9726L22.9648 25.4356V26.2269L21.9384 25.9726ZM23.2433 25.4356L24.2696 25.9726L23.2433 26.2269V25.4356ZM27.6648 25.3985L27.1359 27.1782L24.9956 26.0583L27.6648 25.3985ZM33.6101 30.2805L28.131 25.2813L30.1556 24.7814L33.6101 30.2805ZM28.0622 25.0357L28.785 22.5989L30.0116 24.5529L28.0622 25.0357ZM44.3525 20.9992L30.2901 24.4815L28.8883 22.2504L29.2606 20.9992H44.3525ZM28.9696 20.9992L28.6911 21.9362L28.1028 20.9992H28.9696ZM27.621 20.9992L26.0971 23.4245L23.4436 20.9992H27.621ZM22.7677 20.9992L20.111 23.4245L18.5871 20.9992H22.7677ZM18.1052 20.9992L17.517 21.9362L17.251 20.9992H18.1052ZM1.85561 20.9992H16.9381L17.3104 22.2504L15.9086 24.4815L1.85561 20.9992ZM16.1965 24.5529L17.4231 22.5989L18.1459 25.0357L16.1965 24.5529ZM16.0525 24.7814L18.0771 25.2813L12.5979 30.2805L16.0525 24.7814ZM12.7982 30.4633L18.2742 25.4613L18.8155 27.3096L12.7982 30.4633ZM19.1504 27.4324L21.5942 26.1526L22.9648 26.4926V40.2703L19.1504 27.4324ZM23.2433 26.4926L24.6138 26.1526L27.0577 27.4324L23.2433 40.2703V26.4926Z" fill="#080F24"/>
</svg>
