<svg width="45" height="194" viewBox="0 0 45 194" fill="none" xmlns="http://www.w3.org/2000/svg">
<path d="M18.814 137.078L20.9182 139.182" stroke="#E0C088" stroke-width="1.02" stroke-linecap="round" stroke-linejoin="round"/>
<path d="M8.84668 127.111L10.9465 129.211" stroke="#E0C088" stroke-width="1.02" stroke-linecap="round" stroke-linejoin="round"/>
<path d="M10.9465 137.078L8.84668 139.182" stroke="#E0C088" stroke-width="1.02" stroke-linecap="round" stroke-linejoin="round"/>
<path d="M20.9182 127.111L18.814 129.211" stroke="#E0C088" stroke-width="1.02" stroke-linecap="round" stroke-linejoin="round"/>
<path d="M23.0224 133.147C23.0224 133.147 20.8288 132.633 18.7826 132.253C18.1859 132.147 17.628 131.885 17.1653 131.494C17.592 130.96 17.9576 130.38 18.2554 129.765C17.6502 130.056 17.0793 130.415 16.5532 130.833C16.2015 130.342 15.9843 129.767 15.9233 129.166C15.7356 127.339 15.4184 125.279 14.8823 123.912C14.3417 125.279 14.0245 127.343 13.8369 129.175C13.7764 129.825 13.5332 130.445 13.1354 130.962C12.3491 130.404 11.5092 129.787 11.5092 129.787C11.8268 130.392 12.2023 130.965 12.6306 131.498C12.1592 131.903 11.5886 132.174 10.9775 132.285C8.94922 132.655 6.74219 133.178 6.74219 133.178C8.04947 133.659 9.40756 133.989 10.7899 134.161C11.4269 134.25 12.0285 134.507 12.5323 134.907C12.1341 135.416 11.7911 135.965 11.5092 136.547C12.0953 136.259 12.6481 135.909 13.1578 135.501C13.5569 136.019 13.8029 136.638 13.8681 137.288C14.0048 139.02 14.3498 140.728 14.8957 142.377C15.442 140.729 15.7856 139.02 15.9188 137.288C15.9922 136.635 16.2477 136.016 16.656 135.501C17.1565 135.904 17.6969 136.254 18.2688 136.547C18.2688 136.547 17.688 135.756 17.1429 134.987C17.667 134.542 18.307 134.256 18.9881 134.161C20.3671 133.978 21.7207 133.638 23.0224 133.147V133.147Z" stroke="#E0C088" stroke-width="1.02" stroke-linecap="round" stroke-linejoin="round"/>
<path d="M18.3978 38.7582C17.7433 38.7581 17.0962 38.6203 16.4984 38.3539C15.9006 38.0875 15.3654 37.6984 14.9277 37.2118C14.49 36.7253 14.1595 36.1521 13.9576 35.5295C13.7557 34.9069 13.687 34.2489 13.7559 33.598C13.7559 33.4819 13.7872 33.3389 13.8051 33.1513C14.12 30.2009 14.2855 27.2366 14.301 24.2695C14.264 23.2739 14.3846 22.2788 14.6584 21.3209C15.3107 19.6589 17.6875 14.0698 17.6875 14.0698L21.6458 9.15537C21.9346 8.79791 22.3142 8.52477 22.7449 8.36459C24.1701 7.83741 27.4359 6.61773 27.8514 6.33627C28.3876 5.98332 28.6243 8.67733 27.0204 9.82552C25.4166 10.9737 24.2281 11.8628 24.2281 11.8628L21.5475 15.017C21.5475 15.017 26.462 10.8665 27.8023 10.2946C29.1426 9.72277 32.27 7.00642 32.27 7.00642C32.27 7.00642 36.7108 1.73457 37.7205 1.09569C38.7302 0.456815 40.5128 0.572965 38.136 3.54397C35.7592 6.51497 35.0086 8.53883 34.5083 8.90518C34.0079 9.27153 30.7644 12.7429 30.7644 12.7429L37.5418 6.34521C37.5418 6.34521 41.0489 1.43076 43.189 2.00709C45.329 2.58342 41.2947 5.69739 40.8792 6.92153C40.8792 6.92153 40.0973 9.69596 39.3825 10.8486C38.7994 11.8403 38.3602 12.9099 38.0779 14.0251C37.9573 14.5568 36.9476 15.8658 36.9476 15.8658C37.1146 16.2987 37.1851 16.7629 37.1542 17.2259C37.1234 17.6888 36.9919 18.1395 36.7689 18.5464C35.996 19.7929 33.4405 23.6574 33.4405 23.6574L24.7732 30.5645C24.0208 31.9854 23.4647 33.5019 23.1202 35.0724C22.8905 36.1154 22.3121 37.049 21.4804 37.7191C20.6486 38.3892 19.6133 38.7557 18.5453 38.7582H18.3978Z" stroke="#E0C088" stroke-width="1.02" stroke-linecap="round" stroke-linejoin="round"/>
<path d="M19.5332 16.8351L21.5526 15.0525" stroke="#E0C088" stroke-width="1.02" stroke-linecap="round" stroke-linejoin="round"/>
<path d="M33.3828 19.793L36.948 15.8838" stroke="#E0C088" stroke-width="1.02" stroke-linecap="round" stroke-linejoin="round"/>
<path d="M32.7261 16.1431L38.0158 11.0812L40.8796 6.9397" stroke="#E0C088" stroke-width="1.02" stroke-linecap="round" stroke-linejoin="round"/>
<path d="M26.8913 54.489L22.4996 55.9633L21.5792 51.4197L20.6589 55.9633L16.2627 54.489L19.7385 57.5583L16.2627 60.6276L20.6589 59.1532L21.5792 63.6924L22.4996 59.1532L26.8913 60.6276L23.4199 57.5583L26.8913 54.489Z" stroke="#E0C088" stroke-width="1.02" stroke-linecap="round" stroke-linejoin="round"/>
<path d="M26.8913 183.475L22.4996 184.949L21.5792 180.41L20.6589 184.949L16.2627 183.475L19.7341 186.544L16.2627 189.614L20.6589 188.139L21.5792 192.683L22.4996 188.139L26.8913 189.614L23.4199 186.544L26.8913 183.475Z" stroke="#E0C088" stroke-width="1.02" stroke-linecap="round" stroke-linejoin="round"/>
<path d="M34.0572 74.1962C33.7903 74.1395 33.5463 74.0048 33.3562 73.8091C33.1661 73.6134 33.0384 73.3656 32.9894 73.0972C32.9644 72.945 32.9255 72.7955 32.8733 72.6504V72.6504C32.8195 72.7953 32.7791 72.9449 32.7527 73.0972C32.7039 73.3661 32.5764 73.6146 32.3863 73.8111C32.1963 74.0075 31.9521 74.1431 31.6849 74.2007L31.457 74.2498C31.5535 74.2864 31.652 74.3178 31.7519 74.3437C32.0061 74.4112 32.236 74.5494 32.4147 74.7424C32.5934 74.9354 32.7137 75.1751 32.7616 75.4338C32.7832 75.5774 32.8207 75.7183 32.8733 75.8537C32.9218 75.717 32.9592 75.5765 32.985 75.4338C33.0313 75.1745 33.1511 74.9339 33.33 74.7407C33.509 74.5475 33.7397 74.4097 33.9947 74.3437C34.0946 74.3178 34.193 74.2864 34.2895 74.2498L34.0572 74.1962Z" stroke="#E0C088" stroke-width="1.02" stroke-linecap="round" stroke-linejoin="round"/>
<path d="M10.6021 72.5919C10.3356 72.5356 10.0919 72.4008 9.90245 72.205C9.71299 72.0092 9.58637 71.7612 9.53883 71.4929C9.51241 71.3406 9.47203 71.191 9.41821 71.0461V71.0461C9.36599 71.1912 9.32711 71.3408 9.30205 71.4929C9.25245 71.7623 9.12412 72.0108 8.93327 72.2073C8.74241 72.4037 8.49761 72.5391 8.22981 72.5964L8.00195 72.6456C8.09847 72.6821 8.1969 72.7135 8.29682 72.7394C8.5518 72.8054 8.78248 72.9432 8.96145 73.1364C9.14043 73.3297 9.26019 73.5702 9.30651 73.8295C9.33232 73.9723 9.36967 74.1127 9.41821 74.2495V74.2495C9.47081 74.114 9.50827 73.9732 9.5299 73.8295C9.57775 73.5709 9.69805 73.3311 9.87679 73.1381C10.0555 72.9452 10.2854 72.8069 10.5396 72.7394C10.6395 72.7135 10.7379 72.6821 10.8345 72.6456L10.6021 72.5919Z" stroke="#E0C088" stroke-width="1.02" stroke-linecap="round" stroke-linejoin="round"/>
<path d="M25.5422 89.1894C25.0388 89.0807 24.5788 88.8253 24.2203 88.4556C23.8617 88.086 23.6206 87.6184 23.5273 87.1119C23.4801 86.8196 23.4053 86.5324 23.3039 86.2542C23.2029 86.5325 23.1281 86.8197 23.0805 87.1119C22.9885 87.6209 22.7467 88.0909 22.3862 88.4617C22.0257 88.8326 21.5628 89.0875 21.0566 89.1939L20.6099 89.2877C20.7917 89.3599 20.9783 89.4196 21.1683 89.4664C21.6495 89.5922 22.0848 89.8529 22.4228 90.2178C22.7608 90.5827 22.9874 91.0366 23.076 91.526C23.1218 91.7969 23.1921 92.0631 23.286 92.3213C23.3816 92.0633 23.4533 91.7971 23.5004 91.526C23.5877 91.0367 23.8133 90.5827 24.1506 90.2176C24.4879 89.8526 24.9228 89.5919 25.4037 89.4664C25.5939 89.4203 25.7805 89.3606 25.9621 89.2877L25.5422 89.1894Z" stroke="#E0C088" stroke-width="1.02" stroke-linecap="round" stroke-linejoin="round"/>
<path d="M8.27433 45.0131C7.77058 44.9035 7.31051 44.6474 6.95198 44.2769C6.59345 43.9065 6.35249 43.4383 6.25941 42.9312C6.21178 42.6404 6.13699 42.3547 6.03602 42.0779V42.0779C5.93455 42.3561 5.85975 42.6433 5.81264 42.9357C5.71776 43.4451 5.47332 43.9148 5.11049 44.2848C4.74766 44.6548 4.28288 44.9083 3.77538 45.0131L3.32861 45.107C3.51128 45.1757 3.69774 45.2339 3.88707 45.2812C4.3683 45.407 4.80355 45.6677 5.14154 46.0326C5.47953 46.3975 5.70617 46.8514 5.79477 47.3408C5.84058 47.6131 5.91085 47.8808 6.00475 48.1405C6.10026 47.881 6.17204 47.6133 6.2192 47.3408C6.30642 46.8515 6.53205 46.3975 6.86936 46.0324C7.20667 45.6674 7.64153 45.4067 8.12243 45.2812C8.31194 45.2345 8.49844 45.1763 8.68089 45.107C8.68089 45.107 8.53792 45.0712 8.27433 45.0131Z" stroke="#E0C088" stroke-width="1.02" stroke-linecap="round" stroke-linejoin="round"/>
<path d="M24.4966 45.116H26.8689" stroke="#E0C088" stroke-width="1.02" stroke-linecap="round" stroke-linejoin="round"/>
<path d="M27.9458 45.116H30.3181" stroke="#E0C088" stroke-width="1.02" stroke-linecap="round" stroke-linejoin="round"/>
<path d="M27.4097 42.2029V44.4099" stroke="#E0C088" stroke-width="1.02" stroke-linecap="round" stroke-linejoin="round"/>
<path d="M27.4097 45.8171V48.0242" stroke="#E0C088" stroke-width="1.02" stroke-linecap="round" stroke-linejoin="round"/>
<path d="M27.4094 43.4495C27.4094 45.0266 27.329 45.1159 25.9351 45.1159C27.329 45.1159 27.4094 45.2008 27.4094 46.7823C27.4094 45.2008 27.4853 45.1159 28.8793 45.1159C27.4853 45.1159 27.4094 45.0131 27.4094 43.4495Z" stroke="#E0C088" stroke-width="1.02" stroke-linecap="round" stroke-linejoin="round"/>
<path d="M0.992188 4.97339H3.36453" stroke="#E0C088" stroke-width="1.02" stroke-linecap="round" stroke-linejoin="round"/>
<path d="M4.44141 4.97339H6.81374" stroke="#E0C088" stroke-width="1.02" stroke-linecap="round" stroke-linejoin="round"/>
<path d="M3.90527 2.06494V4.27197" stroke="#E0C088" stroke-width="1.02" stroke-linecap="round" stroke-linejoin="round"/>
<path d="M3.90527 5.6792V7.88623" stroke="#E0C088" stroke-width="1.02" stroke-linecap="round" stroke-linejoin="round"/>
<path d="M3.90541 3.30762C3.90541 4.88917 3.82499 4.97406 2.43555 4.97406C3.82499 4.97406 3.90541 5.06341 3.90541 6.6405C3.90541 5.06341 3.98136 4.97406 5.37528 4.97406C3.98136 4.97406 3.90541 4.88917 3.90541 3.30762Z" stroke="#E0C088" stroke-width="1.02" stroke-linecap="round" stroke-linejoin="round"/>
<path d="M33.9098 106.667C33.6432 106.611 33.3995 106.476 33.2101 106.28C33.0206 106.085 32.894 105.837 32.8465 105.568C32.82 105.416 32.7797 105.266 32.7258 105.122V105.122C32.6736 105.267 32.6347 105.416 32.6097 105.568C32.5606 105.838 32.4325 106.087 32.2415 106.283C32.0506 106.48 31.8055 106.615 31.5374 106.672L31.3096 106.721C31.4061 106.758 31.5045 106.789 31.6044 106.815C31.8594 106.881 32.0901 107.019 32.2691 107.212C32.448 107.405 32.5678 107.646 32.6141 107.905C32.6399 108.048 32.6773 108.188 32.7258 108.325C32.7784 108.189 32.8159 108.049 32.8375 107.905C32.8854 107.646 33.0057 107.407 33.1844 107.214C33.3631 107.021 33.593 106.882 33.8472 106.815C33.9471 106.789 34.0456 106.758 34.1421 106.721L33.9098 106.667Z" stroke="#E0C088" stroke-width="1.02" stroke-linecap="round" stroke-linejoin="round"/>
<path d="M32.4932 139.129C32.2267 139.073 31.983 138.938 31.7936 138.742C31.6041 138.547 31.4775 138.299 31.4299 138.03C31.4035 137.878 31.3631 137.728 31.3093 137.583V137.583C31.2551 137.728 31.2162 137.878 31.1932 138.03C31.1436 138.3 31.0152 138.548 30.8244 138.745C30.6335 138.941 30.3887 139.076 30.1209 139.134L29.8931 139.183C29.9896 139.22 30.088 139.251 30.1879 139.277C30.4429 139.343 30.6736 139.481 30.8526 139.674C31.0315 139.867 31.1513 140.108 31.1976 140.367C31.2234 140.51 31.2608 140.65 31.3093 140.787C31.3619 140.651 31.3994 140.511 31.421 140.367C31.4678 140.108 31.5878 139.868 31.7667 139.674C31.9456 139.481 32.176 139.343 32.4307 139.277C32.5306 139.251 32.6291 139.22 32.7256 139.183L32.4932 139.129Z" stroke="#E0C088" stroke-width="1.02" stroke-linecap="round" stroke-linejoin="round"/>
<path d="M10.8213 103.803H13.1936" stroke="#E0C088" stroke-width="1.02" stroke-linecap="round" stroke-linejoin="round"/>
<path d="M14.27 103.803H16.6424" stroke="#E0C088" stroke-width="1.02" stroke-linecap="round" stroke-linejoin="round"/>
<path d="M13.73 100.895V103.102" stroke="#E0C088" stroke-width="1.02" stroke-linecap="round" stroke-linejoin="round"/>
<path d="M13.73 104.509V106.716" stroke="#E0C088" stroke-width="1.02" stroke-linecap="round" stroke-linejoin="round"/>
<path d="M13.7296 102.137C13.7296 103.719 13.6537 103.803 12.2598 103.803C13.6537 103.803 13.7296 103.893 13.7296 105.47C13.7296 103.893 13.8101 103.803 15.204 103.803C13.8101 103.803 13.7296 103.719 13.7296 102.137Z" stroke="#E0C088" stroke-width="1.02" stroke-linecap="round" stroke-linejoin="round"/>
<path d="M8.54199 162.486H10.9143" stroke="#E0C088" stroke-width="1.02" stroke-linecap="round" stroke-linejoin="round"/>
<path d="M11.9956 162.486H14.3679" stroke="#E0C088" stroke-width="1.02" stroke-linecap="round" stroke-linejoin="round"/>
<path d="M11.4551 159.574V161.785" stroke="#E0C088" stroke-width="1.02" stroke-linecap="round" stroke-linejoin="round"/>
<path d="M11.4551 163.188V165.399" stroke="#E0C088" stroke-width="1.02" stroke-linecap="round" stroke-linejoin="round"/>
<path d="M11.4552 164.152C12.267 164.152 12.9251 163.406 12.9251 162.486C12.9251 161.565 12.267 160.819 11.4552 160.819C10.6434 160.819 9.98535 161.565 9.98535 162.486C9.98535 163.406 10.6434 164.152 11.4552 164.152Z" stroke="#E0C088" stroke-width="1.02" stroke-linecap="round" stroke-linejoin="round"/>
</svg>
