<svg width="1305" height="112" viewBox="0 0 1305 112" fill="none" xmlns="http://www.w3.org/2000/svg">
<g clip-path="url(#clip0_602_2403)">
<path d="M1060.62 88.3223H153.649" stroke="#FED395" stroke-width="2.50042" stroke-linecap="round" stroke-linejoin="round"/>
<path d="M1303.55 88.3223H1190.52" stroke="#FED395" stroke-width="2.50042" stroke-linecap="round" stroke-linejoin="round"/>
<path d="M1160.21 82.8425C1164.55 63.4831 1152.3 44.2898 1132.85 39.9731C1113.39 35.6564 1094.11 47.851 1089.77 67.2104C1085.43 86.5698 1097.69 105.763 1117.14 110.08C1136.59 114.396 1155.88 102.202 1160.21 82.8425Z" stroke="#FED395" stroke-width="2.50042" stroke-linecap="round" stroke-linejoin="round"/>
<path d="M1125.01 98.1313C1119.33 98.1323 1113.75 96.5789 1108.9 93.6406C1104.04 90.7024 1100.09 86.4924 1097.47 81.4705C1094.86 76.4486 1093.68 70.808 1094.07 65.1648C1094.45 59.5216 1096.39 54.0929 1099.67 49.4717C1094.57 54.4749 1091.09 60.8732 1089.66 67.8529C1088.23 74.8327 1088.91 82.0785 1091.63 88.669C1094.35 95.2596 1098.97 100.897 1104.92 104.865C1110.86 108.832 1117.86 110.951 1125.01 110.951C1132.17 110.951 1139.17 108.832 1145.11 104.865C1151.06 100.897 1155.68 95.2596 1158.4 88.669C1161.12 82.0785 1161.8 74.8327 1160.37 67.8529C1158.94 60.8732 1155.45 54.4749 1150.36 49.4717C1153.64 54.0934 1155.57 59.5228 1155.96 65.1666C1156.35 70.8104 1155.17 76.4515 1152.55 81.4736C1149.94 86.4958 1145.99 90.7057 1141.13 93.6434C1136.27 96.5811 1130.69 98.1336 1125.01 98.1313V98.1313Z" stroke="#FED395" stroke-width="2.50042" stroke-linecap="round" stroke-linejoin="round"/>
<path d="M107.656 73.5171C71.6921 108.142 47.3175 85.0087 47.3175 82.2231C47.3175 79.4374 41.2328 76.6803 41.2328 76.6803L41.3616 75.2554C41.4905 73.8305 39.1354 73.4672 39.1354 73.4672C39.5148 72.4626 39.3644 71.9069 38.0258 71.2729C36.6872 70.6388 37.0236 68.4231 37.0236 68.4231C39.887 67.1336 40.6386 66.0578 40.6029 65.1316C40.5671 64.2055 34.9333 58.6769 31.6476 57.2948C28.3619 55.9127 27.4742 53.583 27.4742 53.583C27.9273 52.5494 28.1962 51.4453 28.2688 50.32C28.249 49.5825 27.9819 48.8728 27.51 48.3038C23.5156 43.388 22.1984 36.8121 24.8041 31.0485C29.0932 21.5371 36.4753 13.7401 45.7606 8.91406C55.0458 4.08802 65.6934 2.5141 75.9872 4.44598C69.0173 1.79291 61.5716 0.602498 54.1175 0.949461C46.6634 1.29642 39.3619 3.17327 32.6713 6.46218C6.75045 19.1436 -4.67447 50.3271 6.90078 76.6518C11.2518 86.5331 18.475 94.892 27.6405 100.652C36.806 106.413 47.4942 109.311 58.329 108.974C69.1637 108.637 79.6491 105.079 88.435 98.7604C97.221 92.4413 103.905 83.6496 107.628 73.5171" stroke="#FED395" stroke-width="2.50042" stroke-linecap="round" stroke-linejoin="round"/>
<path d="M24.0313 54.5596C24.0313 54.5596 24.7471 56.5971 23.7593 57.5091C22.7714 58.421 18.2544 62.1898 18.2544 62.1898C18.2544 62.1898 23.5373 61.8122 25.0907 61.1069C26.6441 60.4016 27.2383 62.3537 27.2383 62.3537" stroke="#FED395" stroke-width="2.50042" stroke-linecap="round" stroke-linejoin="round"/>
<path d="M32.6855 76.5592C38.4123 75.9251 38.9063 74.4789 39.0136 73.9659L39.1067 73.4814" stroke="#FED395" stroke-width="2.50042" stroke-linecap="round" stroke-linejoin="round"/>
<path d="M25.7273 58.7479C26.1568 59.674 26.028 60.6501 25.4338 60.8852C24.8396 61.1203 24.0021 60.6216 23.5941 59.6883C23.186 58.755 23.3006 57.7861 23.8876 57.551C24.4746 57.3158 25.3049 57.8146 25.7273 58.7479Z" stroke="#FED395" stroke-width="2.50042" stroke-linecap="round" stroke-linejoin="round"/>
<path d="M31.3896 67.9512C31.3896 67.9512 31.5328 71.5134 34.7756 69.946" stroke="#FED395" stroke-width="2.50042" stroke-linecap="round" stroke-linejoin="round"/>
<path d="M13.8223 57.5231C14.6488 56.2897 15.652 55.1832 16.8002 54.2387C20.9664 50.5554 23.5936 51.8663 23.5936 51.8663" stroke="#FED395" stroke-width="2.50042" stroke-linecap="round" stroke-linejoin="round"/>
<path d="M38.0114 71.2871L37.9255 72.5695C37.6771 72.5524 37.4283 72.5975 37.2019 72.7008C36.9756 72.8041 36.7789 72.9623 36.6298 73.1608C36.2581 73.5533 35.9315 73.9858 35.6562 74.4503" stroke="#FED395" stroke-width="2.50042" stroke-linecap="round" stroke-linejoin="round"/>
<path d="M34.6182 77.6562C34.6182 77.6562 37.6963 78.4898 39.2139 77.699" stroke="#FED395" stroke-width="2.50042" stroke-linecap="round" stroke-linejoin="round"/>
<path d="M22.156 56.5752C21.0059 57.308 19.921 58.1375 18.9132 59.0545C17.4815 60.3939 15.2266 62.2818 15.2266 62.2818" stroke="#FED395" stroke-width="2.50042" stroke-linecap="round" stroke-linejoin="round"/>
<path d="M29.7577 75.0273C29.7577 75.0273 29.278 77.2217 30.4735 78.6608" stroke="#FED395" stroke-width="2.50042" stroke-linecap="round" stroke-linejoin="round"/>
</g>
<defs>
<clipPath id="clip0_602_2403">
<rect width="1304" height="111.832" fill="white" transform="translate(0.445312)"/>
</clipPath>
</defs>
</svg>
