<svg width="34" height="32" viewBox="0 0 34 32" fill="none" xmlns="http://www.w3.org/2000/svg">
<path d="M33.5443 21.4206C22.426 31.1561 14.8906 24.6518 14.8906 23.8685C14.8906 23.0853 13.0095 22.31 13.0095 22.31L13.0494 21.9094C13.0892 21.5087 12.3611 21.4066 12.3611 21.4066C12.4784 21.1241 12.4319 20.9679 12.0181 20.7896C11.6043 20.6113 11.7083 19.9883 11.7083 19.9883C12.5935 19.6257 12.8259 19.3233 12.8148 19.0628C12.8037 18.8024 11.0621 17.248 10.0463 16.8593C9.0305 16.4707 8.75609 15.8157 8.75609 15.8157C8.89615 15.5251 8.97928 15.2146 9.00173 14.8982C8.99562 14.6908 8.91304 14.4913 8.76715 14.3313C7.53228 12.9491 7.12508 11.1002 7.93062 9.47958C9.2566 6.80524 11.5388 4.61293 14.4093 3.25597C17.2798 1.89902 20.5715 1.45648 23.7538 1.99967C21.5991 1.2537 19.2973 0.918987 16.9928 1.01654C14.6884 1.1141 12.4312 1.64182 10.3628 2.56657C2.34935 6.13225 -1.18266 14.9002 2.39582 22.302C3.74093 25.0804 5.974 27.4307 8.80751 29.0503C11.641 30.67 14.9453 31.4849 18.2948 31.3901C21.6444 31.2953 24.8859 30.2951 27.6021 28.5184C30.3183 26.7416 32.3847 24.2696 33.5355 21.4206" stroke="#FED395" stroke-width="0.826688" stroke-linecap="round" stroke-linejoin="round"/>
<path d="M7.70244 16.0061C7.70244 16.0061 7.90451 16.6097 7.62566 16.8798C7.34681 17.1499 6.07178 18.2662 6.07178 18.2662C6.07178 18.2662 7.56302 18.1544 8.0015 17.9455C8.43998 17.7366 8.6077 18.3148 8.6077 18.3148" stroke="#FED395" stroke-width="0.826688" stroke-linecap="round" stroke-linejoin="round"/>
<path d="M10.2983 22.1631C12.1831 22.0046 12.3456 21.6429 12.381 21.5147L12.4116 21.3936" stroke="#FED395" stroke-width="0.826688" stroke-linecap="round" stroke-linejoin="round"/>
<path d="M8.10367 17.196C8.2418 17.5059 8.20036 17.8325 8.00929 17.9111C7.81822 17.9898 7.54889 17.8229 7.41767 17.5106C7.28646 17.1983 7.32329 16.8741 7.51206 16.7955C7.70082 16.7168 7.96786 16.8837 8.10367 17.196Z" stroke="#FED395" stroke-width="0.826688" stroke-linecap="round" stroke-linejoin="round"/>
<path d="M9.87549 19.854C9.87549 19.854 9.9291 20.9994 11.1434 20.4954" stroke="#FED395" stroke-width="0.826688" stroke-linecap="round" stroke-linejoin="round"/>
<path d="M4.38135 16.7757C4.66735 16.453 5.01451 16.1636 5.41182 15.9165C6.85348 14.9529 7.76257 15.2959 7.76257 15.2959" stroke="#FED395" stroke-width="0.826688" stroke-linecap="round" stroke-linejoin="round"/>
<path d="M11.9891 21.0083L11.9583 21.3203C11.8691 21.3161 11.7798 21.3271 11.6986 21.3522C11.6173 21.3774 11.5467 21.4158 11.4932 21.4641C11.3598 21.5596 11.2426 21.6648 11.1438 21.7779" stroke="#FED395" stroke-width="0.826688" stroke-linecap="round" stroke-linejoin="round"/>
<path d="M11.1438 22.5474C11.1438 22.5474 11.9931 22.5474 12.4118 22.5474" stroke="#FED395" stroke-width="0.826688" stroke-linecap="round" stroke-linejoin="round"/>
<path d="M7.33983 16.7761C6.9891 16.9738 6.65824 17.1975 6.35087 17.4448C5.91425 17.806 5.22656 18.3152 5.22656 18.3152" stroke="#FED395" stroke-width="0.826688" stroke-linecap="round" stroke-linejoin="round"/>
<path d="M9.50267 21.7783C9.50267 21.7783 9.25269 22.4754 9.87578 22.9327" stroke="#FED395" stroke-width="0.826688" stroke-linecap="round" stroke-linejoin="round"/>
</svg>
