<svg width="330" height="38" viewBox="0 0 330 38" fill="none" xmlns="http://www.w3.org/2000/svg">
<path d="M271 24.7598H57" stroke="#FED395" stroke-width="2.50042" stroke-linecap="round" stroke-linejoin="round"/>
<path d="M33.5443 24.4206C22.426 34.1561 14.8906 27.6518 14.8906 26.8685C14.8906 26.0853 13.0095 25.31 13.0095 25.31L13.0494 24.9094C13.0892 24.5087 12.3611 24.4066 12.3611 24.4066C12.4784 24.1241 12.4319 23.9679 12.0181 23.7896C11.6043 23.6113 11.7083 22.9883 11.7083 22.9883C12.5935 22.6257 12.8259 22.3233 12.8148 22.0628C12.8037 21.8024 11.0621 20.248 10.0463 19.8593C9.0305 19.4707 8.75609 18.8157 8.75609 18.8157C8.89615 18.5251 8.97928 18.2146 9.00173 17.8982C8.99562 17.6908 8.91304 17.4913 8.76715 17.3313C7.53228 15.9491 7.12508 14.1002 7.93062 12.4796C9.2566 9.80524 11.5388 7.61293 14.4093 6.25597C17.2798 4.89902 20.5715 4.45648 23.7538 4.99967C21.5991 4.2537 19.2973 3.91899 16.9928 4.01654C14.6884 4.1141 12.4312 4.64182 10.3628 5.56657C2.34935 9.13225 -1.18266 17.9002 2.39582 25.302C3.74093 28.0804 5.974 30.4307 8.80751 32.0503C11.641 33.67 14.9453 34.4849 18.2948 34.3901C21.6444 34.2953 24.8859 33.2951 27.6021 31.5184C30.3183 29.7416 32.3847 27.2696 33.5355 24.4206" stroke="#FED395" stroke-width="0.826688" stroke-linecap="round" stroke-linejoin="round"/>
<path d="M7.70244 19.0061C7.70244 19.0061 7.90451 19.6097 7.62566 19.8798C7.34681 20.1499 6.07178 21.2662 6.07178 21.2662C6.07178 21.2662 7.56302 21.1544 8.0015 20.9455C8.43998 20.7366 8.6077 21.3148 8.6077 21.3148" stroke="#FED395" stroke-width="0.826688" stroke-linecap="round" stroke-linejoin="round"/>
<path d="M10.2983 25.1631C12.1831 25.0046 12.3456 24.6429 12.381 24.5147L12.4116 24.3936" stroke="#FED395" stroke-width="0.826688" stroke-linecap="round" stroke-linejoin="round"/>
<path d="M8.10367 20.196C8.2418 20.5059 8.20036 20.8325 8.00929 20.9111C7.81822 20.9898 7.54889 20.8229 7.41767 20.5106C7.28646 20.1983 7.32329 19.8741 7.51206 19.7955C7.70082 19.7168 7.96786 19.8837 8.10367 20.196Z" stroke="#FED395" stroke-width="0.826688" stroke-linecap="round" stroke-linejoin="round"/>
<path d="M9.87549 22.854C9.87549 22.854 9.9291 23.9994 11.1434 23.4954" stroke="#FED395" stroke-width="0.826688" stroke-linecap="round" stroke-linejoin="round"/>
<path d="M4.38135 19.7757C4.66735 19.453 5.01451 19.1636 5.41182 18.9165C6.85348 17.9529 7.76257 18.2959 7.76257 18.2959" stroke="#FED395" stroke-width="0.826688" stroke-linecap="round" stroke-linejoin="round"/>
<path d="M11.9891 24.0083L11.9583 24.3203C11.8691 24.3161 11.7798 24.3271 11.6986 24.3522C11.6173 24.3774 11.5467 24.4158 11.4932 24.4641C11.3598 24.5596 11.2426 24.6648 11.1438 24.7779" stroke="#FED395" stroke-width="0.826688" stroke-linecap="round" stroke-linejoin="round"/>
<path d="M11.1438 25.5474C11.1438 25.5474 11.9931 25.5474 12.4118 25.5474" stroke="#FED395" stroke-width="0.826688" stroke-linecap="round" stroke-linejoin="round"/>
<path d="M7.33983 19.7761C6.9891 19.9738 6.65824 20.1975 6.35087 20.4448C5.91425 20.806 5.22656 21.3152 5.22656 21.3152" stroke="#FED395" stroke-width="0.826688" stroke-linecap="round" stroke-linejoin="round"/>
<path d="M9.50267 24.7783C9.50267 24.7783 9.25269 25.4754 9.87578 25.9327" stroke="#FED395" stroke-width="0.826688" stroke-linecap="round" stroke-linejoin="round"/>
<path d="M326.528 22.3519C328.44 13.8146 323.037 5.35048 314.459 3.44685C305.881 1.54322 297.376 6.92091 295.463 15.4583C293.551 23.9956 298.954 32.4597 307.532 34.3633C316.11 36.267 324.615 30.8893 326.528 22.3519Z" stroke="#FED395" stroke-linecap="round" stroke-linejoin="round"/>
<path d="M310.998 28.6503C308.478 28.6507 306.007 27.9937 303.854 26.7511C301.7 25.5085 299.948 23.7281 298.789 21.6043C297.629 19.4805 297.107 17.095 297.278 14.7085C297.45 12.322 298.309 10.0261 299.763 8.07178C297.503 10.1877 295.958 12.8936 295.323 15.8453C294.689 18.7971 294.993 21.8614 296.197 24.6486C297.402 27.4358 299.453 29.8199 302.089 31.4979C304.724 33.1758 307.826 34.0718 311 34.0718C314.174 34.0718 317.276 33.1758 319.911 31.4979C322.547 29.8199 324.598 27.4358 325.803 24.6486C327.007 21.8614 327.311 18.7971 326.677 15.8453C326.042 12.8936 324.497 10.1877 322.237 8.07178C323.691 10.0263 324.55 12.3225 324.722 14.7093C324.893 17.0961 324.371 19.4817 323.211 21.6056C322.051 23.7295 320.298 25.5099 318.144 26.7523C315.991 27.9947 313.519 28.6513 310.998 28.6503V28.6503Z" stroke="#FED395" stroke-linecap="round" stroke-linejoin="round"/>
</svg>
