<svg width="38" height="38" viewBox="0 0 38 38" fill="none" xmlns="http://www.w3.org/2000/svg">
<path d="M34.5276 22.3519C36.4404 13.8146 31.0369 5.35048 22.4588 3.44685C13.8806 1.54322 5.37605 6.92091 3.46331 15.4583C1.55058 23.9956 6.95398 32.4597 15.5322 34.3633C24.1103 36.267 32.6149 30.8893 34.5276 22.3519Z" stroke="#FED395" stroke-linecap="round" stroke-linejoin="round"/>
<path d="M18.9984 28.6503C16.4785 28.6507 14.0069 27.9937 11.8536 26.7511C9.70033 25.5085 7.94821 23.7281 6.78862 21.6043C5.62903 19.4805 5.10659 17.095 5.27835 14.7085C5.45011 12.322 6.30945 10.0261 7.76255 8.07178C5.50341 10.1877 3.95819 12.8936 3.32337 15.8453C2.68854 18.7971 2.9928 21.8614 4.19745 24.6486C5.4021 27.4358 7.45272 29.8199 10.0886 31.4979C12.7244 33.1758 15.8263 34.0718 19 34.0718C22.1737 34.0718 25.2756 33.1758 27.9114 31.4979C30.5473 29.8199 32.5979 27.4358 33.8025 24.6486C35.0072 21.8614 35.3115 18.7971 34.6766 15.8453C34.0418 12.8936 32.4966 10.1877 30.2375 8.07178C31.6907 10.0263 32.5501 12.3225 32.7217 14.7093C32.8934 17.0961 32.3706 19.4817 31.2106 21.6056C30.0507 23.7295 28.2981 25.5099 26.1444 26.7523C23.9906 27.9947 21.5186 28.6513 18.9984 28.6503V28.6503Z" stroke="#FED395" stroke-linecap="round" stroke-linejoin="round"/>
</svg>
