<svg width="104" height="85" viewBox="0 0 104 85" fill="none" xmlns="http://www.w3.org/2000/svg">
<path d="M91.4338 14.8346C94.9017 11.9068 97.9835 8.71766 99.1644 3.93394C97.4399 4.68455 95.9702 5.41275 94.4368 5.9617C92.1574 6.77953 89.8255 7.46292 87.5235 8.21726C86.6612 8.49734 86.0914 8.2322 85.4803 7.54881C83.3883 5.20362 80.7902 3.64639 77.7347 2.79869C72.5759 1.36843 67.5672 1.89871 62.7721 4.07211C56.8335 6.76459 52.4134 11.033 51.09 17.5793C50.5089 20.4436 50.9925 23.5207 50.9925 26.609C34.0579 25.5373 20.5349 17.7548 9.22771 5.36794C6.6296 10.1629 6.41215 15.025 7.4469 19.9843C8.48539 24.9547 10.5999 29.3725 14.8251 32.5691C14.7426 32.7185 14.6601 32.8641 14.5739 33.0135C12.077 32.3375 9.58012 31.6616 7.04949 30.9745C7.4394 41.0237 12.6769 47.5551 22.2033 51.099H14.6376C17.8993 59.8673 24.1378 64.5315 33.3081 65.5996C24.6814 72.187 15.0613 74.7338 4.42139 73.9571C4.53761 74.0915 4.60509 74.2334 4.71756 74.3007C13.078 79.2188 21.9408 82.7291 31.7672 82.9756C42.602 83.2482 53.0095 81.254 62.6709 76.1492C75.5677 69.3377 84.1006 58.8068 89.0269 45.2473C91.6175 38.1183 92.7685 30.7168 93.1584 23.1697C93.1884 22.5796 93.5933 21.8925 94.0319 21.4668C95.3441 20.1896 96.8063 19.0656 98.1259 17.7959C99.6593 16.3246 100.956 14.6777 101.421 12.5827C98.1109 13.479 94.868 14.3566 91.6288 15.2341C91.5613 15.0997 91.4976 14.9653 91.4301 14.8308L91.4338 14.8346Z" stroke="#FED395" stroke-width="3"/>
</svg>
