<svg width="35" height="60" viewBox="0 0 35 60" fill="none" xmlns="http://www.w3.org/2000/svg">
<g clip-path="url(#clip0_90_849)">
<path d="M25.8878 27.9748C25.3081 27.8399 26.2916 28.6915 25.7076 28.5831C25.4905 28.5455 25.9247 29.1206 25.6881 29.1052C25.827 30.0873 25.9638 31.0208 26.0919 31.9565C26.1258 32.1924 26.1447 32.4303 26.1483 32.6688C26.1483 33.3832 26.1114 34.0999 26.1592 34.8122C26.2547 36.2213 25.7033 37.3494 24.7958 38.3515C23.6473 39.6168 22.2666 40.5635 20.8381 41.466C20.5871 41.6474 20.3204 41.8051 20.0413 41.9372C19.4074 42.1894 19.1035 42.7158 18.9559 43.3219C18.7757 44.0674 18.6823 44.835 18.5564 45.5937C18.5439 45.7002 18.5374 45.8073 18.5369 45.9145H18.1287C18.0766 45.3725 18.0636 44.8372 17.9637 44.3196C17.8741 43.8703 17.7281 43.4347 17.5295 43.0233C17.4221 42.7941 17.2502 42.6027 17.0356 42.4735C16.821 42.3443 16.5735 42.2831 16.3246 42.2978V46.3237C15.8904 46.452 15.8666 46.4276 15.8123 46.0184C15.6907 45.1181 15.5322 44.2222 15.4389 43.3197C15.3803 42.7601 15.4215 42.1916 15.3933 41.6275C15.3883 41.5613 15.3687 41.4971 15.336 41.4397C15.3033 41.3822 15.2583 41.333 15.2044 41.2957C13.5197 40.4891 11.83 39.6912 10.1352 38.9023C9.97026 38.8163 9.79162 38.7608 9.60763 38.7386C9.37067 38.7269 9.13325 38.7485 8.90206 38.8027C8.66543 38.858 8.44182 38.9753 8.20952 39.0527C8.0979 39.0873 7.97783 39.0802 7.87085 39.0328C8.30505 38.5904 8.73924 38.1281 9.21468 37.7056C9.35222 37.5885 9.46053 37.4398 9.53073 37.2717C9.60093 37.1037 9.631 36.9211 9.61849 36.7389C9.59895 34.4893 9.61849 32.2396 9.61849 29.99V29.6405C9.57724 29.2423 9.61849 29.844 9.61849 29.3617C9.22771 29.2158 9.85295 28.8021 9.22771 28.3752C8.60247 27.9483 10.0657 27.4682 9.63802 26.8843C9.04101 26.068 9.74006 24.8116 9.83124 24.4665C9.96801 23.9511 9.65539 23.8449 10.1439 23.7564C12.0348 24.0617 9.13002 24.9089 9.61414 24.847L9.58375 17.2729H8.32024C8.21821 16.9633 8.27899 16.8195 8.58727 16.7244C10.3262 16.189 12.0478 15.5608 13.6348 14.6185C13.6771 14.5969 13.7215 14.5799 13.7672 14.5676C13.6608 14.9437 13.5718 15.2954 13.4611 15.6382C13.1963 16.4567 13.1789 17.2995 13.1811 18.1467C13.1811 20.2113 13.1811 22.2758 13.1811 24.3404C13.1811 24.9753 13.3982 25.2584 14.0147 25.3779C14.3143 25.4376 14.7941 25.6853 15.1132 25.7296C15.1132 25.8557 14.9569 26.2339 14.9569 26.3733M15.1132 25.7296C15.313 25.0505 15.1588 24.9487 15.8492 24.4953C15.7081 23.0552 15.5149 21.5931 15.4345 20.1243C15.3694 18.9607 15.2761 17.7839 15.5648 16.6292C15.5747 16.5567 15.5983 16.4869 15.6343 16.4235C15.9295 16.0254 15.8166 15.636 15.6039 15.2622C15.4255 14.9483 15.2291 14.6455 15.0155 14.3553C14.9251 14.2439 14.8786 14.1023 14.885 13.958C14.8914 13.8137 14.9504 13.6769 15.0503 13.5744C15.1757 13.4704 15.274 13.3364 15.3365 13.1844C15.399 13.0323 15.4237 12.8669 15.4085 12.7029C15.3955 9.67016 15.4085 6.63523 15.4085 3.60252V3.17339H14.5401C15.0199 2.28857 15.3976 1.44136 15.4085 0.461426H16.2031L17.1279 3.11588C16.8153 3.23754 16.4766 3.37911 16.1249 3.5052C16.0494 3.53302 15.985 3.5853 15.9414 3.65402C15.8979 3.72275 15.8777 3.80412 15.8839 3.88567C16.0185 5.84775 16.1575 7.80983 16.266 9.77412C16.3181 10.7032 16.3529 11.6344 16.3159 12.5635C16.2986 13.0369 16.4071 13.1829 16.7871 13.1563C16.476 13.6324 16.3078 14.1904 16.3029 14.7623C16.3203 21.4471 16.3029 28.1319 16.3181 34.8166C16.2443 35.1772 16.3181 34.7967 16.1444 35.6329C16.0753 35.8876 16.0561 36.1537 16.088 36.4159C16.1488 37.0574 16.5634 37.6127 16.8522 38.1856C16.9277 38.3291 17.0406 38.4487 17.1785 38.531C17.3164 38.6134 17.4739 38.6553 17.6337 38.6523V13.2028L16.7805 13.163L16.7415 12.8002L17.84 12.3578C18.2069 13.1032 18.5825 13.8089 18.5673 14.7225C18.5151 17.9874 18.5217 21.2502 18.5673 24.5152C18.5528 25.683 18.4072 26.8452 18.1331 27.9792C18.1331 28.0301 18.1157 28.081 18.1027 28.154L18.5238 28.1872C18.5053 28.256 18.4798 28.3227 18.4479 28.3862C18.1244 28.8663 18.0831 29.3971 18.0875 29.9634C18.1048 32.5382 18.0875 35.1108 18.1005 37.6835C18.0986 38.0908 18.1519 38.4965 18.259 38.889C18.5369 39.8402 19.2446 40.287 20.1694 40.4175C20.9901 40.5326 21.2137 40.4308 21.4177 39.6057C21.6988 38.5055 21.9162 37.3895 22.069 36.2633C22.2861 34.6286 22.386 32.9784 22.5488 31.3349C22.6248 30.5629 22.3165 29.9524 21.8194 29.4148C21.3407 28.9233 20.766 28.5397 20.1325 28.2889C20.0534 28.2541 19.9836 28.2003 19.9292 28.1321C19.8748 28.064 19.8373 27.9834 19.8199 27.8974C19.7157 27.4019 19.5854 26.9108 19.4595 26.3843C19.6575 26.3123 19.8498 26.2251 20.0348 26.1233C20.594 25.8011 21.1282 25.4358 21.6327 25.0306C21.9313 24.756 22.169 24.4195 22.3296 24.0438C22.4902 23.668 22.5701 23.2615 22.564 22.8517C22.5792 22.062 22.564 21.2834 22.1971 20.5556C22.1689 20.459 22.1791 20.3549 22.2253 20.2658C22.4862 19.6945 22.6005 19.0651 22.5575 18.4365C22.5152 17.8622 22.5152 17.2854 22.5575 16.7111C22.5794 16.5554 22.5664 16.3967 22.5194 16.2468C22.4724 16.097 22.3926 15.96 22.2861 15.8462C21.7217 15.2556 21.1551 14.6649 20.5754 14.0876C19.9958 13.5103 19.2858 12.9816 18.8538 12.2251C18.6107 11.8004 18.602 11.8225 18.9711 11.5106C19.7287 10.8713 20.4755 10.2187 21.2093 9.58831C21.6826 10.2077 22.1429 10.8647 22.6552 11.4708C23.5866 12.5768 24.6699 13.4749 26.0745 13.8775C26.5087 14.0013 26.9429 14.0522 27.4183 14.1407C26.8316 14.733 26.3815 15.4508 26.1005 16.2421C25.9507 16.6845 25.8313 17.1269 25.7206 17.5694C25.7104 17.6888 25.7322 17.8088 25.7836 17.9166C25.9138 18.2861 26.0528 18.651 26.2069 19.0603L25.7141 19.0957C25.735 19.1724 25.7641 19.2466 25.8009 19.3169C26.085 19.7783 26.2088 20.3236 26.1526 20.8653C26.1244 21.7059 26.1092 22.5464 26.1526 23.3848C26.1946 23.8119 26.101 24.2414 25.8856 24.6103C25.8258 24.721 25.7714 24.8347 25.7228 24.9509C26.1396 25.0416 25.0346 26.7449 25.4189 26.8666C26.4436 27.1917 28.2585 27.4505 27.9068 26.9617M13.2093 30.0829C13.2093 30.0652 13.2418 32.9585 13.3265 34.3809C13.3595 35.2454 13.618 36.0853 14.0755 36.8141C14.2183 37.0591 14.4124 37.269 14.6439 37.4288C14.8755 37.5886 15.1387 37.6945 15.415 37.7388C15.4857 37.5892 15.5368 37.4307 15.567 37.2676C15.6581 36.9291 15.6581 36.9291 15.517 36.5465C15.3759 36.1638 15.517 35.5488 15.5605 35.206C15.5827 35.0594 15.5827 34.9102 15.5605 34.7636C15.5533 34.7157 15.5338 34.6707 15.504 34.633C15.2652 34.3145 15.3933 33.9119 15.3976 33.5138C15.4172 32.3303 15.3976 31.1491 15.3976 29.9745M24.2986 26.8157C24.1749 26.7493 24.0685 26.694 23.9621 26.6343Z" fill="#D8850C"/>
<path d="M-3.95447 19.6463C-4.33005 19.6685 -4.7078 19.7083 -5.08338 19.7016C-5.17022 19.7016 -5.30048 19.5468 -5.33087 19.4406C-5.73901 18.0006 -6.234 16.5738 -6.53793 15.1072C-6.75503 14.041 -6.42287 12.9815 -5.96045 12.0104C-5.18759 10.3845 -3.84375 9.40016 -2.26979 8.69231C0.118282 7.63274 2.63879 7.36508 5.20054 7.58629C6.93732 7.73892 8.51562 8.48217 10.0418 9.30062C11.0774 9.85806 12.0739 10.4885 13.0986 11.0703C13.5479 11.3246 14.2622 12.4329 14.7615 12.6806C14.6178 12.8454 14.457 12.9937 14.2817 13.123C12.3431 14.3197 10.7604 14.7599 8.5395 15.8084C7.81657 16.1203 6.9916 16.4898 6.36853 16.8039C6.04814 16.9306 5.71862 17.0319 5.3829 17.1069V15.7509L7.34329 15.0608C7.1783 14.656 7.05455 14.3131 6.9091 13.9857C6.3369 12.7505 5.39417 11.7327 4.21709 11.0791C4.10377 11.0032 3.97422 10.9562 3.83934 10.942C2.07433 10.953 0.298473 10.8712 -1.45785 11.0238C-3.91756 11.2339 -5.14851 12.6983 -5.25923 15.2267C-5.32653 16.8525 -4.80766 18.3014 -3.95664 19.6508L-3.95447 19.6463Z" fill="#D8850C"/>
<path d="M17.7401 57.3353C17.1973 57.2822 16.8586 57.0942 16.8087 56.5854C16.7966 56.5088 16.812 56.4302 16.8521 56.3642C17.3145 55.9085 17.4557 55.3069 17.5903 54.7052C17.9289 53.2121 18.0071 51.6857 18.0744 50.1617C18.12 49.1397 18.1156 48.1133 18.1352 47.0891C18.1352 47.0183 18.1352 46.9453 18.1504 46.8679H18.5846V47.2218C18.5846 49.4914 18.6084 51.761 18.5846 54.0305C18.5712 54.8269 18.774 55.6115 19.1707 56.2979L19.4703 56.8332L19.2901 56.8973C18.6388 57.1362 18.4825 57.4924 18.7669 58.1449C18.7669 58.1648 18.7821 58.1825 18.7886 58.2024C19.162 59.074 19.0752 59.3084 18.1808 59.5429C18.0533 59.5558 17.9246 59.5429 17.802 59.5049C17.6794 59.467 17.5654 59.4047 17.4665 59.3217C17.3616 59.2348 17.2884 59.1145 17.2589 58.98C17.2293 58.8455 17.2451 58.7049 17.3037 58.5807C17.4383 58.1737 17.5751 57.7843 17.7401 57.3353Z" fill="#D8850C"/>
</g>
<defs>
<clipPath id="clip0_90_849">
<rect width="34.562" height="59.077" fill="white" transform="translate(0.400391 0.461426)"/>
</clipPath>
</defs>
</svg>
