<?xml version="1.0" encoding="UTF-8"?><svg xmlns="http://www.w3.org/2000/svg" viewBox="0 0 1018.87 1008"><defs><style>.d{stroke:#d4ab6f;stroke-miterlimit:10;stroke-width:1.5px;}.d,.e{fill:#d4ab6f;}</style></defs><g id="a"><g><g><path class="e" d="M309.31,672.9h1.22v1.36h-43.38v-1.36h1.22c1.99,0,3.47-.61,4.42-1.84s1.43-2.38,1.43-3.47-.23-2.18-.68-3.26l-6.66-16.73h-31.82l-7.07,16.73c-.45,1.18-.68,2.29-.68,3.33s.48,2.18,1.43,3.4,2.47,1.84,4.56,1.84h1.09v1.36h-29.1v-1.36h1.22c2.09,0,4.17-.63,6.26-1.9,2.08-1.27,3.81-3.17,5.17-5.71l31.42-71.13c4.26-8.98,6.53-14.91,6.8-17.82h1.22l40.39,88.67c1.36,2.63,3.08,4.6,5.17,5.92,2.08,1.32,4.22,1.97,6.39,1.97Zm-71.94-31.01h27.2l-13.19-33.46-14.01,33.46Z"/><path class="e" d="M313.8,672.9c2.36,0,4.37-.84,6.05-2.52,1.68-1.68,2.56-3.69,2.65-6.05v-75.34c-.09-2.36-.98-4.37-2.65-6.05-1.68-1.68-3.7-2.52-6.05-2.52h-1.77v-1.36h41.34l-.14,1.36h-1.63c-2.36,0-4.4,.84-6.12,2.52-1.72,1.68-2.58,3.7-2.58,6.05v79.42h17.82c6.62,0,12.17-1.9,16.66-5.71,4.49-3.81,7.82-9.2,10-16.18h1.36l-6.26,27.74h-70.45v-1.36h1.77Z"/><path class="e" d="M396.76,672.9c2.36,0,4.37-.84,6.05-2.52,1.68-1.68,2.56-3.69,2.65-6.05v-75.75c-.27-3.17-1.77-5.53-4.49-7.07-1.36-.72-2.77-1.09-4.22-1.09h-1.77v-1.36h38.22c3.99,0,7.48-.32,10.47-.95,2.99-.63,4.94-1.13,5.85-1.5v23.8h-1.5v-1.63c.09-4.08-1.07-7.37-3.47-9.86-2.4-2.49-5.64-3.83-9.72-4.01h-8.98v39.58h21.62c3.35-.09,6.12-1.25,8.3-3.47,2.18-2.22,3.26-4.96,3.26-8.23v-1.22h1.22v31.42h-1.22v-1.09c0-3.35-1.09-6.12-3.26-8.3-2.18-2.18-4.9-3.31-8.16-3.4h-21.76v38.22h26.52c6.62,0,12.17-1.9,16.66-5.71,4.49-3.81,7.82-9.2,10-16.18h1.36l-6.39,27.74h-79.02v-1.36h1.77Z"/><path class="e" d="M591.51,580.42c-2.27,0-4.22,.79-5.85,2.38-1.63,1.59-2.49,3.51-2.58,5.78v70.18c0,6.08,.41,11.2,1.22,15.37l.41,2.04h-1.22l-68.68-65.42v53.99c0,2.27,.82,4.2,2.45,5.78,1.63,1.59,3.58,2.38,5.85,2.38h2.58v1.36h-41.21v-1.36h2.45c2.36,0,4.35-.79,5.98-2.38,1.63-1.58,2.45-3.56,2.45-5.92v-70.58c0-5.98-.41-10.97-1.22-14.96l-.27-2.04h1.22l68.68,65.42v-53.72c-.09-2.36-.95-4.33-2.58-5.92-1.63-1.59-3.58-2.38-5.85-2.38h-2.45v-1.36h41.21v1.36h-2.58Z"/><path class="e" d="M745.59,697.38c-7.07,3.54-14.6,5.3-22.58,5.3-7.07,0-13.51-1.09-19.31-3.26-12.51-4.62-23.17-13.65-31.96-27.06-2.27-3.26-6.48-9.52-12.65-18.77-6.17-9.25-10.16-15.14-11.97-17.68-3.17-4.99-5.71-7.71-7.62-8.16v-1.36h2.72c4.62,0,8.88-1.04,12.78-3.13,5.89-3.26,8.84-9.29,8.84-18.09,0-6.44-1.82-11.4-5.44-14.89-3.63-3.49-7.98-5.24-13.06-5.24h-10.34v79.29c0,2.36,.86,4.38,2.58,6.05,1.72,1.68,3.76,2.52,6.12,2.52h1.77v1.36h-41.34v-1.36h1.77c2.27,0,4.26-.82,5.98-2.45,1.72-1.63,2.63-3.62,2.72-5.98v-75.48c-.09-2.36-.98-4.37-2.65-6.05-1.68-1.68-3.7-2.52-6.05-2.52h-1.77v-1.36h46.65c11.7,0,20.76,2.68,27.2,8.02,5.08,4.17,7.62,10.06,7.62,17.68s-2.47,13.8-7.41,18.56c-4.94,4.76-10.59,7.14-16.93,7.14-.54,0-1.13-.04-1.77-.14,3.72,2,6.82,4.22,9.32,6.66,2.49,2.45,4.67,4.76,6.53,6.94,1.86,2.18,3.44,4.1,4.76,5.78,1.31,1.68,3.06,3.9,5.24,6.66,2.18,2.77,4.44,5.64,6.8,8.64,2.36,2.99,4.96,6.05,7.82,9.18,2.86,3.13,6.03,6.1,9.52,8.91,3.49,2.81,7.05,5.12,10.68,6.94,7.71,3.9,16.18,5.89,25.43,5.98v1.36Z"/><path class="e" d="M740.97,613.46c-1.63-3.45-2.45-6.73-2.45-9.86s.41-6.03,1.22-8.7c.82-2.67,2.18-5.3,4.08-7.89s4.58-4.74,8.02-6.46c4.71-2.45,10.38-3.67,17-3.67,8.7,0,16.95,2.22,24.75,6.66,10.24,5.8,17.36,13.83,21.35,24.07,2.27,5.62,3.4,11.65,3.4,18.09,0,15.14-5.46,27.34-16.39,36.58-10.93,9.25-25.16,13.87-42.7,13.87s-31.82-4.62-42.84-13.87c-11.02-9.25-16.52-21.4-16.52-36.45,0-11.24,3.2-21.01,9.59-29.31s15.03-13.94,25.91-16.93l.82,1.22c-4.62,3.9-8.12,9.61-10.47,17.14-2.36,7.53-3.54,15.64-3.54,24.34,0,14.69,3.4,26.38,10.2,35.09s15.71,13.06,26.72,13.06,19.9-4.1,26.66-12.31c6.75-8.21,10.13-19.06,10.13-32.57,0-8.16-1.25-15.53-3.74-22.1-2.5-6.57-6.1-11.65-10.81-15.23-4.71-3.58-9.97-5.37-15.78-5.37-6.44,0-11.65,1.68-15.64,5.03-5.62,4.81-8.43,10.93-8.43,18.36,0,2.36,.32,4.76,.95,7.21h-1.5Z"/><path class="e" d="M966.73,547.23c4.17-1.09,7.57-1.63,10.2-1.63s4.71,.09,6.26,.27v1.36c-11.88,.64-21.4,6.08-28.56,16.32-3.72,5.26-6.71,11.38-8.98,18.36l-25.57,79.7c-1.54,4.99-2.31,9.61-2.31,13.87v1.22h-1.36l-29.51-65.55-24.21,57.53c-2.45,5.98-6.03,11.79-10.74,17.41-5.08,5.98-11.24,9.93-18.5,11.83-1.72,.54-3.54,.82-5.44,.82s-3.94-.32-6.12-.95l.14-1.36c3.35-.18,6.6-1.09,9.72-2.72,3.13-1.63,5.87-3.61,8.23-5.92,2.36-2.31,4.62-5.01,6.8-8.09,3.54-4.99,6.53-10.42,8.98-16.32l-27.61-75.07c-1.18-2.63-2.86-4.6-5.03-5.92-2.18-1.31-4.4-1.97-6.66-1.97h-1.09v-1.36h41.48v1.36h-1.22c-1.9,0-3.33,.61-4.28,1.84-.95,1.22-1.43,2.38-1.43,3.47s.18,2.13,.54,3.13l16.73,47.19,24.62-59.16,1.22,.14,27.06,59.7,15.64-54.81c2.27-7.89,5.85-14.87,10.74-20.94,5.71-7.16,12.46-11.74,20.26-13.74Z"/></g><g><path class="d" d="M450.84,522.44c-2.74,3.58-4.11,7.45-4.11,11.61,0,4.95,2.08,8.8,6.24,11.53,2.42,1.63,5.17,2.45,8.25,2.45s5.75-.61,8.02-1.82c4.27-2.21,6.66-5.92,7.19-11.14,.05-.37,.08-.74,.08-1.11,0-1.95-.54-4.05-1.62-6.32-1.08-2.26-2.83-4.35-5.25-6.24l-14.22-11.22c-3.11-2.42-4.66-5.56-4.66-9.4s1.24-7.1,3.71-9.76c2.47-2.66,5.82-3.99,10.03-3.99,2.11,0,4.4,.26,6.87,.79h3.16l.16,9.72h-.79c-.05-2.53-.96-4.52-2.73-5.96-1.76-1.45-3.98-2.17-6.64-2.17s-4.89,.88-6.68,2.65c-1.79,1.77-2.69,4.03-2.69,6.79s1.16,5.07,3.48,6.91l14.62,11.53c5.79,4.58,8.69,10.11,8.69,16.59,0,4.85-1.92,9.01-5.77,12.48-3.32,3-7.74,4.5-13.27,4.5-3.37,0-6.37-.63-9.01-1.9-4.95-2.32-7.93-6.27-8.93-11.85-.16-.84-.24-1.91-.24-3.2s.37-3.05,1.11-5.29c.74-2.24,2.16-4.49,4.27-6.75l.71,.55Z"/><path class="d" d="M490.58,542.66c1.37,0,2.54-.49,3.52-1.46,.97-.97,1.49-2.15,1.54-3.52v-44.24c0-1.26-.5-2.33-1.5-3.2-1-.87-2.19-1.3-3.56-1.3h-.95l-.08-.79h16.04c1.63,0,3.41-.16,5.33-.47,1.92-.32,3.28-.63,4.07-.95v9.95h-.79v-1.42c0-1.26-.43-2.34-1.3-3.24-.87-.89-1.91-1.37-3.12-1.42h-9.01v24.41h15.01c1.05-.05,1.95-.45,2.69-1.19,.74-.74,1.11-1.66,1.11-2.77v-1.11h.79v12.48h-.79v-1.19c0-1.05-.36-1.95-1.07-2.69-.71-.74-1.59-1.13-2.65-1.19h-15.09v23.62h16.83c3.9,0,6.87-.87,8.93-2.61,2.05-1.74,3.76-4.32,5.13-7.74h.79l-4.58,12.8h-38.31v-.79h1.03Z"/><path class="d" d="M594.15,515.72c0,9.06-2.44,16.13-7.31,21.21-4.87,5.08-11.76,7.62-20.66,7.62-6,0-11.42-1.26-16.23-3.79-4.82-2.53-8.56-5.98-11.22-10.35-2.66-4.37-3.99-9.26-3.99-14.65s1.32-10.28,3.95-14.65c2.63-4.37,6.27-7.81,10.9-10.31,4.63-2.5,9.8-3.75,15.48-3.75,3.58,0,7.23,.49,10.94,1.46,3.71,.98,6.81,2.28,9.28,3.91l1.58,11.14h-.71c-1.11-4.42-3.66-7.89-7.66-10.39-4-2.5-8.45-3.75-13.35-3.75-7,0-12.84,2.49-17.5,7.47s-6.99,11.23-6.99,18.76,2.41,13.84,7.23,18.92c4.82,5.08,11.12,7.62,18.92,7.62s14.15-2.53,19.08-7.58c4.92-5.06,7.39-11.98,7.39-20.78h.79c.05,.63,.08,1.26,.08,1.9Z"/><path class="d" d="M670.15,556.88c-2.21,.58-4.17,.87-5.88,.87s-3.23-.11-4.54-.32c-1.32-.21-2.73-.62-4.23-1.22s-2.91-1.3-4.23-2.09-2.63-1.77-3.95-2.92c-2.42-1.95-4.62-4.06-6.6-6.32-1.98-2.26-5.78-6.52-11.42-12.76-5.64-6.24-9.38-10.39-11.22-12.44-1.84-2.05-3.27-3.13-4.27-3.24v-.79c3.05,0,5.09-.07,6.12-.2,1.03-.13,2.12-.37,3.28-.71,1.16-.34,2.13-.8,2.92-1.38,3.11-2,4.66-5.32,4.66-9.95,0-3.84-.86-6.92-2.57-9.24-1.71-2.32-4.12-3.5-7.23-3.56h-9.8v47.08c0,1.32,.49,2.48,1.46,3.48,.97,1,2.17,1.5,3.59,1.5h.95l.08,.79h-17.3v-.79h1.03c1.32,0,2.48-.47,3.48-1.42,1-.95,1.53-2.11,1.58-3.48v-43.84c-.05-1.37-.57-2.54-1.54-3.52-.97-.97-2.15-1.46-3.52-1.46h-1.03v-.79h21.33c4.63,0,8.36,1.3,11.18,3.91s4.23,6.06,4.23,10.35-1.29,7.98-3.87,11.06c-2.58,3.08-5.74,4.62-9.48,4.62h-.08c1.79,1.9,3.82,4.11,6.08,6.64,9.11,10.06,14.96,16.38,17.54,18.96,2.58,2.58,4.86,4.7,6.83,6.36,1.98,1.66,3.73,2.88,5.25,3.67,3.11,1.69,6.19,2.53,9.24,2.53,.63,0,1.26-.05,1.9-.16v.79Z"/><path class="d" d="M652.53,542.66c1.37,0,2.54-.49,3.52-1.46,.97-.97,1.49-2.15,1.54-3.52v-44.24c0-1.26-.5-2.33-1.5-3.2-1-.87-2.19-1.3-3.56-1.3h-.95l-.08-.79h16.04c1.63,0,3.41-.16,5.33-.47,1.92-.32,3.28-.63,4.07-.95v9.95h-.79v-1.42c0-1.26-.43-2.34-1.3-3.24-.87-.89-1.91-1.37-3.12-1.42h-9.01v24.41h15.01c1.05-.05,1.95-.45,2.69-1.19,.74-.74,1.11-1.66,1.11-2.77v-1.11h.79v12.48h-.79v-1.19c0-1.05-.36-1.95-1.07-2.69-.71-.74-1.59-1.13-2.65-1.19h-15.09v23.62h16.83c3.9,0,6.87-.87,8.93-2.61,2.05-1.74,3.76-4.32,5.13-7.74h.79l-4.58,12.8h-38.31v-.79h1.03Z"/><path class="d" d="M690.13,503.87c-1.63-1.95-2.45-3.88-2.45-5.81s.45-3.58,1.34-4.98c.9-1.4,2.34-2.58,4.35-3.56,2-.97,4.27-1.46,6.79-1.46h32.39c1.63,0,3.44-.16,5.41-.47,1.97-.32,3.36-.63,4.15-.95v9.95l-.79-.08v-1.34c0-1.26-.45-2.36-1.34-3.28-.9-.92-1.95-1.41-3.16-1.46h-15.01v47.32c.05,1.9,.9,3.32,2.53,4.27,.79,.42,1.63,.63,2.53,.63h1.03v.79h-17.3v-.79h1.03c1.37,0,2.54-.47,3.52-1.42,.97-.95,1.49-2.08,1.54-3.4v-47.4h-16.51c-4.21,0-7.27,1.34-9.16,4.03-1,1.37-1.5,2.8-1.5,4.31s.42,3.07,1.26,4.7l-.63,.4Z"/><path class="d" d="M751.36,522.44c-2.74,3.58-4.11,7.45-4.11,11.61,0,4.95,2.08,8.8,6.24,11.53,2.42,1.63,5.17,2.45,8.25,2.45s5.75-.61,8.02-1.82c4.27-2.21,6.66-5.92,7.19-11.14,.05-.37,.08-.74,.08-1.11,0-1.95-.54-4.05-1.62-6.32-1.08-2.26-2.83-4.35-5.25-6.24l-14.22-11.22c-3.11-2.42-4.66-5.56-4.66-9.4s1.24-7.1,3.71-9.76c2.47-2.66,5.82-3.99,10.03-3.99,2.11,0,4.4,.26,6.87,.79h3.16l.16,9.72h-.79c-.05-2.53-.96-4.52-2.73-5.96-1.76-1.45-3.98-2.17-6.64-2.17s-4.89,.88-6.68,2.65c-1.79,1.77-2.69,4.03-2.69,6.79s1.16,5.07,3.48,6.91l14.62,11.53c5.79,4.58,8.69,10.11,8.69,16.59,0,4.85-1.92,9.01-5.77,12.48-3.32,3-7.74,4.5-13.27,4.5-3.37,0-6.37-.63-9.01-1.9-4.95-2.32-7.93-6.27-8.93-11.85-.16-.84-.24-1.91-.24-3.2s.37-3.05,1.11-5.29c.74-2.24,2.16-4.49,4.27-6.75l.71,.55Z"/><path class="d" d="M826.96,506.56c-.21-.68-.32-1.28-.32-1.78s.03-1.07,.08-1.7c.05-.63,.17-1.5,.36-2.61,.18-1.11,.54-2.2,1.07-3.28,.53-1.08,1.13-2.12,1.82-3.12,.68-1,1.57-1.92,2.65-2.77,1.08-.84,2.28-1.58,3.59-2.21,2.79-1.37,6.19-2.05,10.19-2.05,8.06,0,14.63,2.67,19.71,8.02,5.08,5.35,7.62,12.18,7.62,20.5s-3,15.23-9.01,20.74c-6,5.5-13.61,8.25-22.83,8.25s-16.87-2.74-22.95-8.22c-6.08-5.48-9.12-12.59-9.12-21.33,0-5.63,1.32-10.64,3.95-15.01,2.63-4.37,6.4-7.79,11.3-10.27l.47,.71c-3.42,2.26-5.89,5.53-7.39,9.8s-2.25,8.8-2.25,13.59c0,8.9,2.42,15.85,7.27,20.86,4.84,5,11.06,7.5,18.64,7.5s13.79-2.51,18.6-7.54c4.82-5.03,7.23-11.65,7.23-19.87,0-7.11-1.91-13.11-5.73-18.01-3.82-4.9-9.2-7.35-16.16-7.35-3.11,0-5.92,.55-8.45,1.66-4.58,1.95-7.61,5.16-9.08,9.64-.42,1.32-.63,2.45-.63,3.4s.05,1.71,.16,2.29l-.79,.16Z"/><path class="d" d="M921.05,521.25c0-1.05-.36-1.95-1.07-2.69-.71-.74-1.59-1.13-2.65-1.19h-25.28v20.3c0,1.37,.5,2.54,1.5,3.52,1,.98,2.18,1.46,3.55,1.46h1.03v.79h-17.3v-.79h1.03c1.37,0,2.54-.49,3.52-1.46,.97-.97,1.49-2.15,1.54-3.52v-44.24c0-1.26-.51-2.33-1.54-3.2-1.03-.87-2.2-1.3-3.52-1.3h-.95l-.08-.79h23.15c2.26,0,4.27-.18,6-.55,1.74-.37,2.87-.66,3.4-.87v8.93h-.79v-1.19c0-1.05-.37-1.96-1.11-2.73-.74-.76-1.66-1.15-2.76-1.15h-16.67v24.41h25.2c1.05-.05,1.95-.45,2.69-1.19,.74-.74,1.11-1.66,1.11-2.77v-1.11h.79v12.48h-.79v-1.19Z"/></g></g></g><g id="b"><g><path class="e" d="M543.98,331.3c-2.16-3.54-3.64-6.78-5.83-9.43-15.41-18.55-34.59-30.95-58.69-34.94-18.21-3.02-35.88-.46-53.12,5.73-19.75,7.09-37.18,18.09-53.1,31.62-17.86,15.18-33.07,32.74-46.32,52.01-11.37,16.54-20.99,34-29.14,52.41-18.55,41.92-37.73,83.56-56.66,125.32-8.77,19.34-17.55,38.67-26.33,58-.61,1.33-1.27,2.64-2.16,4.5-4.57-2.28-9.1-4.1-13.17-6.65-11.57-7.23-21.69-16.17-29.92-27.11-5.36-7.13-6.68-14.94-3.36-23.35,2.36-5.98,7.84-9.56,14.27-9.44,4.75,.09,9.59,3.58,11.19,8.09,.13,.38,.03,.87,.24,1.18,.4,.63,.94,1.16,1.43,1.74,.59-.62,1.56-1.17,1.7-1.88,.8-3.98,1.44-7.99,.49-12.06-.12-.51-.14-1.05,.23-1.81,.56,.79,1.34,1.51,1.65,2.39,2.24,6.39,1.98,12.53-2.37,18.03-2.41,3.05-5.68,4.6-9.6,4.24-.85-.08-1.62-1.04-2.43-1.59,.61-.61,1.16-1.29,1.83-1.81,.95-.74,2.19-1.18,2.95-2.06,1.84-2.11,2.26-4.57,1.04-7.17-1.18-2.52-4.33-4.15-7.44-3.94-6.57,.44-12.38,6.21-13.06,12.93-.43,4.22,.6,8.11,2.97,11.55,5.38,7.79,12.74,11.45,22.3,10.15,.8-.11,1.6-.21,2.65-.34,2.62,7.36,6.06,14.03,15.26,15.34-.46-.83-.83-1.72-1.38-2.48-2.83-3.97-2.56-7.08,1.19-10.26,1.74-1.48,3.89-2.48,5.66-3.93,2.91-2.38,5.9-4.73,8.43-7.49,4.11-4.49,5.13-10.13,4.31-15.94-1.1-7.77-2.68-15.47-6.15-22.61-.91-1.86-.92-3.52-.14-5.41,4.03-9.74,7.76-19.61,12-29.26,5.59-12.76,11.6-25.33,17.34-38.03,5.29-11.7,10.38-23.5,15.7-35.19,12.93-28.41,28.41-55.47,46.73-80.65,25.73-35.36,58.47-62.13,100.7-76.02,15.79-5.19,31.96-8.26,48.59-8.55,15.82-.28,30.86,3.64,45.32,9.7,15,6.29,28.63,14.73,39.5,27.1,5.94,6.76,10.85,14.19,14.34,22.49,1.14,2.7,1.88,5.58,2.91,8.71,5.03,1.63,10.58,3.27,16.02,5.22,21.38,7.67,42.62,15.71,63.48,24.76,21.02,9.12,42.96,15.6,65.13,21.25,24.94,6.37,50.22,11.1,75.85,13.57,13.47,1.29,27.01,1.79,40.53,2.52,15.89,.86,31.26-2.32,46.47-6.36,15.5-4.1,30.41-9.71,44.29-17.86,7.02-4.12,13.63-8.83,19.69-14.28,17.69-15.89,26.91-35.94,29.05-59.4,.43-4.71,.44-9.46,.6-14.19,.41-11.96-3.15-22.95-8.43-33.46-1.26-2.5-3.04-4.81-4.89-6.94-13.93-16.1-31.58-25.8-52.51-29.05-19.86-3.09-38.89,.4-56.53,10-16.01,8.71-25.38,22.76-30.1,40.03-2.99,10.94-2.57,22.05,.31,32.91,3.3,12.44,10.74,21.79,22.84,26.79,18.74,7.75,36.79,6.29,53.76-4.96,7.68-5.09,13.12-12.05,15.32-21.21,1.09-4.56,.61-9.07-.03-13.85,.47,.8,1.11,1.54,1.37,2.4,4.04,12.97,3.44,25.58-2.91,37.78-3.01,5.79-7.4,10.29-12.6,14.1-25.56,18.72-63.32,14.92-84.91-9.32-19.95-22.39-23.07-48.18-11.2-75.22,11.19-25.5,31.35-41.93,57.75-49.92,32.85-9.94,63.33-3.93,90.39,17.11,40.76,31.71,53.47,90.37,29.79,135.87-11.22,21.56-28.2,37.46-49.36,49.09-16.91,9.29-35.08,14.85-54.09,17.75-34.12,5.19-67.76,1.93-101.09-6.04-33.97-8.13-66.26-20.91-97.77-35.75-19.82-9.34-39.51-18.97-59.35-28.27-12.87-6.03-26.11-11.18-39.72-15.33-1.28-.39-2.57-.73-4.25-1.21,.15,2.03,.23,3.73,.39,5.42,2.41,24.51-5.02,46.04-20.53,64.74-18.21,21.96-41.71,34.45-70.25,36.98-20.86,1.85-40.21-2.68-57.07-15.39-19.74-14.88-29.8-34.98-30.18-59.69-.34-21.43,6.56-40.22,22.01-55.33,28.92-28.3,77.9-28.18,105.55,6.67,1.47,1.85,2.91,2.75,5.34,2.82,4.86,.16,9.71,.76,14.56,1.17,1.31,.11,2.62,.16,4.72,.28Zm-17.7,4.64c-.12,.77-.27,1.07-.18,1.28,.5,1.25,1.04,2.49,1.59,3.72,4.8,10.83,6.27,22.03,3.87,33.68-4.74,22.97-24.82,38.85-47.92,38-22.16-.81-35.67-19.39-32.06-40.31,1.96-11.38,8.21-20.16,17.19-27.11,8.05-6.23,17.28-10.01,27.11-12.39,3.37-.81,6.78-1.44,10.63-2.24-5.31-10.2-11.79-18.5-22.93-22.03-6.78-2.15-13.74-3.04-20.83-2.65-25.67,1.41-44.77,13.33-56.47,36.26-7.73,15.14-9.37,31.39-5.32,47.81,5.64,22.88,18.93,39.57,41.8,47.39,5.45,1.86,11.26,3,17,3.64,21.75,2.42,41.53-2.9,58.27-17.11,23.66-20.09,32.06-46.36,29.4-76.68-.26-2.94-.89-5.85-1.42-9.23-6.69-.69-13.22-1.36-19.73-2.03Zm-16.94,1c-2.16,.31-3.76,.48-5.34,.77-10.89,2-21.2,5.48-30.17,12.19-7.48,5.6-12.86,12.69-15.02,21.95-2.66,11.43,1.34,23.12,10.17,29.25,5.37,3.73,11.2,4.47,17.29,1.79,4.9-2.16,9.18-5.27,12.66-9.29,14.42-16.69,16.42-35.68,10.41-56.66Z"/><path class="e" d="M160.07,457.42c3.69-3.91,6.86-7.84,10.59-11.11,9.06-7.94,19.57-11.35,31.6-8.69,2.38,.53,5.12,.71,6.53,3.17-.65,1.86-1.87,1.31-3.08,1.3-3.48-.02-7.05-.29-10.43,.37-5.76,1.13-8.5,4.67-8.98,10.5-.09,1.08-.07,2.17-.04,3.25,.19,5.53-2.35,9.57-6.84,12.55-.11,.07-.22,.16-.34,.23-5.01,3.15-10.35,5.98-12.04,13.07-2.7-4.14-1.88-8.05-1.65-11.56-1.79-.91-2.48-.05-2.97,.97-1.33,2.8-3.01,5.53-3.8,8.49-2.1,7.82-3.88,15.73-5.62,23.64-.36,1.64-.05,3.42-.05,5.05,2.21,1.01,2.85-.39,3.48-1.8,2.77-6.22,7.59-10.8,12.34-15.44,.25-.25,.67-.32,1.28-.58,.37,1.52,.72,2.9,1.16,4.68,2.01-1.18,3.84-2.25,6.44-3.77-1.85,5.95-3.42,11.23-7.01,15.57-2.58,3.12-5.31,6.18-8.32,8.88-6.93,6.21-10.74,14.13-13.25,22.85-.22,.77-.28,1.6-.34,2.4-.06,.79-.01,1.58-.01,2.86,.79-.51,1.38-.66,1.54-1.01,3.13-7.13,9.03-11.45,15.64-14.74,9.86-4.91,20.27-6.81,31.07-3.36,11.12,3.55,17.88,11.32,20.68,22.53,1.69,6.75-2.05,20.42-6.96,25-7.44,6.93-16.36,9.97-26.49,8.57-8.14-1.13-13.38-9.82-10.74-17.36,1.36-3.91,4.13-6.32,8.21-7.01,2.78-.47,5.02,1.24,4.68,3.61-.17,1.15-1.07,2.47-2.04,3.16-1.31,.94-2.17-.28-2.85-1.35-.21-.33-.48-.61-.8-1.01-2.37,.85-2.3,2.84-2.14,4.67,.28,3.14,2.42,5.42,5.55,6.22,4.06,1.03,7.68,.16,11.18-2.13,5.97-3.92,8.23-10.4,7.58-17.45-1.04-11.29-15.65-19.41-26.54-16.2-4.17,1.23-5.31,1.66-8.32,4.12,5.05-.95,9.63-1.27,14.2,.01,4.69,1.31,7.87,4.15,9.17,9.18-.63-.26-1.39-.39-1.89-.81-8.68-7.36-20.9-5.76-27.33,3.57-5.16,7.48-5.48,15.58-2.11,23.58,4.49,10.65,10.66,20.4,18.75,28.75,10.25,10.57,23.19,16.31,37.36,19.13,12.49,2.49,25.17,3.74,37.96,2.49,2.09-.2,4.17-.45,6.32-.36-3.85,2.7-8.2,3.86-12.73,4.43-11.64,1.46-23.21,.45-34.8-.86-10.03-1.14-19.65-3.58-28.86-7.76-6.25-2.83-11.92-6.43-16.5-11.55-4.51-5.03-8.79-10.27-13.34-15.26-4.92-5.39-9.8-10.86-15.12-15.84-6.67-6.24-14.53-9.8-24.04-8.52-1.41,.19-3.65,.95-4.12-1.31-.46-2.2,1.66-2.91,3.23-3.56,5.12-2.14,10.53-2.32,15.97-1.98,2.55,.16,5.09,.58,7.93,.92-1.23-3.09-3.33-5.32-5.23-7.69-1.13-1.41-3.28-2.61-2.41-4.76,.87-2.14,3.19-1.55,5.02-1.72,.26-.02,.51-.14,.76-.22,.11-.22,.35-.49,.3-.65-3.35-8.97-2.21-18.12-1.08-27.27,.59-4.83,1.43-9.64,1.71-14.48,.17-2.92-.43-5.9-.83-8.83-.18-1.36-.74-3.01,.81-3.55,1.05-.36,2.75,.01,3.68,.7,1.67,1.24,2.99,2.96,4.75,4.78,.39-3.66-.35-6.93-1.08-10.12-.72-3.15-1.87-6.2-2.92-9.27-.54-1.57-1.2-2.99,.29-4.47,1.41-1.42,3.04-1.73,4.84-1.29,1.15,.28,2.24,.83,4.04,1.53-.48-4.12-.63-7.85-1.4-11.45-1.73-8.11-5.74-15.13-11.15-21.35-7.1-8.17-16.96-9.14-25.44-5.2-2.2,1.02-4.3,2.28-6.42,3.47-2.51,1.42-4.7,3.18-6.03,5.84-.34,.68-.96,1.21-1.51,1.89-2.64-4.81-.42-11.73,5.99-19.22-9.36,1.05-15.43,10.37-12.43,19.12,.26,.76,.61,1.52,1.06,2.18,1.84,2.75,4.14,3.16,6.87,1.26,.74-.52,1.46-1.07,2.44-1.8,1.59,3.42,2.47,6.51,.39,9.78-.51,.79-.9,1.67-1.29,2.53-.49,1.08-1.37,2.29,0,3.25,1.42,.98,2.29-.19,2.93-1.21,1.99-3.16,5.21-4.62,8.34-6.22,.6-.31,1.25-.55,1.9-.69,3.43-.71,6.24,.98,6.98,4.41,.39,1.8,.37,3.69,.55,5.77-3.88,.36-6.64,2.18-9.24,4.37-2.76,2.32-5.84,3.87-9.56,3.93-5.03,.08-7.47-1.64-8.93-6.45-.16-.51-.25-1.04-.36-1.52-2.9-1.29-5.79-2.4-8.52-3.81-5.51-2.84-8.14-7.43-8.72-13.65-1.43-15.32,8.19-33.21,31.78-34.44,10.75-.56,20.52,2.71,29.63,8.31,7.87,4.83,13.84,11.14,17.01,19.96,1.32,3.66,3.01,7.19,4.6,10.91Z"/><path class="e" d="M21.09,371.47v-3.79H155.11v3.83c-1.6,.07-3.17,.13-4.74,.2-10.35,.47-17.61,8.76-16.38,19.04,.4,3.31,1.32,6.62,2.47,9.76,1.95,5.32,4.28,10.51,6.42,15.76,.49,1.21,.87,2.46,1.6,4.54-11.63-7.56-23.4-11.8-36.57-10.78-13.18,1.02-24.12,6.55-32.82,17.21-.72-1.31-1.34-2.28-1.82-3.32-4.11-8.82-8.12-17.68-12.31-26.46-4.8-10.09-11.94-17.95-22.3-22.61-4.37-1.96-8.9-3.16-13.72-3.17-1.19,0-2.38-.11-3.84-.19Z"/><path class="e" d="M143.42,469.64c-3.29,2.59-5.93,4.64-8.54,6.73-1.6,1.28-1.89,2.81-.91,4.67,1.2,2.25,2.28,4.57,3.63,7.3-2.01-.13-3.66-.34-5.29-.31-3.77,.07-4.76,1.39-3.38,4.76,2.75,6.69,2.69,13.7,2.97,21.37-6.18-12.05-12.03-23.46-17.97-35.03,3.51-2.39,6.67-.13,10.12,1.66,.52-.95,1.1-1.67,1.31-2.49,.76-2.87,1.53-5.75,2.05-8.66,.61-3.38,.26-6.74-1.02-9.96-2.4-6.05-7.86-9.13-14.27-8.04-.8,.14-1.58,.51-2.37,.52-1,.02-2.45,.15-2.91-.41-1.05-1.28-.1-2.55,.97-3.49,5.75-5.03,12.37-7.36,19.89-5.34,7.29,1.96,11.74,6.91,13.23,14.39,.87,4.34,1.75,8.67,2.48,12.34Z"/><path class="e" d="M165.84,621.62c10.99,8.11,22.76,14.52,36.56,16.88-3.71,10.96-7.36,21.74-11.17,32.99-1.34,.48-2.89,.43-3.95-1.87-7.28-15.82-14.63-31.61-21.96-47.4,.17-.2,.35-.4,.52-.6Z"/><path class="e" d="M100.66,482.93c2.95-.15,5.34-.28,8.3-.43,1.77,3.69,3.8,7.61,5.55,11.65,3.87,8.91,7.58,17.89,11.38,26.82,1.23,2.88,1.97,5.7,1.33,8.97-.52,2.68-.11,5.53-.79,8.53-8.56-18.44-17.12-36.88-25.78-55.54Z"/><path class="e" d="M181.07,499.04c3.47,7.26,6.63,13.88,10.04,21.03-6.94,.4-13.35,.77-20.76,1.2,2.61-4.1,4.98-7.17,6.62-10.58,1.65-3.43,2.57-7.2,4.1-11.65Z"/><path class="e" d="M221.77,557.22c2.25,8.28,.17,14.92-5.4,20.5-1.8,1.8-3.97,3.25-6.07,4.71-3.07,2.13-5.78,4.47-6.78,8.27-.08,.32-.48,.56-1.43,1.6,.44-2.18,.55-3.49,.97-4.69,1.26-3.65,3.24-6.93,6.32-9.26,6.36-4.82,10.23-11.03,11.38-18.93,.06-.4,.18-.79,.33-1.17,.09-.24,.28-.44,.69-1.03Z"/></g></g><g id="c"><g><path class="e" d="M200.15,694.65h1.47l11.65,29.73c.47,1.2,1.43,1.8,2.88,1.8h1.01v1.65h-12.96v-1.65h1.03c1.35,0,2.3-.15,2.86-.44,.38-.2,.57-.52,.57-.94,0-.25-.05-.51-.15-.79l-2.69-6.9h-12.85l-1.51,3.96c-.4,1.05-.59,1.89-.59,2.5,0,.72,.33,1.33,1,1.85s1.64,.77,2.91,.77h1.1v1.65h-11.78v-1.65c1.26,0,2.26-.27,2.99-.82,.73-.55,1.41-1.59,2.02-3.13l11.05-27.58Zm-.64,6.26l-5.83,14.48h11.48l-5.64-14.48Z"/><path class="e" d="M232.17,707.24l5.89-.37c.32,1.53,.53,2.99,.64,4.38,1.12-1.6,2.23-2.73,3.35-3.39,1.11-.66,2.34-.98,3.68-.98,1.42,0,2.6,.37,3.52,1.12s1.64,1.96,2.13,3.63c.98-1.59,2.07-2.78,3.27-3.57,1.2-.79,2.51-1.18,3.93-1.18,1.87,0,3.28,.56,4.21,1.67,1.2,1.46,1.8,3.35,1.8,5.67v10.22c0,.62,.15,1.03,.46,1.25,.41,.34,1.02,.5,1.82,.5h1.03v1.65h-10.35v-1.65h1.03c.88,0,1.49-.15,1.85-.44s.53-.73,.53-1.32v-10.23c0-1.53-.37-2.71-1.12-3.54-.75-.84-1.72-1.25-2.94-1.25-.92,0-1.75,.25-2.5,.74-.75,.49-1.33,1.19-1.75,2.1-.63,1.31-.94,2.41-.94,3.32v8.87c0,.6,.16,1.05,.48,1.33,.32,.29,.82,.43,1.49,.43h1.41v1.65h-10.5v-1.65h1.19c.75,0,1.3-.15,1.67-.44,.37-.29,.55-.67,.55-1.12v-9.49c0-2.01-.36-3.46-1.07-4.37s-1.67-1.36-2.87-1.36c-1.55,0-2.75,.53-3.58,1.58-1.19,1.49-1.78,3.24-1.78,5.23v8.22c0,.63,.14,1.06,.42,1.3,.4,.31,1.01,.46,1.85,.46h1.05v1.65h-10.37v-1.65h1.56c.59,0,1.04-.15,1.35-.44,.31-.29,.47-.67,.47-1.12v-13.49c0-.75-.19-1.3-.57-1.67s-1.14-.6-2.29-.7v-1.52Z"/><path class="e" d="M270.45,707.24h9.87v1.49h-.92c-.86,0-1.45,.11-1.77,.34-.31,.23-.47,.55-.47,.98,0,.19,.04,.38,.13,.57l5.74,12.37,4.26-10.26c.31-.73,.46-1.45,.46-2.15,0-.54-.21-.96-.64-1.26-.42-.3-1.27-.49-2.55-.58v-1.49h8.57v1.49c-1.66,.16-2.77,.9-3.34,2.22l-7.62,17.72c-1.29,3.01-2.59,5.08-3.9,6.21-1.32,1.14-2.73,1.71-4.24,1.71-1.1,0-1.98-.3-2.65-.9s-1-1.34-1-2.22c0-.66,.21-1.2,.62-1.62,.41-.43,.92-.64,1.54-.64,.56,0,1.03,.18,1.41,.55,.38,.37,.57,.8,.57,1.32,0,.16-.03,.38-.09,.66-.06,.22-.09,.38-.09,.48,0,.35,.23,.53,.68,.53,.48,0,1.03-.18,1.64-.53s1.18-.92,1.7-1.69,1.45-2.5,2.77-5.16l-7.81-16.75c-.28-.58-.62-1.02-1.04-1.31-.42-.29-1.03-.48-1.83-.58v-1.49Z"/><path class="e" d="M297.56,720.07c.91,2.53,1.95,4.29,3.13,5.26,1.18,.97,2.63,1.46,4.36,1.46,1.6,0,2.82-.35,3.68-1.04,.86-.7,1.29-1.58,1.29-2.65,0-.62-.16-1.15-.47-1.61-.32-.46-.75-.81-1.31-1.03-.56-.23-2-.56-4.34-1-2.23-.44-3.79-.9-4.67-1.38s-1.57-1.15-2.06-2c-.49-.85-.74-1.77-.74-2.77,0-1.51,.51-2.88,1.52-4.11,1.31-1.57,3.13-2.35,5.48-2.35,1.79,0,3.45,.56,4.97,1.69l1.45-1.54h.9l.57,7.34h-1.47c-.65-2.08-1.52-3.58-2.62-4.49-1.1-.92-2.46-1.37-4.07-1.37-1.39,0-2.49,.34-3.28,1.02-.79,.68-1.19,1.51-1.19,2.49,0,.86,.37,1.58,1.1,2.15,.72,.59,2.13,1.05,4.23,1.39,2.44,.41,4.02,.76,4.75,1.04,1.2,.44,2.13,1.12,2.79,2.03,.66,.92,.99,2.03,.99,3.35,0,1.82-.72,3.35-2.15,4.61-1.43,1.26-3.25,1.89-5.44,1.89-2.04,0-3.93-.67-5.68-2.02l-1.61,1.85h-1.17l-.44-8.2h1.47Z"/><path class="e" d="M321.34,698.84h1.47v8.39h6.66v2.02h-6.66v13.21c0,1.14,.27,2.02,.81,2.63,.54,.61,1.23,.91,2.07,.91,1,0,1.85-.46,2.55-1.38s1.11-2.45,1.23-4.57h1.47c-.09,2.74-.71,4.77-1.87,6.1-1.16,1.33-2.66,1.99-4.5,1.99-1.7,0-3.03-.46-3.99-1.4-.96-.93-1.44-2.15-1.44-3.66v-13.82h-3.58v-1.54c1.63-.28,2.87-.96,3.73-2.04,1.26-1.63,1.95-3.9,2.05-6.83Z"/><path class="e" d="M333.03,707.24l8.2-.24v17.71c0,.48,.12,.83,.35,1.03,.34,.29,.76,.44,1.27,.44h2.33v1.65h-11.71v-1.65h2.18c.64,0,1.12-.16,1.42-.47,.3-.32,.45-.77,.45-1.37v-12.96c0-.82-.23-1.44-.7-1.86-.47-.42-1.16-.63-2.09-.63h-1.69v-1.65Zm5.71-12.28c.66,0,1.24,.25,1.74,.75s.75,1.08,.75,1.76-.24,1.23-.73,1.71-1.06,.72-1.74,.72-1.26-.25-1.75-.74c-.49-.49-.74-1.07-.74-1.73s.25-1.24,.75-1.74,1.07-.75,1.71-.75Z"/><path class="e" d="M363.33,721.72l1.43,.42c-1.14,4.21-3.66,6.31-7.56,6.31-2.86,0-5.19-.95-7.01-2.83-1.82-1.89-2.72-4.4-2.72-7.54,0-3.63,1-6.45,2.99-8.45,1.99-2,4.34-3,7.03-3,2.02,0,3.69,.56,5.01,1.67s1.98,2.35,1.98,3.71c0,.82-.25,1.5-.74,2.03-.49,.54-1.07,.8-1.75,.8s-1.22-.23-1.67-.68c-.45-.45-.68-1-.68-1.64s.25-1.25,.75-1.84c.23-.28,.35-.5,.35-.66,0-.42-.29-.84-.86-1.24s-1.35-.6-2.33-.6c-1.79,0-3.14,.65-4.06,1.95-1.32,1.89-1.98,4.38-1.98,7.46s.59,5.17,1.76,6.68c1.17,1.51,2.67,2.27,4.48,2.27,2.5,0,4.37-1.61,5.58-4.83Z"/><path class="e" d="M389.32,725.56l.79,1.23c-1.07,1.1-2.26,1.65-3.56,1.65-1,0-1.83-.27-2.52-.81-.68-.54-1.28-1.49-1.79-2.86-1.39,1.47-2.61,2.44-3.67,2.93-1.05,.49-2.32,.74-3.8,.74-2.11,0-3.71-.45-4.81-1.36s-1.65-2.07-1.65-3.49c0-2.14,1.26-3.92,3.77-5.33,2.51-1.41,5.86-2.35,10.03-2.82v-3.12c0-1.11-.45-2.07-1.34-2.86s-2.03-1.19-3.41-1.19c-1.27,0-2.37,.26-3.3,.79-.66,.4-.99,.78-.99,1.17,0,.22,.18,.56,.53,1.03,.42,.59,.64,1.11,.64,1.56,0,.66-.21,1.2-.64,1.62-.42,.42-.98,.63-1.67,.63-.73,0-1.34-.25-1.83-.75-.49-.5-.74-1.13-.74-1.91,0-1.45,.82-2.78,2.45-3.98,1.63-1.2,3.78-1.8,6.43-1.8,2.45,0,4.31,.53,5.6,1.58,1.29,1.07,1.93,2.37,1.93,3.89v11.25c0,1,.16,1.73,.48,2.2,.32,.48,.74,.72,1.25,.72,.57,0,1.17-.23,1.8-.7Zm-7.21-8.68c-3.72,.51-6.36,1.35-7.91,2.5-1.16,.88-1.74,2.12-1.74,3.74,0,1.13,.3,2.01,.9,2.65,.6,.64,1.38,.96,2.35,.96,1.73,0,3.23-.66,4.49-1.97,1.27-1.31,1.9-2.96,1.9-4.93v-2.94Z"/><path class="e" d="M400.37,694.95v29.84c0,.41,.12,.73,.37,.94,.37,.29,.81,.44,1.34,.44h2.18v1.65h-11.67v-1.65h2.07c.67,0,1.18-.16,1.51-.48,.33-.32,.49-.78,.49-1.36v-25.05c0-.73-.2-1.27-.59-1.6-.54-.47-1.21-.7-2-.7h-1.85v-1.65l8.15-.37Z"/><path class="e" d="M424.7,698.84h1.47v8.39h6.66v2.02h-6.66v13.21c0,1.14,.27,2.02,.81,2.63,.54,.61,1.23,.91,2.07,.91,1,0,1.85-.46,2.55-1.38s1.11-2.45,1.23-4.57h1.47c-.09,2.74-.71,4.77-1.87,6.1-1.16,1.33-2.66,1.99-4.5,1.99-1.7,0-3.03-.46-3.99-1.4-.96-.93-1.44-2.15-1.44-3.66v-13.82h-3.58v-1.54c1.63-.28,2.87-.96,3.73-2.04,1.26-1.63,1.95-3.9,2.05-6.83Z"/><path class="e" d="M446.49,706.62c2.77,0,5.09,1,6.98,3,1.88,2,2.82,4.63,2.82,7.9,0,2.26-.42,4.18-1.26,5.77-.84,1.59-2.04,2.85-3.6,3.77-1.56,.92-3.24,1.38-5.04,1.38-2.67,0-4.93-1.01-6.78-3.03-1.85-2.02-2.78-4.64-2.78-7.87s.93-5.87,2.79-7.89,4.15-3.03,6.88-3.03Zm0,1.56c-1.64,0-2.99,.74-4.04,2.23-1.05,1.49-1.58,3.83-1.58,7.04s.52,5.65,1.57,7.16c1.05,1.51,2.4,2.26,4.05,2.26s3.1-.75,4.16-2.26c1.06-1.51,1.59-3.98,1.59-7.41,0-3.18-.52-5.48-1.57-6.9-1.05-1.42-2.44-2.13-4.19-2.13Z"/><path class="e" d="M458.98,707.24h9.03v1.52h-1.19c-.59,0-1,.09-1.25,.27-.25,.18-.37,.43-.37,.74s.07,.67,.22,1.03l4.64,11.65,4.01-11.06c-.56-1.18-1.05-1.91-1.48-2.2s-1.17-.43-2.24-.43v-1.52h9.94v1.52h-.83c-.76,0-1.29,.1-1.57,.3-.29,.2-.43,.47-.43,.82,0,.26,.07,.57,.2,.92l4.68,11.65,3.71-10.35c.25-.69,.37-1.27,.37-1.76s-.19-.86-.57-1.12c-.38-.26-1.1-.42-2.15-.46v-1.52h8.01v1.52c-1,.16-1.75,.47-2.26,.93s-.94,1.17-1.3,2.12l-5.96,16.64h-1.3l-5.79-14.4-5.18,14.4h-1.27l-7.39-18.19c-.23-.57-.5-.96-.79-1.15-.29-.2-.79-.31-1.49-.34v-1.52Z"/><path class="e" d="M494.29,707.24l6.83-.42c.28,1.29,.48,2.8,.62,4.53,.92-1.49,2.01-2.61,3.26-3.36,1.25-.75,2.67-1.12,4.25-1.12,1.36,0,2.5,.27,3.43,.8,.92,.54,1.66,1.38,2.22,2.54s.84,2.45,.84,3.89v10.02c0,.75,.17,1.28,.5,1.59,.34,.31,.9,.47,1.69,.47h1.45v1.65h-10.85v-1.65h1.03c.97,0,1.64-.15,2.02-.46s.57-.77,.57-1.38v-8.81c0-1.92-.29-3.34-.88-4.26-.82-1.32-2.07-1.98-3.74-1.98s-3.04,.67-4.14,2c-1.11,1.33-1.66,3.07-1.66,5.21v7.62c0,.75,.17,1.28,.52,1.59,.34,.31,.91,.47,1.7,.47h1.43v1.65h-10.9v-1.65h1.43c.72,0,1.26-.15,1.64-.44,.37-.29,.56-.66,.56-1.1v-13.29c0-.88-.24-1.54-.71-2-.48-.45-1.16-.68-2.05-.68h-1.05v-1.43Z"/><path class="e" d="M556.03,725.56l.79,1.23c-1.07,1.1-2.26,1.65-3.56,1.65-1,0-1.83-.27-2.52-.81-.68-.54-1.28-1.49-1.79-2.86-1.39,1.47-2.62,2.44-3.67,2.93-1.05,.49-2.32,.74-3.8,.74-2.11,0-3.71-.45-4.81-1.36s-1.65-2.07-1.65-3.49c0-2.14,1.26-3.92,3.77-5.33,2.51-1.41,5.86-2.35,10.03-2.82v-3.12c0-1.11-.45-2.07-1.34-2.86s-2.03-1.19-3.41-1.19c-1.27,0-2.37,.26-3.29,.79-.66,.4-.99,.78-.99,1.17,0,.22,.18,.56,.53,1.03,.42,.59,.64,1.11,.64,1.56,0,.66-.21,1.2-.64,1.62-.42,.42-.98,.63-1.67,.63-.73,0-1.34-.25-1.83-.75-.49-.5-.74-1.13-.74-1.91,0-1.45,.82-2.78,2.45-3.98,1.63-1.2,3.78-1.8,6.43-1.8,2.45,0,4.31,.53,5.6,1.58,1.29,1.07,1.93,2.37,1.93,3.89v11.25c0,1,.16,1.73,.48,2.2,.32,.48,.74,.72,1.25,.72,.57,0,1.17-.23,1.8-.7Zm-7.21-8.68c-3.72,.51-6.36,1.35-7.91,2.5-1.16,.88-1.74,2.12-1.74,3.74,0,1.13,.3,2.01,.9,2.65,.6,.64,1.38,.96,2.35,.96,1.73,0,3.23-.66,4.49-1.97,1.27-1.31,1.9-2.96,1.9-4.93v-2.94Z"/><path class="e" d="M559,707.24h9.03v1.52h-1.19c-.59,0-1,.09-1.25,.27-.25,.18-.37,.43-.37,.74s.07,.67,.22,1.03l4.64,11.65,4.01-11.06c-.56-1.18-1.05-1.91-1.48-2.2s-1.17-.43-2.24-.43v-1.52h9.94v1.52h-.83c-.76,0-1.29,.1-1.57,.3-.29,.2-.43,.47-.43,.82,0,.26,.07,.57,.2,.92l4.68,11.65,3.71-10.35c.25-.69,.37-1.27,.37-1.76s-.19-.86-.57-1.12c-.38-.26-1.1-.42-2.15-.46v-1.52h8.01v1.52c-1,.16-1.75,.47-2.26,.93s-.94,1.17-1.3,2.12l-5.96,16.64h-1.3l-5.79-14.4-5.18,14.4h-1.27l-7.39-18.19c-.23-.57-.5-.96-.79-1.15-.29-.2-.79-.31-1.49-.34v-1.52Z"/><path class="e" d="M616.06,725.56l.79,1.23c-1.07,1.1-2.26,1.65-3.56,1.65-1,0-1.83-.27-2.52-.81-.68-.54-1.28-1.49-1.79-2.86-1.39,1.47-2.62,2.44-3.67,2.93-1.05,.49-2.32,.74-3.8,.74-2.11,0-3.71-.45-4.81-1.36s-1.65-2.07-1.65-3.49c0-2.14,1.26-3.92,3.77-5.33,2.51-1.41,5.86-2.35,10.03-2.82v-3.12c0-1.11-.45-2.07-1.34-2.86s-2.03-1.19-3.41-1.19c-1.27,0-2.37,.26-3.29,.79-.66,.4-.99,.78-.99,1.17,0,.22,.18,.56,.53,1.03,.42,.59,.64,1.11,.64,1.56,0,.66-.21,1.2-.64,1.62-.42,.42-.98,.63-1.67,.63-.73,0-1.34-.25-1.83-.75-.49-.5-.74-1.13-.74-1.91,0-1.45,.82-2.78,2.45-3.98,1.63-1.2,3.78-1.8,6.43-1.8,2.45,0,4.31,.53,5.6,1.58,1.29,1.07,1.93,2.37,1.93,3.89v11.25c0,1,.16,1.73,.48,2.2,.32,.48,.74,.72,1.25,.72,.57,0,1.17-.23,1.8-.7Zm-7.21-8.68c-3.72,.51-6.36,1.35-7.91,2.5-1.16,.88-1.74,2.12-1.74,3.74,0,1.13,.3,2.01,.9,2.65,.6,.64,1.38,.96,2.35,.96,1.73,0,3.23-.66,4.49-1.97,1.27-1.31,1.9-2.96,1.9-4.93v-2.94Z"/><path class="e" d="M618.94,707.24l8.2-.24v17.71c0,.48,.12,.83,.35,1.03,.34,.29,.76,.44,1.27,.44h2.33v1.65h-11.71v-1.65h2.18c.64,0,1.12-.16,1.42-.47,.3-.32,.45-.77,.45-1.37v-12.96c0-.82-.23-1.44-.7-1.86-.47-.42-1.16-.63-2.09-.63h-1.69v-1.65Zm5.71-12.28c.66,0,1.24,.25,1.74,.75s.75,1.08,.75,1.76-.24,1.23-.73,1.71c-.48,.48-1.06,.72-1.74,.72s-1.26-.25-1.75-.74c-.49-.49-.74-1.07-.74-1.73s.25-1.24,.75-1.74c.5-.5,1.07-.75,1.71-.75Z"/><path class="e" d="M638.93,698.84h1.47v8.39h6.66v2.02h-6.66v13.21c0,1.14,.27,2.02,.81,2.63,.54,.61,1.23,.91,2.07,.91,1,0,1.85-.46,2.55-1.38s1.11-2.45,1.23-4.57h1.47c-.09,2.74-.71,4.77-1.87,6.1-1.16,1.33-2.66,1.99-4.5,1.99-1.7,0-3.03-.46-3.99-1.4-.96-.93-1.44-2.15-1.44-3.66v-13.82h-3.58v-1.54c1.63-.28,2.87-.96,3.73-2.04,1.26-1.63,1.95-3.9,2.05-6.83Z"/><path class="e" d="M653.5,720.07c.91,2.53,1.95,4.29,3.13,5.26,1.18,.97,2.63,1.46,4.36,1.46,1.6,0,2.82-.35,3.68-1.04,.86-.7,1.29-1.58,1.29-2.65,0-.62-.16-1.15-.47-1.61-.32-.46-.75-.81-1.31-1.03-.56-.23-2-.56-4.34-1-2.23-.44-3.79-.9-4.67-1.38-.88-.48-1.56-1.15-2.06-2-.49-.85-.74-1.77-.74-2.77,0-1.51,.51-2.88,1.52-4.11,1.31-1.57,3.13-2.35,5.48-2.35,1.79,0,3.45,.56,4.97,1.69l1.45-1.54h.9l.57,7.34h-1.47c-.65-2.08-1.52-3.58-2.62-4.49-1.1-.92-2.46-1.37-4.07-1.37-1.39,0-2.49,.34-3.28,1.02-.79,.68-1.19,1.51-1.19,2.49,0,.86,.37,1.58,1.1,2.15,.72,.59,2.13,1.05,4.23,1.39,2.44,.41,4.02,.76,4.75,1.04,1.2,.44,2.13,1.12,2.79,2.03,.66,.92,.99,2.03,.99,3.35,0,1.82-.72,3.35-2.15,4.61-1.43,1.26-3.25,1.89-5.45,1.89-2.04,0-3.93-.67-5.68-2.02l-1.61,1.85h-1.17l-.44-8.2h1.47Z"/></g><text/></g></svg>