<svg width="256" height="57" viewBox="0 0 256 57" fill="none" xmlns="http://www.w3.org/2000/svg">
<g clip-path="url(#clip0_20_3970)">
<path d="M40.6206 15.8519C41.2185 15.8458 41.8162 15.8742 42.4108 15.937V16.3568C40.803 16.3925 39.2299 16.8307 37.8363 17.6311C36.3888 18.5091 35.359 19.3202 34.7471 20.0643C34.1372 20.8125 33.6523 21.4238 33.2985 21.8892C32.9031 22.4196 32.5532 22.9822 32.2525 23.5711C31.7137 24.5626 31.2166 25.54 30.7612 26.5031L19.3374 51.4126C18.0342 54.2331 17.3429 56.0955 17.2636 56.9998H16.8794L3.96426 29.2434C3.59357 28.5045 3.03526 27.8753 2.34491 27.4186C1.7485 27.0302 1.05354 26.8192 0.341313 26.8103H-0.000244141V26.3936H13.5553V26.8194H13.2137C12.9533 26.7988 12.6918 26.8402 12.4505 26.9401C12.2093 27.0401 11.9953 27.1957 11.8262 27.3942C11.5612 27.6958 11.4045 28.0767 11.3809 28.477C11.3808 28.8237 11.4385 29.168 11.5517 29.4959L18.7976 47.0542L27.6201 26.5213C28.9559 23.3765 30.5183 21.0102 32.3074 19.4226C34.9524 17.0421 37.7235 15.8519 40.6206 15.8519Z" fill="#FED395"/>
<path d="M58.2657 55.7254H58.6499V56.1512H45.0547V55.7254H45.439C45.6994 55.746 45.961 55.7046 46.2022 55.6047C46.4434 55.5047 46.6574 55.3491 46.8266 55.1506C47.0898 54.8495 47.2453 54.4697 47.2688 54.0709C47.2673 53.7203 47.1947 53.3737 47.0553 53.052L44.9693 47.8207H34.9941L32.777 53.052C32.6417 53.3825 32.5693 53.7352 32.5635 54.0922C32.5903 54.4859 32.7481 54.8594 33.0118 55.1536C33.1874 55.3549 33.4082 55.512 33.6562 55.6119C33.9043 55.7118 34.1725 55.7517 34.439 55.7285H34.7806V56.1543H25.6592V55.7285H26.0434C26.7412 55.7122 27.4204 55.5015 28.0043 55.1202C28.6959 54.6819 29.2555 54.0649 29.6237 53.3348L39.4709 31.1018C40.8046 28.2975 41.5162 26.4422 41.6056 25.5359H41.9899L54.6488 53.2497C55.0116 54.0004 55.5711 54.6393 56.2682 55.0989C56.8598 55.4949 57.5533 55.7125 58.2657 55.7254ZM35.7199 46.0323H44.2588L40.1235 35.5757L35.7199 46.0323Z" fill="#FED395"/>
<path d="M59.6716 55.7254C60.0248 55.7309 60.3753 55.6641 60.7016 55.5291C61.0278 55.3942 61.3229 55.1939 61.5685 54.9407C62.0831 54.4428 62.3819 53.7638 62.401 53.0489V29.4958C62.3819 28.781 62.0831 28.102 61.5685 27.6041C61.3229 27.3509 61.0278 27.1506 60.7016 27.0156C60.3753 26.8807 60.0248 26.8139 59.6716 26.8194H59.1196V26.3936H72.0774L72.0348 26.8194H71.5224C71.1663 26.8156 70.8131 26.883 70.4836 27.0178C70.1541 27.1526 69.8551 27.352 69.6042 27.6041C69.3447 27.846 69.1386 28.1391 68.999 28.4648C68.8593 28.7905 68.7892 29.1416 68.793 29.4958V54.3233H74.3769C76.4547 54.3233 78.196 53.7282 79.6008 52.5379C81.0057 51.3477 82.0497 49.6617 82.7328 47.48H83.1597L81.1988 56.1512H59.1196V55.7254H59.6716Z" fill="#FED395"/>
<path d="M85.6726 55.7252C86.0258 55.7307 86.3763 55.6639 86.7026 55.529C87.0288 55.394 87.3239 55.1937 87.5694 54.9405C88.0841 54.4426 88.3829 53.7636 88.402 53.0488V29.3679C88.3787 28.9102 88.237 28.4662 87.9906 28.0793C87.7442 27.6923 87.4016 27.3756 86.9961 27.1598C86.5904 26.9378 86.1354 26.8207 85.6726 26.8192H85.1206V26.3934H101.445C102.416 26.3856 103.385 26.3002 104.342 26.1379C105.096 26.0393 105.839 25.8681 106.559 25.627V33.0664H106.126V32.5584C106.152 31.9955 106.066 31.433 105.872 30.9036C105.678 30.3742 105.381 29.8884 104.998 29.4744C104.187 28.6713 103.091 28.2208 101.948 28.2213H94.794V40.5909H100.421C100.905 40.5924 101.384 40.4974 101.831 40.3115C102.278 40.1256 102.682 39.8524 103.022 39.5082C103.357 39.1702 103.621 38.768 103.796 38.3258C103.972 37.8836 104.056 37.4105 104.043 36.9351V36.5549H104.47V46.3727H104.043V46.0321C104.043 44.6128 103.475 43.5645 102.339 42.8872C101.762 42.5743 101.12 42.3994 100.463 42.3763H94.794V54.3231H100.378C102.452 54.3231 104.193 53.728 105.602 52.5378C107.011 51.3476 108.055 49.6616 108.734 47.4798H109.176L107.215 56.151H85.1359V55.7252H85.6726Z" fill="#FED395"/>
<path d="M145.048 26.8191C144.709 26.8146 144.372 26.8779 144.058 27.0053C143.744 27.1328 143.458 27.3218 143.219 27.5613C142.72 28.0329 142.428 28.6824 142.407 29.3679V51.3059C142.383 52.9153 142.512 54.5233 142.792 56.1084L142.92 56.7471H142.536L121.008 36.2994V53.1734C121.003 53.5118 121.069 53.8475 121.201 54.1591C121.334 54.4707 121.53 54.7513 121.777 54.9831C122.016 55.2228 122.302 55.412 122.616 55.5395C122.93 55.667 123.267 55.7301 123.607 55.7252H124.424V56.151H111.503V55.7252H112.271C112.618 55.7328 112.962 55.6711 113.284 55.5436C113.606 55.4161 113.9 55.2255 114.147 54.9831C114.397 54.7451 114.594 54.4577 114.726 54.1392C114.857 53.8208 114.921 53.4783 114.912 53.1339V31.0711C114.938 29.5032 114.81 27.9365 114.531 26.3933L114.446 25.7546H114.827L136.354 46.2024V29.4105C136.347 29.0642 136.272 28.7227 136.133 28.4054C135.994 28.0881 135.793 27.8013 135.543 27.5613C135.303 27.3216 135.018 27.1323 134.703 27.0048C134.389 26.8774 134.052 26.8142 133.713 26.8191H132.948V26.3933H145.863V26.8191H145.048Z" fill="#FED395"/>
<path d="M159.967 28.2641H158.007V53.0489C157.998 53.5253 158.12 53.995 158.361 54.4068C158.601 54.8186 158.95 55.1569 159.37 55.3848C159.789 55.6107 160.259 55.7278 160.736 55.7254H161.288V56.1512H148.33V55.7254H148.885C149.359 55.741 149.829 55.6265 150.242 55.3942C150.656 55.162 150.998 54.821 151.23 54.4084C151.457 54.0044 151.589 53.5539 151.615 53.0915V29.4958C151.593 28.7815 151.295 28.1033 150.782 27.6041C150.536 27.3513 150.241 27.1513 149.915 27.0164C149.589 26.8814 149.238 26.8144 148.885 26.8194H148.33V26.3936H162.95C165.707 26.3936 168.038 26.9887 169.943 28.1789C170.919 28.787 171.714 29.6464 172.242 30.6668C172.825 31.7812 173.118 33.0234 173.096 34.2801C173.11 35.5542 172.87 36.8184 172.392 37.9998C171.886 39.1793 171.079 40.2052 170.049 40.9743C168.905 41.8409 167.538 42.368 166.106 42.495C167.753 43.0344 169.202 44.2814 170.452 46.236C173.524 51.1389 175.798 54.0587 177.274 54.9954C178.116 55.4768 179.072 55.7256 180.043 55.7163V56.1421H175.865C173.45 56.1421 171.433 55.8085 169.815 55.1414C168.162 54.4496 166.774 53.2512 165.85 51.7198C165.134 50.5138 164.479 49.2723 163.889 48.0001C163.092 46.3435 162.567 45.1604 162.313 44.4507C161.544 42.7495 160.577 41.8006 159.412 41.6039V41.1781H160.736C161.964 41.1943 163.16 40.7895 164.124 40.0315C165.104 39.265 165.765 38.018 166.106 36.2905C166.204 35.8279 166.261 35.3578 166.277 34.8853C166.277 32.5637 165.807 30.8848 164.868 29.8487C164.413 29.3407 163.854 28.9356 163.23 28.6608C162.605 28.3859 161.928 28.2475 161.245 28.2549L159.967 28.2641Z" fill="#FED395"/>
<path d="M195.684 25.7854C200.942 25.7854 205.12 27.1743 208.218 29.9522C211.317 32.7301 212.865 36.5035 212.863 41.2725C212.863 46.0314 211.315 49.8008 208.218 52.5807C205.122 55.3606 200.944 56.7495 195.684 56.7475C190.427 56.7475 186.25 55.3585 183.154 52.5807C180.057 49.8028 178.509 46.0334 178.509 41.2725C178.509 38.1276 179.212 35.3903 180.619 33.0606C182.035 30.7146 184.119 28.8425 186.606 27.6833C189.192 26.418 192.218 25.7854 195.684 25.7854ZM188.246 51.2698C190.076 53.7232 192.556 54.95 195.684 54.95C198.813 54.95 201.293 53.7232 203.122 51.2698C204.952 48.8204 205.867 45.4839 205.867 41.2604C205.867 38.4845 205.455 36.0615 204.632 33.9913C203.809 31.921 202.628 30.3344 201.091 29.2314C199.514 28.1107 197.615 27.5282 195.678 27.5707C192.554 27.5707 190.074 28.7964 188.24 31.2479C186.407 33.6993 185.492 37.0368 185.496 41.2604C185.498 45.49 186.415 48.8305 188.246 51.282V51.2698Z" fill="#FED395"/>
<path d="M256 26.8192H255.615C254.853 26.8343 254.109 27.055 253.462 27.458C252.749 27.8697 252.2 28.5142 251.907 29.2828L244.747 52.1972C244.288 53.5985 244.043 55.0605 244.021 56.5343V56.9145H243.597L234.305 36.3846L227.568 52.2002C226.946 53.6987 226.6 55.2967 226.546 56.9175H226.12L215.934 29.2859C215.629 28.5657 215.121 27.9494 214.471 27.512C213.821 27.0746 213.058 26.835 212.274 26.8223H211.936V26.3934H224.936V26.8192H224.543C224.289 26.8011 224.035 26.8438 223.802 26.9438C223.568 27.0438 223.362 27.1982 223.201 27.3941C222.934 27.6947 222.776 28.076 222.753 28.4768C222.75 28.8099 222.808 29.1406 222.924 29.4532L228.166 44.2468L235.881 25.7122L236.263 25.7547L244.747 44.4171L249.016 29.4532C249.101 29.1346 249.144 28.8064 249.144 28.4768C249.124 28.0828 248.983 27.7046 248.739 27.3941C248.581 27.1935 248.375 27.0357 248.14 26.9353C247.905 26.8348 247.648 26.7949 247.394 26.8192H247.019V26.3934H256.012L256 26.8192Z" fill="#FED395"/>
<path d="M67.0669 9.31612C66.5172 10.1496 66.2188 11.1228 66.2069 12.1203C66.2324 12.9728 66.5014 13.8002 66.9822 14.5055C67.463 15.2107 68.1356 15.7645 68.921 16.1016C69.5833 16.3779 70.2952 16.5166 71.0131 16.5092C71.7168 16.521 72.4142 16.3744 73.0533 16.0803C73.6104 15.8417 74.0813 15.4393 74.4033 14.9269C74.7253 14.4145 74.8831 13.8163 74.8556 13.2122C74.8358 12.6482 74.6618 12.1002 74.3524 11.6276C73.9629 11.0204 73.4419 10.508 72.8276 10.1282L69.168 7.69502C67.7449 6.80894 67.0333 5.66637 67.0333 4.26729C67.0328 4.12407 67.0399 3.98092 67.0547 3.83845C67.0854 3.32207 67.2213 2.81735 67.4541 2.35509C67.6869 1.89284 68.0117 1.48273 68.4087 1.1498C69.2016 0.456346 70.2639 0.109619 71.5955 0.109619C72.5871 0.122352 73.5769 0.194463 74.5598 0.325563H75.8894L75.6119 3.47347H75.4167C75.4211 3.12977 75.3461 2.78967 75.1975 2.47954C75.0489 2.1694 74.8307 1.89756 74.5598 1.6851C73.924 1.21028 73.1421 0.971491 72.3488 1.00989C71.2326 1.00989 70.4214 1.34445 69.9091 2.01661C69.6719 2.33961 69.5438 2.72943 69.5431 3.12979C69.5333 3.50216 69.6639 3.86467 69.9091 4.14564C70.2502 4.50293 70.6403 4.81014 71.068 5.05807L75.0843 7.66765C75.8473 8.14548 76.4983 8.78131 76.9934 9.53206C77.5147 10.2972 77.7989 11.1984 77.8107 12.1234C77.8009 12.7395 77.6821 13.349 77.46 13.9239C77.2044 14.5877 76.8093 15.1892 76.3011 15.688C75.7078 16.2672 75.0021 16.7194 74.2274 17.0171C73.3357 17.3691 72.3836 17.5438 71.4248 17.5311C70.4717 17.5441 69.5262 17.3619 68.6466 16.9958C67.9226 16.7143 67.2782 16.2612 66.7692 15.6756C66.2601 15.0901 65.9018 14.3897 65.725 13.635C65.6388 13.2847 65.5958 12.9251 65.5969 12.5644C65.6127 11.3169 66.0609 10.1132 66.8656 9.15796L67.0669 9.31612Z" fill="#FED395"/>
<path d="M79.5947 15.1801C79.7724 15.1829 79.9489 15.1492 80.113 15.0812C80.2772 15.0132 80.4257 14.9123 80.5492 14.7847C80.8086 14.5343 80.9596 14.1927 80.97 13.8328V1.90719C80.9581 1.67622 80.8864 1.45227 80.7619 1.25718C80.6374 1.06209 80.4643 0.902513 80.2595 0.794015C80.0561 0.681182 79.8274 0.621541 79.5947 0.620652H79.3171V0.40775H87.5511C88.0406 0.40374 88.5291 0.361026 89.0119 0.280009C89.3914 0.229608 89.7651 0.143037 90.128 0.0214844V3.76856H89.9115V3.51308C89.9254 3.23016 89.8833 2.94729 89.7875 2.68062C89.6917 2.41394 89.5442 2.1687 89.3534 1.95889C88.948 1.55707 88.4002 1.33085 87.8286 1.32931H84.1996V7.55822H87.0327C87.2761 7.55883 87.5172 7.51099 87.7418 7.4175C87.9665 7.32402 88.1702 7.18677 88.341 7.0138C88.5108 6.84294 88.644 6.63946 88.7326 6.41569C88.8212 6.19192 88.8633 5.95254 88.8563 5.71206V5.5174H89.0729V10.4719H88.8563V10.2986C88.8737 9.98136 88.8029 9.66551 88.6517 9.38589C88.5004 9.10628 88.2747 8.87375 87.9994 8.71398C87.708 8.55781 87.3846 8.47041 87.054 8.45849H84.1996V14.4745H87.0113C87.9701 14.5023 88.9057 14.1775 89.6401 13.5621C90.3998 12.8815 90.948 11.998 91.2198 11.0164H91.4333L90.4452 15.3839H79.3263V15.168L79.5947 15.1801Z" fill="#FED395"/>
<path d="M101.631 15.6848C98.8682 15.6848 96.6999 14.9893 95.1263 13.5984C93.5527 12.2074 92.7659 10.3085 92.7659 7.90171C92.7659 5.48882 93.5455 3.58689 95.1049 2.19593C96.6643 0.804967 98.8041 0.108473 101.524 0.106445C103.598 0.106445 105.38 0.492711 106.87 1.26524L106.913 4.94541H106.736C106.004 2.32164 104.336 1.00875 101.732 1.00672C100.967 0.975222 100.206 1.12407 99.5107 1.44117C98.8149 1.75827 98.204 2.23465 97.7276 2.83159C96.7476 4.04818 96.2577 5.7149 96.2577 7.83175C96.2577 9.94861 96.7263 11.6255 97.6636 12.8623C98.0998 13.4625 98.6731 13.9504 99.336 14.2857C99.9989 14.621 100.732 14.7941 101.476 14.7906C103.135 14.7906 104.401 14.376 105.275 13.5467C106.15 12.7174 106.76 11.2473 107.105 9.13654H107.279L107.492 12.8197C106.348 14.7379 104.394 15.6929 101.631 15.6848Z" fill="#FED395"/>
<path d="M115.309 1.35037H114.321V13.8204C114.316 14.0604 114.377 14.2971 114.498 14.5047C114.619 14.7123 114.795 14.8827 115.007 14.9974C115.217 15.1113 115.453 15.1699 115.693 15.1677H115.973V15.3837H109.447V15.1677H109.725C109.961 15.1789 110.196 15.1256 110.403 15.0135C110.611 14.9015 110.785 14.7351 110.905 14.5321C111.022 14.3295 111.089 14.1023 111.1 13.869V1.97083C111.09 1.61077 110.939 1.26894 110.679 1.01885C110.556 0.89062 110.408 0.789062 110.244 0.720513C110.079 0.651963 109.903 0.617891 109.725 0.620421H109.447V0.407519H116.8C118.037 0.370058 119.26 0.686678 120.322 1.31996C120.814 1.62509 121.215 2.05694 121.481 2.57C121.775 3.13305 121.922 3.76035 121.911 4.39487C121.917 5.03648 121.797 5.67307 121.557 6.26841C121.302 6.86313 120.894 7.38027 120.374 7.76785C119.798 8.20536 119.11 8.47206 118.389 8.53734C119.218 8.80904 119.948 9.43761 120.578 10.423C122.124 12.8927 123.269 14.3628 124.015 14.8332C124.439 15.0754 124.92 15.2003 125.409 15.1951V15.411H123.305C122.265 15.4426 121.229 15.2711 120.255 14.9062C119.424 14.5572 118.724 13.9546 118.258 13.1847C118.001 12.7711 117.672 12.1445 117.27 11.3112C116.867 10.4778 116.605 9.87862 116.477 9.52277C116.088 8.66508 115.601 8.18656 115.016 8.0872V7.8743H115.681C116.299 7.88242 116.902 7.67842 117.388 7.29642C117.882 6.91016 118.215 6.28362 118.386 5.41072C118.435 5.17857 118.464 4.9424 118.471 4.7051C118.471 3.53313 118.235 2.6876 117.764 2.16852C117.534 1.91124 117.252 1.70631 116.937 1.56773C116.621 1.42916 116.279 1.3602 115.934 1.36558L115.309 1.35037Z" fill="#FED395"/>
<path d="M125.418 15.1801C125.596 15.1829 125.773 15.1493 125.938 15.0813C126.103 15.0133 126.252 14.9124 126.376 14.7847C126.633 14.533 126.783 14.1919 126.794 13.8328V1.90719C126.782 1.67645 126.711 1.45259 126.587 1.25747C126.463 1.06236 126.29 0.902668 126.086 0.794015C125.881 0.681544 125.652 0.621945 125.418 0.620652H125.141V0.40775H133.375C133.864 0.403868 134.353 0.361153 134.835 0.280009C135.215 0.229998 135.589 0.143419 135.952 0.0214844V3.76856H135.738V3.51308C135.75 3.22935 135.706 2.94603 135.608 2.67934C135.51 2.41265 135.361 2.16783 135.168 1.95889C134.763 1.55651 134.215 1.33019 133.643 1.32931H130.014V7.55822H132.847C133.091 7.55923 133.333 7.51159 133.558 7.41809C133.783 7.3246 133.987 7.18714 134.158 7.0138C134.328 6.84252 134.46 6.63897 134.549 6.4153C134.638 6.19163 134.68 5.95245 134.674 5.71206V5.5174H134.887V10.4719H134.674V10.2986C134.691 9.981 134.62 9.66481 134.468 9.3851C134.316 9.10539 134.09 8.87309 133.814 8.71398C133.522 8.55751 133.199 8.47009 132.868 8.45849H130.014V14.4745H132.826C133.785 14.5028 134.72 14.178 135.454 13.5621C136.215 12.8823 136.763 11.9985 137.034 11.0164H137.248L136.263 15.3839H125.141V15.168L125.418 15.1801Z" fill="#FED395"/>
<path d="M146.567 1.28654V13.8538C146.577 14.2097 146.727 14.5474 146.983 14.7951C147.239 15.0428 147.583 15.1809 147.939 15.1799H148.211L148.232 15.3959H141.691V15.1799H141.971C142.145 15.1814 142.317 15.1482 142.477 15.0824C142.637 15.0166 142.783 14.9194 142.905 14.7967C143.159 14.5571 143.317 14.2323 143.347 13.8843V1.28654H140.447C140.158 1.27678 139.87 1.32566 139.6 1.43023C139.331 1.53479 139.085 1.69285 138.879 1.89483C138.684 2.10423 138.532 2.35022 138.432 2.61857C138.333 2.88692 138.288 3.17229 138.3 3.45814V3.71362H138.086V0C138.437 0.12375 138.8 0.2104 139.169 0.258524C139.648 0.339907 140.134 0.382625 140.62 0.386265H149.272C149.849 0.383561 150.423 0.326533 150.989 0.215944C151.265 0.160938 151.537 0.0888168 151.803 0V3.72579H151.59V3.47031C151.603 3.18436 151.558 2.89876 151.458 2.6303C151.359 2.36183 151.207 2.11591 151.01 1.907C150.804 1.70502 150.559 1.54696 150.289 1.44239C150.02 1.33783 149.732 1.28894 149.443 1.2987L146.567 1.28654Z" fill="#FED395"/>
<path d="M153.157 13.4038C153.131 12.4815 153.361 11.5698 153.822 10.7699H154.005C153.992 10.884 153.985 10.9988 153.984 11.1136C153.98 11.5926 154.072 12.0675 154.255 12.5104C154.438 12.9534 154.707 13.3554 155.048 13.6928C155.756 14.4288 156.726 14.7968 157.958 14.7968C158.915 14.7968 159.662 14.5687 160.199 14.1125C160.459 13.9042 160.668 13.6395 160.81 13.3386C160.952 13.0377 161.024 12.7084 161.019 12.3758C161.019 11.5344 160.447 10.7993 159.302 10.1708L155.561 7.71022C154.89 7.35548 154.335 6.81604 153.963 6.15604C153.649 5.5884 153.482 4.9518 153.478 4.30379C153.478 2.96352 153.904 1.92841 154.755 1.19846C155.676 0.446705 156.842 0.0581758 158.031 0.106572C159.007 0.120543 159.982 0.192653 160.949 0.322516H162.303L162.023 3.47043H161.809C161.82 3.12882 161.751 2.78937 161.608 2.47897C161.464 2.16857 161.25 1.89573 160.983 1.68205C160.352 1.20484 159.572 0.965657 158.781 1.00684C157.665 1.00684 156.857 1.34952 156.357 2.03486C156.102 2.35019 155.966 2.74351 155.969 3.14803C155.969 3.83337 156.47 4.46904 157.473 5.05503L161.571 7.71022C162.171 8.01867 162.67 8.48994 163.012 9.06958C163.355 9.64922 163.525 10.3136 163.505 10.9859C163.505 12.5127 162.986 13.6796 161.95 14.4866C160.913 15.2936 159.535 15.6991 157.817 15.7032C156.906 15.7127 155.999 15.5939 155.121 15.3504C154.439 15.1966 153.809 14.8686 153.292 14.3984C153.188 14.0774 153.143 13.7407 153.157 13.4038Z" fill="#FED395"/>
<path d="M179.317 0.106607C181.96 0.106607 184.064 0.806142 185.63 2.20521C187.195 3.60429 187.975 5.50317 187.969 7.90187C187.969 10.2985 187.189 12.1974 185.63 13.5985C184.07 14.9996 181.966 15.6981 179.317 15.6941C176.674 15.6941 174.571 14.9956 173.007 13.5985C171.444 12.2015 170.659 10.3026 170.653 7.90187C170.618 6.44957 170.986 5.01587 171.717 3.7594C172.433 2.57609 173.486 1.63256 174.743 1.04946C176.176 0.393791 177.74 0.071398 179.317 0.106607ZM175.56 12.9446C175.999 13.5201 176.566 13.9867 177.216 14.3078C177.866 14.629 178.581 14.796 179.306 14.796C180.032 14.796 180.747 14.629 181.397 14.3078C182.047 13.9867 182.614 13.5201 183.053 12.9446C183.976 11.7098 184.437 10.0289 184.437 7.90187C184.466 6.65786 184.259 5.41964 183.828 4.25212C183.477 3.29847 182.857 2.4662 182.043 1.85545C181.25 1.28671 180.294 0.98905 179.317 1.00688C178.588 0.984202 177.865 1.14141 177.212 1.46454C176.558 1.78767 175.995 2.26672 175.572 2.85913C174.649 4.09396 174.188 5.77487 174.188 7.90187C174.188 10.0289 174.645 11.7098 175.56 12.9446Z" fill="#FED395"/>
<path d="M194.077 1.32894V7.55785H196.91C197.154 7.56005 197.395 7.51384 197.62 7.42193C197.845 7.33002 198.05 7.19424 198.222 7.02255C198.393 6.85073 198.527 6.64577 198.615 6.42032C198.704 6.19487 198.745 5.9537 198.737 5.71168V5.51703H198.95V10.4716H198.737V10.2982C198.744 10.0588 198.702 9.82058 198.613 9.5978C198.525 9.37503 198.393 9.17231 198.224 9.00185C198.056 8.83138 197.854 8.69669 197.632 8.60586C197.41 8.51504 197.172 8.46995 196.932 8.47333H194.077V13.8324C194.067 14.0735 194.126 14.3125 194.247 14.5211C194.369 14.7297 194.548 14.8992 194.763 15.0094C194.975 15.1229 195.212 15.1815 195.453 15.1797H195.709L195.73 15.3957H189.204V15.1797H189.481C189.66 15.1825 189.837 15.1489 190.001 15.0809C190.166 15.0129 190.315 14.912 190.439 14.7844C190.696 14.5327 190.846 14.1916 190.857 13.8324V1.90681C190.833 1.55772 190.676 1.23101 190.418 0.994375C190.294 0.87279 190.148 0.776839 189.987 0.712095C189.827 0.647352 189.655 0.615107 189.481 0.617234H189.204V0.404332H197.438C198.021 0.415404 198.605 0.361336 199.176 0.243135C199.46 0.185104 199.74 0.109943 200.015 0.0180664V3.6374H199.801V3.4245C199.816 3.14735 199.775 2.8701 199.68 2.60897C199.586 2.34785 199.441 2.1081 199.252 1.90377C199.056 1.71057 198.823 1.55895 198.567 1.45806C198.311 1.35717 198.037 1.30911 197.761 1.31677L194.077 1.32894Z" fill="#FED395"/>
</g>
<defs>
<clipPath id="clip0_20_3970">
<rect width="256" height="57" fill="white"/>
</clipPath>
</defs>
</svg>
