<svg width="114" height="80" viewBox="0 0 114 80" fill="none" xmlns="http://www.w3.org/2000/svg">
<mask id="path-1-inside-1_1235_3287" fill="white">
<path d="M111.122 12.838C109.822 7.94618 105.995 4.09369 101.134 2.78626C92.3252 0.410156 57 0.410156 57 0.410156C57 0.410156 21.6753 0.410156 12.866 2.78626C8.00499 4.09369 4.17657 7.94618 2.87828 12.838C0.518066 21.7045 0.518066 40.2045 0.518066 40.2045C0.518066 40.2045 0.518066 58.7035 2.87828 67.5711C4.17657 72.4633 8.00499 76.3149 12.8655 77.6237C21.6748 79.9989 56.9995 79.9989 56.9995 79.9989C56.9995 79.9989 92.3247 79.9989 101.134 77.6237C105.995 76.3154 109.822 72.4633 111.121 67.5715C113.482 58.704 113.482 40.205 113.482 40.205C113.482 40.205 113.482 21.705 111.121 12.8385"/>
</mask>
<path d="M101.134 2.78626L100.353 5.68273L100.355 5.6833L101.134 2.78626ZM12.866 2.78626L13.6452 5.6833L13.6472 5.68274L12.866 2.78626ZM2.87828 12.838L5.77733 13.6097L5.7779 13.6075L2.87828 12.838ZM2.87828 67.5711L5.77792 66.8016L5.77735 66.7994L2.87828 67.5711ZM12.8655 77.6237L13.6465 74.7272L13.6456 74.7269L12.8655 77.6237ZM56.9995 79.9989V82.9989V79.9989ZM101.134 77.6237L100.354 74.7269L100.353 74.7272L101.134 77.6237ZM111.121 67.5715L108.222 66.7998L108.222 66.8015L111.121 67.5715ZM113.482 40.205H116.482H113.482ZM114.021 12.0679C112.448 6.14626 107.818 1.47734 101.913 -0.110786L100.355 5.6833C104.172 6.71003 107.197 9.74611 108.222 13.6081L114.021 12.0679ZM101.915 -0.11022C99.3995 -0.788841 95.2688 -1.24694 90.7416 -1.57937C86.1295 -1.91803 80.8396 -2.14239 75.8534 -2.29149C70.8623 -2.44074 66.1513 -2.51528 62.6895 -2.55254C60.958 -2.57118 59.5376 -2.5805 58.5492 -2.58517C58.055 -2.5875 57.6688 -2.58867 57.4055 -2.58926C57.2739 -2.58955 57.1731 -2.5897 57.1048 -2.58977C57.0707 -2.58981 57.0448 -2.58982 57.0272 -2.58983C57.0185 -2.58984 57.0118 -2.58984 57.0072 -2.58984C57.005 -2.58984 57.0032 -2.58984 57.002 -2.58984C57.0014 -2.58984 57.0009 -2.58984 57.0006 -2.58984C57.0002 -2.58984 57 -2.58984 57 0.410156C57 3.41016 57 3.41016 57.0002 3.41016C57.0004 3.41016 57.0007 3.41016 57.0012 3.41016C57.0022 3.41016 57.0036 3.41016 57.0056 3.41016C57.0097 3.41016 57.0158 3.41016 57.024 3.41016C57.0405 3.41017 57.0654 3.41019 57.0984 3.41023C57.1644 3.4103 57.2629 3.41044 57.3922 3.41073C57.6507 3.4113 58.032 3.41246 58.5209 3.41476C59.4988 3.41938 60.907 3.42862 62.6249 3.44711C66.0619 3.4841 70.7327 3.55806 75.674 3.70583C80.6202 3.85374 85.8133 4.0749 90.3022 4.40452C94.8759 4.74036 98.4641 5.1733 100.353 5.68273L101.915 -0.11022ZM57 0.410156C57 -2.58984 56.9998 -2.58984 56.9994 -2.58984C56.9991 -2.58984 56.9986 -2.58984 56.998 -2.58984C56.9968 -2.58984 56.995 -2.58984 56.9928 -2.58984C56.9882 -2.58984 56.9815 -2.58984 56.9728 -2.58983C56.9552 -2.58982 56.9293 -2.58981 56.8952 -2.58977C56.8269 -2.5897 56.7261 -2.58955 56.5945 -2.58926C56.3312 -2.58867 55.945 -2.5875 55.4508 -2.58517C54.4624 -2.5805 53.0421 -2.57118 51.3106 -2.55254C47.8488 -2.51528 43.1378 -2.44074 38.1468 -2.29149C33.1606 -2.14239 27.8708 -1.91803 23.2586 -1.57937C18.7314 -1.24694 14.6006 -0.788841 12.0847 -0.110231L13.6472 5.68274C15.536 5.1733 19.1243 4.74036 23.698 4.40452C28.1869 4.0749 33.38 3.85374 38.3261 3.70583C43.2675 3.55806 47.9382 3.4841 51.3752 3.44711C53.093 3.42862 54.5012 3.41938 55.4791 3.41476C55.968 3.41246 56.3493 3.4113 56.6078 3.41073C56.7371 3.41044 56.8356 3.4103 56.9016 3.41023C56.9346 3.41019 56.9595 3.41017 56.976 3.41016C56.9842 3.41016 56.9903 3.41016 56.9944 3.41016C56.9964 3.41016 56.9978 3.41016 56.9988 3.41016C56.9993 3.41016 56.9996 3.41016 56.9998 3.41016C57 3.41016 57 3.41016 57 0.410156ZM12.0868 -0.110786C6.18255 1.47724 1.55048 6.14598 -0.0213371 12.0684L5.7779 13.6075C6.80265 9.74639 9.82744 6.71013 13.6452 5.6833L12.0868 -0.110786ZM-0.020767 12.0663C-1.29111 16.8385 -1.88845 23.9691 -2.18294 29.692C-2.33249 32.5982 -2.40715 35.2206 -2.44447 37.1163C-2.46315 38.0648 -2.47251 38.833 -2.47721 39.3658C-2.47956 39.6323 -2.48074 39.84 -2.48133 39.982C-2.48163 40.0531 -2.48178 40.1077 -2.48186 40.1451C-2.48189 40.1637 -2.48191 40.1781 -2.48192 40.1881C-2.48193 40.193 -2.48193 40.1969 -2.48193 40.1996C-2.48193 40.201 -2.48193 40.2021 -2.48193 40.2029C-2.48193 40.2033 -2.48193 40.2037 -2.48193 40.2039C-2.48193 40.2043 -2.48193 40.2045 0.518066 40.2045C3.51807 40.2045 3.51807 40.2046 3.51807 40.2047C3.51807 40.2046 3.51807 40.2046 3.51807 40.2044C3.51807 40.2041 3.51807 40.2035 3.51807 40.2027C3.51807 40.2009 3.51807 40.1981 3.51807 40.1941C3.51808 40.1862 3.5181 40.1739 3.51813 40.1573C3.5182 40.1241 3.51834 40.0738 3.51862 40.0071C3.51917 39.8739 3.5203 39.6754 3.52256 39.4187C3.52708 38.9052 3.53616 38.1588 3.55436 37.2344C3.59079 35.3843 3.66365 32.8275 3.80913 30.0004C4.10469 24.2567 4.68746 17.704 5.77733 13.6097L-0.020767 12.0663ZM0.518066 40.2045C-2.48193 40.2045 -2.48193 40.2048 -2.48193 40.2051C-2.48193 40.2053 -2.48193 40.2057 -2.48193 40.2061C-2.48193 40.2069 -2.48193 40.208 -2.48193 40.2094C-2.48193 40.2121 -2.48193 40.216 -2.48192 40.221C-2.48191 40.2309 -2.48189 40.2453 -2.48186 40.264C-2.48178 40.3013 -2.48163 40.356 -2.48133 40.427C-2.48074 40.569 -2.47956 40.7767 -2.47721 41.0432C-2.47251 41.5759 -2.46315 42.3441 -2.44447 43.2926C-2.40715 45.1882 -2.33249 47.8105 -2.18294 50.7166C-1.88845 56.4395 -1.29111 63.57 -0.0207879 68.3427L5.77735 66.7994C4.68745 62.7046 4.10469 56.1518 3.80913 50.4083C3.66365 47.5812 3.59079 45.0246 3.55436 43.1745C3.53616 42.2501 3.52708 41.5038 3.52256 40.9903C3.5203 40.7336 3.51917 40.5352 3.51862 40.4019C3.51834 40.3353 3.5182 40.2849 3.51813 40.2517C3.5181 40.2351 3.51808 40.2228 3.51807 40.2149C3.51807 40.211 3.51807 40.2081 3.51807 40.2064C3.51807 40.2055 3.51807 40.2049 3.51807 40.2046C3.51807 40.2045 3.51807 40.2044 3.51807 40.2044C3.51807 40.2044 3.51807 40.2045 0.518066 40.2045ZM-0.0213559 68.3405C1.55054 74.2638 6.18269 78.931 12.0854 80.5206L13.6456 74.7269C9.82729 73.6987 6.8026 70.6628 5.77792 66.8016L-0.0213559 68.3405ZM12.0845 80.5203C14.6003 81.1986 18.731 81.6565 23.2582 81.9888C27.8703 82.3273 33.1602 82.5516 38.1464 82.7007C43.1374 82.8498 47.8484 82.9244 51.3101 82.9616C53.0416 82.9802 54.462 82.9895 55.4503 82.9942C55.9445 82.9965 56.3308 82.9977 56.594 82.9983C56.7256 82.9986 56.8265 82.9987 56.8947 82.9988C56.9288 82.9988 56.9547 82.9989 56.9723 82.9989C56.9811 82.9989 56.9877 82.9989 56.9923 82.9989C56.9946 82.9989 56.9963 82.9989 56.9975 82.9989C56.9981 82.9989 56.9986 82.9989 56.9989 82.9989C56.9993 82.9989 56.9995 82.9989 56.9995 79.9989C56.9995 76.9989 56.9995 76.9989 56.9993 76.9989C56.9991 76.9989 56.9988 76.9989 56.9983 76.9989C56.9974 76.9989 56.9959 76.9989 56.9939 76.9989C56.9899 76.9989 56.9837 76.9989 56.9755 76.9989C56.959 76.9989 56.9342 76.9988 56.9012 76.9988C56.8352 76.9987 56.7366 76.9986 56.6073 76.9983C56.3488 76.9977 55.9675 76.9966 55.4786 76.9943C54.5007 76.9897 53.0925 76.9804 51.3747 76.9619C47.9377 76.925 43.267 76.851 38.3256 76.7033C33.3794 76.5555 28.1864 76.3344 23.6975 76.0049C19.1238 75.6692 15.5353 75.2364 13.6465 74.7272L12.0845 80.5203ZM56.9995 79.9989C56.9995 82.9989 56.9998 82.9989 57.0001 82.9989C57.0004 82.9989 57.0009 82.9989 57.0015 82.9989C57.0027 82.9989 57.0045 82.9989 57.0068 82.9989C57.0113 82.9989 57.018 82.9989 57.0268 82.9989C57.0443 82.9989 57.0703 82.9988 57.1044 82.9988C57.1726 82.9987 57.2734 82.9986 57.4051 82.9983C57.6683 82.9977 58.0546 82.9965 58.5488 82.9942C59.5371 82.9895 60.9575 82.9802 62.689 82.9616C66.1508 82.9244 70.8618 82.8498 75.8529 82.7007C80.8391 82.5516 86.1289 82.3273 90.741 81.9888C95.2682 81.6565 99.3988 81.1986 101.915 80.5203L100.353 74.7272C98.4638 75.2364 94.8755 75.6692 90.3018 76.0049C85.8129 76.3344 80.6198 76.5555 75.6736 76.7033C70.7322 76.851 66.0614 76.925 62.6244 76.9619C60.9066 76.9804 59.4984 76.9897 58.5204 76.9943C58.0315 76.9966 57.6503 76.9977 57.3917 76.9983C57.2625 76.9986 57.1639 76.9987 57.0979 76.9988C57.0649 76.9988 57.04 76.9989 57.0236 76.9989C57.0153 76.9989 57.0092 76.9989 57.0052 76.9989C57.0032 76.9989 57.0017 76.9989 57.0007 76.9989C57.0003 76.9989 57 76.9989 56.9997 76.9989C56.9996 76.9989 56.9995 76.9989 56.9995 79.9989ZM101.913 80.5206C107.817 78.9315 112.448 74.2635 114.021 68.3416L108.222 66.8015C107.196 70.6632 104.172 73.6992 100.354 74.7269L101.913 80.5206ZM114.02 68.3433C115.291 63.5706 115.888 56.4401 116.183 50.7172C116.332 47.811 116.407 45.1887 116.444 43.2931C116.463 42.3446 116.473 41.5764 116.477 41.0436C116.48 40.7772 116.481 40.5695 116.481 40.4275C116.482 40.3565 116.482 40.3018 116.482 40.2645C116.482 40.2458 116.482 40.2314 116.482 40.2215C116.482 40.2165 116.482 40.2126 116.482 40.2099C116.482 40.2085 116.482 40.2074 116.482 40.2066C116.482 40.2062 116.482 40.2058 116.482 40.2056C116.482 40.2053 116.482 40.205 113.482 40.205C110.482 40.205 110.482 40.2049 110.482 40.2048C110.482 40.2049 110.482 40.2049 110.482 40.2051C110.482 40.2054 110.482 40.206 110.482 40.2069C110.482 40.2086 110.482 40.2115 110.482 40.2154C110.482 40.2233 110.482 40.2356 110.482 40.2522C110.482 40.2854 110.482 40.3357 110.481 40.4024C110.481 40.5356 110.48 40.734 110.477 40.9908C110.473 41.5043 110.464 42.2506 110.446 43.175C110.409 45.025 110.336 47.5817 110.191 50.4087C109.895 56.1522 109.312 62.705 108.222 66.7998L114.02 68.3433ZM113.482 40.205C116.482 40.205 116.482 40.2047 116.482 40.2044C116.482 40.2042 116.482 40.2038 116.482 40.2034C116.482 40.2026 116.482 40.2015 116.482 40.2001C116.482 40.1974 116.482 40.1935 116.482 40.1885C116.482 40.1786 116.482 40.1642 116.482 40.1455C116.482 40.1082 116.482 40.0535 116.481 39.9825C116.481 39.8405 116.48 39.6328 116.477 39.3663C116.473 38.8335 116.463 38.0653 116.444 37.1168C116.407 35.2211 116.332 32.5987 116.183 29.6925C115.888 23.9695 115.291 16.8389 114.02 12.0666L108.222 13.6103C109.312 17.7046 109.895 24.2573 110.191 30.0009C110.336 32.828 110.409 35.3848 110.446 37.2349C110.464 38.1593 110.473 38.9057 110.477 39.4192C110.48 39.6759 110.481 39.8744 110.481 40.0076C110.482 40.0743 110.482 40.1246 110.482 40.1578C110.482 40.1744 110.482 40.1867 110.482 40.1946C110.482 40.1985 110.482 40.2014 110.482 40.2031C110.482 40.204 110.482 40.2046 110.482 40.2049C110.482 40.2051 110.482 40.2051 110.482 40.2052C110.482 40.2051 110.482 40.205 113.482 40.205Z" fill="#FED395" mask="url(#path-1-inside-1_1235_3287)"/>
<path d="M46.9468 25.9874L71.9378 40.2055L46.9468 54.4219V25.9874Z" stroke="#FED395" stroke-width="3"/>
</svg>
