<svg width="117" height="75" viewBox="0 0 117 75" fill="none" xmlns="http://www.w3.org/2000/svg">
<path d="M113.381 33.473L113.382 33.4737C115.434 35.9736 115.435 39.0932 113.38 41.5425L113.38 41.5427C105.174 51.3246 95.8618 59.7523 84.7635 66.022C77.7988 69.9539 70.4505 72.6045 62.5298 73.3115L62.5294 73.3115C54.8959 73.9948 47.5119 72.8041 40.3545 69.9989L39.9399 71.0566L40.3545 69.9989C30.1566 66.0021 21.3792 59.7588 13.4195 52.2089L13.4194 52.2088C11.2978 50.1968 9.33153 48.0853 7.32873 45.9344C6.25765 44.7842 5.17611 43.6227 4.05476 42.4592C3.01369 41.3789 2.30448 40.0991 1.8126 38.6182V36.3182C2.34594 34.4664 3.60028 33.0252 5.1378 31.2732C13.242 22.0451 22.3263 14.1088 33.1396 8.35866C40.7138 4.33394 48.6304 1.74795 57.1797 1.51649L57.1391 0.0170431L57.1798 1.51649C65.5006 1.29113 73.3201 3.38925 80.8496 6.99389C91.2753 11.9855 100.144 19.1299 108.127 27.5313C109.947 29.4478 111.707 31.4315 113.381 33.473ZM31.8473 37.4559C31.8252 51.8945 43.305 63.6167 57.6711 63.9859L57.6813 63.9961L58.3012 63.9978C72.9336 64.0363 84.8033 52.1942 84.8356 37.5376C84.8709 22.894 73.0354 11.029 58.3801 11.0065C43.7235 10.9841 31.8698 22.8056 31.8473 37.4559Z" stroke="#FED395" stroke-width="3"/>
</svg>
